G04 EAGLE Gerber RS-274X export*
G75*
%MOMM*%
%FSLAX34Y34*%
%LPD*%
%INBottom Copper*%
%IPPOS*%
%AMOC8*
5,1,8,0,0,1.08239X$1,22.5*%
G01*
%ADD10R,1.288000X1.288000*%
%ADD11C,1.288000*%
%ADD12R,1.575000X1.575000*%
%ADD13C,1.575000*%
%ADD14R,2.625000X2.625000*%
%ADD15C,2.625000*%
%ADD16R,2.025000X2.025000*%
%ADD17C,2.025000*%
%ADD18C,1.508000*%
%ADD19C,1.800000*%
%ADD20C,1.408000*%
%ADD21R,1.493000X1.493000*%
%ADD22C,1.493000*%
%ADD23C,1.308000*%
%ADD24C,0.406400*%

G36*
X788167Y10178D02*
X788167Y10178D01*
X788337Y10189D01*
X788368Y10197D01*
X788400Y10201D01*
X788562Y10250D01*
X788725Y10295D01*
X788754Y10309D01*
X788784Y10319D01*
X788934Y10399D01*
X789085Y10475D01*
X789110Y10495D01*
X789139Y10511D01*
X789268Y10619D01*
X789402Y10723D01*
X789423Y10748D01*
X789448Y10768D01*
X789554Y10900D01*
X789664Y11029D01*
X789680Y11057D01*
X789700Y11082D01*
X789778Y11232D01*
X789861Y11380D01*
X789871Y11411D01*
X789886Y11439D01*
X789932Y11602D01*
X789984Y11763D01*
X789989Y11799D01*
X789997Y11826D01*
X790004Y11912D01*
X790028Y12092D01*
X790090Y13362D01*
X790087Y13430D01*
X790092Y13498D01*
X790077Y13631D01*
X790070Y13764D01*
X790053Y13830D01*
X790045Y13897D01*
X790004Y14025D01*
X789971Y14155D01*
X789942Y14216D01*
X789921Y14280D01*
X789855Y14397D01*
X789797Y14518D01*
X789756Y14572D01*
X789723Y14631D01*
X789635Y14732D01*
X789554Y14839D01*
X789504Y14884D01*
X789459Y14936D01*
X789354Y15018D01*
X789253Y15107D01*
X789195Y15141D01*
X789141Y15182D01*
X789021Y15242D01*
X788906Y15309D01*
X788842Y15331D01*
X788781Y15362D01*
X788651Y15396D01*
X788525Y15440D01*
X788457Y15449D01*
X788392Y15466D01*
X788211Y15481D01*
X788125Y15492D01*
X788097Y15490D01*
X788061Y15493D01*
X574097Y15493D01*
X571856Y16421D01*
X555771Y32506D01*
X554843Y34747D01*
X554843Y39149D01*
X554841Y39172D01*
X554843Y39194D01*
X554821Y39371D01*
X554803Y39550D01*
X554797Y39571D01*
X554794Y39593D01*
X554738Y39763D01*
X554685Y39935D01*
X554675Y39954D01*
X554668Y39976D01*
X554579Y40132D01*
X554493Y40289D01*
X554479Y40306D01*
X554468Y40325D01*
X554350Y40461D01*
X554236Y40598D01*
X554218Y40612D01*
X554204Y40629D01*
X554062Y40738D01*
X553922Y40850D01*
X553902Y40861D01*
X553884Y40874D01*
X553589Y41026D01*
X552902Y41311D01*
X551602Y42610D01*
X551539Y42662D01*
X551482Y42722D01*
X551383Y42790D01*
X551291Y42865D01*
X551218Y42904D01*
X551151Y42951D01*
X551041Y42998D01*
X550935Y43054D01*
X550856Y43078D01*
X550781Y43110D01*
X550664Y43135D01*
X550549Y43169D01*
X550467Y43176D01*
X550387Y43193D01*
X550268Y43194D01*
X550148Y43205D01*
X550066Y43196D01*
X549984Y43197D01*
X549867Y43175D01*
X549748Y43162D01*
X549670Y43137D01*
X549589Y43122D01*
X549478Y43077D01*
X549364Y43040D01*
X549292Y43001D01*
X549216Y42970D01*
X549117Y42903D01*
X549012Y42846D01*
X548949Y42792D01*
X548881Y42747D01*
X548796Y42663D01*
X548705Y42585D01*
X548654Y42521D01*
X548596Y42463D01*
X548509Y42337D01*
X548455Y42269D01*
X548437Y42233D01*
X548407Y42190D01*
X548098Y41655D01*
X547625Y41182D01*
X547046Y40847D01*
X546400Y40674D01*
X539314Y40674D01*
X539314Y51997D01*
X539312Y52015D01*
X539314Y52032D01*
X539293Y52215D01*
X539274Y52397D01*
X539269Y52414D01*
X539267Y52432D01*
X539210Y52607D01*
X539156Y52782D01*
X539148Y52798D01*
X539142Y52815D01*
X539052Y52975D01*
X538964Y53136D01*
X538953Y53150D01*
X538944Y53166D01*
X538824Y53305D01*
X538797Y53337D01*
X538869Y53430D01*
X538984Y53573D01*
X538992Y53589D01*
X539003Y53603D01*
X539085Y53768D01*
X539170Y53931D01*
X539175Y53948D01*
X539183Y53964D01*
X539230Y54142D01*
X539281Y54317D01*
X539283Y54335D01*
X539287Y54352D01*
X539314Y54683D01*
X539314Y66006D01*
X546400Y66006D01*
X547046Y65833D01*
X547625Y65498D01*
X548098Y65025D01*
X548407Y64490D01*
X548455Y64423D01*
X548495Y64352D01*
X548572Y64260D01*
X548642Y64163D01*
X548702Y64107D01*
X548755Y64045D01*
X548849Y63970D01*
X548937Y63889D01*
X549006Y63846D01*
X549071Y63795D01*
X549178Y63741D01*
X549280Y63678D01*
X549357Y63650D01*
X549430Y63613D01*
X549545Y63581D01*
X549657Y63539D01*
X549739Y63527D01*
X549818Y63505D01*
X549937Y63496D01*
X550055Y63478D01*
X550137Y63481D01*
X550219Y63475D01*
X550338Y63490D01*
X550458Y63496D01*
X550537Y63515D01*
X550619Y63526D01*
X550732Y63564D01*
X550848Y63593D01*
X550923Y63628D01*
X551000Y63654D01*
X551104Y63714D01*
X551212Y63765D01*
X551278Y63814D01*
X551349Y63855D01*
X551466Y63954D01*
X551535Y64005D01*
X551562Y64036D01*
X551602Y64070D01*
X552902Y65369D01*
X558117Y67530D01*
X563763Y67530D01*
X568978Y65369D01*
X572004Y62344D01*
X572017Y62332D01*
X572029Y62319D01*
X572173Y62205D01*
X572315Y62089D01*
X572331Y62080D01*
X572345Y62069D01*
X572509Y61986D01*
X572671Y61900D01*
X572688Y61895D01*
X572704Y61887D01*
X572881Y61837D01*
X573057Y61785D01*
X573075Y61784D01*
X573092Y61779D01*
X573275Y61765D01*
X573458Y61749D01*
X573476Y61751D01*
X573493Y61749D01*
X573675Y61772D01*
X573858Y61792D01*
X573875Y61798D01*
X573893Y61800D01*
X574066Y61858D01*
X574242Y61914D01*
X574258Y61922D01*
X574274Y61928D01*
X574434Y62020D01*
X574594Y62108D01*
X574608Y62120D01*
X574623Y62129D01*
X574876Y62344D01*
X577902Y65369D01*
X578589Y65654D01*
X578609Y65665D01*
X578630Y65672D01*
X578786Y65760D01*
X578944Y65844D01*
X578961Y65859D01*
X578981Y65869D01*
X579116Y65986D01*
X579255Y66101D01*
X579269Y66118D01*
X579286Y66133D01*
X579395Y66274D01*
X579508Y66413D01*
X579519Y66433D01*
X579532Y66451D01*
X579612Y66611D01*
X579695Y66770D01*
X579702Y66791D01*
X579712Y66811D01*
X579758Y66985D01*
X579808Y67156D01*
X579810Y67178D01*
X579816Y67200D01*
X579843Y67531D01*
X579843Y77443D01*
X579841Y77470D01*
X579843Y77497D01*
X579821Y77670D01*
X579803Y77844D01*
X579796Y77869D01*
X579792Y77896D01*
X579737Y78062D01*
X579685Y78229D01*
X579672Y78252D01*
X579664Y78278D01*
X579577Y78429D01*
X579493Y78583D01*
X579476Y78603D01*
X579463Y78627D01*
X579248Y78880D01*
X570840Y87288D01*
X570819Y87305D01*
X570801Y87326D01*
X570663Y87433D01*
X570528Y87543D01*
X570504Y87556D01*
X570483Y87572D01*
X570326Y87650D01*
X570172Y87732D01*
X570147Y87740D01*
X570123Y87752D01*
X569953Y87797D01*
X569786Y87847D01*
X569760Y87849D01*
X569734Y87856D01*
X569403Y87883D01*
X480117Y87883D01*
X477876Y88811D01*
X475876Y90812D01*
X437932Y128756D01*
X437915Y128770D01*
X437900Y128787D01*
X437760Y128897D01*
X437621Y129011D01*
X437601Y129021D01*
X437583Y129035D01*
X437423Y129116D01*
X437265Y129199D01*
X437244Y129206D01*
X437224Y129216D01*
X437051Y129263D01*
X436879Y129314D01*
X436857Y129316D01*
X436835Y129322D01*
X436658Y129334D01*
X436478Y129351D01*
X436456Y129348D01*
X436434Y129350D01*
X436257Y129327D01*
X436078Y129307D01*
X436057Y129300D01*
X436034Y129297D01*
X435719Y129196D01*
X435669Y129175D01*
X430471Y129175D01*
X425669Y131164D01*
X421994Y134839D01*
X420005Y139641D01*
X420005Y144839D01*
X420026Y144889D01*
X420032Y144910D01*
X420043Y144930D01*
X420091Y145103D01*
X420142Y145274D01*
X420145Y145296D01*
X420151Y145318D01*
X420164Y145497D01*
X420181Y145675D01*
X420178Y145697D01*
X420180Y145719D01*
X420157Y145898D01*
X420139Y146075D01*
X420132Y146096D01*
X420129Y146119D01*
X420072Y146289D01*
X420019Y146460D01*
X420008Y146479D01*
X420001Y146500D01*
X419912Y146656D01*
X419826Y146813D01*
X419811Y146830D01*
X419800Y146849D01*
X419586Y147102D01*
X403232Y163456D01*
X401231Y165456D01*
X400303Y167697D01*
X400303Y204413D01*
X401231Y206654D01*
X415646Y221069D01*
X417887Y221997D01*
X445713Y221997D01*
X447954Y221069D01*
X462369Y206654D01*
X463297Y204413D01*
X463297Y168467D01*
X463299Y168440D01*
X463297Y168413D01*
X463319Y168240D01*
X463337Y168066D01*
X463344Y168041D01*
X463348Y168014D01*
X463403Y167848D01*
X463455Y167681D01*
X463468Y167658D01*
X463476Y167632D01*
X463563Y167481D01*
X463647Y167327D01*
X463664Y167307D01*
X463677Y167283D01*
X463892Y167030D01*
X481990Y148932D01*
X482011Y148915D01*
X482029Y148894D01*
X482167Y148787D01*
X482302Y148677D01*
X482326Y148664D01*
X482347Y148648D01*
X482503Y148570D01*
X482658Y148488D01*
X482683Y148480D01*
X482707Y148468D01*
X482876Y148423D01*
X483044Y148373D01*
X483070Y148371D01*
X483096Y148364D01*
X483427Y148337D01*
X564877Y148337D01*
X564899Y148339D01*
X564921Y148337D01*
X565099Y148359D01*
X565278Y148377D01*
X565299Y148383D01*
X565321Y148386D01*
X565491Y148442D01*
X565662Y148495D01*
X565682Y148505D01*
X565703Y148512D01*
X565859Y148601D01*
X566017Y148687D01*
X566034Y148701D01*
X566053Y148712D01*
X566189Y148830D01*
X566326Y148944D01*
X566340Y148962D01*
X566357Y148976D01*
X566466Y149119D01*
X566578Y149258D01*
X566588Y149278D01*
X566602Y149296D01*
X566754Y149591D01*
X566774Y149641D01*
X570449Y153316D01*
X575251Y155305D01*
X580449Y155305D01*
X585251Y153316D01*
X588926Y149641D01*
X590915Y144839D01*
X590915Y139641D01*
X588926Y134839D01*
X585251Y131164D01*
X580449Y129175D01*
X575251Y129175D01*
X570449Y131164D01*
X566774Y134839D01*
X566754Y134889D01*
X566743Y134909D01*
X566736Y134930D01*
X566648Y135086D01*
X566563Y135244D01*
X566549Y135261D01*
X566538Y135281D01*
X566421Y135416D01*
X566307Y135555D01*
X566290Y135569D01*
X566275Y135586D01*
X566134Y135695D01*
X565994Y135808D01*
X565975Y135819D01*
X565957Y135832D01*
X565797Y135912D01*
X565638Y135995D01*
X565617Y136002D01*
X565596Y136012D01*
X565423Y136058D01*
X565252Y136108D01*
X565229Y136110D01*
X565208Y136116D01*
X564877Y136143D01*
X481903Y136143D01*
X481894Y136142D01*
X481885Y136143D01*
X481692Y136122D01*
X481502Y136103D01*
X481494Y136101D01*
X481485Y136100D01*
X481301Y136042D01*
X481117Y135985D01*
X481109Y135981D01*
X481101Y135978D01*
X480933Y135886D01*
X480763Y135793D01*
X480756Y135788D01*
X480748Y135783D01*
X480601Y135659D01*
X480454Y135536D01*
X480448Y135529D01*
X480441Y135523D01*
X480322Y135371D01*
X480202Y135222D01*
X480197Y135214D01*
X480192Y135207D01*
X480104Y135034D01*
X480016Y134865D01*
X480014Y134856D01*
X480009Y134848D01*
X479958Y134662D01*
X479905Y134478D01*
X479904Y134469D01*
X479901Y134460D01*
X479887Y134267D01*
X479872Y134076D01*
X479873Y134068D01*
X479872Y134059D01*
X479896Y133866D01*
X479919Y133677D01*
X479921Y133668D01*
X479923Y133659D01*
X479984Y133476D01*
X480043Y133294D01*
X480048Y133286D01*
X480051Y133278D01*
X480147Y133111D01*
X480241Y132943D01*
X480247Y132936D01*
X480252Y132929D01*
X480466Y132676D01*
X492150Y120992D01*
X492171Y120975D01*
X492189Y120954D01*
X492327Y120847D01*
X492462Y120737D01*
X492486Y120724D01*
X492507Y120708D01*
X492664Y120630D01*
X492818Y120548D01*
X492843Y120540D01*
X492867Y120528D01*
X493037Y120483D01*
X493204Y120433D01*
X493230Y120431D01*
X493256Y120424D01*
X493587Y120397D01*
X585413Y120397D01*
X587654Y119469D01*
X616109Y91014D01*
X617037Y88773D01*
X617037Y67531D01*
X617039Y67508D01*
X617037Y67486D01*
X617059Y67309D01*
X617077Y67130D01*
X617083Y67109D01*
X617086Y67087D01*
X617142Y66917D01*
X617195Y66745D01*
X617205Y66726D01*
X617212Y66704D01*
X617301Y66548D01*
X617387Y66391D01*
X617401Y66374D01*
X617412Y66355D01*
X617530Y66219D01*
X617644Y66082D01*
X617662Y66068D01*
X617676Y66051D01*
X617818Y65942D01*
X617958Y65830D01*
X617978Y65819D01*
X617996Y65806D01*
X618291Y65654D01*
X618978Y65369D01*
X622004Y62344D01*
X622017Y62332D01*
X622029Y62319D01*
X622173Y62205D01*
X622315Y62089D01*
X622331Y62080D01*
X622345Y62069D01*
X622509Y61986D01*
X622671Y61900D01*
X622688Y61895D01*
X622704Y61887D01*
X622881Y61837D01*
X623057Y61785D01*
X623075Y61784D01*
X623092Y61779D01*
X623275Y61765D01*
X623458Y61749D01*
X623476Y61751D01*
X623493Y61749D01*
X623675Y61772D01*
X623858Y61792D01*
X623875Y61798D01*
X623893Y61800D01*
X624066Y61858D01*
X624242Y61914D01*
X624258Y61922D01*
X624274Y61928D01*
X624434Y62020D01*
X624594Y62108D01*
X624608Y62120D01*
X624623Y62129D01*
X624876Y62344D01*
X627902Y65369D01*
X628589Y65654D01*
X628609Y65665D01*
X628630Y65672D01*
X628786Y65760D01*
X628944Y65844D01*
X628961Y65859D01*
X628981Y65869D01*
X629116Y65986D01*
X629255Y66101D01*
X629269Y66118D01*
X629286Y66133D01*
X629395Y66274D01*
X629508Y66413D01*
X629519Y66433D01*
X629532Y66451D01*
X629612Y66611D01*
X629695Y66770D01*
X629702Y66791D01*
X629712Y66811D01*
X629758Y66985D01*
X629808Y67156D01*
X629810Y67178D01*
X629816Y67200D01*
X629843Y67531D01*
X629843Y131583D01*
X629841Y131610D01*
X629843Y131637D01*
X629821Y131810D01*
X629803Y131984D01*
X629796Y132009D01*
X629792Y132036D01*
X629737Y132202D01*
X629685Y132369D01*
X629672Y132392D01*
X629664Y132418D01*
X629577Y132569D01*
X629493Y132723D01*
X629476Y132743D01*
X629463Y132767D01*
X629248Y133020D01*
X582712Y179556D01*
X582695Y179570D01*
X582680Y179587D01*
X582540Y179697D01*
X582401Y179811D01*
X582381Y179821D01*
X582363Y179835D01*
X582203Y179916D01*
X582045Y179999D01*
X582024Y180006D01*
X582004Y180016D01*
X581831Y180063D01*
X581659Y180114D01*
X581637Y180116D01*
X581615Y180122D01*
X581438Y180134D01*
X581258Y180151D01*
X581236Y180148D01*
X581214Y180150D01*
X581037Y180127D01*
X580858Y180107D01*
X580837Y180100D01*
X580814Y180097D01*
X580499Y179996D01*
X580449Y179975D01*
X575251Y179975D01*
X570449Y181964D01*
X566774Y185639D01*
X564785Y190441D01*
X564785Y195639D01*
X566774Y200441D01*
X570449Y204116D01*
X573354Y205319D01*
X575251Y206105D01*
X580449Y206105D01*
X585251Y204116D01*
X588926Y200441D01*
X590915Y195639D01*
X590915Y190441D01*
X590894Y190391D01*
X590888Y190370D01*
X590877Y190350D01*
X590829Y190177D01*
X590778Y190006D01*
X590775Y189984D01*
X590769Y189962D01*
X590756Y189783D01*
X590739Y189605D01*
X590742Y189583D01*
X590740Y189561D01*
X590763Y189382D01*
X590781Y189205D01*
X590788Y189183D01*
X590791Y189161D01*
X590848Y188991D01*
X590901Y188820D01*
X590912Y188801D01*
X590919Y188780D01*
X591008Y188624D01*
X591094Y188467D01*
X591109Y188450D01*
X591120Y188431D01*
X591334Y188178D01*
X639108Y140404D01*
X641109Y138404D01*
X642037Y136163D01*
X642037Y67531D01*
X642039Y67508D01*
X642037Y67486D01*
X642059Y67309D01*
X642077Y67130D01*
X642083Y67109D01*
X642086Y67087D01*
X642142Y66917D01*
X642195Y66745D01*
X642205Y66726D01*
X642212Y66704D01*
X642301Y66548D01*
X642387Y66391D01*
X642401Y66374D01*
X642412Y66355D01*
X642530Y66219D01*
X642644Y66082D01*
X642662Y66068D01*
X642676Y66051D01*
X642818Y65942D01*
X642958Y65830D01*
X642978Y65819D01*
X642996Y65806D01*
X643291Y65654D01*
X643978Y65369D01*
X647004Y62344D01*
X647018Y62332D01*
X647029Y62319D01*
X647173Y62205D01*
X647315Y62089D01*
X647331Y62080D01*
X647345Y62069D01*
X647509Y61986D01*
X647671Y61900D01*
X647688Y61895D01*
X647704Y61887D01*
X647881Y61837D01*
X648057Y61785D01*
X648075Y61784D01*
X648092Y61779D01*
X648275Y61765D01*
X648458Y61749D01*
X648476Y61751D01*
X648493Y61749D01*
X648675Y61772D01*
X648858Y61792D01*
X648875Y61798D01*
X648893Y61800D01*
X649067Y61858D01*
X649242Y61914D01*
X649258Y61922D01*
X649274Y61928D01*
X649434Y62020D01*
X649594Y62108D01*
X649608Y62120D01*
X649623Y62129D01*
X649876Y62344D01*
X652902Y65369D01*
X658117Y67530D01*
X663763Y67530D01*
X668978Y65369D01*
X672004Y62344D01*
X672017Y62332D01*
X672029Y62319D01*
X672173Y62205D01*
X672315Y62089D01*
X672331Y62080D01*
X672345Y62069D01*
X672509Y61986D01*
X672671Y61900D01*
X672688Y61895D01*
X672704Y61887D01*
X672881Y61837D01*
X673057Y61785D01*
X673075Y61784D01*
X673092Y61779D01*
X673275Y61765D01*
X673458Y61749D01*
X673476Y61751D01*
X673493Y61749D01*
X673675Y61772D01*
X673858Y61792D01*
X673875Y61798D01*
X673893Y61800D01*
X674066Y61858D01*
X674242Y61914D01*
X674258Y61922D01*
X674274Y61928D01*
X674434Y62020D01*
X674594Y62108D01*
X674608Y62120D01*
X674623Y62129D01*
X674876Y62344D01*
X677902Y65369D01*
X678589Y65654D01*
X678609Y65665D01*
X678630Y65672D01*
X678786Y65760D01*
X678944Y65844D01*
X678961Y65859D01*
X678981Y65869D01*
X679116Y65986D01*
X679255Y66101D01*
X679269Y66118D01*
X679286Y66133D01*
X679395Y66274D01*
X679508Y66413D01*
X679519Y66433D01*
X679532Y66451D01*
X679612Y66611D01*
X679695Y66770D01*
X679702Y66791D01*
X679712Y66811D01*
X679758Y66985D01*
X679808Y67156D01*
X679810Y67178D01*
X679816Y67200D01*
X679843Y67531D01*
X679843Y157563D01*
X680771Y159804D01*
X682772Y161804D01*
X709146Y188178D01*
X709160Y188195D01*
X709177Y188210D01*
X709287Y188350D01*
X709401Y188489D01*
X709411Y188509D01*
X709425Y188527D01*
X709506Y188687D01*
X709589Y188845D01*
X709596Y188866D01*
X709606Y188886D01*
X709653Y189059D01*
X709704Y189231D01*
X709706Y189253D01*
X709712Y189275D01*
X709724Y189452D01*
X709741Y189632D01*
X709738Y189654D01*
X709740Y189676D01*
X709717Y189853D01*
X709697Y190032D01*
X709690Y190053D01*
X709687Y190076D01*
X709586Y190391D01*
X709565Y190441D01*
X709565Y195639D01*
X711554Y200441D01*
X715229Y204116D01*
X718134Y205319D01*
X720031Y206105D01*
X725229Y206105D01*
X730031Y204116D01*
X733706Y200441D01*
X735695Y195639D01*
X735695Y190441D01*
X733706Y185639D01*
X730031Y181964D01*
X726804Y180628D01*
X725229Y179975D01*
X720031Y179975D01*
X719981Y179996D01*
X719960Y180002D01*
X719940Y180013D01*
X719767Y180061D01*
X719596Y180112D01*
X719574Y180115D01*
X719552Y180121D01*
X719373Y180134D01*
X719195Y180151D01*
X719173Y180148D01*
X719151Y180150D01*
X718972Y180127D01*
X718795Y180109D01*
X718773Y180102D01*
X718751Y180099D01*
X718581Y180042D01*
X718410Y179989D01*
X718391Y179978D01*
X718370Y179971D01*
X718214Y179882D01*
X718057Y179796D01*
X718040Y179781D01*
X718021Y179770D01*
X717768Y179556D01*
X712876Y174664D01*
X712871Y174657D01*
X712864Y174652D01*
X712744Y174502D01*
X712621Y174353D01*
X712617Y174345D01*
X712612Y174338D01*
X712523Y174167D01*
X712433Y173997D01*
X712430Y173989D01*
X712426Y173981D01*
X712373Y173795D01*
X712318Y173611D01*
X712317Y173602D01*
X712315Y173594D01*
X712299Y173402D01*
X712281Y173210D01*
X712282Y173201D01*
X712282Y173192D01*
X712304Y173003D01*
X712325Y172810D01*
X712328Y172801D01*
X712329Y172793D01*
X712388Y172611D01*
X712446Y172426D01*
X712451Y172418D01*
X712453Y172410D01*
X712549Y172241D01*
X712641Y172074D01*
X712647Y172067D01*
X712651Y172059D01*
X712777Y171913D01*
X712902Y171767D01*
X712909Y171761D01*
X712915Y171754D01*
X713066Y171637D01*
X713218Y171517D01*
X713226Y171513D01*
X713233Y171508D01*
X713405Y171422D01*
X713577Y171335D01*
X713585Y171332D01*
X713593Y171328D01*
X713780Y171278D01*
X713964Y171227D01*
X713973Y171226D01*
X713982Y171224D01*
X714313Y171197D01*
X737813Y171197D01*
X740054Y170269D01*
X751230Y159092D01*
X751251Y159075D01*
X751269Y159054D01*
X751407Y158947D01*
X751542Y158837D01*
X751566Y158824D01*
X751587Y158808D01*
X751744Y158730D01*
X751898Y158648D01*
X751923Y158640D01*
X751947Y158628D01*
X752117Y158583D01*
X752284Y158533D01*
X752310Y158531D01*
X752336Y158524D01*
X752667Y158497D01*
X823403Y158497D01*
X823430Y158499D01*
X823457Y158497D01*
X823630Y158519D01*
X823804Y158537D01*
X823829Y158544D01*
X823856Y158548D01*
X824022Y158603D01*
X824189Y158655D01*
X824212Y158668D01*
X824238Y158676D01*
X824389Y158763D01*
X824543Y158847D01*
X824563Y158864D01*
X824587Y158877D01*
X824840Y159092D01*
X835032Y169284D01*
X835667Y169919D01*
X853926Y188178D01*
X853940Y188195D01*
X853957Y188210D01*
X854067Y188350D01*
X854181Y188489D01*
X854191Y188509D01*
X854205Y188527D01*
X854285Y188687D01*
X854369Y188845D01*
X854376Y188866D01*
X854386Y188886D01*
X854433Y189059D01*
X854484Y189231D01*
X854486Y189253D01*
X854492Y189275D01*
X854504Y189452D01*
X854521Y189632D01*
X854518Y189654D01*
X854520Y189676D01*
X854497Y189853D01*
X854477Y190032D01*
X854470Y190053D01*
X854467Y190076D01*
X854366Y190391D01*
X854345Y190441D01*
X854345Y195639D01*
X856334Y200441D01*
X860009Y204116D01*
X862914Y205319D01*
X864811Y206105D01*
X870009Y206105D01*
X874811Y204116D01*
X878486Y200441D01*
X880475Y195639D01*
X880475Y190441D01*
X878486Y185639D01*
X874811Y181964D01*
X871584Y180628D01*
X870009Y179975D01*
X864811Y179975D01*
X864761Y179996D01*
X864740Y180002D01*
X864720Y180013D01*
X864547Y180061D01*
X864376Y180112D01*
X864354Y180115D01*
X864332Y180121D01*
X864153Y180134D01*
X863975Y180151D01*
X863953Y180148D01*
X863931Y180150D01*
X863752Y180127D01*
X863575Y180109D01*
X863554Y180102D01*
X863531Y180099D01*
X863361Y180042D01*
X863190Y179989D01*
X863171Y179978D01*
X863150Y179971D01*
X862994Y179882D01*
X862837Y179796D01*
X862820Y179781D01*
X862801Y179770D01*
X862548Y179556D01*
X844289Y161297D01*
X843654Y160662D01*
X834796Y151804D01*
X834791Y151797D01*
X834784Y151792D01*
X834664Y151642D01*
X834541Y151493D01*
X834537Y151485D01*
X834532Y151478D01*
X834443Y151308D01*
X834353Y151137D01*
X834350Y151128D01*
X834346Y151121D01*
X834293Y150936D01*
X834238Y150751D01*
X834237Y150742D01*
X834235Y150734D01*
X834219Y150542D01*
X834201Y150350D01*
X834202Y150341D01*
X834202Y150332D01*
X834224Y150143D01*
X834245Y149950D01*
X834248Y149941D01*
X834249Y149933D01*
X834308Y149751D01*
X834366Y149566D01*
X834371Y149558D01*
X834373Y149550D01*
X834469Y149381D01*
X834561Y149214D01*
X834567Y149207D01*
X834571Y149199D01*
X834697Y149053D01*
X834822Y148907D01*
X834829Y148901D01*
X834835Y148894D01*
X834986Y148777D01*
X835138Y148657D01*
X835146Y148653D01*
X835153Y148648D01*
X835325Y148562D01*
X835497Y148475D01*
X835505Y148472D01*
X835513Y148468D01*
X835700Y148418D01*
X835884Y148367D01*
X835893Y148366D01*
X835902Y148364D01*
X836233Y148337D01*
X854437Y148337D01*
X854459Y148339D01*
X854481Y148337D01*
X854659Y148359D01*
X854838Y148377D01*
X854859Y148383D01*
X854881Y148386D01*
X855051Y148442D01*
X855222Y148495D01*
X855242Y148505D01*
X855263Y148512D01*
X855419Y148601D01*
X855577Y148687D01*
X855594Y148701D01*
X855613Y148712D01*
X855749Y148830D01*
X855886Y148944D01*
X855900Y148962D01*
X855917Y148976D01*
X856026Y149119D01*
X856138Y149258D01*
X856148Y149278D01*
X856162Y149296D01*
X856314Y149591D01*
X856334Y149641D01*
X860009Y153316D01*
X864811Y155305D01*
X870009Y155305D01*
X874811Y153316D01*
X878486Y149641D01*
X880475Y144839D01*
X880475Y139641D01*
X878486Y134839D01*
X875233Y131586D01*
X875134Y131466D01*
X875030Y131349D01*
X875006Y131310D01*
X874978Y131275D01*
X874905Y131137D01*
X874825Y131002D01*
X874810Y130959D01*
X874789Y130919D01*
X874745Y130770D01*
X874693Y130622D01*
X874687Y130577D01*
X874674Y130533D01*
X874660Y130378D01*
X874639Y130223D01*
X874642Y130178D01*
X874638Y130132D01*
X874655Y129977D01*
X874665Y129821D01*
X874676Y129777D01*
X874681Y129732D01*
X874728Y129583D01*
X874769Y129432D01*
X874789Y129392D01*
X874803Y129348D01*
X874878Y129212D01*
X874948Y129072D01*
X874976Y129036D01*
X874998Y128996D01*
X875099Y128877D01*
X875194Y128753D01*
X875229Y128724D01*
X875258Y128689D01*
X875381Y128592D01*
X875499Y128490D01*
X875538Y128467D01*
X875574Y128439D01*
X875713Y128369D01*
X875849Y128292D01*
X875892Y128277D01*
X875933Y128257D01*
X876083Y128215D01*
X876232Y128166D01*
X876277Y128161D01*
X876321Y128149D01*
X876477Y128137D01*
X876632Y128119D01*
X876677Y128123D01*
X876722Y128120D01*
X876877Y128139D01*
X877033Y128152D01*
X877082Y128165D01*
X877122Y128170D01*
X877204Y128198D01*
X877353Y128238D01*
X887137Y131738D01*
X896977Y134203D01*
X897147Y134264D01*
X897318Y134322D01*
X897336Y134332D01*
X897356Y134339D01*
X897510Y134432D01*
X897667Y134522D01*
X897685Y134538D01*
X897701Y134547D01*
X897759Y134600D01*
X897920Y134737D01*
X907708Y144526D01*
X907725Y144546D01*
X907746Y144564D01*
X907853Y144702D01*
X907963Y144837D01*
X907976Y144861D01*
X907992Y144882D01*
X908070Y145039D01*
X908152Y145193D01*
X908160Y145218D01*
X908172Y145243D01*
X908217Y145412D01*
X908267Y145579D01*
X908269Y145605D01*
X908276Y145631D01*
X908303Y145962D01*
X908303Y415733D01*
X908301Y415760D01*
X908303Y415787D01*
X908281Y415960D01*
X908263Y416134D01*
X908256Y416159D01*
X908252Y416186D01*
X908197Y416352D01*
X908145Y416519D01*
X908132Y416542D01*
X908124Y416568D01*
X908037Y416719D01*
X907953Y416873D01*
X907936Y416893D01*
X907923Y416917D01*
X907708Y417170D01*
X896531Y428346D01*
X895603Y430587D01*
X895603Y832446D01*
X895586Y832617D01*
X895574Y832788D01*
X895566Y832817D01*
X895563Y832847D01*
X895513Y833011D01*
X895468Y833177D01*
X895454Y833203D01*
X895445Y833232D01*
X895363Y833383D01*
X895286Y833536D01*
X895268Y833560D01*
X895253Y833586D01*
X895144Y833718D01*
X895038Y833853D01*
X895015Y833872D01*
X894996Y833895D01*
X894862Y834003D01*
X894732Y834114D01*
X894705Y834129D01*
X894682Y834148D01*
X894530Y834226D01*
X894380Y834310D01*
X894348Y834321D01*
X894325Y834333D01*
X894243Y834357D01*
X894066Y834417D01*
X888612Y835783D01*
X883661Y837554D01*
X883498Y837595D01*
X883334Y837641D01*
X883302Y837644D01*
X883271Y837652D01*
X883102Y837659D01*
X882933Y837672D01*
X882901Y837669D01*
X882869Y837670D01*
X882701Y837644D01*
X882533Y837624D01*
X882502Y837614D01*
X882471Y837609D01*
X882312Y837551D01*
X882151Y837497D01*
X882123Y837481D01*
X882093Y837470D01*
X881948Y837382D01*
X881801Y837298D01*
X881777Y837277D01*
X881749Y837260D01*
X881625Y837145D01*
X881497Y837033D01*
X881478Y837008D01*
X881454Y836986D01*
X881355Y836848D01*
X881252Y836714D01*
X881236Y836682D01*
X881219Y836659D01*
X881183Y836581D01*
X881100Y836419D01*
X880990Y836153D01*
X878434Y833596D01*
X878422Y833582D01*
X878409Y833571D01*
X878295Y833427D01*
X878179Y833285D01*
X878170Y833269D01*
X878159Y833255D01*
X878076Y833091D01*
X877990Y832929D01*
X877985Y832912D01*
X877977Y832896D01*
X877927Y832719D01*
X877875Y832543D01*
X877874Y832525D01*
X877869Y832508D01*
X877855Y832325D01*
X877839Y832142D01*
X877841Y832124D01*
X877839Y832107D01*
X877862Y831924D01*
X877882Y831742D01*
X877888Y831725D01*
X877890Y831707D01*
X877948Y831533D01*
X878004Y831358D01*
X878012Y831342D01*
X878018Y831326D01*
X878110Y831167D01*
X878199Y831006D01*
X878210Y830992D01*
X878219Y830977D01*
X878434Y830724D01*
X880990Y828167D01*
X882605Y824269D01*
X882605Y820051D01*
X880990Y816153D01*
X878434Y813596D01*
X878422Y813582D01*
X878409Y813571D01*
X878295Y813427D01*
X878179Y813285D01*
X878170Y813269D01*
X878159Y813255D01*
X878076Y813091D01*
X877990Y812929D01*
X877985Y812912D01*
X877977Y812896D01*
X877927Y812719D01*
X877875Y812543D01*
X877874Y812525D01*
X877869Y812508D01*
X877855Y812325D01*
X877839Y812142D01*
X877841Y812124D01*
X877839Y812107D01*
X877862Y811925D01*
X877882Y811742D01*
X877888Y811725D01*
X877890Y811707D01*
X877948Y811533D01*
X878004Y811358D01*
X878012Y811342D01*
X878018Y811326D01*
X878110Y811167D01*
X878199Y811006D01*
X878210Y810992D01*
X878219Y810977D01*
X878434Y810724D01*
X880990Y808167D01*
X882605Y804269D01*
X882605Y800051D01*
X880990Y796153D01*
X878434Y793596D01*
X878422Y793582D01*
X878409Y793571D01*
X878295Y793427D01*
X878179Y793285D01*
X878170Y793269D01*
X878159Y793255D01*
X878076Y793091D01*
X877990Y792929D01*
X877985Y792912D01*
X877977Y792896D01*
X877927Y792719D01*
X877875Y792543D01*
X877874Y792525D01*
X877869Y792508D01*
X877855Y792325D01*
X877839Y792142D01*
X877841Y792124D01*
X877839Y792107D01*
X877862Y791925D01*
X877882Y791742D01*
X877888Y791725D01*
X877890Y791707D01*
X877948Y791533D01*
X878004Y791358D01*
X878012Y791342D01*
X878018Y791326D01*
X878110Y791167D01*
X878199Y791006D01*
X878210Y790992D01*
X878219Y790977D01*
X878434Y790724D01*
X880990Y788167D01*
X882605Y784269D01*
X882605Y780051D01*
X880990Y776153D01*
X878434Y773596D01*
X878422Y773582D01*
X878409Y773571D01*
X878295Y773427D01*
X878179Y773285D01*
X878170Y773269D01*
X878159Y773255D01*
X878076Y773091D01*
X877990Y772929D01*
X877985Y772912D01*
X877977Y772896D01*
X877927Y772719D01*
X877875Y772543D01*
X877874Y772525D01*
X877869Y772508D01*
X877855Y772325D01*
X877839Y772142D01*
X877841Y772124D01*
X877839Y772107D01*
X877862Y771925D01*
X877882Y771742D01*
X877888Y771725D01*
X877890Y771707D01*
X877948Y771533D01*
X878004Y771358D01*
X878012Y771342D01*
X878018Y771326D01*
X878110Y771167D01*
X878199Y771006D01*
X878210Y770992D01*
X878219Y770977D01*
X878434Y770724D01*
X880990Y768167D01*
X882605Y764269D01*
X882605Y760051D01*
X880990Y756153D01*
X878434Y753596D01*
X878422Y753582D01*
X878409Y753571D01*
X878295Y753427D01*
X878179Y753285D01*
X878170Y753269D01*
X878159Y753255D01*
X878076Y753091D01*
X877990Y752929D01*
X877985Y752912D01*
X877977Y752896D01*
X877927Y752719D01*
X877875Y752543D01*
X877874Y752525D01*
X877869Y752508D01*
X877855Y752325D01*
X877839Y752142D01*
X877841Y752124D01*
X877839Y752107D01*
X877862Y751925D01*
X877882Y751742D01*
X877888Y751725D01*
X877890Y751707D01*
X877948Y751533D01*
X878004Y751358D01*
X878012Y751342D01*
X878018Y751326D01*
X878110Y751167D01*
X878199Y751006D01*
X878210Y750992D01*
X878219Y750977D01*
X878434Y750724D01*
X880990Y748167D01*
X882605Y744269D01*
X882605Y740051D01*
X880990Y736153D01*
X878434Y733596D01*
X878422Y733582D01*
X878409Y733571D01*
X878295Y733427D01*
X878179Y733285D01*
X878170Y733269D01*
X878159Y733255D01*
X878076Y733091D01*
X877990Y732929D01*
X877985Y732912D01*
X877977Y732896D01*
X877927Y732719D01*
X877875Y732543D01*
X877874Y732525D01*
X877869Y732508D01*
X877855Y732325D01*
X877839Y732142D01*
X877841Y732124D01*
X877839Y732107D01*
X877862Y731925D01*
X877882Y731742D01*
X877888Y731725D01*
X877890Y731707D01*
X877948Y731533D01*
X878004Y731358D01*
X878012Y731342D01*
X878018Y731326D01*
X878110Y731167D01*
X878199Y731006D01*
X878210Y730992D01*
X878219Y730977D01*
X878434Y730724D01*
X880990Y728167D01*
X882605Y724269D01*
X882605Y720051D01*
X880990Y716153D01*
X878434Y713596D01*
X878422Y713582D01*
X878409Y713571D01*
X878295Y713427D01*
X878179Y713285D01*
X878170Y713269D01*
X878159Y713255D01*
X878076Y713091D01*
X877990Y712929D01*
X877985Y712912D01*
X877977Y712896D01*
X877927Y712719D01*
X877875Y712543D01*
X877874Y712525D01*
X877869Y712508D01*
X877855Y712325D01*
X877839Y712142D01*
X877841Y712124D01*
X877839Y712107D01*
X877862Y711925D01*
X877882Y711742D01*
X877888Y711725D01*
X877890Y711707D01*
X877948Y711533D01*
X878004Y711358D01*
X878012Y711342D01*
X878018Y711326D01*
X878110Y711167D01*
X878199Y711006D01*
X878210Y710992D01*
X878219Y710977D01*
X878434Y710724D01*
X880990Y708167D01*
X882605Y704269D01*
X882605Y700051D01*
X880990Y696153D01*
X878434Y693596D01*
X878422Y693582D01*
X878409Y693571D01*
X878295Y693427D01*
X878179Y693285D01*
X878170Y693269D01*
X878159Y693255D01*
X878076Y693091D01*
X877990Y692929D01*
X877985Y692912D01*
X877977Y692896D01*
X877927Y692718D01*
X877875Y692543D01*
X877874Y692525D01*
X877869Y692508D01*
X877855Y692325D01*
X877839Y692142D01*
X877841Y692124D01*
X877839Y692107D01*
X877862Y691925D01*
X877882Y691742D01*
X877888Y691725D01*
X877890Y691707D01*
X877948Y691533D01*
X878004Y691358D01*
X878012Y691342D01*
X878018Y691326D01*
X878110Y691167D01*
X878199Y691006D01*
X878210Y690992D01*
X878219Y690977D01*
X878434Y690724D01*
X880990Y688167D01*
X882605Y684269D01*
X882605Y680051D01*
X880990Y676153D01*
X878007Y673170D01*
X874109Y671555D01*
X871728Y671555D01*
X871710Y671553D01*
X871692Y671555D01*
X871510Y671534D01*
X871327Y671515D01*
X871310Y671510D01*
X871293Y671508D01*
X871118Y671451D01*
X870942Y671397D01*
X870927Y671389D01*
X870910Y671383D01*
X870750Y671293D01*
X870588Y671205D01*
X870575Y671194D01*
X870559Y671185D01*
X870420Y671065D01*
X870279Y670948D01*
X870268Y670934D01*
X870254Y670922D01*
X870142Y670777D01*
X870027Y670634D01*
X870019Y670618D01*
X870008Y670604D01*
X869926Y670439D01*
X869841Y670277D01*
X869836Y670260D01*
X869828Y670244D01*
X869780Y670064D01*
X869730Y669890D01*
X869728Y669872D01*
X869724Y669855D01*
X869697Y669524D01*
X869697Y592709D01*
X869699Y592683D01*
X869697Y592656D01*
X869719Y592482D01*
X869737Y592308D01*
X869744Y592283D01*
X869748Y592256D01*
X869803Y592091D01*
X869855Y591924D01*
X869868Y591900D01*
X869876Y591875D01*
X869963Y591723D01*
X870047Y591570D01*
X870064Y591549D01*
X870077Y591526D01*
X870292Y591273D01*
X873014Y588550D01*
X874705Y584469D01*
X874705Y580051D01*
X873014Y575970D01*
X869890Y572846D01*
X865809Y571155D01*
X861391Y571155D01*
X857310Y572846D01*
X854186Y575970D01*
X852495Y580051D01*
X852495Y584469D01*
X854186Y588550D01*
X856908Y591273D01*
X856925Y591294D01*
X856946Y591311D01*
X857053Y591449D01*
X857163Y591584D01*
X857176Y591608D01*
X857192Y591629D01*
X857270Y591786D01*
X857352Y591940D01*
X857360Y591966D01*
X857372Y591990D01*
X857417Y592159D01*
X857467Y592326D01*
X857469Y592353D01*
X857476Y592378D01*
X857503Y592709D01*
X857503Y674973D01*
X858431Y677214D01*
X860800Y679582D01*
X860817Y679603D01*
X860838Y679621D01*
X860945Y679759D01*
X861055Y679894D01*
X861068Y679918D01*
X861084Y679939D01*
X861162Y680096D01*
X861244Y680250D01*
X861252Y680275D01*
X861264Y680299D01*
X861309Y680469D01*
X861359Y680636D01*
X861361Y680662D01*
X861368Y680688D01*
X861395Y681019D01*
X861395Y684269D01*
X863010Y688167D01*
X865566Y690724D01*
X865578Y690737D01*
X865591Y690749D01*
X865705Y690893D01*
X865821Y691035D01*
X865830Y691051D01*
X865841Y691065D01*
X865924Y691229D01*
X866010Y691391D01*
X866015Y691408D01*
X866023Y691424D01*
X866073Y691601D01*
X866125Y691777D01*
X866126Y691795D01*
X866131Y691812D01*
X866145Y691995D01*
X866161Y692178D01*
X866159Y692196D01*
X866161Y692213D01*
X866138Y692395D01*
X866118Y692578D01*
X866112Y692595D01*
X866110Y692613D01*
X866052Y692786D01*
X865996Y692962D01*
X865988Y692978D01*
X865982Y692994D01*
X865890Y693154D01*
X865801Y693314D01*
X865790Y693328D01*
X865781Y693343D01*
X865566Y693596D01*
X863010Y696153D01*
X861395Y700051D01*
X861395Y704269D01*
X863010Y708167D01*
X865566Y710724D01*
X865578Y710737D01*
X865591Y710749D01*
X865705Y710893D01*
X865821Y711035D01*
X865830Y711051D01*
X865841Y711065D01*
X865924Y711229D01*
X866010Y711391D01*
X866015Y711408D01*
X866023Y711424D01*
X866073Y711601D01*
X866125Y711777D01*
X866126Y711795D01*
X866131Y711812D01*
X866145Y711995D01*
X866161Y712178D01*
X866159Y712196D01*
X866161Y712213D01*
X866138Y712395D01*
X866118Y712578D01*
X866112Y712595D01*
X866110Y712613D01*
X866052Y712786D01*
X865996Y712962D01*
X865988Y712978D01*
X865982Y712994D01*
X865890Y713154D01*
X865801Y713314D01*
X865790Y713328D01*
X865781Y713343D01*
X865566Y713596D01*
X863010Y716153D01*
X861395Y720051D01*
X861395Y724269D01*
X863010Y728167D01*
X865566Y730724D01*
X865578Y730737D01*
X865591Y730749D01*
X865705Y730893D01*
X865821Y731035D01*
X865830Y731051D01*
X865841Y731065D01*
X865924Y731229D01*
X866010Y731391D01*
X866015Y731408D01*
X866023Y731424D01*
X866073Y731601D01*
X866125Y731777D01*
X866126Y731795D01*
X866131Y731812D01*
X866145Y731995D01*
X866161Y732178D01*
X866159Y732196D01*
X866161Y732213D01*
X866138Y732395D01*
X866118Y732578D01*
X866112Y732595D01*
X866110Y732613D01*
X866052Y732786D01*
X865996Y732962D01*
X865988Y732978D01*
X865982Y732994D01*
X865890Y733154D01*
X865801Y733314D01*
X865790Y733328D01*
X865781Y733343D01*
X865566Y733596D01*
X863010Y736153D01*
X861395Y740051D01*
X861395Y744269D01*
X863010Y748167D01*
X865566Y750724D01*
X865578Y750737D01*
X865591Y750749D01*
X865705Y750893D01*
X865821Y751035D01*
X865830Y751051D01*
X865841Y751065D01*
X865924Y751229D01*
X866010Y751391D01*
X866015Y751408D01*
X866023Y751424D01*
X866073Y751601D01*
X866125Y751777D01*
X866126Y751795D01*
X866131Y751812D01*
X866145Y751995D01*
X866161Y752178D01*
X866159Y752196D01*
X866161Y752213D01*
X866138Y752395D01*
X866118Y752578D01*
X866112Y752595D01*
X866110Y752613D01*
X866052Y752786D01*
X865996Y752962D01*
X865988Y752978D01*
X865982Y752994D01*
X865890Y753154D01*
X865801Y753314D01*
X865790Y753328D01*
X865781Y753343D01*
X865566Y753596D01*
X863010Y756153D01*
X861395Y760051D01*
X861395Y764269D01*
X863010Y768167D01*
X865566Y770724D01*
X865578Y770737D01*
X865591Y770749D01*
X865705Y770893D01*
X865821Y771035D01*
X865830Y771051D01*
X865841Y771065D01*
X865924Y771229D01*
X866010Y771391D01*
X866015Y771408D01*
X866023Y771424D01*
X866073Y771601D01*
X866125Y771777D01*
X866126Y771795D01*
X866131Y771812D01*
X866145Y771995D01*
X866161Y772178D01*
X866159Y772196D01*
X866161Y772213D01*
X866138Y772395D01*
X866118Y772578D01*
X866112Y772595D01*
X866110Y772613D01*
X866052Y772786D01*
X865996Y772962D01*
X865988Y772978D01*
X865982Y772994D01*
X865890Y773154D01*
X865801Y773314D01*
X865790Y773328D01*
X865781Y773343D01*
X865566Y773596D01*
X863010Y776153D01*
X861395Y780051D01*
X861395Y784269D01*
X863010Y788167D01*
X865566Y790724D01*
X865578Y790737D01*
X865591Y790749D01*
X865705Y790893D01*
X865821Y791035D01*
X865830Y791051D01*
X865841Y791065D01*
X865924Y791229D01*
X866010Y791391D01*
X866015Y791408D01*
X866023Y791424D01*
X866073Y791601D01*
X866125Y791777D01*
X866126Y791795D01*
X866131Y791812D01*
X866145Y791995D01*
X866161Y792178D01*
X866159Y792196D01*
X866161Y792213D01*
X866138Y792395D01*
X866118Y792578D01*
X866112Y792595D01*
X866110Y792613D01*
X866052Y792786D01*
X865996Y792962D01*
X865988Y792978D01*
X865982Y792994D01*
X865890Y793154D01*
X865801Y793314D01*
X865790Y793328D01*
X865781Y793343D01*
X865566Y793596D01*
X863010Y796153D01*
X861395Y800051D01*
X861395Y804269D01*
X863010Y808167D01*
X865566Y810724D01*
X865578Y810737D01*
X865591Y810749D01*
X865705Y810893D01*
X865821Y811035D01*
X865830Y811051D01*
X865841Y811065D01*
X865924Y811229D01*
X866010Y811391D01*
X866015Y811408D01*
X866023Y811424D01*
X866073Y811601D01*
X866125Y811777D01*
X866126Y811795D01*
X866131Y811812D01*
X866145Y811995D01*
X866161Y812178D01*
X866159Y812196D01*
X866161Y812213D01*
X866138Y812395D01*
X866118Y812578D01*
X866112Y812595D01*
X866110Y812613D01*
X866052Y812786D01*
X865996Y812962D01*
X865988Y812978D01*
X865982Y812994D01*
X865890Y813154D01*
X865801Y813314D01*
X865790Y813328D01*
X865781Y813343D01*
X865566Y813596D01*
X864379Y814784D01*
X864365Y814795D01*
X864353Y814809D01*
X864209Y814923D01*
X864067Y815039D01*
X864051Y815047D01*
X864037Y815058D01*
X863873Y815142D01*
X863711Y815228D01*
X863694Y815233D01*
X863678Y815241D01*
X863501Y815290D01*
X863326Y815342D01*
X863308Y815344D01*
X863291Y815349D01*
X863107Y815362D01*
X862925Y815379D01*
X862907Y815377D01*
X862889Y815378D01*
X862707Y815355D01*
X862524Y815335D01*
X862507Y815330D01*
X862490Y815328D01*
X862316Y815269D01*
X862140Y815214D01*
X862125Y815205D01*
X862108Y815200D01*
X861948Y815108D01*
X861788Y815019D01*
X861775Y815008D01*
X861759Y814999D01*
X861506Y814784D01*
X844892Y798170D01*
X844875Y798149D01*
X844854Y798131D01*
X844747Y797993D01*
X844637Y797858D01*
X844624Y797834D01*
X844608Y797813D01*
X844530Y797656D01*
X844448Y797502D01*
X844440Y797477D01*
X844428Y797453D01*
X844383Y797283D01*
X844333Y797116D01*
X844331Y797090D01*
X844324Y797064D01*
X844297Y796733D01*
X844297Y700427D01*
X843369Y698186D01*
X841368Y696186D01*
X730520Y585338D01*
X730503Y585317D01*
X730482Y585299D01*
X730375Y585161D01*
X730265Y585026D01*
X730252Y585002D01*
X730236Y584981D01*
X730158Y584824D01*
X730076Y584670D01*
X730068Y584645D01*
X730056Y584621D01*
X730011Y584451D01*
X729961Y584284D01*
X729959Y584258D01*
X729952Y584232D01*
X729925Y583901D01*
X729925Y580051D01*
X728234Y575970D01*
X725110Y572846D01*
X721029Y571155D01*
X716611Y571155D01*
X712530Y572846D01*
X709406Y575970D01*
X707715Y580051D01*
X707715Y584469D01*
X709406Y588550D01*
X712530Y591674D01*
X716611Y593365D01*
X720461Y593365D01*
X720488Y593367D01*
X720515Y593365D01*
X720689Y593387D01*
X720862Y593405D01*
X720887Y593412D01*
X720914Y593416D01*
X721080Y593471D01*
X721247Y593523D01*
X721270Y593536D01*
X721296Y593544D01*
X721447Y593631D01*
X721601Y593715D01*
X721621Y593732D01*
X721645Y593745D01*
X721898Y593960D01*
X741395Y613457D01*
X741398Y613461D01*
X741402Y613464D01*
X741524Y613615D01*
X741650Y613769D01*
X741652Y613773D01*
X741655Y613776D01*
X741748Y613953D01*
X741839Y614125D01*
X741840Y614129D01*
X741842Y614133D01*
X741899Y614325D01*
X741954Y614510D01*
X741954Y614515D01*
X741955Y614519D01*
X741972Y614712D01*
X741990Y614911D01*
X741990Y614916D01*
X741990Y614920D01*
X741969Y615108D01*
X741947Y615312D01*
X741945Y615316D01*
X741945Y615320D01*
X741885Y615506D01*
X741825Y615696D01*
X741823Y615699D01*
X741822Y615704D01*
X741725Y615878D01*
X741630Y616048D01*
X741628Y616051D01*
X741625Y616055D01*
X741499Y616203D01*
X741370Y616355D01*
X741366Y616358D01*
X741364Y616361D01*
X741210Y616481D01*
X741054Y616604D01*
X741050Y616607D01*
X741047Y616609D01*
X740873Y616697D01*
X740695Y616787D01*
X740691Y616788D01*
X740687Y616790D01*
X740499Y616841D01*
X740307Y616895D01*
X740303Y616895D01*
X740298Y616896D01*
X740102Y616910D01*
X739906Y616924D01*
X739901Y616924D01*
X739897Y616924D01*
X739701Y616898D01*
X739506Y616874D01*
X739502Y616872D01*
X739498Y616872D01*
X739182Y616770D01*
X737813Y616203D01*
X616177Y616203D01*
X616150Y616201D01*
X616123Y616203D01*
X615950Y616181D01*
X615776Y616163D01*
X615751Y616156D01*
X615724Y616152D01*
X615558Y616097D01*
X615391Y616045D01*
X615368Y616032D01*
X615342Y616024D01*
X615191Y615937D01*
X615037Y615853D01*
X615017Y615836D01*
X614993Y615823D01*
X614740Y615608D01*
X584470Y585338D01*
X584453Y585317D01*
X584432Y585299D01*
X584325Y585161D01*
X584215Y585026D01*
X584202Y585002D01*
X584186Y584981D01*
X584108Y584824D01*
X584026Y584670D01*
X584018Y584645D01*
X584006Y584621D01*
X583961Y584451D01*
X583911Y584284D01*
X583909Y584258D01*
X583902Y584232D01*
X583875Y583901D01*
X583875Y580051D01*
X582184Y575970D01*
X579060Y572846D01*
X574979Y571155D01*
X570561Y571155D01*
X566480Y572846D01*
X563356Y575970D01*
X561665Y580051D01*
X561665Y584469D01*
X563298Y588411D01*
X563301Y588419D01*
X563305Y588427D01*
X563359Y588611D01*
X563415Y588796D01*
X563415Y588805D01*
X563418Y588814D01*
X563434Y589005D01*
X563453Y589197D01*
X563452Y589206D01*
X563453Y589215D01*
X563431Y589405D01*
X563411Y589598D01*
X563408Y589606D01*
X563407Y589615D01*
X563349Y589797D01*
X563291Y589982D01*
X563287Y589990D01*
X563284Y589998D01*
X563190Y590167D01*
X563098Y590335D01*
X563092Y590342D01*
X563088Y590350D01*
X562962Y590497D01*
X562839Y590643D01*
X562832Y590649D01*
X562826Y590656D01*
X562675Y590774D01*
X562524Y590894D01*
X562516Y590898D01*
X562509Y590904D01*
X562337Y590990D01*
X562166Y591078D01*
X562157Y591081D01*
X562149Y591085D01*
X561962Y591136D01*
X561778Y591188D01*
X561770Y591189D01*
X561761Y591191D01*
X561568Y591204D01*
X561377Y591219D01*
X561368Y591218D01*
X561359Y591218D01*
X561170Y591194D01*
X560977Y591170D01*
X560969Y591167D01*
X560960Y591166D01*
X560644Y591065D01*
X560013Y590803D01*
X444727Y590803D01*
X444700Y590801D01*
X444673Y590803D01*
X444500Y590781D01*
X444326Y590763D01*
X444301Y590756D01*
X444274Y590752D01*
X444108Y590697D01*
X443941Y590645D01*
X443918Y590632D01*
X443892Y590624D01*
X443741Y590537D01*
X443587Y590453D01*
X443567Y590436D01*
X443543Y590423D01*
X443290Y590208D01*
X438420Y585338D01*
X438403Y585317D01*
X438382Y585299D01*
X438275Y585161D01*
X438165Y585026D01*
X438152Y585002D01*
X438136Y584981D01*
X438058Y584824D01*
X437976Y584670D01*
X437968Y584645D01*
X437956Y584621D01*
X437911Y584451D01*
X437861Y584284D01*
X437859Y584258D01*
X437852Y584232D01*
X437825Y583901D01*
X437825Y580051D01*
X436134Y575970D01*
X433010Y572846D01*
X428929Y571155D01*
X424511Y571155D01*
X420430Y572846D01*
X417306Y575970D01*
X415615Y580051D01*
X415615Y584469D01*
X417306Y588550D01*
X420430Y591674D01*
X424511Y593365D01*
X428361Y593365D01*
X428388Y593367D01*
X428415Y593365D01*
X428588Y593387D01*
X428762Y593405D01*
X428787Y593412D01*
X428814Y593416D01*
X428980Y593471D01*
X429147Y593523D01*
X429170Y593536D01*
X429196Y593544D01*
X429347Y593631D01*
X429501Y593715D01*
X429521Y593732D01*
X429545Y593745D01*
X429798Y593960D01*
X437906Y602069D01*
X440147Y602997D01*
X555433Y602997D01*
X555460Y602999D01*
X555487Y602997D01*
X555660Y603019D01*
X555834Y603037D01*
X555859Y603044D01*
X555886Y603048D01*
X556052Y603103D01*
X556219Y603155D01*
X556242Y603168D01*
X556268Y603176D01*
X556419Y603263D01*
X556573Y603347D01*
X556593Y603364D01*
X556617Y603377D01*
X556870Y603592D01*
X593446Y640169D01*
X595687Y641097D01*
X657033Y641097D01*
X657060Y641099D01*
X657087Y641097D01*
X657260Y641119D01*
X657434Y641137D01*
X657459Y641144D01*
X657486Y641148D01*
X657652Y641203D01*
X657819Y641255D01*
X657842Y641268D01*
X657868Y641276D01*
X658019Y641363D01*
X658173Y641447D01*
X658193Y641464D01*
X658217Y641477D01*
X658470Y641692D01*
X679108Y662330D01*
X679125Y662351D01*
X679146Y662369D01*
X679253Y662507D01*
X679363Y662642D01*
X679376Y662666D01*
X679392Y662687D01*
X679470Y662844D01*
X679552Y662998D01*
X679560Y663023D01*
X679572Y663047D01*
X679617Y663217D01*
X679667Y663384D01*
X679669Y663410D01*
X679676Y663436D01*
X679703Y663767D01*
X679703Y720533D01*
X679701Y720560D01*
X679703Y720587D01*
X679681Y720760D01*
X679663Y720934D01*
X679656Y720959D01*
X679652Y720986D01*
X679597Y721152D01*
X679545Y721319D01*
X679532Y721342D01*
X679524Y721368D01*
X679437Y721519D01*
X679353Y721673D01*
X679336Y721693D01*
X679323Y721717D01*
X679108Y721970D01*
X665610Y735468D01*
X665589Y735485D01*
X665571Y735506D01*
X665433Y735613D01*
X665298Y735723D01*
X665274Y735736D01*
X665253Y735752D01*
X665096Y735830D01*
X664942Y735912D01*
X664917Y735920D01*
X664893Y735932D01*
X664723Y735977D01*
X664556Y736027D01*
X664530Y736029D01*
X664504Y736036D01*
X664173Y736063D01*
X661742Y736063D01*
X661715Y736061D01*
X661689Y736063D01*
X661515Y736041D01*
X661341Y736023D01*
X661316Y736016D01*
X661289Y736012D01*
X661123Y735956D01*
X660956Y735905D01*
X660933Y735893D01*
X660908Y735884D01*
X660756Y735797D01*
X660602Y735713D01*
X660582Y735696D01*
X660559Y735683D01*
X660306Y735468D01*
X658434Y733596D01*
X658422Y733583D01*
X658409Y733571D01*
X658295Y733427D01*
X658179Y733285D01*
X658170Y733269D01*
X658159Y733255D01*
X658076Y733091D01*
X657990Y732929D01*
X657985Y732912D01*
X657977Y732896D01*
X657927Y732719D01*
X657875Y732543D01*
X657874Y732525D01*
X657869Y732508D01*
X657855Y732325D01*
X657839Y732142D01*
X657841Y732124D01*
X657839Y732107D01*
X657862Y731925D01*
X657882Y731742D01*
X657888Y731725D01*
X657890Y731707D01*
X657948Y731534D01*
X658004Y731358D01*
X658012Y731342D01*
X658018Y731326D01*
X658109Y731167D01*
X658198Y731006D01*
X658210Y730992D01*
X658219Y730977D01*
X658434Y730724D01*
X660990Y728167D01*
X662605Y724269D01*
X662605Y720051D01*
X660990Y716153D01*
X658434Y713596D01*
X658422Y713583D01*
X658409Y713571D01*
X658295Y713427D01*
X658179Y713285D01*
X658170Y713269D01*
X658159Y713255D01*
X658076Y713091D01*
X657990Y712929D01*
X657985Y712912D01*
X657977Y712896D01*
X657927Y712719D01*
X657875Y712543D01*
X657874Y712525D01*
X657869Y712508D01*
X657855Y712325D01*
X657839Y712142D01*
X657841Y712124D01*
X657839Y712107D01*
X657862Y711925D01*
X657882Y711742D01*
X657888Y711725D01*
X657890Y711707D01*
X657948Y711534D01*
X658004Y711358D01*
X658012Y711342D01*
X658018Y711326D01*
X658110Y711166D01*
X658199Y711006D01*
X658210Y710992D01*
X658219Y710977D01*
X658434Y710724D01*
X660990Y708167D01*
X662605Y704269D01*
X662605Y700051D01*
X660990Y696153D01*
X658007Y693170D01*
X657720Y693051D01*
X657568Y692970D01*
X657414Y692892D01*
X657391Y692874D01*
X657365Y692861D01*
X657233Y692751D01*
X657096Y692645D01*
X657077Y692623D01*
X657055Y692604D01*
X656946Y692470D01*
X656834Y692339D01*
X656820Y692314D01*
X656801Y692292D01*
X656721Y692139D01*
X656637Y691988D01*
X656628Y691961D01*
X656614Y691935D01*
X656566Y691770D01*
X656513Y691605D01*
X656509Y691576D01*
X656501Y691549D01*
X656486Y691377D01*
X656467Y691205D01*
X656469Y691176D01*
X656467Y691148D01*
X656486Y690977D01*
X656500Y690804D01*
X656509Y690776D01*
X656512Y690748D01*
X656565Y690583D01*
X656613Y690417D01*
X656626Y690392D01*
X656635Y690364D01*
X656719Y690213D01*
X656799Y690060D01*
X656817Y690038D01*
X656831Y690013D01*
X656944Y689882D01*
X657052Y689747D01*
X657076Y689726D01*
X657093Y689707D01*
X657160Y689655D01*
X657304Y689531D01*
X657916Y689086D01*
X658926Y688076D01*
X659767Y686919D01*
X660415Y685646D01*
X660857Y684286D01*
X660872Y684191D01*
X652000Y684191D01*
X643128Y684191D01*
X643143Y684286D01*
X643585Y685646D01*
X644233Y686919D01*
X645074Y688076D01*
X646084Y689086D01*
X646696Y689531D01*
X646825Y689646D01*
X646957Y689757D01*
X646975Y689780D01*
X646997Y689799D01*
X647101Y689937D01*
X647208Y690072D01*
X647222Y690097D01*
X647239Y690121D01*
X647314Y690277D01*
X647392Y690430D01*
X647400Y690458D01*
X647413Y690484D01*
X647455Y690652D01*
X647502Y690817D01*
X647504Y690846D01*
X647511Y690874D01*
X647520Y691047D01*
X647533Y691219D01*
X647530Y691247D01*
X647531Y691276D01*
X647505Y691447D01*
X647484Y691618D01*
X647475Y691646D01*
X647471Y691674D01*
X647412Y691837D01*
X647358Y692001D01*
X647344Y692026D01*
X647334Y692053D01*
X647244Y692200D01*
X647159Y692350D01*
X647140Y692372D01*
X647125Y692397D01*
X647008Y692523D01*
X646894Y692654D01*
X646871Y692672D01*
X646852Y692693D01*
X646712Y692794D01*
X646575Y692899D01*
X646546Y692914D01*
X646526Y692929D01*
X646448Y692964D01*
X646280Y693051D01*
X645993Y693170D01*
X643010Y696153D01*
X641395Y700051D01*
X641395Y704269D01*
X643010Y708167D01*
X645566Y710724D01*
X645578Y710738D01*
X645591Y710749D01*
X645705Y710893D01*
X645821Y711035D01*
X645830Y711051D01*
X645841Y711065D01*
X645924Y711229D01*
X646010Y711391D01*
X646015Y711408D01*
X646023Y711424D01*
X646073Y711601D01*
X646125Y711777D01*
X646126Y711795D01*
X646131Y711812D01*
X646145Y711995D01*
X646161Y712178D01*
X646159Y712196D01*
X646161Y712213D01*
X646138Y712395D01*
X646118Y712578D01*
X646112Y712595D01*
X646110Y712613D01*
X646052Y712787D01*
X645996Y712962D01*
X645988Y712978D01*
X645982Y712994D01*
X645890Y713153D01*
X645801Y713314D01*
X645790Y713328D01*
X645781Y713343D01*
X645566Y713596D01*
X643010Y716153D01*
X641395Y720051D01*
X641395Y724269D01*
X643010Y728167D01*
X645566Y730724D01*
X645578Y730738D01*
X645591Y730749D01*
X645705Y730893D01*
X645821Y731035D01*
X645830Y731051D01*
X645841Y731065D01*
X645924Y731229D01*
X646010Y731391D01*
X646015Y731408D01*
X646023Y731424D01*
X646073Y731601D01*
X646125Y731777D01*
X646126Y731795D01*
X646131Y731812D01*
X646145Y731995D01*
X646161Y732178D01*
X646159Y732196D01*
X646161Y732213D01*
X646138Y732395D01*
X646118Y732578D01*
X646112Y732595D01*
X646110Y732613D01*
X646052Y732787D01*
X645996Y732962D01*
X645988Y732978D01*
X645982Y732994D01*
X645890Y733153D01*
X645801Y733314D01*
X645790Y733328D01*
X645781Y733343D01*
X645566Y733596D01*
X643010Y736153D01*
X641395Y740051D01*
X641395Y744269D01*
X643010Y748167D01*
X645566Y750724D01*
X645578Y750738D01*
X645591Y750749D01*
X645705Y750893D01*
X645821Y751035D01*
X645830Y751051D01*
X645841Y751065D01*
X645924Y751229D01*
X646010Y751391D01*
X646015Y751408D01*
X646023Y751424D01*
X646073Y751601D01*
X646125Y751777D01*
X646126Y751795D01*
X646131Y751812D01*
X646145Y751995D01*
X646161Y752178D01*
X646159Y752196D01*
X646161Y752213D01*
X646138Y752395D01*
X646118Y752578D01*
X646112Y752595D01*
X646110Y752613D01*
X646052Y752787D01*
X645996Y752962D01*
X645988Y752978D01*
X645982Y752994D01*
X645890Y753153D01*
X645801Y753314D01*
X645790Y753328D01*
X645781Y753343D01*
X645566Y753596D01*
X643010Y756153D01*
X641395Y760051D01*
X641395Y764269D01*
X643010Y768167D01*
X645566Y770724D01*
X645578Y770738D01*
X645591Y770749D01*
X645705Y770893D01*
X645821Y771035D01*
X645830Y771051D01*
X645841Y771065D01*
X645924Y771229D01*
X646010Y771391D01*
X646015Y771408D01*
X646023Y771424D01*
X646073Y771601D01*
X646125Y771777D01*
X646126Y771795D01*
X646131Y771812D01*
X646145Y771995D01*
X646161Y772178D01*
X646159Y772196D01*
X646161Y772213D01*
X646138Y772395D01*
X646118Y772578D01*
X646112Y772595D01*
X646110Y772613D01*
X646052Y772787D01*
X645996Y772962D01*
X645988Y772978D01*
X645982Y772994D01*
X645890Y773153D01*
X645801Y773314D01*
X645790Y773328D01*
X645781Y773343D01*
X645566Y773596D01*
X643010Y776153D01*
X641395Y780051D01*
X641395Y784269D01*
X643010Y788167D01*
X645566Y790724D01*
X645578Y790738D01*
X645591Y790749D01*
X645705Y790893D01*
X645821Y791035D01*
X645830Y791051D01*
X645841Y791065D01*
X645924Y791229D01*
X646010Y791391D01*
X646015Y791408D01*
X646023Y791424D01*
X646073Y791601D01*
X646125Y791777D01*
X646126Y791795D01*
X646131Y791812D01*
X646145Y791995D01*
X646161Y792178D01*
X646159Y792196D01*
X646161Y792213D01*
X646138Y792395D01*
X646118Y792578D01*
X646112Y792595D01*
X646110Y792613D01*
X646052Y792787D01*
X645996Y792962D01*
X645988Y792978D01*
X645982Y792994D01*
X645890Y793153D01*
X645801Y793314D01*
X645790Y793328D01*
X645781Y793343D01*
X645566Y793596D01*
X643010Y796153D01*
X641395Y800051D01*
X641395Y804269D01*
X643010Y808167D01*
X645566Y810724D01*
X645578Y810738D01*
X645591Y810749D01*
X645705Y810893D01*
X645821Y811035D01*
X645830Y811051D01*
X645841Y811065D01*
X645924Y811229D01*
X646010Y811391D01*
X646015Y811408D01*
X646023Y811424D01*
X646073Y811601D01*
X646125Y811777D01*
X646126Y811795D01*
X646131Y811812D01*
X646145Y811995D01*
X646161Y812178D01*
X646159Y812196D01*
X646161Y812213D01*
X646138Y812395D01*
X646118Y812578D01*
X646112Y812595D01*
X646110Y812613D01*
X646052Y812787D01*
X645996Y812962D01*
X645988Y812978D01*
X645982Y812994D01*
X645890Y813153D01*
X645801Y813314D01*
X645790Y813328D01*
X645781Y813343D01*
X645566Y813596D01*
X643010Y816153D01*
X641395Y820051D01*
X641395Y824269D01*
X643010Y828167D01*
X645566Y830724D01*
X645578Y830738D01*
X645591Y830749D01*
X645705Y830893D01*
X645821Y831035D01*
X645830Y831051D01*
X645841Y831065D01*
X645924Y831229D01*
X646010Y831391D01*
X646015Y831408D01*
X646023Y831424D01*
X646073Y831601D01*
X646125Y831777D01*
X646126Y831795D01*
X646131Y831812D01*
X646145Y831995D01*
X646161Y832178D01*
X646159Y832196D01*
X646161Y832213D01*
X646138Y832395D01*
X646118Y832578D01*
X646112Y832595D01*
X646110Y832613D01*
X646052Y832787D01*
X645996Y832962D01*
X645988Y832978D01*
X645982Y832994D01*
X645890Y833153D01*
X645801Y833314D01*
X645790Y833328D01*
X645781Y833343D01*
X645566Y833596D01*
X643010Y836153D01*
X641395Y840051D01*
X641395Y843769D01*
X641394Y843778D01*
X641395Y843787D01*
X641374Y843981D01*
X641355Y844170D01*
X641353Y844178D01*
X641352Y844187D01*
X641294Y844371D01*
X641237Y844555D01*
X641233Y844563D01*
X641230Y844571D01*
X641138Y844739D01*
X641045Y844909D01*
X641040Y844916D01*
X641035Y844924D01*
X640911Y845071D01*
X640788Y845218D01*
X640781Y845224D01*
X640775Y845231D01*
X640623Y845350D01*
X640474Y845470D01*
X640466Y845475D01*
X640459Y845480D01*
X640286Y845568D01*
X640117Y845656D01*
X640108Y845658D01*
X640100Y845663D01*
X639914Y845714D01*
X639730Y845767D01*
X639721Y845768D01*
X639712Y845771D01*
X639519Y845785D01*
X639328Y845800D01*
X639320Y845799D01*
X639311Y845800D01*
X639118Y845776D01*
X638929Y845753D01*
X638920Y845751D01*
X638911Y845749D01*
X638728Y845688D01*
X638546Y845629D01*
X638538Y845624D01*
X638530Y845621D01*
X638363Y845525D01*
X638195Y845431D01*
X638188Y845425D01*
X638181Y845420D01*
X637928Y845206D01*
X628992Y836270D01*
X628975Y836249D01*
X628954Y836231D01*
X628847Y836093D01*
X628737Y835958D01*
X628724Y835934D01*
X628708Y835913D01*
X628630Y835756D01*
X628548Y835602D01*
X628540Y835577D01*
X628528Y835553D01*
X628483Y835383D01*
X628433Y835216D01*
X628431Y835190D01*
X628424Y835164D01*
X628397Y834833D01*
X628397Y735387D01*
X627469Y733146D01*
X597044Y702721D01*
X594803Y701793D01*
X584459Y701793D01*
X584433Y701791D01*
X584406Y701793D01*
X584232Y701771D01*
X584058Y701753D01*
X584033Y701746D01*
X584006Y701742D01*
X583841Y701687D01*
X583674Y701635D01*
X583650Y701622D01*
X583625Y701614D01*
X583473Y701527D01*
X583320Y701443D01*
X583299Y701426D01*
X583276Y701413D01*
X583023Y701198D01*
X580300Y698476D01*
X576219Y696785D01*
X571801Y696785D01*
X567720Y698476D01*
X564997Y701198D01*
X564976Y701215D01*
X564959Y701236D01*
X564821Y701343D01*
X564686Y701453D01*
X564662Y701466D01*
X564641Y701482D01*
X564484Y701560D01*
X564330Y701642D01*
X564304Y701650D01*
X564280Y701662D01*
X564111Y701707D01*
X563944Y701757D01*
X563917Y701759D01*
X563892Y701766D01*
X563561Y701793D01*
X558857Y701793D01*
X558830Y701791D01*
X558803Y701793D01*
X558630Y701771D01*
X558456Y701753D01*
X558431Y701746D01*
X558404Y701742D01*
X558238Y701687D01*
X558071Y701635D01*
X558048Y701622D01*
X558022Y701614D01*
X557871Y701527D01*
X557717Y701443D01*
X557697Y701426D01*
X557673Y701413D01*
X557420Y701198D01*
X468274Y612051D01*
X466033Y611123D01*
X404687Y611123D01*
X404660Y611121D01*
X404633Y611123D01*
X404460Y611101D01*
X404286Y611083D01*
X404261Y611076D01*
X404234Y611072D01*
X404068Y611017D01*
X403901Y610965D01*
X403878Y610952D01*
X403852Y610944D01*
X403701Y610857D01*
X403547Y610773D01*
X403527Y610756D01*
X403503Y610743D01*
X403250Y610528D01*
X374992Y582270D01*
X374975Y582249D01*
X374954Y582231D01*
X374847Y582093D01*
X374737Y581958D01*
X374724Y581934D01*
X374708Y581913D01*
X374630Y581756D01*
X374548Y581602D01*
X374540Y581577D01*
X374528Y581553D01*
X374483Y581383D01*
X374433Y581216D01*
X374431Y581190D01*
X374424Y581164D01*
X374397Y580833D01*
X374397Y574867D01*
X374399Y574840D01*
X374397Y574813D01*
X374419Y574639D01*
X374437Y574466D01*
X374444Y574441D01*
X374448Y574414D01*
X374503Y574248D01*
X374555Y574081D01*
X374568Y574058D01*
X374576Y574032D01*
X374663Y573881D01*
X374747Y573727D01*
X374764Y573707D01*
X374777Y573683D01*
X374992Y573430D01*
X382930Y565492D01*
X382951Y565475D01*
X382969Y565454D01*
X383107Y565347D01*
X383242Y565237D01*
X383266Y565224D01*
X383287Y565208D01*
X383444Y565130D01*
X383598Y565048D01*
X383623Y565040D01*
X383647Y565028D01*
X383817Y564983D01*
X383984Y564933D01*
X384010Y564931D01*
X384036Y564924D01*
X384367Y564897D01*
X485083Y564897D01*
X487324Y563969D01*
X489324Y561968D01*
X490054Y561238D01*
X490067Y561227D01*
X490079Y561213D01*
X490223Y561100D01*
X490365Y560983D01*
X490381Y560975D01*
X490395Y560964D01*
X490559Y560880D01*
X490721Y560795D01*
X490738Y560790D01*
X490754Y560782D01*
X490931Y560732D01*
X491107Y560680D01*
X491125Y560678D01*
X491142Y560674D01*
X491325Y560660D01*
X491508Y560644D01*
X491526Y560645D01*
X491543Y560644D01*
X491725Y560667D01*
X491908Y560687D01*
X491925Y560692D01*
X491943Y560695D01*
X492116Y560753D01*
X492292Y560808D01*
X492308Y560817D01*
X492324Y560823D01*
X492484Y560915D01*
X492644Y561003D01*
X492658Y561015D01*
X492673Y561024D01*
X492926Y561238D01*
X495656Y563969D01*
X497784Y564850D01*
X497785Y564850D01*
X497897Y564897D01*
X633673Y564897D01*
X635914Y563969D01*
X636104Y563778D01*
X636117Y563767D01*
X636129Y563753D01*
X636273Y563639D01*
X636415Y563523D01*
X636431Y563515D01*
X636445Y563504D01*
X636609Y563421D01*
X636771Y563335D01*
X636788Y563330D01*
X636804Y563322D01*
X636981Y563272D01*
X637157Y563220D01*
X637174Y563218D01*
X637192Y563214D01*
X637375Y563200D01*
X637558Y563184D01*
X637575Y563185D01*
X637593Y563184D01*
X637776Y563207D01*
X637958Y563227D01*
X637975Y563232D01*
X637993Y563235D01*
X638167Y563293D01*
X638342Y563348D01*
X638357Y563357D01*
X638374Y563363D01*
X638534Y563455D01*
X638694Y563543D01*
X638708Y563555D01*
X638723Y563564D01*
X638976Y563778D01*
X639166Y563969D01*
X641294Y564850D01*
X641295Y564850D01*
X641407Y564897D01*
X779723Y564897D01*
X781964Y563969D01*
X788759Y557174D01*
X789687Y554933D01*
X789687Y334011D01*
X789689Y333993D01*
X789687Y333975D01*
X789708Y333793D01*
X789727Y333610D01*
X789732Y333593D01*
X789734Y333576D01*
X789791Y333401D01*
X789845Y333225D01*
X789853Y333210D01*
X789859Y333193D01*
X789949Y333033D01*
X790037Y332871D01*
X790048Y332858D01*
X790057Y332842D01*
X790177Y332703D01*
X790294Y332562D01*
X790308Y332551D01*
X790320Y332537D01*
X790465Y332425D01*
X790608Y332310D01*
X790624Y332302D01*
X790638Y332291D01*
X790803Y332209D01*
X790965Y332124D01*
X790982Y332119D01*
X790998Y332111D01*
X791177Y332064D01*
X791352Y332013D01*
X791370Y332011D01*
X791387Y332007D01*
X791718Y331980D01*
X792274Y331980D01*
X793767Y331361D01*
X794911Y330217D01*
X795530Y328724D01*
X795530Y328168D01*
X795532Y328150D01*
X795530Y328132D01*
X795551Y327950D01*
X795570Y327767D01*
X795575Y327750D01*
X795577Y327733D01*
X795634Y327558D01*
X795688Y327382D01*
X795696Y327367D01*
X795702Y327350D01*
X795792Y327190D01*
X795880Y327028D01*
X795891Y327015D01*
X795900Y326999D01*
X796020Y326860D01*
X796137Y326719D01*
X796151Y326708D01*
X796163Y326694D01*
X796308Y326582D01*
X796451Y326467D01*
X796467Y326459D01*
X796481Y326448D01*
X796646Y326366D01*
X796808Y326281D01*
X796825Y326276D01*
X796841Y326268D01*
X797020Y326221D01*
X797195Y326170D01*
X797213Y326168D01*
X797230Y326164D01*
X797561Y326137D01*
X856254Y326137D01*
X856280Y326139D01*
X856307Y326137D01*
X856481Y326159D01*
X856654Y326177D01*
X856680Y326184D01*
X856707Y326188D01*
X856872Y326244D01*
X857039Y326295D01*
X857063Y326308D01*
X857088Y326316D01*
X857240Y326403D01*
X857393Y326487D01*
X857414Y326504D01*
X857437Y326517D01*
X857690Y326732D01*
X860836Y329878D01*
X864164Y331256D01*
X865102Y331645D01*
X869718Y331645D01*
X873984Y329878D01*
X877248Y326614D01*
X878995Y322395D01*
X878997Y322391D01*
X878999Y322387D01*
X879092Y322214D01*
X879186Y322040D01*
X879188Y322037D01*
X879191Y322033D01*
X879315Y321884D01*
X879442Y321730D01*
X879445Y321727D01*
X879448Y321724D01*
X879601Y321601D01*
X879755Y321476D01*
X879759Y321474D01*
X879762Y321471D01*
X879937Y321380D01*
X880111Y321289D01*
X880115Y321288D01*
X880119Y321286D01*
X880309Y321231D01*
X880498Y321176D01*
X880502Y321176D01*
X880506Y321174D01*
X880704Y321158D01*
X880899Y321141D01*
X880903Y321142D01*
X880908Y321141D01*
X881105Y321165D01*
X881299Y321186D01*
X881303Y321188D01*
X881307Y321188D01*
X881496Y321250D01*
X881682Y321310D01*
X881686Y321312D01*
X881690Y321313D01*
X881863Y321411D01*
X882034Y321506D01*
X882037Y321509D01*
X882041Y321511D01*
X882190Y321640D01*
X882339Y321768D01*
X882342Y321771D01*
X882346Y321774D01*
X882464Y321927D01*
X882588Y322085D01*
X882590Y322089D01*
X882592Y322092D01*
X882679Y322267D01*
X882768Y322445D01*
X882770Y322449D01*
X882772Y322453D01*
X882823Y322646D01*
X882875Y322833D01*
X882875Y322837D01*
X882876Y322842D01*
X882903Y323172D01*
X882903Y380139D01*
X882901Y380157D01*
X882903Y380175D01*
X882882Y380357D01*
X882863Y380540D01*
X882858Y380557D01*
X882856Y380574D01*
X882799Y380749D01*
X882745Y380925D01*
X882737Y380940D01*
X882731Y380957D01*
X882641Y381117D01*
X882553Y381279D01*
X882542Y381292D01*
X882533Y381308D01*
X882413Y381447D01*
X882296Y381588D01*
X882282Y381599D01*
X882270Y381613D01*
X882125Y381725D01*
X881982Y381840D01*
X881966Y381848D01*
X881952Y381859D01*
X881787Y381941D01*
X881625Y382026D01*
X881608Y382031D01*
X881592Y382039D01*
X881413Y382086D01*
X881238Y382137D01*
X881220Y382139D01*
X881203Y382143D01*
X880872Y382170D01*
X880726Y382170D01*
X879233Y382789D01*
X878089Y383933D01*
X877470Y385426D01*
X877470Y388294D01*
X877470Y388298D01*
X877470Y388303D01*
X877450Y388497D01*
X877430Y388695D01*
X877429Y388699D01*
X877429Y388703D01*
X877370Y388891D01*
X877312Y389079D01*
X877310Y389083D01*
X877309Y389088D01*
X877214Y389261D01*
X877120Y389434D01*
X877118Y389437D01*
X877115Y389441D01*
X876987Y389594D01*
X876863Y389743D01*
X876859Y389746D01*
X876856Y389749D01*
X876701Y389873D01*
X876549Y389995D01*
X876545Y389997D01*
X876542Y390000D01*
X876361Y390092D01*
X876192Y390181D01*
X876187Y390182D01*
X876183Y390184D01*
X875993Y390238D01*
X875805Y390292D01*
X875800Y390292D01*
X875796Y390294D01*
X875604Y390308D01*
X875403Y390325D01*
X875399Y390324D01*
X875395Y390325D01*
X875201Y390301D01*
X875004Y390278D01*
X874999Y390277D01*
X874995Y390276D01*
X874810Y390215D01*
X874621Y390153D01*
X874617Y390151D01*
X874613Y390150D01*
X874444Y390053D01*
X874270Y389955D01*
X874267Y389952D01*
X874263Y389950D01*
X874116Y389822D01*
X873966Y389692D01*
X873963Y389688D01*
X873959Y389686D01*
X873839Y389529D01*
X873719Y389374D01*
X873717Y389370D01*
X873714Y389366D01*
X873562Y389071D01*
X872774Y387169D01*
X869531Y383926D01*
X865293Y382170D01*
X860707Y382170D01*
X856469Y383926D01*
X853226Y387169D01*
X851470Y391407D01*
X851470Y395993D01*
X853226Y400231D01*
X856527Y403532D01*
X856604Y403574D01*
X856621Y403588D01*
X856641Y403599D01*
X856777Y403716D01*
X856915Y403830D01*
X856929Y403847D01*
X856946Y403862D01*
X857055Y404003D01*
X857168Y404143D01*
X857179Y404163D01*
X857192Y404180D01*
X857272Y404340D01*
X857355Y404499D01*
X857362Y404521D01*
X857372Y404541D01*
X857418Y404714D01*
X857468Y404886D01*
X857470Y404908D01*
X857476Y404929D01*
X857503Y405260D01*
X857503Y418811D01*
X857501Y418837D01*
X857503Y418864D01*
X857481Y419038D01*
X857463Y419212D01*
X857456Y419237D01*
X857452Y419264D01*
X857397Y419429D01*
X857345Y419596D01*
X857332Y419620D01*
X857324Y419645D01*
X857237Y419797D01*
X857153Y419950D01*
X857136Y419971D01*
X857123Y419994D01*
X856908Y420247D01*
X854186Y422970D01*
X852495Y427051D01*
X852495Y431469D01*
X854186Y435550D01*
X857310Y438674D01*
X861391Y440365D01*
X865809Y440365D01*
X869890Y438674D01*
X873014Y435550D01*
X874705Y431469D01*
X874705Y427051D01*
X873014Y422970D01*
X870292Y420247D01*
X870275Y420226D01*
X870254Y420209D01*
X870147Y420071D01*
X870037Y419936D01*
X870024Y419912D01*
X870008Y419891D01*
X869930Y419734D01*
X869848Y419580D01*
X869840Y419554D01*
X869828Y419530D01*
X869783Y419361D01*
X869733Y419194D01*
X869731Y419167D01*
X869724Y419142D01*
X869697Y418811D01*
X869697Y404150D01*
X869699Y404124D01*
X869697Y404097D01*
X869719Y403923D01*
X869737Y403750D01*
X869744Y403724D01*
X869748Y403697D01*
X869803Y403532D01*
X869855Y403365D01*
X869868Y403341D01*
X869876Y403316D01*
X869964Y403164D01*
X870047Y403011D01*
X870064Y402990D01*
X870077Y402967D01*
X870292Y402714D01*
X872774Y400231D01*
X873562Y398329D01*
X873564Y398325D01*
X873566Y398321D01*
X873659Y398148D01*
X873753Y397974D01*
X873755Y397970D01*
X873758Y397966D01*
X873882Y397818D01*
X874009Y397663D01*
X874012Y397661D01*
X874015Y397657D01*
X874168Y397534D01*
X874322Y397410D01*
X874326Y397408D01*
X874329Y397405D01*
X874502Y397315D01*
X874678Y397223D01*
X874682Y397221D01*
X874686Y397219D01*
X874874Y397165D01*
X875065Y397110D01*
X875069Y397109D01*
X875073Y397108D01*
X875271Y397092D01*
X875466Y397075D01*
X875470Y397075D01*
X875475Y397075D01*
X875669Y397098D01*
X875866Y397120D01*
X875870Y397122D01*
X875874Y397122D01*
X876060Y397183D01*
X876249Y397243D01*
X876253Y397245D01*
X876257Y397247D01*
X876429Y397344D01*
X876601Y397440D01*
X876604Y397443D01*
X876608Y397445D01*
X876755Y397572D01*
X876906Y397701D01*
X876909Y397705D01*
X876913Y397708D01*
X877033Y397863D01*
X877155Y398018D01*
X877157Y398022D01*
X877159Y398026D01*
X877248Y398204D01*
X877335Y398378D01*
X877337Y398382D01*
X877339Y398387D01*
X877390Y398578D01*
X877442Y398767D01*
X877442Y398771D01*
X877443Y398775D01*
X877470Y399106D01*
X877470Y401974D01*
X878089Y403467D01*
X879233Y404611D01*
X880726Y405230D01*
X897274Y405230D01*
X898767Y404611D01*
X899911Y403467D01*
X900530Y401974D01*
X900530Y385426D01*
X899911Y383933D01*
X898767Y382789D01*
X897274Y382170D01*
X897128Y382170D01*
X897110Y382168D01*
X897092Y382170D01*
X896910Y382149D01*
X896727Y382130D01*
X896710Y382125D01*
X896693Y382123D01*
X896518Y382066D01*
X896342Y382012D01*
X896327Y382004D01*
X896310Y381998D01*
X896150Y381908D01*
X895988Y381820D01*
X895975Y381809D01*
X895959Y381800D01*
X895820Y381680D01*
X895679Y381563D01*
X895668Y381549D01*
X895654Y381537D01*
X895542Y381392D01*
X895427Y381249D01*
X895419Y381233D01*
X895408Y381219D01*
X895326Y381054D01*
X895241Y380892D01*
X895236Y380875D01*
X895228Y380859D01*
X895181Y380680D01*
X895130Y380505D01*
X895128Y380487D01*
X895124Y380470D01*
X895097Y380139D01*
X895097Y315017D01*
X894169Y312776D01*
X879610Y298218D01*
X879593Y298197D01*
X879572Y298179D01*
X879465Y298041D01*
X879355Y297906D01*
X879342Y297882D01*
X879326Y297861D01*
X879248Y297704D01*
X879166Y297550D01*
X879158Y297525D01*
X879146Y297501D01*
X879101Y297331D01*
X879051Y297164D01*
X879049Y297138D01*
X879042Y297112D01*
X879015Y296781D01*
X879015Y292332D01*
X877248Y288066D01*
X874102Y284920D01*
X874085Y284899D01*
X874064Y284882D01*
X873957Y284744D01*
X873847Y284609D01*
X873834Y284585D01*
X873818Y284564D01*
X873740Y284407D01*
X873658Y284253D01*
X873650Y284227D01*
X873638Y284203D01*
X873593Y284034D01*
X873543Y283867D01*
X873541Y283840D01*
X873534Y283814D01*
X873507Y283484D01*
X873507Y261647D01*
X872579Y259406D01*
X796125Y182953D01*
X796108Y182932D01*
X796087Y182914D01*
X795980Y182776D01*
X795870Y182641D01*
X795857Y182617D01*
X795841Y182596D01*
X795763Y182439D01*
X795681Y182285D01*
X795673Y182260D01*
X795661Y182236D01*
X795616Y182066D01*
X795566Y181899D01*
X795564Y181873D01*
X795557Y181847D01*
X795530Y181516D01*
X795530Y176665D01*
X793712Y172277D01*
X790353Y168918D01*
X785965Y167100D01*
X781215Y167100D01*
X776827Y168918D01*
X773468Y172277D01*
X771650Y176665D01*
X771650Y181415D01*
X773468Y185803D01*
X776827Y189162D01*
X781215Y190980D01*
X786066Y190980D01*
X786093Y190982D01*
X786120Y190980D01*
X786293Y191002D01*
X786467Y191020D01*
X786492Y191027D01*
X786519Y191031D01*
X786685Y191086D01*
X786852Y191138D01*
X786875Y191151D01*
X786901Y191159D01*
X787052Y191246D01*
X787206Y191330D01*
X787226Y191347D01*
X787250Y191360D01*
X787503Y191575D01*
X860718Y264790D01*
X860735Y264811D01*
X860756Y264829D01*
X860863Y264967D01*
X860973Y265102D01*
X860986Y265126D01*
X861002Y265147D01*
X861080Y265304D01*
X861162Y265458D01*
X861170Y265483D01*
X861182Y265507D01*
X861227Y265677D01*
X861277Y265844D01*
X861279Y265870D01*
X861286Y265896D01*
X861313Y266227D01*
X861313Y283484D01*
X861311Y283510D01*
X861313Y283537D01*
X861291Y283711D01*
X861273Y283884D01*
X861266Y283910D01*
X861262Y283937D01*
X861207Y284102D01*
X861155Y284269D01*
X861142Y284293D01*
X861134Y284318D01*
X861047Y284470D01*
X860963Y284623D01*
X860946Y284644D01*
X860933Y284667D01*
X860718Y284920D01*
X857572Y288066D01*
X855805Y292332D01*
X855805Y296948D01*
X857572Y301214D01*
X860836Y304478D01*
X861734Y304850D01*
X861735Y304850D01*
X863215Y305463D01*
X863223Y305468D01*
X863232Y305470D01*
X863401Y305563D01*
X863570Y305654D01*
X863577Y305659D01*
X863585Y305664D01*
X863732Y305787D01*
X863881Y305910D01*
X863886Y305917D01*
X863893Y305923D01*
X864014Y306074D01*
X864134Y306223D01*
X864138Y306230D01*
X864144Y306238D01*
X864233Y306411D01*
X864321Y306579D01*
X864324Y306588D01*
X864328Y306596D01*
X864381Y306782D01*
X864434Y306966D01*
X864435Y306975D01*
X864438Y306983D01*
X864452Y307174D01*
X864469Y307367D01*
X864468Y307376D01*
X864469Y307384D01*
X864445Y307576D01*
X864424Y307767D01*
X864421Y307775D01*
X864420Y307784D01*
X864360Y307967D01*
X864301Y308150D01*
X864296Y308158D01*
X864294Y308166D01*
X864198Y308333D01*
X864104Y308502D01*
X864099Y308508D01*
X864094Y308516D01*
X863969Y308660D01*
X863843Y308807D01*
X863835Y308813D01*
X863830Y308820D01*
X863677Y308937D01*
X863526Y309056D01*
X863518Y309060D01*
X863510Y309065D01*
X863215Y309217D01*
X860836Y310202D01*
X857690Y313348D01*
X857669Y313365D01*
X857652Y313386D01*
X857514Y313493D01*
X857379Y313603D01*
X857355Y313616D01*
X857334Y313632D01*
X857177Y313710D01*
X857023Y313792D01*
X856997Y313800D01*
X856973Y313812D01*
X856804Y313857D01*
X856637Y313907D01*
X856610Y313909D01*
X856585Y313916D01*
X856254Y313943D01*
X797561Y313943D01*
X797543Y313941D01*
X797525Y313943D01*
X797343Y313922D01*
X797160Y313903D01*
X797143Y313898D01*
X797126Y313896D01*
X796951Y313839D01*
X796775Y313785D01*
X796760Y313777D01*
X796743Y313771D01*
X796583Y313681D01*
X796421Y313593D01*
X796408Y313582D01*
X796392Y313573D01*
X796253Y313453D01*
X796112Y313336D01*
X796101Y313322D01*
X796087Y313310D01*
X795975Y313165D01*
X795860Y313022D01*
X795852Y313006D01*
X795841Y312992D01*
X795759Y312827D01*
X795674Y312665D01*
X795669Y312648D01*
X795661Y312632D01*
X795614Y312453D01*
X795563Y312278D01*
X795561Y312260D01*
X795557Y312243D01*
X795530Y311912D01*
X795530Y311356D01*
X794911Y309863D01*
X793767Y308719D01*
X792274Y308100D01*
X774906Y308100D01*
X773413Y308719D01*
X772269Y309863D01*
X771650Y311356D01*
X771650Y328724D01*
X772269Y330217D01*
X773413Y331361D01*
X774906Y331980D01*
X775462Y331980D01*
X775480Y331982D01*
X775498Y331980D01*
X775680Y332001D01*
X775863Y332020D01*
X775880Y332025D01*
X775897Y332027D01*
X776072Y332084D01*
X776248Y332138D01*
X776263Y332146D01*
X776280Y332152D01*
X776440Y332242D01*
X776602Y332330D01*
X776615Y332341D01*
X776631Y332350D01*
X776770Y332470D01*
X776911Y332587D01*
X776922Y332601D01*
X776936Y332613D01*
X777048Y332758D01*
X777163Y332901D01*
X777171Y332917D01*
X777182Y332931D01*
X777264Y333096D01*
X777349Y333258D01*
X777354Y333275D01*
X777362Y333291D01*
X777409Y333470D01*
X777460Y333645D01*
X777462Y333663D01*
X777466Y333680D01*
X777493Y334011D01*
X777493Y550353D01*
X777491Y550380D01*
X777493Y550407D01*
X777471Y550580D01*
X777453Y550754D01*
X777446Y550779D01*
X777442Y550806D01*
X777387Y550972D01*
X777335Y551139D01*
X777322Y551162D01*
X777314Y551188D01*
X777227Y551339D01*
X777143Y551493D01*
X777126Y551513D01*
X777113Y551537D01*
X776898Y551790D01*
X776580Y552108D01*
X776559Y552125D01*
X776541Y552146D01*
X776403Y552253D01*
X776268Y552363D01*
X776244Y552376D01*
X776223Y552392D01*
X776066Y552470D01*
X775912Y552552D01*
X775887Y552560D01*
X775863Y552572D01*
X775693Y552617D01*
X775526Y552667D01*
X775500Y552669D01*
X775474Y552676D01*
X775143Y552703D01*
X645987Y552703D01*
X645960Y552701D01*
X645933Y552703D01*
X645760Y552681D01*
X645586Y552663D01*
X645561Y552656D01*
X645534Y552652D01*
X645368Y552597D01*
X645201Y552545D01*
X645178Y552532D01*
X645152Y552524D01*
X645001Y552437D01*
X644847Y552353D01*
X644827Y552336D01*
X644803Y552323D01*
X644550Y552108D01*
X644232Y551790D01*
X644215Y551769D01*
X644194Y551751D01*
X644087Y551613D01*
X643977Y551478D01*
X643964Y551454D01*
X643948Y551433D01*
X643870Y551276D01*
X643788Y551122D01*
X643780Y551097D01*
X643768Y551073D01*
X643723Y550903D01*
X643673Y550736D01*
X643671Y550710D01*
X643664Y550684D01*
X643637Y550353D01*
X643637Y334011D01*
X643639Y333993D01*
X643637Y333975D01*
X643658Y333793D01*
X643677Y333610D01*
X643682Y333593D01*
X643684Y333576D01*
X643741Y333401D01*
X643795Y333225D01*
X643803Y333210D01*
X643809Y333193D01*
X643899Y333033D01*
X643987Y332871D01*
X643998Y332858D01*
X644007Y332842D01*
X644127Y332703D01*
X644244Y332562D01*
X644258Y332551D01*
X644270Y332537D01*
X644415Y332425D01*
X644558Y332310D01*
X644574Y332302D01*
X644588Y332291D01*
X644753Y332209D01*
X644915Y332124D01*
X644932Y332119D01*
X644948Y332111D01*
X645127Y332064D01*
X645302Y332013D01*
X645320Y332011D01*
X645337Y332007D01*
X645668Y331980D01*
X646224Y331980D01*
X647717Y331361D01*
X648861Y330217D01*
X649480Y328724D01*
X649480Y328168D01*
X649482Y328150D01*
X649480Y328132D01*
X649501Y327950D01*
X649520Y327767D01*
X649525Y327750D01*
X649527Y327733D01*
X649584Y327558D01*
X649638Y327382D01*
X649646Y327367D01*
X649652Y327350D01*
X649742Y327190D01*
X649830Y327028D01*
X649841Y327015D01*
X649850Y326999D01*
X649970Y326860D01*
X650087Y326719D01*
X650101Y326708D01*
X650113Y326694D01*
X650258Y326582D01*
X650401Y326467D01*
X650417Y326459D01*
X650431Y326448D01*
X650596Y326366D01*
X650758Y326281D01*
X650775Y326276D01*
X650791Y326268D01*
X650970Y326221D01*
X651145Y326170D01*
X651163Y326168D01*
X651180Y326164D01*
X651511Y326137D01*
X711474Y326137D01*
X711500Y326139D01*
X711527Y326137D01*
X711701Y326159D01*
X711874Y326177D01*
X711900Y326184D01*
X711927Y326188D01*
X712092Y326244D01*
X712259Y326295D01*
X712283Y326308D01*
X712308Y326316D01*
X712460Y326403D01*
X712613Y326487D01*
X712634Y326504D01*
X712657Y326517D01*
X712910Y326732D01*
X716056Y329878D01*
X719384Y331256D01*
X720322Y331645D01*
X724938Y331645D01*
X729204Y329878D01*
X732468Y326614D01*
X734215Y322395D01*
X734217Y322391D01*
X734219Y322387D01*
X734312Y322214D01*
X734406Y322040D01*
X734408Y322037D01*
X734411Y322033D01*
X734535Y321884D01*
X734662Y321730D01*
X734665Y321727D01*
X734668Y321724D01*
X734821Y321601D01*
X734975Y321476D01*
X734979Y321474D01*
X734982Y321471D01*
X735157Y321380D01*
X735331Y321289D01*
X735335Y321288D01*
X735339Y321286D01*
X735529Y321231D01*
X735718Y321176D01*
X735722Y321176D01*
X735726Y321174D01*
X735924Y321158D01*
X736119Y321141D01*
X736123Y321142D01*
X736128Y321141D01*
X736325Y321165D01*
X736519Y321186D01*
X736523Y321188D01*
X736527Y321188D01*
X736716Y321250D01*
X736902Y321310D01*
X736906Y321312D01*
X736910Y321313D01*
X737083Y321411D01*
X737254Y321506D01*
X737257Y321509D01*
X737261Y321511D01*
X737410Y321640D01*
X737559Y321768D01*
X737562Y321771D01*
X737566Y321774D01*
X737684Y321927D01*
X737808Y322085D01*
X737810Y322089D01*
X737812Y322092D01*
X737899Y322267D01*
X737988Y322445D01*
X737990Y322449D01*
X737992Y322453D01*
X738043Y322646D01*
X738095Y322833D01*
X738095Y322837D01*
X738096Y322842D01*
X738123Y323172D01*
X738123Y380139D01*
X738121Y380157D01*
X738123Y380175D01*
X738102Y380357D01*
X738083Y380540D01*
X738078Y380557D01*
X738076Y380574D01*
X738019Y380749D01*
X737965Y380925D01*
X737957Y380940D01*
X737951Y380957D01*
X737861Y381117D01*
X737773Y381279D01*
X737762Y381292D01*
X737753Y381308D01*
X737633Y381447D01*
X737516Y381588D01*
X737502Y381599D01*
X737490Y381613D01*
X737345Y381725D01*
X737202Y381840D01*
X737186Y381848D01*
X737172Y381859D01*
X737007Y381941D01*
X736845Y382026D01*
X736828Y382031D01*
X736812Y382039D01*
X736633Y382086D01*
X736458Y382137D01*
X736440Y382139D01*
X736423Y382143D01*
X736092Y382170D01*
X735946Y382170D01*
X734453Y382789D01*
X733309Y383933D01*
X732690Y385426D01*
X732690Y388294D01*
X732690Y388298D01*
X732690Y388303D01*
X732670Y388497D01*
X732650Y388695D01*
X732649Y388699D01*
X732649Y388703D01*
X732590Y388891D01*
X732532Y389079D01*
X732530Y389083D01*
X732529Y389088D01*
X732434Y389261D01*
X732340Y389434D01*
X732338Y389437D01*
X732335Y389441D01*
X732207Y389594D01*
X732083Y389743D01*
X732079Y389746D01*
X732076Y389749D01*
X731921Y389873D01*
X731769Y389995D01*
X731765Y389997D01*
X731762Y390000D01*
X731581Y390092D01*
X731412Y390181D01*
X731407Y390182D01*
X731403Y390184D01*
X731213Y390238D01*
X731025Y390292D01*
X731020Y390292D01*
X731016Y390294D01*
X730824Y390308D01*
X730623Y390325D01*
X730619Y390324D01*
X730615Y390325D01*
X730421Y390301D01*
X730224Y390278D01*
X730219Y390277D01*
X730215Y390276D01*
X730030Y390215D01*
X729841Y390153D01*
X729837Y390151D01*
X729833Y390150D01*
X729664Y390053D01*
X729490Y389955D01*
X729487Y389952D01*
X729483Y389950D01*
X729336Y389822D01*
X729186Y389692D01*
X729183Y389688D01*
X729179Y389686D01*
X729059Y389529D01*
X728939Y389374D01*
X728937Y389370D01*
X728934Y389366D01*
X728782Y389071D01*
X727994Y387169D01*
X724751Y383926D01*
X720513Y382170D01*
X715927Y382170D01*
X711689Y383926D01*
X708446Y387169D01*
X706690Y391407D01*
X706690Y395993D01*
X708446Y400231D01*
X711747Y403532D01*
X711824Y403574D01*
X711841Y403588D01*
X711861Y403599D01*
X711997Y403716D01*
X712135Y403830D01*
X712149Y403847D01*
X712166Y403862D01*
X712275Y404003D01*
X712388Y404143D01*
X712399Y404163D01*
X712412Y404180D01*
X712492Y404340D01*
X712575Y404499D01*
X712582Y404521D01*
X712592Y404541D01*
X712638Y404714D01*
X712688Y404886D01*
X712690Y404908D01*
X712696Y404929D01*
X712723Y405260D01*
X712723Y418811D01*
X712721Y418837D01*
X712723Y418864D01*
X712701Y419038D01*
X712683Y419212D01*
X712676Y419237D01*
X712672Y419264D01*
X712617Y419429D01*
X712565Y419596D01*
X712552Y419620D01*
X712544Y419645D01*
X712457Y419797D01*
X712373Y419950D01*
X712356Y419971D01*
X712343Y419994D01*
X712128Y420247D01*
X709406Y422970D01*
X707715Y427051D01*
X707715Y431469D01*
X709406Y435550D01*
X712530Y438674D01*
X716611Y440365D01*
X721029Y440365D01*
X725110Y438674D01*
X728234Y435550D01*
X729925Y431469D01*
X729925Y427051D01*
X728234Y422970D01*
X725512Y420247D01*
X725495Y420226D01*
X725474Y420209D01*
X725367Y420071D01*
X725257Y419936D01*
X725244Y419912D01*
X725228Y419891D01*
X725150Y419734D01*
X725068Y419580D01*
X725060Y419554D01*
X725048Y419530D01*
X725003Y419361D01*
X724953Y419194D01*
X724951Y419167D01*
X724944Y419142D01*
X724917Y418811D01*
X724917Y404150D01*
X724919Y404124D01*
X724917Y404097D01*
X724939Y403923D01*
X724957Y403749D01*
X724964Y403724D01*
X724968Y403697D01*
X725024Y403532D01*
X725075Y403365D01*
X725088Y403341D01*
X725096Y403316D01*
X725183Y403164D01*
X725267Y403011D01*
X725284Y402990D01*
X725297Y402967D01*
X725512Y402714D01*
X727994Y400231D01*
X728782Y398329D01*
X728784Y398325D01*
X728786Y398321D01*
X728879Y398148D01*
X728973Y397974D01*
X728975Y397970D01*
X728978Y397966D01*
X729102Y397818D01*
X729229Y397663D01*
X729232Y397661D01*
X729235Y397657D01*
X729388Y397534D01*
X729542Y397410D01*
X729546Y397408D01*
X729549Y397405D01*
X729722Y397315D01*
X729898Y397223D01*
X729902Y397221D01*
X729906Y397219D01*
X730094Y397165D01*
X730285Y397110D01*
X730289Y397109D01*
X730293Y397108D01*
X730491Y397092D01*
X730686Y397075D01*
X730690Y397075D01*
X730695Y397075D01*
X730889Y397098D01*
X731086Y397120D01*
X731090Y397122D01*
X731094Y397122D01*
X731280Y397183D01*
X731469Y397243D01*
X731473Y397245D01*
X731477Y397247D01*
X731649Y397344D01*
X731821Y397440D01*
X731824Y397443D01*
X731828Y397445D01*
X731975Y397572D01*
X732126Y397701D01*
X732129Y397705D01*
X732133Y397708D01*
X732253Y397863D01*
X732375Y398018D01*
X732377Y398022D01*
X732379Y398026D01*
X732468Y398204D01*
X732555Y398378D01*
X732557Y398382D01*
X732559Y398387D01*
X732610Y398578D01*
X732662Y398767D01*
X732662Y398771D01*
X732663Y398775D01*
X732690Y399106D01*
X732690Y401974D01*
X733309Y403467D01*
X734453Y404611D01*
X735946Y405230D01*
X752494Y405230D01*
X753987Y404611D01*
X755131Y403467D01*
X755750Y401974D01*
X755750Y385426D01*
X755131Y383933D01*
X753987Y382789D01*
X752494Y382170D01*
X752348Y382170D01*
X752330Y382168D01*
X752312Y382170D01*
X752130Y382149D01*
X751947Y382130D01*
X751930Y382125D01*
X751913Y382123D01*
X751738Y382066D01*
X751562Y382012D01*
X751547Y382004D01*
X751530Y381998D01*
X751370Y381908D01*
X751208Y381820D01*
X751195Y381809D01*
X751179Y381800D01*
X751040Y381680D01*
X750899Y381563D01*
X750888Y381549D01*
X750874Y381537D01*
X750762Y381392D01*
X750647Y381249D01*
X750639Y381233D01*
X750628Y381219D01*
X750546Y381054D01*
X750461Y380892D01*
X750456Y380875D01*
X750448Y380859D01*
X750401Y380680D01*
X750350Y380505D01*
X750348Y380487D01*
X750344Y380470D01*
X750317Y380139D01*
X750317Y315017D01*
X749389Y312776D01*
X734830Y298218D01*
X734813Y298197D01*
X734792Y298179D01*
X734685Y298041D01*
X734575Y297906D01*
X734562Y297882D01*
X734546Y297861D01*
X734468Y297704D01*
X734386Y297550D01*
X734378Y297525D01*
X734366Y297501D01*
X734321Y297331D01*
X734271Y297164D01*
X734269Y297138D01*
X734262Y297112D01*
X734235Y296781D01*
X734235Y292332D01*
X732468Y288066D01*
X729322Y284920D01*
X729305Y284899D01*
X729284Y284882D01*
X729177Y284744D01*
X729067Y284609D01*
X729054Y284585D01*
X729038Y284564D01*
X728960Y284407D01*
X728878Y284253D01*
X728870Y284227D01*
X728858Y284203D01*
X728813Y284034D01*
X728763Y283867D01*
X728761Y283840D01*
X728754Y283814D01*
X728727Y283484D01*
X728727Y262917D01*
X727799Y260676D01*
X725798Y258676D01*
X650075Y182953D01*
X650058Y182932D01*
X650037Y182914D01*
X649930Y182776D01*
X649820Y182641D01*
X649807Y182617D01*
X649791Y182596D01*
X649713Y182439D01*
X649631Y182285D01*
X649623Y182260D01*
X649611Y182236D01*
X649566Y182066D01*
X649516Y181899D01*
X649514Y181873D01*
X649507Y181847D01*
X649480Y181516D01*
X649480Y176665D01*
X647662Y172277D01*
X644303Y168918D01*
X639915Y167100D01*
X635165Y167100D01*
X630777Y168918D01*
X627418Y172277D01*
X625600Y176665D01*
X625600Y181415D01*
X627418Y185803D01*
X630777Y189162D01*
X635165Y190980D01*
X640016Y190980D01*
X640043Y190982D01*
X640070Y190980D01*
X640244Y191002D01*
X640417Y191020D01*
X640442Y191027D01*
X640469Y191031D01*
X640635Y191086D01*
X640802Y191138D01*
X640825Y191151D01*
X640851Y191159D01*
X641002Y191246D01*
X641156Y191330D01*
X641176Y191347D01*
X641200Y191360D01*
X641453Y191575D01*
X715938Y266060D01*
X715955Y266081D01*
X715976Y266099D01*
X716083Y266237D01*
X716193Y266372D01*
X716206Y266396D01*
X716222Y266417D01*
X716300Y266574D01*
X716382Y266728D01*
X716390Y266753D01*
X716402Y266777D01*
X716447Y266947D01*
X716497Y267114D01*
X716499Y267140D01*
X716506Y267166D01*
X716533Y267497D01*
X716533Y283484D01*
X716531Y283510D01*
X716533Y283537D01*
X716511Y283711D01*
X716493Y283884D01*
X716486Y283910D01*
X716482Y283937D01*
X716427Y284102D01*
X716375Y284269D01*
X716362Y284293D01*
X716354Y284318D01*
X716267Y284470D01*
X716183Y284623D01*
X716166Y284644D01*
X716153Y284667D01*
X715938Y284920D01*
X712792Y288066D01*
X711025Y292332D01*
X711025Y296948D01*
X712792Y301214D01*
X716056Y304478D01*
X716954Y304850D01*
X716955Y304850D01*
X718435Y305463D01*
X718443Y305468D01*
X718452Y305470D01*
X718621Y305563D01*
X718790Y305654D01*
X718797Y305659D01*
X718805Y305664D01*
X718952Y305787D01*
X719101Y305910D01*
X719106Y305917D01*
X719113Y305923D01*
X719234Y306074D01*
X719354Y306223D01*
X719358Y306230D01*
X719364Y306238D01*
X719453Y306411D01*
X719541Y306579D01*
X719544Y306588D01*
X719548Y306596D01*
X719601Y306782D01*
X719654Y306966D01*
X719655Y306975D01*
X719658Y306983D01*
X719672Y307174D01*
X719689Y307367D01*
X719688Y307376D01*
X719689Y307384D01*
X719665Y307576D01*
X719644Y307767D01*
X719641Y307775D01*
X719640Y307784D01*
X719580Y307967D01*
X719521Y308150D01*
X719516Y308158D01*
X719514Y308166D01*
X719418Y308333D01*
X719324Y308502D01*
X719319Y308508D01*
X719314Y308516D01*
X719189Y308660D01*
X719063Y308807D01*
X719055Y308813D01*
X719050Y308820D01*
X718897Y308937D01*
X718746Y309056D01*
X718738Y309060D01*
X718730Y309065D01*
X718435Y309217D01*
X716056Y310202D01*
X712910Y313348D01*
X712889Y313365D01*
X712872Y313386D01*
X712734Y313493D01*
X712599Y313603D01*
X712575Y313616D01*
X712554Y313632D01*
X712397Y313710D01*
X712243Y313792D01*
X712217Y313800D01*
X712193Y313812D01*
X712024Y313857D01*
X711857Y313907D01*
X711830Y313909D01*
X711805Y313916D01*
X711474Y313943D01*
X651511Y313943D01*
X651493Y313941D01*
X651475Y313943D01*
X651293Y313922D01*
X651110Y313903D01*
X651093Y313898D01*
X651076Y313896D01*
X650901Y313839D01*
X650725Y313785D01*
X650710Y313777D01*
X650693Y313771D01*
X650533Y313681D01*
X650371Y313593D01*
X650358Y313582D01*
X650342Y313573D01*
X650203Y313453D01*
X650062Y313336D01*
X650051Y313322D01*
X650037Y313310D01*
X649925Y313165D01*
X649810Y313022D01*
X649802Y313006D01*
X649791Y312992D01*
X649709Y312827D01*
X649624Y312665D01*
X649619Y312648D01*
X649611Y312632D01*
X649564Y312453D01*
X649513Y312278D01*
X649511Y312260D01*
X649507Y312243D01*
X649480Y311912D01*
X649480Y311356D01*
X648861Y309863D01*
X647717Y308719D01*
X646224Y308100D01*
X628856Y308100D01*
X627363Y308719D01*
X626219Y309863D01*
X625600Y311356D01*
X625600Y328724D01*
X626219Y330217D01*
X627363Y331361D01*
X628856Y331980D01*
X629412Y331980D01*
X629430Y331982D01*
X629448Y331980D01*
X629630Y332001D01*
X629813Y332020D01*
X629830Y332025D01*
X629847Y332027D01*
X630022Y332084D01*
X630198Y332138D01*
X630213Y332146D01*
X630230Y332152D01*
X630390Y332242D01*
X630552Y332330D01*
X630565Y332341D01*
X630581Y332350D01*
X630720Y332470D01*
X630861Y332587D01*
X630872Y332601D01*
X630886Y332613D01*
X630998Y332758D01*
X631113Y332901D01*
X631121Y332917D01*
X631132Y332931D01*
X631214Y333096D01*
X631299Y333258D01*
X631304Y333275D01*
X631312Y333291D01*
X631359Y333470D01*
X631410Y333645D01*
X631412Y333663D01*
X631416Y333680D01*
X631443Y334011D01*
X631443Y550353D01*
X631441Y550380D01*
X631443Y550407D01*
X631421Y550580D01*
X631403Y550754D01*
X631396Y550779D01*
X631392Y550806D01*
X631337Y550972D01*
X631285Y551139D01*
X631272Y551162D01*
X631264Y551188D01*
X631177Y551339D01*
X631093Y551493D01*
X631076Y551513D01*
X631063Y551537D01*
X630848Y551790D01*
X630530Y552108D01*
X630509Y552125D01*
X630491Y552146D01*
X630353Y552253D01*
X630218Y552363D01*
X630194Y552376D01*
X630173Y552392D01*
X630016Y552470D01*
X629862Y552552D01*
X629837Y552560D01*
X629813Y552572D01*
X629643Y552617D01*
X629476Y552667D01*
X629450Y552669D01*
X629424Y552676D01*
X629093Y552703D01*
X502477Y552703D01*
X502450Y552701D01*
X502423Y552703D01*
X502250Y552681D01*
X502076Y552663D01*
X502051Y552656D01*
X502024Y552652D01*
X501858Y552597D01*
X501691Y552545D01*
X501668Y552532D01*
X501642Y552524D01*
X501491Y552437D01*
X501337Y552353D01*
X501317Y552336D01*
X501293Y552323D01*
X501040Y552108D01*
X498182Y549250D01*
X498165Y549229D01*
X498144Y549211D01*
X498037Y549073D01*
X497927Y548938D01*
X497914Y548914D01*
X497898Y548893D01*
X497820Y548737D01*
X497738Y548582D01*
X497730Y548557D01*
X497718Y548533D01*
X497673Y548364D01*
X497623Y548197D01*
X497621Y548170D01*
X497614Y548144D01*
X497587Y547813D01*
X497587Y334011D01*
X497589Y333993D01*
X497587Y333975D01*
X497608Y333793D01*
X497627Y333610D01*
X497632Y333593D01*
X497634Y333576D01*
X497691Y333401D01*
X497745Y333225D01*
X497753Y333210D01*
X497759Y333193D01*
X497849Y333033D01*
X497937Y332871D01*
X497948Y332858D01*
X497957Y332842D01*
X498077Y332703D01*
X498194Y332562D01*
X498208Y332551D01*
X498220Y332537D01*
X498365Y332425D01*
X498508Y332310D01*
X498524Y332302D01*
X498538Y332291D01*
X498703Y332209D01*
X498865Y332124D01*
X498882Y332119D01*
X498898Y332111D01*
X499077Y332064D01*
X499252Y332013D01*
X499270Y332011D01*
X499287Y332007D01*
X499618Y331980D01*
X500174Y331980D01*
X501667Y331361D01*
X502811Y330217D01*
X503430Y328724D01*
X503430Y328168D01*
X503432Y328150D01*
X503430Y328132D01*
X503451Y327950D01*
X503470Y327767D01*
X503475Y327750D01*
X503477Y327733D01*
X503534Y327558D01*
X503588Y327382D01*
X503596Y327367D01*
X503602Y327350D01*
X503692Y327190D01*
X503780Y327028D01*
X503791Y327015D01*
X503800Y326999D01*
X503920Y326860D01*
X504037Y326719D01*
X504051Y326708D01*
X504063Y326694D01*
X504208Y326582D01*
X504351Y326467D01*
X504367Y326459D01*
X504381Y326448D01*
X504546Y326366D01*
X504708Y326281D01*
X504725Y326276D01*
X504741Y326268D01*
X504920Y326221D01*
X505095Y326170D01*
X505113Y326168D01*
X505130Y326164D01*
X505461Y326137D01*
X566694Y326137D01*
X566720Y326139D01*
X566747Y326137D01*
X566921Y326159D01*
X567094Y326177D01*
X567120Y326184D01*
X567147Y326188D01*
X567312Y326244D01*
X567479Y326295D01*
X567503Y326308D01*
X567528Y326316D01*
X567680Y326403D01*
X567833Y326487D01*
X567854Y326504D01*
X567877Y326517D01*
X568130Y326732D01*
X571276Y329878D01*
X574604Y331256D01*
X575542Y331645D01*
X580158Y331645D01*
X584424Y329878D01*
X587688Y326614D01*
X589435Y322395D01*
X589437Y322391D01*
X589439Y322387D01*
X589532Y322214D01*
X589626Y322040D01*
X589628Y322037D01*
X589631Y322033D01*
X589755Y321884D01*
X589882Y321730D01*
X589885Y321727D01*
X589888Y321724D01*
X590041Y321601D01*
X590195Y321476D01*
X590199Y321474D01*
X590202Y321471D01*
X590377Y321380D01*
X590551Y321289D01*
X590555Y321288D01*
X590559Y321286D01*
X590749Y321231D01*
X590938Y321176D01*
X590942Y321176D01*
X590946Y321174D01*
X591144Y321158D01*
X591339Y321141D01*
X591343Y321142D01*
X591348Y321141D01*
X591545Y321165D01*
X591739Y321186D01*
X591743Y321188D01*
X591747Y321188D01*
X591936Y321250D01*
X592122Y321310D01*
X592126Y321312D01*
X592130Y321313D01*
X592303Y321411D01*
X592474Y321506D01*
X592477Y321509D01*
X592481Y321511D01*
X592630Y321640D01*
X592779Y321768D01*
X592782Y321771D01*
X592786Y321774D01*
X592904Y321927D01*
X593028Y322085D01*
X593030Y322089D01*
X593032Y322092D01*
X593119Y322267D01*
X593208Y322445D01*
X593210Y322449D01*
X593212Y322453D01*
X593263Y322646D01*
X593315Y322833D01*
X593315Y322837D01*
X593316Y322842D01*
X593343Y323172D01*
X593343Y380139D01*
X593341Y380157D01*
X593343Y380175D01*
X593322Y380357D01*
X593303Y380540D01*
X593298Y380557D01*
X593296Y380574D01*
X593239Y380749D01*
X593185Y380925D01*
X593177Y380940D01*
X593171Y380957D01*
X593081Y381117D01*
X592993Y381279D01*
X592982Y381292D01*
X592973Y381308D01*
X592853Y381447D01*
X592736Y381588D01*
X592722Y381599D01*
X592710Y381613D01*
X592565Y381725D01*
X592422Y381840D01*
X592406Y381848D01*
X592392Y381859D01*
X592227Y381941D01*
X592065Y382026D01*
X592048Y382031D01*
X592032Y382039D01*
X591853Y382086D01*
X591678Y382137D01*
X591660Y382139D01*
X591643Y382143D01*
X591312Y382170D01*
X591166Y382170D01*
X589673Y382789D01*
X588529Y383933D01*
X587910Y385426D01*
X587910Y388294D01*
X587910Y388298D01*
X587910Y388303D01*
X587890Y388497D01*
X587870Y388695D01*
X587869Y388699D01*
X587869Y388703D01*
X587811Y388889D01*
X587752Y389079D01*
X587750Y389083D01*
X587749Y389088D01*
X587655Y389259D01*
X587560Y389433D01*
X587558Y389437D01*
X587555Y389441D01*
X587428Y389592D01*
X587303Y389743D01*
X587299Y389745D01*
X587296Y389749D01*
X587142Y389872D01*
X586989Y389995D01*
X586985Y389997D01*
X586982Y390000D01*
X586806Y390090D01*
X586632Y390181D01*
X586627Y390182D01*
X586623Y390184D01*
X586435Y390237D01*
X586245Y390292D01*
X586240Y390292D01*
X586236Y390294D01*
X586043Y390308D01*
X585843Y390325D01*
X585839Y390324D01*
X585835Y390325D01*
X585642Y390301D01*
X585444Y390278D01*
X585439Y390277D01*
X585435Y390276D01*
X585249Y390214D01*
X585061Y390153D01*
X585057Y390151D01*
X585053Y390149D01*
X584881Y390052D01*
X584710Y389955D01*
X584707Y389952D01*
X584703Y389950D01*
X584554Y389820D01*
X584406Y389692D01*
X584403Y389689D01*
X584399Y389686D01*
X584279Y389529D01*
X584159Y389374D01*
X584157Y389370D01*
X584154Y389366D01*
X584002Y389071D01*
X583214Y387169D01*
X579971Y383926D01*
X575733Y382170D01*
X571147Y382170D01*
X566909Y383926D01*
X563666Y387169D01*
X561910Y391407D01*
X561910Y395993D01*
X563666Y400231D01*
X566078Y402644D01*
X566095Y402665D01*
X566116Y402682D01*
X566223Y402820D01*
X566333Y402955D01*
X566346Y402979D01*
X566362Y403000D01*
X566440Y403157D01*
X566522Y403311D01*
X566530Y403337D01*
X566542Y403361D01*
X566587Y403530D01*
X566637Y403697D01*
X566639Y403724D01*
X566646Y403749D01*
X566673Y404080D01*
X566673Y418811D01*
X566671Y418837D01*
X566673Y418864D01*
X566651Y419038D01*
X566633Y419212D01*
X566626Y419237D01*
X566622Y419264D01*
X566567Y419429D01*
X566515Y419596D01*
X566502Y419620D01*
X566494Y419645D01*
X566407Y419797D01*
X566323Y419950D01*
X566306Y419971D01*
X566293Y419994D01*
X566078Y420247D01*
X563356Y422970D01*
X561665Y427051D01*
X561665Y431469D01*
X563356Y435550D01*
X566480Y438674D01*
X570561Y440365D01*
X574979Y440365D01*
X579060Y438674D01*
X582184Y435550D01*
X583875Y431469D01*
X583875Y427051D01*
X582184Y422970D01*
X579462Y420247D01*
X579445Y420226D01*
X579424Y420209D01*
X579317Y420071D01*
X579207Y419936D01*
X579194Y419912D01*
X579178Y419891D01*
X579100Y419734D01*
X579018Y419580D01*
X579010Y419554D01*
X578998Y419530D01*
X578953Y419361D01*
X578903Y419194D01*
X578901Y419167D01*
X578894Y419142D01*
X578867Y418811D01*
X578867Y405289D01*
X578869Y405267D01*
X578867Y405245D01*
X578889Y405067D01*
X578907Y404888D01*
X578913Y404867D01*
X578916Y404845D01*
X578972Y404674D01*
X579025Y404504D01*
X579035Y404484D01*
X579042Y404463D01*
X579131Y404307D01*
X579217Y404150D01*
X579231Y404132D01*
X579242Y404113D01*
X579360Y403978D01*
X579474Y403840D01*
X579492Y403826D01*
X579506Y403810D01*
X579648Y403700D01*
X579788Y403588D01*
X579808Y403578D01*
X579825Y403564D01*
X579940Y403505D01*
X583214Y400231D01*
X584002Y398329D01*
X584004Y398325D01*
X584006Y398321D01*
X584101Y398145D01*
X584193Y397974D01*
X584195Y397970D01*
X584198Y397967D01*
X584323Y397816D01*
X584449Y397664D01*
X584452Y397661D01*
X584455Y397657D01*
X584608Y397534D01*
X584762Y397410D01*
X584766Y397408D01*
X584769Y397405D01*
X584944Y397314D01*
X585118Y397223D01*
X585122Y397222D01*
X585126Y397219D01*
X585316Y397165D01*
X585505Y397110D01*
X585509Y397109D01*
X585513Y397108D01*
X585711Y397092D01*
X585906Y397075D01*
X585910Y397076D01*
X585915Y397075D01*
X586112Y397098D01*
X586306Y397120D01*
X586310Y397122D01*
X586314Y397122D01*
X586503Y397184D01*
X586689Y397243D01*
X586693Y397246D01*
X586697Y397247D01*
X586870Y397344D01*
X587041Y397440D01*
X587044Y397443D01*
X587048Y397445D01*
X587197Y397573D01*
X587346Y397702D01*
X587349Y397705D01*
X587353Y397708D01*
X587472Y397862D01*
X587595Y398019D01*
X587597Y398023D01*
X587599Y398026D01*
X587687Y398203D01*
X587775Y398378D01*
X587777Y398383D01*
X587779Y398387D01*
X587830Y398579D01*
X587882Y398767D01*
X587882Y398771D01*
X587883Y398775D01*
X587910Y399106D01*
X587910Y401974D01*
X588529Y403467D01*
X589673Y404611D01*
X591166Y405230D01*
X607714Y405230D01*
X609207Y404611D01*
X610351Y403467D01*
X610970Y401974D01*
X610970Y385426D01*
X610351Y383933D01*
X609207Y382789D01*
X607714Y382170D01*
X607568Y382170D01*
X607550Y382168D01*
X607532Y382170D01*
X607350Y382149D01*
X607167Y382130D01*
X607150Y382125D01*
X607133Y382123D01*
X606958Y382066D01*
X606782Y382012D01*
X606767Y382004D01*
X606750Y381998D01*
X606590Y381908D01*
X606428Y381820D01*
X606415Y381809D01*
X606399Y381800D01*
X606260Y381680D01*
X606119Y381563D01*
X606108Y381549D01*
X606094Y381537D01*
X605982Y381392D01*
X605867Y381249D01*
X605859Y381233D01*
X605848Y381219D01*
X605766Y381054D01*
X605681Y380892D01*
X605676Y380875D01*
X605668Y380859D01*
X605621Y380680D01*
X605570Y380505D01*
X605568Y380487D01*
X605564Y380470D01*
X605537Y380139D01*
X605537Y315017D01*
X604609Y312776D01*
X590050Y298218D01*
X590033Y298197D01*
X590012Y298179D01*
X589905Y298041D01*
X589795Y297906D01*
X589782Y297882D01*
X589766Y297861D01*
X589688Y297704D01*
X589606Y297550D01*
X589598Y297525D01*
X589586Y297501D01*
X589541Y297331D01*
X589491Y297164D01*
X589489Y297138D01*
X589482Y297112D01*
X589455Y296781D01*
X589455Y292332D01*
X587688Y288066D01*
X584542Y284920D01*
X584525Y284899D01*
X584504Y284882D01*
X584397Y284744D01*
X584287Y284609D01*
X584274Y284585D01*
X584258Y284564D01*
X584180Y284407D01*
X584098Y284253D01*
X584090Y284227D01*
X584078Y284203D01*
X584033Y284034D01*
X583983Y283867D01*
X583981Y283840D01*
X583974Y283814D01*
X583947Y283484D01*
X583947Y264187D01*
X583019Y261946D01*
X581018Y259946D01*
X504025Y182953D01*
X504008Y182932D01*
X503987Y182914D01*
X503880Y182776D01*
X503770Y182641D01*
X503757Y182617D01*
X503741Y182596D01*
X503663Y182439D01*
X503581Y182285D01*
X503573Y182260D01*
X503561Y182236D01*
X503516Y182066D01*
X503466Y181899D01*
X503464Y181873D01*
X503457Y181847D01*
X503430Y181516D01*
X503430Y176665D01*
X501612Y172277D01*
X498253Y168918D01*
X493865Y167100D01*
X489115Y167100D01*
X484727Y168918D01*
X481368Y172277D01*
X479550Y176665D01*
X479550Y181415D01*
X481368Y185803D01*
X484727Y189162D01*
X489115Y190980D01*
X493966Y190980D01*
X493993Y190982D01*
X494020Y190980D01*
X494194Y191002D01*
X494367Y191020D01*
X494392Y191027D01*
X494419Y191031D01*
X494585Y191086D01*
X494752Y191138D01*
X494775Y191151D01*
X494801Y191159D01*
X494952Y191246D01*
X495106Y191330D01*
X495126Y191347D01*
X495150Y191360D01*
X495403Y191575D01*
X571158Y267330D01*
X571175Y267351D01*
X571196Y267369D01*
X571303Y267507D01*
X571413Y267642D01*
X571426Y267666D01*
X571442Y267687D01*
X571520Y267844D01*
X571602Y267998D01*
X571610Y268023D01*
X571622Y268047D01*
X571667Y268217D01*
X571717Y268384D01*
X571719Y268410D01*
X571726Y268436D01*
X571753Y268767D01*
X571753Y283484D01*
X571751Y283510D01*
X571753Y283537D01*
X571731Y283711D01*
X571713Y283884D01*
X571706Y283910D01*
X571702Y283937D01*
X571647Y284102D01*
X571595Y284269D01*
X571582Y284293D01*
X571574Y284318D01*
X571487Y284470D01*
X571403Y284623D01*
X571386Y284644D01*
X571373Y284667D01*
X571158Y284920D01*
X568012Y288066D01*
X566245Y292332D01*
X566245Y296948D01*
X568012Y301214D01*
X571276Y304478D01*
X572174Y304850D01*
X572175Y304850D01*
X573655Y305463D01*
X573663Y305468D01*
X573672Y305470D01*
X573841Y305563D01*
X574010Y305654D01*
X574017Y305659D01*
X574025Y305664D01*
X574172Y305787D01*
X574321Y305910D01*
X574326Y305917D01*
X574333Y305923D01*
X574454Y306074D01*
X574574Y306223D01*
X574578Y306230D01*
X574584Y306238D01*
X574673Y306411D01*
X574761Y306579D01*
X574764Y306588D01*
X574768Y306596D01*
X574821Y306782D01*
X574874Y306966D01*
X574875Y306975D01*
X574878Y306983D01*
X574892Y307174D01*
X574909Y307367D01*
X574908Y307376D01*
X574909Y307384D01*
X574885Y307576D01*
X574864Y307767D01*
X574861Y307775D01*
X574860Y307784D01*
X574800Y307967D01*
X574741Y308150D01*
X574736Y308158D01*
X574734Y308166D01*
X574638Y308333D01*
X574544Y308502D01*
X574539Y308508D01*
X574534Y308516D01*
X574409Y308660D01*
X574283Y308807D01*
X574275Y308813D01*
X574270Y308820D01*
X574117Y308937D01*
X573966Y309056D01*
X573958Y309060D01*
X573950Y309065D01*
X573655Y309217D01*
X571276Y310202D01*
X568130Y313348D01*
X568109Y313365D01*
X568092Y313386D01*
X567954Y313493D01*
X567819Y313603D01*
X567795Y313616D01*
X567774Y313632D01*
X567617Y313710D01*
X567463Y313792D01*
X567437Y313800D01*
X567413Y313812D01*
X567244Y313857D01*
X567077Y313907D01*
X567050Y313909D01*
X567025Y313916D01*
X566694Y313943D01*
X505461Y313943D01*
X505443Y313941D01*
X505425Y313943D01*
X505243Y313922D01*
X505060Y313903D01*
X505043Y313898D01*
X505026Y313896D01*
X504851Y313839D01*
X504675Y313785D01*
X504660Y313777D01*
X504643Y313771D01*
X504483Y313681D01*
X504321Y313593D01*
X504308Y313582D01*
X504292Y313573D01*
X504153Y313453D01*
X504012Y313336D01*
X504001Y313322D01*
X503987Y313310D01*
X503875Y313165D01*
X503760Y313022D01*
X503752Y313006D01*
X503741Y312992D01*
X503659Y312827D01*
X503574Y312665D01*
X503569Y312648D01*
X503561Y312632D01*
X503514Y312453D01*
X503463Y312278D01*
X503461Y312260D01*
X503457Y312243D01*
X503430Y311912D01*
X503430Y311356D01*
X502811Y309863D01*
X501667Y308719D01*
X500174Y308100D01*
X482806Y308100D01*
X481313Y308719D01*
X480169Y309863D01*
X479550Y311356D01*
X479550Y328724D01*
X480169Y330217D01*
X481313Y331361D01*
X482806Y331980D01*
X483362Y331980D01*
X483380Y331982D01*
X483398Y331980D01*
X483580Y332001D01*
X483763Y332020D01*
X483780Y332025D01*
X483797Y332027D01*
X483972Y332084D01*
X484148Y332138D01*
X484163Y332146D01*
X484180Y332152D01*
X484340Y332242D01*
X484502Y332330D01*
X484515Y332341D01*
X484531Y332350D01*
X484670Y332470D01*
X484811Y332587D01*
X484822Y332601D01*
X484836Y332613D01*
X484948Y332758D01*
X485063Y332901D01*
X485071Y332917D01*
X485082Y332931D01*
X485164Y333096D01*
X485249Y333258D01*
X485254Y333275D01*
X485262Y333291D01*
X485309Y333470D01*
X485360Y333645D01*
X485362Y333663D01*
X485366Y333680D01*
X485393Y334011D01*
X485393Y547813D01*
X485391Y547840D01*
X485393Y547867D01*
X485371Y548041D01*
X485353Y548214D01*
X485346Y548239D01*
X485342Y548266D01*
X485287Y548432D01*
X485235Y548599D01*
X485222Y548622D01*
X485214Y548648D01*
X485127Y548799D01*
X485043Y548953D01*
X485026Y548973D01*
X485013Y548997D01*
X484798Y549250D01*
X481940Y552108D01*
X481919Y552125D01*
X481901Y552146D01*
X481763Y552253D01*
X481628Y552363D01*
X481604Y552376D01*
X481583Y552392D01*
X481426Y552470D01*
X481272Y552552D01*
X481247Y552560D01*
X481223Y552572D01*
X481053Y552617D01*
X480886Y552667D01*
X480860Y552669D01*
X480834Y552676D01*
X480503Y552703D01*
X379787Y552703D01*
X377205Y553773D01*
X377192Y553777D01*
X377181Y553783D01*
X377001Y553835D01*
X376820Y553889D01*
X376807Y553891D01*
X376794Y553894D01*
X376606Y553910D01*
X376419Y553927D01*
X376406Y553926D01*
X376392Y553927D01*
X376206Y553905D01*
X376019Y553886D01*
X376006Y553882D01*
X375993Y553880D01*
X375814Y553822D01*
X375634Y553766D01*
X375623Y553759D01*
X375610Y553755D01*
X375446Y553663D01*
X375281Y553573D01*
X375271Y553564D01*
X375259Y553557D01*
X375117Y553435D01*
X374973Y553313D01*
X374965Y553303D01*
X374954Y553294D01*
X374840Y553146D01*
X374722Y552999D01*
X374716Y552987D01*
X374708Y552976D01*
X374624Y552808D01*
X374538Y552641D01*
X374534Y552628D01*
X374528Y552616D01*
X374479Y552433D01*
X374428Y552253D01*
X374427Y552240D01*
X374424Y552227D01*
X374397Y551896D01*
X374397Y455987D01*
X373469Y453746D01*
X371468Y451746D01*
X349592Y429870D01*
X349575Y429849D01*
X349554Y429831D01*
X349447Y429693D01*
X349337Y429558D01*
X349324Y429534D01*
X349308Y429513D01*
X349230Y429356D01*
X349148Y429202D01*
X349140Y429177D01*
X349128Y429153D01*
X349083Y428983D01*
X349033Y428816D01*
X349031Y428790D01*
X349024Y428764D01*
X348997Y428433D01*
X348997Y334011D01*
X348999Y333993D01*
X348997Y333975D01*
X349018Y333793D01*
X349037Y333610D01*
X349042Y333593D01*
X349044Y333576D01*
X349101Y333401D01*
X349155Y333225D01*
X349163Y333210D01*
X349169Y333193D01*
X349259Y333033D01*
X349347Y332871D01*
X349358Y332858D01*
X349367Y332842D01*
X349487Y332703D01*
X349604Y332562D01*
X349618Y332551D01*
X349630Y332537D01*
X349775Y332425D01*
X349918Y332310D01*
X349934Y332302D01*
X349948Y332291D01*
X350113Y332209D01*
X350275Y332124D01*
X350292Y332119D01*
X350308Y332111D01*
X350487Y332064D01*
X350662Y332013D01*
X350680Y332011D01*
X350697Y332007D01*
X351028Y331980D01*
X354124Y331980D01*
X355617Y331361D01*
X356761Y330217D01*
X357380Y328724D01*
X357380Y328168D01*
X357382Y328150D01*
X357380Y328132D01*
X357401Y327950D01*
X357420Y327767D01*
X357425Y327750D01*
X357427Y327733D01*
X357484Y327558D01*
X357538Y327382D01*
X357546Y327367D01*
X357552Y327350D01*
X357642Y327190D01*
X357730Y327028D01*
X357741Y327015D01*
X357750Y326999D01*
X357870Y326860D01*
X357987Y326719D01*
X358001Y326708D01*
X358013Y326694D01*
X358158Y326582D01*
X358301Y326467D01*
X358317Y326459D01*
X358331Y326448D01*
X358496Y326366D01*
X358658Y326281D01*
X358675Y326276D01*
X358691Y326268D01*
X358870Y326221D01*
X359045Y326170D01*
X359063Y326168D01*
X359080Y326164D01*
X359411Y326137D01*
X421914Y326137D01*
X421940Y326139D01*
X421967Y326137D01*
X422141Y326159D01*
X422314Y326177D01*
X422340Y326184D01*
X422367Y326188D01*
X422532Y326244D01*
X422699Y326295D01*
X422723Y326308D01*
X422748Y326316D01*
X422900Y326403D01*
X423053Y326487D01*
X423074Y326504D01*
X423097Y326517D01*
X423350Y326732D01*
X426496Y329878D01*
X429824Y331256D01*
X430762Y331645D01*
X435378Y331645D01*
X439644Y329878D01*
X442908Y326614D01*
X443385Y325461D01*
X443387Y325457D01*
X443389Y325453D01*
X443482Y325280D01*
X443576Y325106D01*
X443578Y325103D01*
X443581Y325099D01*
X443706Y324948D01*
X443832Y324796D01*
X443835Y324793D01*
X443838Y324790D01*
X443989Y324668D01*
X444145Y324542D01*
X444149Y324540D01*
X444152Y324537D01*
X444324Y324448D01*
X444501Y324355D01*
X444505Y324354D01*
X444509Y324352D01*
X444697Y324298D01*
X444888Y324242D01*
X444892Y324242D01*
X444896Y324240D01*
X445094Y324224D01*
X445289Y324207D01*
X445293Y324208D01*
X445298Y324207D01*
X445493Y324230D01*
X445689Y324252D01*
X445693Y324254D01*
X445697Y324254D01*
X445885Y324316D01*
X446072Y324376D01*
X446076Y324378D01*
X446080Y324379D01*
X446253Y324477D01*
X446424Y324572D01*
X446427Y324575D01*
X446431Y324577D01*
X446579Y324705D01*
X446729Y324834D01*
X446732Y324837D01*
X446736Y324840D01*
X446856Y324995D01*
X446978Y325151D01*
X446980Y325155D01*
X446982Y325158D01*
X447070Y325335D01*
X447158Y325511D01*
X447160Y325515D01*
X447162Y325519D01*
X447213Y325710D01*
X447265Y325899D01*
X447265Y325903D01*
X447266Y325908D01*
X447293Y326238D01*
X447293Y380139D01*
X447291Y380157D01*
X447293Y380175D01*
X447272Y380357D01*
X447253Y380540D01*
X447248Y380557D01*
X447246Y380574D01*
X447189Y380749D01*
X447135Y380925D01*
X447127Y380940D01*
X447121Y380957D01*
X447031Y381117D01*
X446943Y381279D01*
X446932Y381292D01*
X446923Y381308D01*
X446803Y381447D01*
X446686Y381588D01*
X446672Y381599D01*
X446660Y381613D01*
X446515Y381725D01*
X446372Y381840D01*
X446356Y381848D01*
X446342Y381859D01*
X446177Y381941D01*
X446015Y382026D01*
X445998Y382031D01*
X445982Y382039D01*
X445803Y382086D01*
X445628Y382137D01*
X445610Y382139D01*
X445593Y382143D01*
X445262Y382170D01*
X445116Y382170D01*
X443623Y382789D01*
X442479Y383933D01*
X441860Y385426D01*
X441860Y388294D01*
X441860Y388298D01*
X441860Y388303D01*
X441840Y388497D01*
X441820Y388695D01*
X441819Y388699D01*
X441819Y388703D01*
X441762Y388886D01*
X441702Y389079D01*
X441700Y389083D01*
X441699Y389088D01*
X441605Y389259D01*
X441510Y389433D01*
X441508Y389437D01*
X441505Y389441D01*
X441378Y389592D01*
X441253Y389743D01*
X441249Y389746D01*
X441246Y389749D01*
X441092Y389872D01*
X440939Y389995D01*
X440935Y389997D01*
X440932Y390000D01*
X440757Y390090D01*
X440582Y390181D01*
X440577Y390182D01*
X440573Y390184D01*
X440386Y390237D01*
X440195Y390292D01*
X440190Y390292D01*
X440186Y390294D01*
X439993Y390308D01*
X439793Y390325D01*
X439789Y390324D01*
X439785Y390325D01*
X439591Y390301D01*
X439394Y390278D01*
X439389Y390277D01*
X439385Y390276D01*
X439200Y390215D01*
X439011Y390153D01*
X439007Y390151D01*
X439003Y390149D01*
X438831Y390052D01*
X438660Y389955D01*
X438657Y389952D01*
X438653Y389950D01*
X438502Y389819D01*
X438356Y389692D01*
X438353Y389689D01*
X438349Y389686D01*
X438229Y389529D01*
X438109Y389374D01*
X438107Y389370D01*
X438104Y389366D01*
X437952Y389071D01*
X437164Y387169D01*
X433921Y383926D01*
X429683Y382170D01*
X425097Y382170D01*
X420859Y383926D01*
X417616Y387169D01*
X415860Y391407D01*
X415860Y395993D01*
X417616Y400231D01*
X420698Y403314D01*
X420715Y403335D01*
X420736Y403352D01*
X420843Y403490D01*
X420953Y403625D01*
X420966Y403649D01*
X420982Y403670D01*
X421060Y403826D01*
X421142Y403981D01*
X421150Y404007D01*
X421162Y404031D01*
X421207Y404200D01*
X421257Y404367D01*
X421259Y404394D01*
X421266Y404419D01*
X421293Y404750D01*
X421293Y418141D01*
X421291Y418167D01*
X421293Y418194D01*
X421271Y418368D01*
X421253Y418542D01*
X421246Y418567D01*
X421242Y418594D01*
X421187Y418759D01*
X421135Y418926D01*
X421122Y418950D01*
X421114Y418975D01*
X421027Y419127D01*
X420943Y419280D01*
X420926Y419301D01*
X420913Y419324D01*
X420698Y419577D01*
X417306Y422970D01*
X415615Y427051D01*
X415615Y431469D01*
X417306Y435550D01*
X420430Y438674D01*
X424511Y440365D01*
X428929Y440365D01*
X433010Y438674D01*
X436134Y435550D01*
X437825Y431469D01*
X437825Y427051D01*
X436134Y422970D01*
X434082Y420917D01*
X434065Y420896D01*
X434044Y420879D01*
X433937Y420741D01*
X433827Y420606D01*
X433814Y420582D01*
X433798Y420561D01*
X433720Y420404D01*
X433638Y420250D01*
X433630Y420224D01*
X433618Y420200D01*
X433573Y420031D01*
X433523Y419864D01*
X433521Y419837D01*
X433514Y419812D01*
X433487Y419481D01*
X433487Y404750D01*
X433489Y404724D01*
X433487Y404697D01*
X433509Y404523D01*
X433527Y404350D01*
X433534Y404324D01*
X433538Y404297D01*
X433593Y404132D01*
X433645Y403965D01*
X433658Y403941D01*
X433666Y403916D01*
X433753Y403764D01*
X433837Y403611D01*
X433854Y403590D01*
X433867Y403567D01*
X434082Y403314D01*
X437164Y400231D01*
X437952Y398329D01*
X437954Y398325D01*
X437956Y398321D01*
X438049Y398148D01*
X438143Y397974D01*
X438145Y397970D01*
X438148Y397967D01*
X438272Y397818D01*
X438399Y397664D01*
X438402Y397661D01*
X438405Y397657D01*
X438558Y397534D01*
X438712Y397410D01*
X438716Y397408D01*
X438719Y397405D01*
X438894Y397314D01*
X439068Y397223D01*
X439072Y397221D01*
X439076Y397219D01*
X439266Y397165D01*
X439455Y397110D01*
X439459Y397109D01*
X439463Y397108D01*
X439661Y397092D01*
X439856Y397075D01*
X439860Y397076D01*
X439865Y397075D01*
X440062Y397098D01*
X440256Y397120D01*
X440260Y397122D01*
X440264Y397122D01*
X440453Y397184D01*
X440639Y397243D01*
X440643Y397245D01*
X440647Y397247D01*
X440820Y397344D01*
X440991Y397440D01*
X440994Y397443D01*
X440998Y397445D01*
X441145Y397572D01*
X441296Y397702D01*
X441299Y397705D01*
X441303Y397708D01*
X441421Y397860D01*
X441545Y398019D01*
X441547Y398023D01*
X441549Y398026D01*
X441636Y398201D01*
X441725Y398378D01*
X441727Y398382D01*
X441729Y398387D01*
X441780Y398579D01*
X441832Y398767D01*
X441832Y398771D01*
X441833Y398775D01*
X441860Y399106D01*
X441860Y401974D01*
X442479Y403467D01*
X443623Y404611D01*
X445116Y405230D01*
X461664Y405230D01*
X463157Y404611D01*
X464301Y403467D01*
X464920Y401974D01*
X464920Y385426D01*
X464301Y383933D01*
X463157Y382789D01*
X461664Y382170D01*
X461518Y382170D01*
X461500Y382168D01*
X461482Y382170D01*
X461300Y382149D01*
X461117Y382130D01*
X461100Y382125D01*
X461083Y382123D01*
X460908Y382066D01*
X460732Y382012D01*
X460717Y382004D01*
X460700Y381998D01*
X460540Y381908D01*
X460378Y381820D01*
X460365Y381809D01*
X460349Y381800D01*
X460210Y381680D01*
X460069Y381563D01*
X460058Y381549D01*
X460044Y381537D01*
X459932Y381392D01*
X459817Y381249D01*
X459809Y381233D01*
X459798Y381219D01*
X459716Y381054D01*
X459631Y380892D01*
X459626Y380875D01*
X459618Y380859D01*
X459571Y380680D01*
X459520Y380505D01*
X459518Y380487D01*
X459514Y380470D01*
X459487Y380139D01*
X459487Y313747D01*
X458559Y311506D01*
X445270Y298218D01*
X445253Y298197D01*
X445232Y298179D01*
X445125Y298041D01*
X445015Y297906D01*
X445002Y297882D01*
X444986Y297861D01*
X444908Y297704D01*
X444826Y297550D01*
X444818Y297525D01*
X444806Y297501D01*
X444761Y297331D01*
X444711Y297164D01*
X444709Y297138D01*
X444702Y297112D01*
X444675Y296781D01*
X444675Y292332D01*
X442908Y288066D01*
X439762Y284920D01*
X439745Y284899D01*
X439724Y284882D01*
X439617Y284744D01*
X439507Y284609D01*
X439494Y284585D01*
X439478Y284564D01*
X439399Y284407D01*
X439318Y284253D01*
X439310Y284227D01*
X439298Y284203D01*
X439253Y284034D01*
X439203Y283867D01*
X439201Y283840D01*
X439194Y283815D01*
X439167Y283484D01*
X439167Y265457D01*
X438239Y263216D01*
X357975Y182953D01*
X357958Y182932D01*
X357937Y182914D01*
X357830Y182776D01*
X357720Y182641D01*
X357707Y182617D01*
X357691Y182596D01*
X357613Y182439D01*
X357531Y182285D01*
X357523Y182260D01*
X357511Y182236D01*
X357466Y182066D01*
X357416Y181899D01*
X357414Y181873D01*
X357407Y181847D01*
X357380Y181516D01*
X357380Y176665D01*
X355562Y172277D01*
X352203Y168918D01*
X347815Y167100D01*
X343065Y167100D01*
X338677Y168918D01*
X335318Y172277D01*
X333500Y176665D01*
X333500Y181415D01*
X335318Y185803D01*
X338677Y189162D01*
X343065Y190980D01*
X347916Y190980D01*
X347943Y190982D01*
X347970Y190980D01*
X348143Y191002D01*
X348317Y191020D01*
X348342Y191027D01*
X348369Y191031D01*
X348535Y191086D01*
X348702Y191138D01*
X348725Y191151D01*
X348751Y191159D01*
X348902Y191246D01*
X349056Y191330D01*
X349076Y191347D01*
X349100Y191360D01*
X349353Y191575D01*
X426378Y268600D01*
X426395Y268621D01*
X426416Y268639D01*
X426523Y268777D01*
X426633Y268912D01*
X426646Y268936D01*
X426662Y268957D01*
X426740Y269114D01*
X426822Y269268D01*
X426830Y269293D01*
X426842Y269317D01*
X426887Y269487D01*
X426937Y269654D01*
X426939Y269680D01*
X426946Y269706D01*
X426973Y270037D01*
X426973Y283484D01*
X426971Y283510D01*
X426973Y283537D01*
X426951Y283711D01*
X426933Y283884D01*
X426926Y283910D01*
X426922Y283937D01*
X426866Y284102D01*
X426815Y284269D01*
X426802Y284293D01*
X426794Y284318D01*
X426707Y284470D01*
X426623Y284623D01*
X426606Y284644D01*
X426593Y284667D01*
X426378Y284920D01*
X423232Y288066D01*
X421465Y292332D01*
X421465Y296948D01*
X423232Y301214D01*
X426496Y304478D01*
X427394Y304850D01*
X427395Y304850D01*
X428875Y305463D01*
X428883Y305468D01*
X428892Y305470D01*
X429061Y305563D01*
X429230Y305654D01*
X429237Y305659D01*
X429245Y305664D01*
X429392Y305787D01*
X429541Y305910D01*
X429546Y305917D01*
X429553Y305923D01*
X429674Y306074D01*
X429794Y306223D01*
X429798Y306230D01*
X429804Y306238D01*
X429893Y306411D01*
X429981Y306579D01*
X429984Y306588D01*
X429988Y306596D01*
X430041Y306782D01*
X430094Y306966D01*
X430095Y306975D01*
X430098Y306983D01*
X430112Y307174D01*
X430129Y307367D01*
X430128Y307376D01*
X430129Y307384D01*
X430105Y307576D01*
X430084Y307767D01*
X430081Y307775D01*
X430080Y307784D01*
X430020Y307967D01*
X429961Y308150D01*
X429956Y308158D01*
X429954Y308166D01*
X429858Y308333D01*
X429764Y308502D01*
X429759Y308508D01*
X429754Y308516D01*
X429629Y308660D01*
X429503Y308807D01*
X429495Y308813D01*
X429490Y308820D01*
X429337Y308937D01*
X429186Y309056D01*
X429178Y309060D01*
X429170Y309065D01*
X428875Y309217D01*
X426496Y310202D01*
X423350Y313348D01*
X423329Y313365D01*
X423312Y313386D01*
X423174Y313493D01*
X423039Y313603D01*
X423015Y313616D01*
X422994Y313632D01*
X422837Y313710D01*
X422683Y313792D01*
X422657Y313800D01*
X422633Y313812D01*
X422464Y313857D01*
X422297Y313907D01*
X422270Y313909D01*
X422245Y313916D01*
X421914Y313943D01*
X359411Y313943D01*
X359393Y313941D01*
X359375Y313943D01*
X359193Y313922D01*
X359010Y313903D01*
X358993Y313898D01*
X358976Y313896D01*
X358801Y313839D01*
X358625Y313785D01*
X358610Y313777D01*
X358593Y313771D01*
X358433Y313681D01*
X358271Y313593D01*
X358258Y313582D01*
X358242Y313573D01*
X358103Y313453D01*
X357962Y313336D01*
X357951Y313322D01*
X357937Y313310D01*
X357825Y313165D01*
X357710Y313022D01*
X357702Y313006D01*
X357691Y312992D01*
X357609Y312827D01*
X357524Y312665D01*
X357519Y312648D01*
X357511Y312632D01*
X357464Y312453D01*
X357413Y312278D01*
X357411Y312260D01*
X357407Y312243D01*
X357380Y311912D01*
X357380Y311356D01*
X356761Y309863D01*
X355617Y308719D01*
X354124Y308100D01*
X336756Y308100D01*
X335263Y308719D01*
X334119Y309863D01*
X333500Y311356D01*
X333500Y328724D01*
X334119Y330217D01*
X335263Y331361D01*
X335549Y331480D01*
X335569Y331490D01*
X335590Y331497D01*
X335746Y331585D01*
X335904Y331670D01*
X335921Y331684D01*
X335941Y331695D01*
X336076Y331812D01*
X336215Y331926D01*
X336229Y331944D01*
X336246Y331958D01*
X336355Y332099D01*
X336468Y332239D01*
X336479Y332259D01*
X336492Y332276D01*
X336572Y332436D01*
X336655Y332595D01*
X336662Y332617D01*
X336672Y332637D01*
X336718Y332810D01*
X336768Y332982D01*
X336770Y333004D01*
X336776Y333026D01*
X336803Y333356D01*
X336803Y433013D01*
X337731Y435254D01*
X361608Y459130D01*
X361625Y459151D01*
X361646Y459169D01*
X361753Y459307D01*
X361863Y459442D01*
X361876Y459466D01*
X361892Y459487D01*
X361970Y459644D01*
X362052Y459798D01*
X362060Y459823D01*
X362072Y459847D01*
X362117Y460017D01*
X362167Y460184D01*
X362169Y460210D01*
X362176Y460236D01*
X362203Y460567D01*
X362203Y585413D01*
X363131Y587654D01*
X393237Y617759D01*
X393243Y617766D01*
X393250Y617772D01*
X393370Y617921D01*
X393492Y618071D01*
X393496Y618079D01*
X393502Y618086D01*
X393591Y618257D01*
X393681Y618426D01*
X393683Y618435D01*
X393687Y618443D01*
X393741Y618628D01*
X393796Y618812D01*
X393796Y618821D01*
X393799Y618830D01*
X393815Y619021D01*
X393832Y619213D01*
X393831Y619222D01*
X393832Y619231D01*
X393810Y619420D01*
X393789Y619614D01*
X393786Y619622D01*
X393785Y619631D01*
X393725Y619813D01*
X393667Y619997D01*
X393663Y620005D01*
X393660Y620014D01*
X393565Y620182D01*
X393472Y620350D01*
X393467Y620357D01*
X393462Y620364D01*
X393336Y620510D01*
X393212Y620657D01*
X393205Y620662D01*
X393199Y620669D01*
X393048Y620787D01*
X392896Y620906D01*
X392888Y620910D01*
X392881Y620916D01*
X392709Y621001D01*
X392537Y621089D01*
X392528Y621091D01*
X392520Y621095D01*
X392334Y621145D01*
X392149Y621197D01*
X392140Y621197D01*
X392132Y621200D01*
X391801Y621227D01*
X324612Y621227D01*
X324594Y621225D01*
X324576Y621226D01*
X324394Y621205D01*
X324211Y621187D01*
X324194Y621182D01*
X324177Y621180D01*
X324002Y621123D01*
X323826Y621069D01*
X323811Y621060D01*
X323794Y621055D01*
X323634Y620964D01*
X323472Y620877D01*
X323459Y620866D01*
X323443Y620857D01*
X323304Y620737D01*
X323163Y620619D01*
X323152Y620605D01*
X323138Y620594D01*
X323026Y620449D01*
X322911Y620306D01*
X322903Y620290D01*
X322892Y620276D01*
X322810Y620111D01*
X322725Y619948D01*
X322720Y619931D01*
X322712Y619915D01*
X322665Y619737D01*
X322614Y619561D01*
X322612Y619544D01*
X322608Y619526D01*
X322581Y619196D01*
X322581Y137831D01*
X322598Y137663D01*
X322609Y137494D01*
X322617Y137462D01*
X322621Y137430D01*
X322670Y137268D01*
X322715Y137105D01*
X322729Y137076D01*
X322739Y137046D01*
X322820Y136896D01*
X322895Y136745D01*
X322915Y136720D01*
X322931Y136691D01*
X323039Y136561D01*
X323143Y136428D01*
X323168Y136407D01*
X323188Y136382D01*
X323320Y136276D01*
X323449Y136166D01*
X323477Y136150D01*
X323502Y136130D01*
X323652Y136052D01*
X323800Y135969D01*
X323831Y135959D01*
X323859Y135944D01*
X324022Y135898D01*
X324183Y135846D01*
X324219Y135841D01*
X324246Y135833D01*
X324332Y135826D01*
X324512Y135802D01*
X325789Y135739D01*
X339029Y133776D01*
X352014Y130523D01*
X364617Y126014D01*
X376717Y120291D01*
X388198Y113409D01*
X398949Y105436D01*
X408867Y96447D01*
X417856Y86529D01*
X425829Y75778D01*
X432711Y64297D01*
X438434Y52197D01*
X442943Y39594D01*
X446196Y26609D01*
X448159Y13369D01*
X448222Y12092D01*
X448247Y11925D01*
X448267Y11757D01*
X448277Y11726D01*
X448282Y11694D01*
X448339Y11535D01*
X448392Y11374D01*
X448408Y11346D01*
X448419Y11315D01*
X448506Y11171D01*
X448590Y11023D01*
X448611Y10999D01*
X448628Y10971D01*
X448742Y10847D01*
X448853Y10718D01*
X448878Y10699D01*
X448900Y10675D01*
X449037Y10575D01*
X449171Y10472D01*
X449200Y10457D01*
X449226Y10438D01*
X449380Y10368D01*
X449532Y10292D01*
X449563Y10284D01*
X449592Y10271D01*
X449757Y10232D01*
X449920Y10188D01*
X449956Y10185D01*
X449984Y10178D01*
X450070Y10176D01*
X450251Y10161D01*
X787999Y10161D01*
X788167Y10178D01*
G37*
%LPC*%
G36*
X523274Y56714D02*
X523274Y56714D01*
X523274Y63800D01*
X523447Y64446D01*
X523782Y65025D01*
X524255Y65498D01*
X524834Y65833D01*
X525480Y66006D01*
X532566Y66006D01*
X532566Y56714D01*
X523274Y56714D01*
G37*
%LPD*%
%LPC*%
G36*
X525480Y40674D02*
X525480Y40674D01*
X524834Y40847D01*
X524255Y41182D01*
X523782Y41655D01*
X523447Y42234D01*
X523274Y42880D01*
X523274Y49966D01*
X532566Y49966D01*
X532566Y40674D01*
X525480Y40674D01*
G37*
%LPD*%
%LPC*%
G36*
X694619Y396099D02*
X694619Y396099D01*
X694619Y403441D01*
X696061Y402973D01*
X697464Y402258D01*
X698738Y401332D01*
X699852Y400218D01*
X700778Y398944D01*
X701493Y397541D01*
X701961Y396099D01*
X694619Y396099D01*
G37*
%LPD*%
%LPC*%
G36*
X403789Y396099D02*
X403789Y396099D01*
X403789Y403441D01*
X405231Y402973D01*
X406634Y402258D01*
X407908Y401332D01*
X409022Y400218D01*
X409948Y398944D01*
X410663Y397541D01*
X411131Y396099D01*
X403789Y396099D01*
G37*
%LPD*%
%LPC*%
G36*
X549839Y396099D02*
X549839Y396099D01*
X549839Y403441D01*
X551281Y402973D01*
X552684Y402258D01*
X553958Y401332D01*
X555072Y400218D01*
X555998Y398944D01*
X556713Y397541D01*
X557181Y396099D01*
X549839Y396099D01*
G37*
%LPD*%
%LPC*%
G36*
X839399Y396099D02*
X839399Y396099D01*
X839399Y403441D01*
X840841Y402973D01*
X842244Y402258D01*
X843518Y401332D01*
X844632Y400218D01*
X845558Y398944D01*
X846273Y397541D01*
X846741Y396099D01*
X839399Y396099D01*
G37*
%LPD*%
%LPC*%
G36*
X839399Y391301D02*
X839399Y391301D01*
X846741Y391301D01*
X846273Y389859D01*
X845558Y388456D01*
X844632Y387182D01*
X843518Y386068D01*
X842244Y385142D01*
X840841Y384427D01*
X839399Y383959D01*
X839399Y391301D01*
G37*
%LPD*%
%LPC*%
G36*
X682479Y396099D02*
X682479Y396099D01*
X682947Y397541D01*
X683662Y398944D01*
X684588Y400218D01*
X685702Y401332D01*
X686976Y402258D01*
X688379Y402973D01*
X689821Y403441D01*
X689821Y396099D01*
X682479Y396099D01*
G37*
%LPD*%
%LPC*%
G36*
X537699Y396099D02*
X537699Y396099D01*
X538167Y397541D01*
X538882Y398944D01*
X539808Y400218D01*
X540922Y401332D01*
X542196Y402258D01*
X543599Y402973D01*
X545041Y403441D01*
X545041Y396099D01*
X537699Y396099D01*
G37*
%LPD*%
%LPC*%
G36*
X827259Y396099D02*
X827259Y396099D01*
X827727Y397541D01*
X828442Y398944D01*
X829368Y400218D01*
X830482Y401332D01*
X831756Y402258D01*
X833159Y402973D01*
X834601Y403441D01*
X834601Y396099D01*
X827259Y396099D01*
G37*
%LPD*%
%LPC*%
G36*
X391649Y396099D02*
X391649Y396099D01*
X392117Y397541D01*
X392832Y398944D01*
X393758Y400218D01*
X394872Y401332D01*
X396146Y402258D01*
X397549Y402973D01*
X398991Y403441D01*
X398991Y396099D01*
X391649Y396099D01*
G37*
%LPD*%
%LPC*%
G36*
X549839Y391301D02*
X549839Y391301D01*
X557181Y391301D01*
X556713Y389859D01*
X555998Y388456D01*
X555072Y387182D01*
X553958Y386068D01*
X552684Y385142D01*
X551281Y384427D01*
X549839Y383959D01*
X549839Y391301D01*
G37*
%LPD*%
%LPC*%
G36*
X694619Y391301D02*
X694619Y391301D01*
X701961Y391301D01*
X701493Y389859D01*
X700778Y388456D01*
X699852Y387182D01*
X698738Y386068D01*
X697464Y385142D01*
X696061Y384427D01*
X694619Y383959D01*
X694619Y391301D01*
G37*
%LPD*%
%LPC*%
G36*
X403789Y391301D02*
X403789Y391301D01*
X411131Y391301D01*
X410663Y389859D01*
X409948Y388456D01*
X409022Y387182D01*
X407908Y386068D01*
X406634Y385142D01*
X405231Y384427D01*
X403789Y383959D01*
X403789Y391301D01*
G37*
%LPD*%
%LPC*%
G36*
X543599Y384427D02*
X543599Y384427D01*
X542196Y385142D01*
X540922Y386068D01*
X539808Y387182D01*
X538882Y388456D01*
X538167Y389859D01*
X537699Y391301D01*
X545041Y391301D01*
X545041Y383959D01*
X543599Y384427D01*
G37*
%LPD*%
%LPC*%
G36*
X397549Y384427D02*
X397549Y384427D01*
X396146Y385142D01*
X394872Y386068D01*
X393758Y387182D01*
X392832Y388456D01*
X392117Y389859D01*
X391649Y391301D01*
X398991Y391301D01*
X398991Y383959D01*
X397549Y384427D01*
G37*
%LPD*%
%LPC*%
G36*
X688379Y384427D02*
X688379Y384427D01*
X686976Y385142D01*
X685702Y386068D01*
X684588Y387182D01*
X683662Y388456D01*
X682947Y389859D01*
X682479Y391301D01*
X689821Y391301D01*
X689821Y383959D01*
X688379Y384427D01*
G37*
%LPD*%
%LPC*%
G36*
X833159Y384427D02*
X833159Y384427D01*
X831756Y385142D01*
X830482Y386068D01*
X829368Y387182D01*
X828442Y388456D01*
X827727Y389859D01*
X827259Y391301D01*
X834601Y391301D01*
X834601Y383959D01*
X833159Y384427D01*
G37*
%LPD*%
%LPC*%
G36*
X576259Y659339D02*
X576259Y659339D01*
X576259Y666433D01*
X577688Y665969D01*
X579031Y665284D01*
X580251Y664398D01*
X581318Y663331D01*
X582204Y662111D01*
X582889Y660768D01*
X583353Y659339D01*
X576259Y659339D01*
G37*
%LPD*%
%LPC*%
G36*
X576259Y654841D02*
X576259Y654841D01*
X583353Y654841D01*
X582889Y653412D01*
X582204Y652068D01*
X581318Y650849D01*
X580251Y649782D01*
X579031Y648896D01*
X577688Y648211D01*
X576259Y647747D01*
X576259Y654841D01*
G37*
%LPD*%
%LPC*%
G36*
X564667Y659339D02*
X564667Y659339D01*
X565131Y660768D01*
X565816Y662111D01*
X566702Y663331D01*
X567769Y664398D01*
X568989Y665284D01*
X570332Y665969D01*
X571761Y666433D01*
X571761Y659339D01*
X564667Y659339D01*
G37*
%LPD*%
%LPC*%
G36*
X570332Y648211D02*
X570332Y648211D01*
X568989Y648896D01*
X567769Y649782D01*
X566702Y650849D01*
X565816Y652068D01*
X565131Y653412D01*
X564667Y654841D01*
X571761Y654841D01*
X571761Y647747D01*
X570332Y648211D01*
G37*
%LPD*%
%LPC*%
G36*
X654031Y680129D02*
X654031Y680129D01*
X660872Y680129D01*
X660857Y680034D01*
X660415Y678674D01*
X659767Y677401D01*
X658926Y676244D01*
X657916Y675234D01*
X656759Y674393D01*
X655486Y673745D01*
X654126Y673303D01*
X654031Y673288D01*
X654031Y680129D01*
G37*
%LPD*%
%LPC*%
G36*
X649874Y673303D02*
X649874Y673303D01*
X648514Y673745D01*
X647241Y674393D01*
X646084Y675234D01*
X645074Y676244D01*
X644233Y677401D01*
X643585Y678674D01*
X643143Y680034D01*
X643128Y680129D01*
X649969Y680129D01*
X649969Y673288D01*
X649874Y673303D01*
G37*
%LPD*%
D10*
X443330Y725680D03*
D11*
X392330Y725680D03*
X392330Y645920D03*
X443330Y645920D03*
D12*
X345440Y320040D03*
D13*
X345440Y179040D03*
D12*
X491490Y320040D03*
D13*
X491490Y179040D03*
D12*
X637540Y320040D03*
D13*
X637540Y179040D03*
D12*
X783590Y320040D03*
D13*
X783590Y179040D03*
D14*
X444500Y825500D03*
D15*
X393700Y825500D03*
D16*
X535940Y53340D03*
D17*
X560940Y53340D03*
X585940Y53340D03*
X610940Y53340D03*
X635940Y53340D03*
X660940Y53340D03*
X685940Y53340D03*
X710940Y53340D03*
D18*
X433070Y320040D03*
X433070Y294640D03*
D19*
X433070Y193040D03*
X433070Y142240D03*
D18*
X577850Y320040D03*
X577850Y294640D03*
D19*
X577850Y193040D03*
X577850Y142240D03*
D18*
X722630Y320040D03*
X722630Y294640D03*
D19*
X722630Y193040D03*
X722630Y142240D03*
D18*
X867410Y320040D03*
X867410Y294640D03*
D19*
X867410Y193040D03*
X867410Y142240D03*
D20*
X574010Y784090D03*
X574010Y758690D03*
X574010Y707890D03*
X574010Y657090D03*
D21*
X453390Y393700D03*
D22*
X427390Y393700D03*
X401390Y393700D03*
D21*
X599440Y393700D03*
D22*
X573440Y393700D03*
X547440Y393700D03*
D21*
X744220Y393700D03*
D22*
X718220Y393700D03*
X692220Y393700D03*
D21*
X889000Y393700D03*
D22*
X863000Y393700D03*
X837000Y393700D03*
D20*
X426720Y429260D03*
X426720Y582260D03*
X572770Y429260D03*
X572770Y582260D03*
X718820Y429260D03*
X718820Y582260D03*
X863600Y429260D03*
X863600Y582260D03*
D23*
X652000Y862160D03*
X652000Y842160D03*
X652000Y822160D03*
X652000Y802160D03*
X652000Y782160D03*
X652000Y762160D03*
X652000Y742160D03*
X652000Y722160D03*
X652000Y702160D03*
X652000Y682160D03*
X872000Y682160D03*
X872000Y702160D03*
X872000Y722160D03*
X872000Y742160D03*
X872000Y762160D03*
X872000Y782160D03*
X872000Y802160D03*
X872000Y822160D03*
X872000Y842160D03*
X872000Y862160D03*
D24*
X433070Y320040D02*
X345440Y320040D01*
X491490Y320040D02*
X577850Y320040D01*
X345440Y320040D02*
X342900Y322580D01*
X342900Y431800D01*
X368300Y457200D01*
X574010Y707890D02*
X593590Y707890D01*
X622300Y736600D02*
X622300Y838200D01*
X646260Y862160D01*
X652000Y862160D01*
X622300Y736600D02*
X593590Y707890D01*
X574010Y707890D02*
X555490Y707890D01*
X464820Y617220D02*
X401320Y617220D01*
X368300Y584200D01*
X368300Y571500D01*
X368300Y457200D01*
X464820Y617220D02*
X555490Y707890D01*
X637540Y320040D02*
X722630Y320040D01*
X783590Y320040D02*
X867410Y320040D01*
X783590Y320040D02*
X783590Y406400D01*
X783590Y410210D01*
X491490Y320040D02*
X491490Y551180D01*
X483870Y558800D01*
X381000Y558800D02*
X368300Y571500D01*
X381000Y558800D02*
X483870Y558800D01*
X637540Y553720D02*
X637540Y320040D01*
X637540Y553720D02*
X632460Y558800D01*
X499110Y558800D02*
X491490Y551180D01*
X499110Y558800D02*
X632460Y558800D01*
X783590Y553720D02*
X783590Y410210D01*
X783590Y553720D02*
X778510Y558800D01*
X642620Y558800D02*
X637540Y553720D01*
X642620Y558800D02*
X778510Y558800D01*
X427390Y428590D02*
X427390Y393700D01*
X427390Y428590D02*
X426720Y429260D01*
X433070Y266670D02*
X345440Y179040D01*
X433070Y266670D02*
X433070Y294640D01*
X453390Y314960D01*
X453390Y393700D01*
X443330Y645920D02*
X534010Y736600D01*
X584200Y736600D01*
X596900Y749300D01*
X596900Y762000D01*
X574810Y784090D01*
X574010Y784090D01*
X417320Y645920D02*
X392330Y645920D01*
X530090Y758690D02*
X574010Y758690D01*
X530090Y758690D02*
X417320Y645920D01*
X406400Y168910D02*
X433070Y142240D01*
X406400Y168910D02*
X406400Y203200D01*
X480060Y142240D02*
X577850Y142240D01*
X481330Y93980D02*
X433070Y142240D01*
X585940Y80810D02*
X585940Y53340D01*
X572770Y93980D02*
X481330Y93980D01*
X572770Y93980D02*
X585940Y80810D01*
X419100Y215900D02*
X406400Y203200D01*
X419100Y215900D02*
X444500Y215900D01*
X457200Y203200D01*
X457200Y165100D01*
X480060Y142240D01*
X433070Y171450D02*
X433070Y193040D01*
X490220Y114300D02*
X584200Y114300D01*
X610940Y87560D01*
X610940Y53340D01*
X490220Y114300D02*
X433070Y171450D01*
X577850Y193040D02*
X635940Y134950D01*
X635940Y53340D01*
X660940Y53340D02*
X660940Y38640D01*
X660400Y38100D01*
X665480Y33020D01*
X786130Y33020D02*
X867410Y114300D01*
X867410Y142240D01*
X786130Y33020D02*
X665480Y33020D01*
X722630Y142240D02*
X867410Y142240D01*
X722630Y193040D02*
X685940Y156350D01*
X685940Y53340D01*
X838835Y164465D02*
X867410Y193040D01*
X838835Y164465D02*
X838200Y163830D01*
X711200Y76200D02*
X698500Y88900D01*
X711200Y76200D02*
X711200Y53600D01*
X710940Y53340D01*
X698500Y88900D02*
X698500Y151130D01*
X712470Y165100D02*
X736600Y165100D01*
X749300Y152400D01*
X826770Y152400D02*
X838200Y163830D01*
X712470Y165100D02*
X698500Y151130D01*
X749300Y152400D02*
X826770Y152400D01*
X872000Y862160D02*
X890440Y862160D01*
X901700Y850900D01*
X901700Y431800D02*
X914400Y419100D01*
X793395Y21590D02*
X584200Y21590D01*
X578598Y21590D01*
X914400Y142595D02*
X914400Y419100D01*
X914400Y142595D02*
X793395Y21590D01*
X901700Y431800D02*
X901700Y850900D01*
X578598Y21590D02*
X575310Y21590D01*
X560940Y35960D02*
X560940Y53340D01*
X560940Y35960D02*
X575310Y21590D01*
X572770Y394370D02*
X572770Y429260D01*
X572770Y394370D02*
X573440Y393700D01*
X577850Y265400D02*
X491490Y179040D01*
X577850Y265400D02*
X577850Y294640D01*
X599440Y316230D01*
X599440Y393700D01*
X718820Y394300D02*
X718820Y429260D01*
X718820Y394300D02*
X718220Y393700D01*
X722630Y264130D02*
X637540Y179040D01*
X722630Y264130D02*
X722630Y294640D01*
X744220Y316230D01*
X744220Y393700D01*
X863600Y394300D02*
X863600Y429260D01*
X863600Y394300D02*
X863000Y393700D01*
X867410Y262860D02*
X783590Y179040D01*
X867410Y262860D02*
X867410Y294640D01*
X889000Y316230D01*
X889000Y393700D01*
X441360Y596900D02*
X426720Y582260D01*
X441360Y596900D02*
X558800Y596900D01*
X596900Y635000D01*
X660400Y635000D01*
X685800Y660400D01*
X685800Y723900D01*
X667540Y742160D01*
X652000Y742160D01*
X612810Y622300D02*
X572770Y582260D01*
X612810Y622300D02*
X736600Y622300D01*
X825500Y711200D01*
X825500Y812800D01*
X854860Y842160D01*
X872000Y842160D01*
X838200Y701640D02*
X718820Y582260D01*
X838200Y701640D02*
X838200Y800100D01*
X860260Y822160D01*
X872000Y822160D01*
X863600Y673760D02*
X863600Y582260D01*
X863600Y673760D02*
X872000Y682160D01*
X444500Y726850D02*
X444500Y825500D01*
X444500Y726850D02*
X443330Y725680D01*
X393700Y727050D02*
X393700Y825500D01*
X393700Y727050D02*
X392330Y725680D01*
M02*
