G04 EAGLE Gerber RS-274X export*
G75*
%MOMM*%
%FSLAX34Y34*%
%LPD*%
%INTop Copper*%
%IPPOS*%
%AMOC8*
5,1,8,0,0,1.08239X$1,22.5*%
G01*
%ADD10R,1.288000X1.288000*%
%ADD11C,1.288000*%
%ADD12R,1.575000X1.575000*%
%ADD13C,1.575000*%
%ADD14C,1.950000*%
%ADD15C,1.508000*%
%ADD16C,1.800000*%
%ADD17C,1.408000*%
%ADD18R,1.493000X1.493000*%
%ADD19C,1.493000*%
%ADD20C,1.308000*%
%ADD21R,2.025000X2.025000*%
%ADD22C,2.025000*%


D10*
X56240Y517250D03*
D11*
X107240Y517250D03*
X107240Y597010D03*
X56240Y597010D03*
D12*
X173250Y443260D03*
D13*
X173250Y302260D03*
D12*
X268200Y556400D03*
D13*
X268200Y415400D03*
D12*
X481200Y556300D03*
D13*
X481200Y415300D03*
D12*
X579000Y444160D03*
D13*
X579000Y303160D03*
D14*
X99140Y458130D03*
X64140Y458130D03*
D15*
X250000Y370000D03*
X250000Y344600D03*
D16*
X250000Y243000D03*
X250000Y192200D03*
D15*
X340000Y370000D03*
X340000Y344600D03*
D16*
X340000Y243000D03*
X340000Y192200D03*
D15*
X430000Y370000D03*
X430000Y344600D03*
D16*
X430000Y243000D03*
X430000Y192200D03*
D15*
X520000Y370000D03*
X520000Y344600D03*
D16*
X520000Y243000D03*
X520000Y192200D03*
D17*
X151500Y684200D03*
X176900Y684200D03*
X227700Y684200D03*
X278500Y684200D03*
D18*
X119600Y250000D03*
D19*
X145600Y250000D03*
X171600Y250000D03*
D18*
X303000Y430400D03*
D19*
X329000Y430400D03*
X355000Y430400D03*
D18*
X395200Y430400D03*
D19*
X421200Y430400D03*
X447200Y430400D03*
D18*
X580600Y250000D03*
D19*
X606600Y250000D03*
X632600Y250000D03*
D17*
X26000Y199300D03*
X179000Y199300D03*
X328600Y487600D03*
X328600Y640600D03*
X421600Y487600D03*
X421600Y640600D03*
X571900Y199300D03*
X724900Y199300D03*
D20*
X514000Y654660D03*
X514000Y634660D03*
X514000Y614660D03*
X514000Y594660D03*
X514000Y574660D03*
X514000Y554660D03*
X514000Y534660D03*
X514000Y514660D03*
X514000Y494660D03*
X514000Y474660D03*
X734000Y474660D03*
X734000Y494660D03*
X734000Y514660D03*
X734000Y534660D03*
X734000Y554660D03*
X734000Y574660D03*
X734000Y594660D03*
X734000Y614660D03*
X734000Y634660D03*
X734000Y654660D03*
D21*
X233000Y70000D03*
D22*
X268000Y70000D03*
X303000Y70000D03*
X338000Y70000D03*
X373000Y70000D03*
X408000Y70000D03*
X443000Y70000D03*
X478000Y70000D03*
X513000Y70000D03*
M02*
