G04 EAGLE Gerber RS-274X export*
G75*
%MOMM*%
%FSLAX34Y34*%
%LPD*%
%INTop Copper*%
%IPPOS*%
%AMOC8*
5,1,8,0,0,1.08239X$1,22.5*%
G01*
%ADD10R,1.288000X1.288000*%
%ADD11C,1.288000*%
%ADD12R,1.575000X1.575000*%
%ADD13C,1.575000*%
%ADD14C,1.950000*%
%ADD15R,2.025000X2.025000*%
%ADD16C,2.025000*%
%ADD17C,1.508000*%
%ADD18C,1.800000*%
%ADD19C,1.408000*%
%ADD20R,1.493000X1.493000*%
%ADD21C,1.493000*%
%ADD22C,1.308000*%
%ADD23R,1.358000X1.358000*%
%ADD24C,1.358000*%
%ADD25C,1.879600*%
%ADD26C,0.406400*%

G36*
X468902Y10169D02*
X468902Y10169D01*
X468972Y10168D01*
X469059Y10189D01*
X469148Y10201D01*
X469213Y10226D01*
X469281Y10243D01*
X469361Y10285D01*
X469444Y10318D01*
X469500Y10359D01*
X469562Y10391D01*
X469629Y10452D01*
X469701Y10504D01*
X469746Y10558D01*
X469798Y10605D01*
X469847Y10680D01*
X469904Y10749D01*
X469934Y10813D01*
X469972Y10871D01*
X470002Y10956D01*
X470040Y11037D01*
X470053Y11106D01*
X470076Y11172D01*
X470083Y11261D01*
X470100Y11349D01*
X470095Y11419D01*
X470101Y11489D01*
X470085Y11577D01*
X470080Y11667D01*
X470058Y11733D01*
X470046Y11802D01*
X470009Y11884D01*
X469982Y11969D01*
X469944Y12028D01*
X469916Y12092D01*
X469860Y12162D01*
X469812Y12238D01*
X469761Y12286D01*
X469717Y12340D01*
X469646Y12394D01*
X469580Y12456D01*
X469519Y12490D01*
X469463Y12532D01*
X469319Y12603D01*
X468580Y12909D01*
X462909Y18580D01*
X459839Y25990D01*
X459839Y34010D01*
X462909Y41420D01*
X468580Y47091D01*
X475990Y50161D01*
X484010Y50161D01*
X491420Y47091D01*
X497091Y41420D01*
X497397Y40681D01*
X497432Y40621D01*
X497458Y40556D01*
X497510Y40483D01*
X497555Y40405D01*
X497603Y40355D01*
X497644Y40299D01*
X497714Y40241D01*
X497776Y40177D01*
X497836Y40140D01*
X497889Y40096D01*
X497971Y40058D01*
X498047Y40011D01*
X498114Y39990D01*
X498177Y39960D01*
X498265Y39943D01*
X498351Y39917D01*
X498421Y39914D01*
X498490Y39900D01*
X498579Y39906D01*
X498669Y39902D01*
X498737Y39916D01*
X498807Y39920D01*
X498892Y39948D01*
X498980Y39966D01*
X499043Y39997D01*
X499109Y40018D01*
X499185Y40066D01*
X499266Y40106D01*
X499319Y40151D01*
X499378Y40188D01*
X499440Y40254D01*
X499508Y40312D01*
X499548Y40369D01*
X499596Y40420D01*
X499639Y40499D01*
X499691Y40572D01*
X499716Y40637D01*
X499750Y40699D01*
X499772Y40786D01*
X499804Y40869D01*
X499812Y40939D01*
X499829Y41006D01*
X499839Y41167D01*
X499839Y294361D01*
X499833Y294411D01*
X499835Y294460D01*
X499813Y294568D01*
X499799Y294677D01*
X499781Y294723D01*
X499771Y294772D01*
X499723Y294870D01*
X499682Y294972D01*
X499653Y295013D01*
X499631Y295057D01*
X499560Y295141D01*
X499496Y295230D01*
X499457Y295262D01*
X499425Y295299D01*
X499335Y295362D01*
X499251Y295433D01*
X499206Y295454D01*
X499165Y295482D01*
X499062Y295521D01*
X498963Y295568D01*
X498914Y295577D01*
X498868Y295595D01*
X498758Y295607D01*
X498651Y295628D01*
X498601Y295625D01*
X498552Y295630D01*
X498443Y295615D01*
X498333Y295608D01*
X498286Y295593D01*
X498237Y295586D01*
X498084Y295534D01*
X495649Y294525D01*
X491431Y294525D01*
X487533Y296140D01*
X484550Y299123D01*
X482935Y303021D01*
X482935Y307239D01*
X484550Y311137D01*
X487645Y314232D01*
X487718Y314327D01*
X487797Y314416D01*
X487815Y314452D01*
X487840Y314484D01*
X487887Y314593D01*
X487942Y314699D01*
X487950Y314738D01*
X487966Y314776D01*
X487985Y314893D01*
X488011Y315009D01*
X488010Y315050D01*
X488016Y315090D01*
X488005Y315208D01*
X488002Y315327D01*
X487990Y315366D01*
X487986Y315406D01*
X487946Y315519D01*
X487913Y315633D01*
X487893Y315667D01*
X487879Y315706D01*
X487812Y315804D01*
X487752Y315907D01*
X487712Y315952D01*
X487700Y315969D01*
X487685Y315982D01*
X487645Y316027D01*
X485011Y318662D01*
X484933Y318722D01*
X484861Y318790D01*
X484808Y318819D01*
X484760Y318856D01*
X484669Y318896D01*
X484582Y318944D01*
X484524Y318959D01*
X484468Y318983D01*
X484370Y318998D01*
X484274Y319023D01*
X484174Y319029D01*
X484154Y319033D01*
X484142Y319031D01*
X484114Y319033D01*
X483657Y319033D01*
X481416Y319961D01*
X474831Y326546D01*
X473903Y328787D01*
X473903Y456949D01*
X473891Y457047D01*
X473888Y457146D01*
X473881Y457169D01*
X473881Y457174D01*
X473871Y457204D01*
X473863Y457264D01*
X473827Y457357D01*
X473799Y457452D01*
X473769Y457504D01*
X473746Y457560D01*
X473688Y457640D01*
X473638Y457726D01*
X473572Y457801D01*
X473560Y457817D01*
X473550Y457825D01*
X473532Y457846D01*
X467846Y463532D01*
X467768Y463592D01*
X467696Y463660D01*
X467643Y463689D01*
X467595Y463726D01*
X467504Y463766D01*
X467418Y463814D01*
X467359Y463829D01*
X467303Y463853D01*
X467205Y463868D01*
X467110Y463893D01*
X467010Y463899D01*
X466989Y463903D01*
X466977Y463901D01*
X466949Y463903D01*
X437181Y463903D01*
X437083Y463891D01*
X436984Y463888D01*
X436926Y463871D01*
X436866Y463863D01*
X436773Y463827D01*
X436678Y463799D01*
X436626Y463769D01*
X436570Y463746D01*
X436490Y463688D01*
X436404Y463638D01*
X436329Y463572D01*
X436313Y463560D01*
X436305Y463550D01*
X436284Y463532D01*
X435609Y462857D01*
X435560Y462794D01*
X435504Y462738D01*
X435463Y462669D01*
X435414Y462606D01*
X435383Y462533D01*
X435342Y462464D01*
X435320Y462387D01*
X435288Y462314D01*
X435275Y462235D01*
X435253Y462159D01*
X435251Y462079D01*
X435238Y462000D01*
X435245Y461920D01*
X435243Y461841D01*
X435260Y461763D01*
X435268Y461683D01*
X435295Y461608D01*
X435312Y461530D01*
X435348Y461459D01*
X435375Y461384D01*
X435420Y461318D01*
X435456Y461247D01*
X435509Y461187D01*
X435554Y461121D01*
X435614Y461068D01*
X435666Y461008D01*
X435733Y460963D01*
X435792Y460910D01*
X435863Y460874D01*
X435881Y460862D01*
X435881Y450160D01*
X435896Y450042D01*
X435903Y449923D01*
X435916Y449885D01*
X435921Y449845D01*
X435964Y449734D01*
X436001Y449621D01*
X436023Y449587D01*
X436038Y449549D01*
X436108Y449453D01*
X436171Y449352D01*
X436201Y449324D01*
X436224Y449292D01*
X436316Y449216D01*
X436403Y449134D01*
X436438Y449115D01*
X436469Y449089D01*
X436577Y449038D01*
X436681Y448981D01*
X436721Y448970D01*
X436757Y448953D01*
X436874Y448931D01*
X436989Y448901D01*
X437050Y448897D01*
X437070Y448893D01*
X437090Y448895D01*
X437150Y448891D01*
X438421Y448891D01*
X438421Y448889D01*
X437150Y448889D01*
X437032Y448874D01*
X436913Y448867D01*
X436875Y448854D01*
X436834Y448849D01*
X436724Y448805D01*
X436611Y448769D01*
X436576Y448747D01*
X436539Y448732D01*
X436443Y448662D01*
X436342Y448599D01*
X436314Y448569D01*
X436281Y448545D01*
X436206Y448454D01*
X436124Y448367D01*
X436104Y448332D01*
X436079Y448300D01*
X436028Y448193D01*
X435970Y448088D01*
X435960Y448049D01*
X435943Y448013D01*
X435921Y447896D01*
X435891Y447781D01*
X435887Y447720D01*
X435883Y447700D01*
X435885Y447680D01*
X435881Y447620D01*
X435881Y437205D01*
X435624Y437245D01*
X433837Y437826D01*
X432163Y438679D01*
X430642Y439784D01*
X429314Y441112D01*
X428209Y442633D01*
X427689Y443653D01*
X427639Y443727D01*
X427597Y443807D01*
X427550Y443859D01*
X427510Y443917D01*
X427443Y443976D01*
X427383Y444042D01*
X427324Y444081D01*
X427272Y444127D01*
X427192Y444167D01*
X427117Y444217D01*
X427051Y444240D01*
X426988Y444271D01*
X426901Y444291D01*
X426816Y444320D01*
X426746Y444326D01*
X426678Y444341D01*
X426589Y444338D01*
X426499Y444345D01*
X426430Y444333D01*
X426360Y444331D01*
X426274Y444306D01*
X426186Y444291D01*
X426122Y444262D01*
X426055Y444242D01*
X425978Y444197D01*
X425896Y444160D01*
X425841Y444116D01*
X425781Y444081D01*
X425718Y444017D01*
X425648Y443962D01*
X425606Y443906D01*
X425556Y443856D01*
X425510Y443779D01*
X425456Y443708D01*
X425401Y443595D01*
X425394Y443582D01*
X425392Y443576D01*
X425385Y443563D01*
X424433Y441264D01*
X420646Y437477D01*
X415698Y435427D01*
X410342Y435427D01*
X405394Y437477D01*
X401607Y441264D01*
X401493Y441540D01*
X401424Y441661D01*
X401359Y441783D01*
X401345Y441798D01*
X401335Y441816D01*
X401238Y441916D01*
X401145Y442019D01*
X401128Y442030D01*
X401114Y442044D01*
X400996Y442117D01*
X400879Y442194D01*
X400860Y442200D01*
X400843Y442211D01*
X400710Y442252D01*
X400578Y442297D01*
X400558Y442298D01*
X400539Y442304D01*
X400400Y442311D01*
X400261Y442322D01*
X400241Y442318D01*
X400221Y442319D01*
X400085Y442291D01*
X399948Y442267D01*
X399929Y442259D01*
X399910Y442255D01*
X399784Y442194D01*
X399658Y442137D01*
X399642Y442124D01*
X399624Y442115D01*
X399518Y442025D01*
X399409Y441938D01*
X399397Y441922D01*
X399382Y441909D01*
X399301Y441795D01*
X399218Y441684D01*
X399206Y441659D01*
X399199Y441649D01*
X399192Y441630D01*
X399147Y441540D01*
X399033Y441264D01*
X395246Y437477D01*
X390298Y435427D01*
X384942Y435427D01*
X379994Y437477D01*
X376207Y441264D01*
X376093Y441540D01*
X376024Y441661D01*
X375959Y441783D01*
X375945Y441798D01*
X375935Y441816D01*
X375838Y441916D01*
X375745Y442019D01*
X375728Y442030D01*
X375714Y442044D01*
X375596Y442117D01*
X375479Y442194D01*
X375460Y442200D01*
X375443Y442211D01*
X375310Y442252D01*
X375178Y442297D01*
X375158Y442298D01*
X375139Y442304D01*
X375000Y442311D01*
X374861Y442322D01*
X374841Y442318D01*
X374821Y442319D01*
X374685Y442291D01*
X374548Y442267D01*
X374529Y442259D01*
X374510Y442255D01*
X374384Y442194D01*
X374258Y442137D01*
X374242Y442124D01*
X374224Y442115D01*
X374118Y442025D01*
X374009Y441938D01*
X373997Y441922D01*
X373982Y441909D01*
X373901Y441795D01*
X373818Y441684D01*
X373806Y441659D01*
X373799Y441649D01*
X373792Y441630D01*
X373747Y441540D01*
X373633Y441264D01*
X369846Y437477D01*
X364898Y435427D01*
X359542Y435427D01*
X354594Y437477D01*
X350807Y441264D01*
X350693Y441540D01*
X350624Y441661D01*
X350559Y441783D01*
X350545Y441798D01*
X350535Y441816D01*
X350438Y441916D01*
X350345Y442019D01*
X350328Y442030D01*
X350314Y442044D01*
X350196Y442117D01*
X350079Y442194D01*
X350060Y442200D01*
X350043Y442211D01*
X349910Y442252D01*
X349778Y442297D01*
X349758Y442298D01*
X349739Y442304D01*
X349600Y442311D01*
X349461Y442322D01*
X349441Y442318D01*
X349421Y442319D01*
X349285Y442291D01*
X349148Y442267D01*
X349129Y442259D01*
X349110Y442255D01*
X348984Y442194D01*
X348858Y442137D01*
X348842Y442124D01*
X348824Y442115D01*
X348718Y442025D01*
X348609Y441938D01*
X348597Y441922D01*
X348582Y441909D01*
X348501Y441795D01*
X348418Y441684D01*
X348406Y441659D01*
X348399Y441649D01*
X348392Y441630D01*
X348347Y441540D01*
X348233Y441264D01*
X344446Y437477D01*
X339498Y435427D01*
X334142Y435427D01*
X329194Y437477D01*
X325407Y441264D01*
X325293Y441540D01*
X325224Y441661D01*
X325159Y441783D01*
X325145Y441798D01*
X325135Y441816D01*
X325038Y441916D01*
X324945Y442019D01*
X324928Y442030D01*
X324914Y442044D01*
X324796Y442117D01*
X324679Y442194D01*
X324660Y442200D01*
X324643Y442211D01*
X324510Y442252D01*
X324378Y442297D01*
X324358Y442298D01*
X324339Y442304D01*
X324200Y442311D01*
X324061Y442322D01*
X324041Y442318D01*
X324021Y442319D01*
X323885Y442291D01*
X323748Y442267D01*
X323729Y442259D01*
X323710Y442255D01*
X323584Y442194D01*
X323458Y442137D01*
X323442Y442124D01*
X323424Y442115D01*
X323318Y442025D01*
X323209Y441938D01*
X323197Y441922D01*
X323182Y441909D01*
X323101Y441795D01*
X323018Y441684D01*
X323006Y441659D01*
X322999Y441649D01*
X322992Y441630D01*
X322947Y441540D01*
X322833Y441264D01*
X319046Y437477D01*
X318300Y437168D01*
X318275Y437153D01*
X318247Y437144D01*
X318137Y437075D01*
X318024Y437010D01*
X318003Y436990D01*
X317978Y436974D01*
X317889Y436879D01*
X317796Y436789D01*
X317780Y436764D01*
X317760Y436742D01*
X317697Y436629D01*
X317629Y436518D01*
X317621Y436490D01*
X317606Y436464D01*
X317574Y436338D01*
X317536Y436214D01*
X317534Y436185D01*
X317527Y436156D01*
X317517Y435995D01*
X317517Y430207D01*
X316589Y427966D01*
X296468Y407846D01*
X296408Y407768D01*
X296340Y407696D01*
X296311Y407643D01*
X296274Y407595D01*
X296234Y407504D01*
X296186Y407418D01*
X296171Y407359D01*
X296147Y407303D01*
X296132Y407205D01*
X296107Y407110D01*
X296101Y407010D01*
X296097Y406989D01*
X296099Y406977D01*
X296097Y406949D01*
X296097Y338787D01*
X295169Y336546D01*
X284516Y325894D01*
X284456Y325816D01*
X284388Y325744D01*
X284359Y325691D01*
X284322Y325643D01*
X284282Y325552D01*
X284234Y325466D01*
X284219Y325407D01*
X284195Y325351D01*
X284180Y325253D01*
X284155Y325158D01*
X284149Y325058D01*
X284145Y325037D01*
X284147Y325025D01*
X284145Y324997D01*
X284145Y323021D01*
X282530Y319123D01*
X279547Y316140D01*
X277892Y315454D01*
X277814Y315410D01*
X277732Y315374D01*
X277676Y315331D01*
X277615Y315296D01*
X277551Y315234D01*
X277480Y315179D01*
X277437Y315124D01*
X277387Y315075D01*
X277340Y314999D01*
X277285Y314928D01*
X277257Y314864D01*
X277221Y314804D01*
X277194Y314719D01*
X277159Y314636D01*
X277148Y314567D01*
X277127Y314500D01*
X277123Y314411D01*
X277109Y314322D01*
X277115Y314252D01*
X277112Y314182D01*
X277130Y314095D01*
X277138Y314006D01*
X277162Y313940D01*
X277176Y313871D01*
X277216Y313790D01*
X277246Y313706D01*
X277285Y313648D01*
X277316Y313585D01*
X277374Y313517D01*
X277424Y313443D01*
X277477Y313397D01*
X277522Y313343D01*
X277596Y313292D01*
X277663Y313232D01*
X277770Y313169D01*
X277782Y313160D01*
X277789Y313158D01*
X277801Y313150D01*
X278299Y312897D01*
X279456Y312056D01*
X280466Y311046D01*
X281307Y309889D01*
X281955Y308616D01*
X282397Y307256D01*
X282417Y307129D01*
X274270Y307129D01*
X274152Y307114D01*
X274033Y307107D01*
X273995Y307094D01*
X273955Y307089D01*
X273844Y307046D01*
X273731Y307009D01*
X273697Y306987D01*
X273659Y306972D01*
X273563Y306903D01*
X273546Y306892D01*
X273522Y306906D01*
X273490Y306931D01*
X273383Y306982D01*
X273278Y307040D01*
X273239Y307050D01*
X273203Y307067D01*
X273086Y307089D01*
X272970Y307119D01*
X272910Y307123D01*
X272890Y307127D01*
X272870Y307125D01*
X272810Y307129D01*
X264663Y307129D01*
X264683Y307256D01*
X265125Y308616D01*
X265773Y309889D01*
X266614Y311046D01*
X267624Y312056D01*
X268781Y312897D01*
X269279Y313150D01*
X269353Y313201D01*
X269432Y313243D01*
X269484Y313290D01*
X269542Y313329D01*
X269601Y313396D01*
X269667Y313457D01*
X269706Y313515D01*
X269752Y313568D01*
X269793Y313647D01*
X269842Y313722D01*
X269865Y313789D01*
X269897Y313851D01*
X269916Y313938D01*
X269945Y314023D01*
X269951Y314093D01*
X269966Y314161D01*
X269964Y314251D01*
X269971Y314340D01*
X269959Y314409D01*
X269956Y314479D01*
X269932Y314565D01*
X269916Y314653D01*
X269887Y314717D01*
X269868Y314785D01*
X269822Y314862D01*
X269786Y314943D01*
X269742Y314998D01*
X269706Y315059D01*
X269643Y315122D01*
X269587Y315192D01*
X269531Y315234D01*
X269482Y315284D01*
X269405Y315329D01*
X269333Y315383D01*
X269221Y315438D01*
X269208Y315446D01*
X269201Y315448D01*
X269188Y315454D01*
X267533Y316140D01*
X264550Y319123D01*
X262935Y323021D01*
X262935Y327239D01*
X264550Y331137D01*
X267645Y334233D01*
X267718Y334327D01*
X267797Y334416D01*
X267815Y334452D01*
X267840Y334484D01*
X267887Y334593D01*
X267942Y334699D01*
X267950Y334738D01*
X267966Y334776D01*
X267985Y334893D01*
X268011Y335009D01*
X268010Y335050D01*
X268016Y335090D01*
X268005Y335208D01*
X268002Y335327D01*
X267990Y335366D01*
X267986Y335406D01*
X267946Y335519D01*
X267913Y335633D01*
X267893Y335668D01*
X267879Y335706D01*
X267812Y335804D01*
X267752Y335907D01*
X267712Y335952D01*
X267700Y335969D01*
X267685Y335982D01*
X267645Y336028D01*
X264550Y339123D01*
X262935Y343021D01*
X262935Y347239D01*
X264550Y351137D01*
X267645Y354233D01*
X267718Y354327D01*
X267797Y354416D01*
X267815Y354452D01*
X267840Y354484D01*
X267887Y354593D01*
X267942Y354699D01*
X267950Y354738D01*
X267966Y354776D01*
X267985Y354893D01*
X268011Y355009D01*
X268010Y355050D01*
X268016Y355090D01*
X268005Y355208D01*
X268002Y355327D01*
X267990Y355366D01*
X267986Y355406D01*
X267946Y355519D01*
X267913Y355633D01*
X267893Y355668D01*
X267879Y355706D01*
X267812Y355804D01*
X267752Y355907D01*
X267712Y355952D01*
X267700Y355969D01*
X267685Y355982D01*
X267645Y356028D01*
X264550Y359123D01*
X262935Y363021D01*
X262935Y367239D01*
X264550Y371137D01*
X267645Y374233D01*
X267718Y374327D01*
X267797Y374416D01*
X267815Y374452D01*
X267840Y374484D01*
X267887Y374593D01*
X267942Y374699D01*
X267950Y374738D01*
X267966Y374776D01*
X267985Y374893D01*
X268011Y375009D01*
X268010Y375050D01*
X268016Y375090D01*
X268005Y375208D01*
X268002Y375327D01*
X267990Y375366D01*
X267986Y375406D01*
X267946Y375519D01*
X267913Y375633D01*
X267893Y375668D01*
X267879Y375706D01*
X267812Y375804D01*
X267752Y375907D01*
X267712Y375952D01*
X267700Y375969D01*
X267685Y375982D01*
X267645Y376028D01*
X264550Y379123D01*
X262935Y383021D01*
X262935Y387239D01*
X264550Y391137D01*
X267645Y394233D01*
X267718Y394327D01*
X267797Y394416D01*
X267815Y394452D01*
X267840Y394484D01*
X267887Y394593D01*
X267942Y394699D01*
X267950Y394738D01*
X267966Y394776D01*
X267985Y394893D01*
X268011Y395009D01*
X268010Y395050D01*
X268016Y395090D01*
X268005Y395208D01*
X268002Y395327D01*
X267990Y395366D01*
X267986Y395406D01*
X267946Y395519D01*
X267913Y395633D01*
X267893Y395668D01*
X267879Y395706D01*
X267812Y395804D01*
X267752Y395907D01*
X267712Y395952D01*
X267700Y395969D01*
X267685Y395982D01*
X267645Y396028D01*
X264550Y399123D01*
X262935Y403021D01*
X262935Y407239D01*
X264550Y411137D01*
X267645Y414233D01*
X267718Y414327D01*
X267797Y414416D01*
X267815Y414452D01*
X267840Y414484D01*
X267887Y414593D01*
X267942Y414699D01*
X267950Y414738D01*
X267966Y414776D01*
X267985Y414893D01*
X268011Y415009D01*
X268010Y415050D01*
X268016Y415090D01*
X268005Y415208D01*
X268002Y415327D01*
X267990Y415366D01*
X267986Y415406D01*
X267946Y415519D01*
X267913Y415633D01*
X267893Y415668D01*
X267879Y415706D01*
X267812Y415804D01*
X267752Y415907D01*
X267712Y415952D01*
X267700Y415969D01*
X267685Y415982D01*
X267645Y416028D01*
X264550Y419123D01*
X262935Y423021D01*
X262935Y427239D01*
X264550Y431137D01*
X267645Y434233D01*
X267718Y434327D01*
X267797Y434416D01*
X267815Y434452D01*
X267840Y434484D01*
X267887Y434593D01*
X267942Y434699D01*
X267950Y434738D01*
X267966Y434776D01*
X267985Y434893D01*
X268011Y435009D01*
X268010Y435050D01*
X268016Y435090D01*
X268005Y435208D01*
X268002Y435327D01*
X267990Y435366D01*
X267986Y435406D01*
X267946Y435519D01*
X267913Y435633D01*
X267893Y435668D01*
X267879Y435706D01*
X267812Y435804D01*
X267752Y435907D01*
X267712Y435952D01*
X267700Y435969D01*
X267685Y435982D01*
X267645Y436028D01*
X264550Y439123D01*
X262935Y443021D01*
X262935Y447239D01*
X264550Y451137D01*
X267645Y454233D01*
X267718Y454327D01*
X267797Y454416D01*
X267815Y454452D01*
X267840Y454484D01*
X267887Y454593D01*
X267942Y454699D01*
X267950Y454738D01*
X267966Y454776D01*
X267985Y454893D01*
X268011Y455009D01*
X268010Y455050D01*
X268016Y455090D01*
X268005Y455208D01*
X268002Y455327D01*
X267990Y455366D01*
X267986Y455406D01*
X267946Y455519D01*
X267913Y455633D01*
X267893Y455667D01*
X267879Y455706D01*
X267812Y455804D01*
X267752Y455907D01*
X267712Y455952D01*
X267700Y455969D01*
X267685Y455982D01*
X267645Y456028D01*
X264550Y459123D01*
X262935Y463021D01*
X262935Y467239D01*
X264550Y471137D01*
X267645Y474233D01*
X267718Y474327D01*
X267797Y474416D01*
X267815Y474452D01*
X267840Y474484D01*
X267887Y474593D01*
X267942Y474699D01*
X267950Y474738D01*
X267966Y474776D01*
X267985Y474893D01*
X268011Y475009D01*
X268010Y475050D01*
X268016Y475090D01*
X268005Y475208D01*
X268002Y475327D01*
X267990Y475366D01*
X267986Y475406D01*
X267946Y475519D01*
X267913Y475633D01*
X267893Y475668D01*
X267879Y475706D01*
X267812Y475804D01*
X267752Y475907D01*
X267712Y475952D01*
X267700Y475969D01*
X267685Y475982D01*
X267645Y476028D01*
X264550Y479123D01*
X262935Y483021D01*
X262935Y487239D01*
X263878Y489514D01*
X263886Y489544D01*
X263886Y489545D01*
X263891Y489562D01*
X263912Y489607D01*
X263932Y489715D01*
X263961Y489821D01*
X263962Y489871D01*
X263972Y489920D01*
X263965Y490029D01*
X263967Y490139D01*
X263955Y490187D01*
X263952Y490237D01*
X263918Y490341D01*
X263892Y490448D01*
X263869Y490492D01*
X263854Y490539D01*
X263795Y490632D01*
X263744Y490729D01*
X263710Y490766D01*
X263684Y490808D01*
X263604Y490883D01*
X263530Y490965D01*
X263488Y490992D01*
X263452Y491026D01*
X263356Y491079D01*
X263264Y491139D01*
X263217Y491156D01*
X263174Y491180D01*
X263067Y491207D01*
X262963Y491243D01*
X262914Y491247D01*
X262866Y491259D01*
X262705Y491269D01*
X260677Y491269D01*
X260573Y491318D01*
X260469Y491376D01*
X260429Y491386D01*
X260393Y491403D01*
X260276Y491425D01*
X260161Y491455D01*
X260101Y491459D01*
X260081Y491463D01*
X260060Y491461D01*
X260000Y491465D01*
X248526Y491465D01*
X246145Y493846D01*
X246145Y510794D01*
X248526Y513175D01*
X260000Y513175D01*
X260118Y513190D01*
X260237Y513197D01*
X260275Y513210D01*
X260316Y513215D01*
X260426Y513258D01*
X260539Y513295D01*
X260574Y513317D01*
X260611Y513332D01*
X260707Y513401D01*
X260808Y513465D01*
X260836Y513495D01*
X260869Y513518D01*
X260945Y513610D01*
X261026Y513697D01*
X261046Y513732D01*
X261071Y513763D01*
X261122Y513871D01*
X261180Y513975D01*
X261190Y514015D01*
X261207Y514051D01*
X261229Y514168D01*
X261259Y514283D01*
X261263Y514343D01*
X261267Y514363D01*
X261265Y514384D01*
X261269Y514444D01*
X261269Y515840D01*
X261263Y515889D01*
X261265Y515939D01*
X261243Y516046D01*
X261229Y516155D01*
X261211Y516201D01*
X261201Y516250D01*
X261153Y516349D01*
X261112Y516451D01*
X261083Y516491D01*
X261061Y516536D01*
X260990Y516619D01*
X260926Y516708D01*
X260887Y516740D01*
X260855Y516778D01*
X260765Y516841D01*
X260681Y516911D01*
X260636Y516932D01*
X260595Y516961D01*
X260492Y517000D01*
X260393Y517047D01*
X260344Y517056D01*
X260298Y517074D01*
X260188Y517086D01*
X260081Y517106D01*
X260031Y517103D01*
X259982Y517109D01*
X259873Y517093D01*
X259763Y517087D01*
X259716Y517071D01*
X259667Y517064D01*
X259514Y517012D01*
X259159Y516865D01*
X254841Y516865D01*
X250851Y518518D01*
X247798Y521571D01*
X246145Y525561D01*
X246145Y529879D01*
X247798Y533869D01*
X250851Y536922D01*
X254841Y538575D01*
X259159Y538575D01*
X259514Y538428D01*
X259562Y538415D01*
X259607Y538393D01*
X259715Y538373D01*
X259821Y538344D01*
X259871Y538343D01*
X259919Y538334D01*
X260029Y538340D01*
X260139Y538339D01*
X260187Y538350D01*
X260237Y538353D01*
X260341Y538387D01*
X260448Y538413D01*
X260492Y538436D01*
X260539Y538451D01*
X260632Y538510D01*
X260729Y538562D01*
X260766Y538595D01*
X260808Y538622D01*
X260883Y538702D01*
X260965Y538775D01*
X260992Y538817D01*
X261026Y538853D01*
X261079Y538949D01*
X261139Y539041D01*
X261156Y539088D01*
X261180Y539132D01*
X261207Y539238D01*
X261243Y539342D01*
X261247Y539392D01*
X261259Y539440D01*
X261269Y539600D01*
X261269Y558570D01*
X261254Y558688D01*
X261247Y558807D01*
X261234Y558845D01*
X261229Y558886D01*
X261186Y558996D01*
X261149Y559109D01*
X261127Y559144D01*
X261112Y559181D01*
X261042Y559277D01*
X260979Y559378D01*
X260949Y559406D01*
X260926Y559439D01*
X260834Y559515D01*
X260747Y559596D01*
X260712Y559616D01*
X260681Y559641D01*
X260573Y559692D01*
X260469Y559750D01*
X260429Y559760D01*
X260393Y559777D01*
X260276Y559799D01*
X260161Y559829D01*
X260100Y559833D01*
X260080Y559837D01*
X260060Y559835D01*
X260000Y559839D01*
X41167Y559839D01*
X41098Y559831D01*
X41028Y559832D01*
X40941Y559811D01*
X40852Y559799D01*
X40787Y559774D01*
X40719Y559757D01*
X40639Y559715D01*
X40556Y559682D01*
X40499Y559641D01*
X40438Y559609D01*
X40371Y559548D01*
X40299Y559496D01*
X40254Y559442D01*
X40202Y559395D01*
X40153Y559320D01*
X40096Y559251D01*
X40066Y559187D01*
X40028Y559129D01*
X39999Y559044D01*
X39960Y558963D01*
X39947Y558894D01*
X39924Y558828D01*
X39917Y558739D01*
X39900Y558651D01*
X39905Y558581D01*
X39899Y558511D01*
X39915Y558423D01*
X39920Y558333D01*
X39942Y558267D01*
X39954Y558198D01*
X39991Y558116D01*
X40018Y558031D01*
X40056Y557972D01*
X40084Y557908D01*
X40140Y557838D01*
X40188Y557762D01*
X40239Y557714D01*
X40283Y557660D01*
X40355Y557606D01*
X40420Y557544D01*
X40481Y557510D01*
X40537Y557468D01*
X40681Y557397D01*
X41420Y557091D01*
X47091Y551420D01*
X50161Y544010D01*
X50161Y535990D01*
X47091Y528580D01*
X41420Y522909D01*
X34010Y519839D01*
X25990Y519839D01*
X18580Y522909D01*
X12909Y528580D01*
X12603Y529319D01*
X12568Y529379D01*
X12542Y529444D01*
X12490Y529517D01*
X12445Y529595D01*
X12397Y529645D01*
X12356Y529701D01*
X12286Y529759D01*
X12224Y529823D01*
X12164Y529860D01*
X12111Y529904D01*
X12029Y529942D01*
X11953Y529989D01*
X11886Y530010D01*
X11823Y530040D01*
X11735Y530057D01*
X11649Y530083D01*
X11579Y530086D01*
X11510Y530100D01*
X11421Y530094D01*
X11331Y530098D01*
X11263Y530084D01*
X11193Y530080D01*
X11108Y530052D01*
X11020Y530034D01*
X10957Y530003D01*
X10891Y529982D01*
X10815Y529934D01*
X10734Y529894D01*
X10681Y529849D01*
X10622Y529812D01*
X10560Y529746D01*
X10492Y529688D01*
X10452Y529631D01*
X10404Y529580D01*
X10360Y529501D01*
X10309Y529428D01*
X10284Y529363D01*
X10250Y529301D01*
X10228Y529214D01*
X10196Y529130D01*
X10188Y529061D01*
X10171Y528994D01*
X10161Y528833D01*
X10161Y515609D01*
X10176Y515491D01*
X10183Y515372D01*
X10196Y515334D01*
X10201Y515293D01*
X10244Y515183D01*
X10281Y515070D01*
X10303Y515035D01*
X10318Y514998D01*
X10387Y514902D01*
X10451Y514801D01*
X10481Y514773D01*
X10504Y514740D01*
X10596Y514664D01*
X10683Y514583D01*
X10718Y514563D01*
X10749Y514538D01*
X10857Y514487D01*
X10961Y514429D01*
X11001Y514419D01*
X11037Y514402D01*
X11154Y514380D01*
X11269Y514350D01*
X11329Y514346D01*
X11349Y514342D01*
X11370Y514344D01*
X11430Y514340D01*
X28389Y514340D01*
X30770Y511959D01*
X30770Y492841D01*
X28389Y490460D01*
X11430Y490460D01*
X11312Y490445D01*
X11193Y490438D01*
X11155Y490425D01*
X11114Y490420D01*
X11004Y490377D01*
X10891Y490340D01*
X10856Y490318D01*
X10819Y490303D01*
X10723Y490234D01*
X10622Y490170D01*
X10594Y490140D01*
X10561Y490117D01*
X10485Y490025D01*
X10404Y489938D01*
X10384Y489903D01*
X10359Y489872D01*
X10308Y489764D01*
X10250Y489660D01*
X10240Y489620D01*
X10223Y489584D01*
X10201Y489467D01*
X10171Y489352D01*
X10167Y489292D01*
X10163Y489272D01*
X10165Y489251D01*
X10161Y489191D01*
X10161Y372632D01*
X10167Y372583D01*
X10165Y372533D01*
X10187Y372426D01*
X10201Y372317D01*
X10219Y372270D01*
X10229Y372222D01*
X10277Y372123D01*
X10318Y372021D01*
X10347Y371981D01*
X10369Y371936D01*
X10440Y371852D01*
X10504Y371764D01*
X10543Y371732D01*
X10575Y371694D01*
X10665Y371631D01*
X10749Y371561D01*
X10794Y371540D01*
X10835Y371511D01*
X10938Y371472D01*
X11037Y371425D01*
X11086Y371416D01*
X11132Y371398D01*
X11242Y371386D01*
X11349Y371365D01*
X11399Y371369D01*
X11448Y371363D01*
X11557Y371378D01*
X11667Y371385D01*
X11714Y371400D01*
X11763Y371407D01*
X11916Y371459D01*
X16455Y373340D01*
X21205Y373340D01*
X25593Y371522D01*
X28952Y368163D01*
X30770Y363775D01*
X30770Y359025D01*
X28952Y354637D01*
X25593Y351278D01*
X21205Y349460D01*
X16455Y349460D01*
X11916Y351341D01*
X11868Y351354D01*
X11823Y351375D01*
X11715Y351395D01*
X11609Y351424D01*
X11559Y351425D01*
X11510Y351435D01*
X11401Y351428D01*
X11291Y351430D01*
X11243Y351418D01*
X11193Y351415D01*
X11089Y351381D01*
X10982Y351355D01*
X10938Y351332D01*
X10891Y351317D01*
X10798Y351258D01*
X10701Y351207D01*
X10664Y351173D01*
X10622Y351147D01*
X10547Y351067D01*
X10465Y350993D01*
X10438Y350951D01*
X10404Y350915D01*
X10351Y350819D01*
X10291Y350727D01*
X10274Y350680D01*
X10250Y350637D01*
X10223Y350530D01*
X10187Y350426D01*
X10183Y350377D01*
X10171Y350329D01*
X10161Y350168D01*
X10161Y332799D01*
X10176Y332681D01*
X10183Y332562D01*
X10196Y332524D01*
X10201Y332483D01*
X10244Y332373D01*
X10281Y332260D01*
X10303Y332225D01*
X10318Y332188D01*
X10387Y332092D01*
X10451Y331991D01*
X10481Y331963D01*
X10504Y331930D01*
X10596Y331854D01*
X10683Y331773D01*
X10718Y331753D01*
X10749Y331728D01*
X10857Y331677D01*
X10961Y331619D01*
X11001Y331609D01*
X11037Y331592D01*
X11154Y331570D01*
X11269Y331540D01*
X11329Y331536D01*
X11349Y331532D01*
X11370Y331534D01*
X11430Y331530D01*
X28729Y331530D01*
X31110Y329149D01*
X31110Y310851D01*
X28729Y308470D01*
X11430Y308470D01*
X11312Y308455D01*
X11193Y308448D01*
X11155Y308435D01*
X11114Y308430D01*
X11004Y308387D01*
X10891Y308350D01*
X10856Y308328D01*
X10819Y308313D01*
X10723Y308244D01*
X10622Y308180D01*
X10594Y308150D01*
X10561Y308127D01*
X10485Y308035D01*
X10404Y307948D01*
X10384Y307913D01*
X10359Y307882D01*
X10308Y307774D01*
X10250Y307670D01*
X10240Y307630D01*
X10223Y307594D01*
X10201Y307477D01*
X10171Y307362D01*
X10167Y307302D01*
X10163Y307282D01*
X10165Y307261D01*
X10164Y307248D01*
X10163Y307246D01*
X10163Y307243D01*
X10161Y307201D01*
X10161Y41167D01*
X10169Y41098D01*
X10168Y41028D01*
X10189Y40941D01*
X10201Y40852D01*
X10226Y40787D01*
X10243Y40719D01*
X10285Y40639D01*
X10318Y40556D01*
X10359Y40499D01*
X10391Y40438D01*
X10452Y40371D01*
X10504Y40299D01*
X10558Y40254D01*
X10605Y40202D01*
X10680Y40153D01*
X10749Y40096D01*
X10813Y40066D01*
X10871Y40028D01*
X10956Y39999D01*
X11037Y39960D01*
X11106Y39947D01*
X11172Y39924D01*
X11261Y39917D01*
X11349Y39900D01*
X11419Y39905D01*
X11489Y39899D01*
X11577Y39915D01*
X11667Y39920D01*
X11733Y39942D01*
X11802Y39954D01*
X11884Y39991D01*
X11969Y40018D01*
X12028Y40056D01*
X12092Y40084D01*
X12162Y40140D01*
X12238Y40188D01*
X12286Y40239D01*
X12340Y40283D01*
X12394Y40355D01*
X12456Y40420D01*
X12490Y40481D01*
X12532Y40537D01*
X12603Y40681D01*
X12909Y41420D01*
X18580Y47091D01*
X25990Y50161D01*
X34010Y50161D01*
X41420Y47091D01*
X47091Y41420D01*
X50161Y34010D01*
X50161Y25990D01*
X47091Y18580D01*
X41420Y12909D01*
X40681Y12603D01*
X40621Y12568D01*
X40556Y12542D01*
X40483Y12490D01*
X40405Y12445D01*
X40355Y12397D01*
X40299Y12356D01*
X40241Y12286D01*
X40177Y12224D01*
X40140Y12164D01*
X40096Y12111D01*
X40058Y12029D01*
X40011Y11953D01*
X39990Y11886D01*
X39960Y11823D01*
X39943Y11735D01*
X39917Y11649D01*
X39914Y11579D01*
X39900Y11510D01*
X39906Y11421D01*
X39902Y11331D01*
X39916Y11263D01*
X39920Y11193D01*
X39948Y11108D01*
X39966Y11020D01*
X39997Y10957D01*
X40018Y10891D01*
X40066Y10815D01*
X40106Y10734D01*
X40151Y10681D01*
X40188Y10622D01*
X40254Y10560D01*
X40312Y10492D01*
X40369Y10452D01*
X40420Y10404D01*
X40499Y10361D01*
X40572Y10309D01*
X40637Y10284D01*
X40699Y10250D01*
X40786Y10228D01*
X40869Y10196D01*
X40939Y10188D01*
X41006Y10171D01*
X41167Y10161D01*
X468833Y10161D01*
X468902Y10169D01*
G37*
%LPC*%
G36*
X47692Y242875D02*
X47692Y242875D01*
X43426Y244642D01*
X40162Y247906D01*
X38395Y252172D01*
X38395Y256788D01*
X40162Y261054D01*
X43426Y264318D01*
X47505Y266007D01*
X47626Y266076D01*
X47749Y266141D01*
X47764Y266155D01*
X47781Y266165D01*
X47881Y266262D01*
X47984Y266355D01*
X47995Y266372D01*
X48010Y266386D01*
X48082Y266505D01*
X48159Y266621D01*
X48165Y266640D01*
X48176Y266657D01*
X48217Y266790D01*
X48262Y266922D01*
X48263Y266942D01*
X48269Y266961D01*
X48276Y267100D01*
X48287Y267239D01*
X48284Y267259D01*
X48285Y267279D01*
X48257Y267415D01*
X48233Y267552D01*
X48224Y267571D01*
X48220Y267590D01*
X48159Y267716D01*
X48102Y267842D01*
X48089Y267858D01*
X48081Y267876D01*
X47990Y267982D01*
X47904Y268090D01*
X47887Y268103D01*
X47874Y268118D01*
X47760Y268198D01*
X47649Y268282D01*
X47624Y268294D01*
X47614Y268301D01*
X47595Y268308D01*
X47505Y268353D01*
X43426Y270042D01*
X40162Y273306D01*
X38395Y277572D01*
X38395Y282188D01*
X40162Y286454D01*
X43426Y289718D01*
X47692Y291485D01*
X52308Y291485D01*
X56574Y289718D01*
X59838Y286454D01*
X61605Y282188D01*
X61605Y277572D01*
X59838Y273306D01*
X56574Y270042D01*
X52495Y268353D01*
X52375Y268284D01*
X52251Y268219D01*
X52236Y268205D01*
X52219Y268195D01*
X52119Y268098D01*
X52016Y268005D01*
X52005Y267988D01*
X51990Y267974D01*
X51918Y267856D01*
X51841Y267739D01*
X51835Y267720D01*
X51824Y267703D01*
X51783Y267570D01*
X51738Y267438D01*
X51737Y267418D01*
X51731Y267399D01*
X51724Y267260D01*
X51713Y267121D01*
X51716Y267101D01*
X51715Y267081D01*
X51743Y266945D01*
X51767Y266808D01*
X51776Y266790D01*
X51780Y266770D01*
X51841Y266644D01*
X51898Y266518D01*
X51911Y266502D01*
X51919Y266484D01*
X52010Y266378D01*
X52096Y266270D01*
X52113Y266257D01*
X52126Y266242D01*
X52240Y266162D01*
X52351Y266078D01*
X52376Y266066D01*
X52386Y266059D01*
X52405Y266052D01*
X52495Y266007D01*
X56574Y264318D01*
X59838Y261054D01*
X61605Y256788D01*
X61605Y252172D01*
X59838Y247906D01*
X56574Y244642D01*
X52308Y242875D01*
X47692Y242875D01*
G37*
%LPD*%
%LPC*%
G36*
X107692Y242875D02*
X107692Y242875D01*
X103426Y244642D01*
X100162Y247906D01*
X98395Y252172D01*
X98395Y256788D01*
X100162Y261054D01*
X103426Y264318D01*
X107505Y266007D01*
X107626Y266076D01*
X107749Y266141D01*
X107764Y266155D01*
X107781Y266165D01*
X107881Y266262D01*
X107984Y266355D01*
X107995Y266372D01*
X108010Y266386D01*
X108083Y266505D01*
X108159Y266621D01*
X108165Y266640D01*
X108176Y266657D01*
X108217Y266790D01*
X108262Y266922D01*
X108263Y266942D01*
X108269Y266961D01*
X108276Y267100D01*
X108287Y267239D01*
X108284Y267259D01*
X108285Y267279D01*
X108256Y267415D01*
X108233Y267552D01*
X108224Y267571D01*
X108220Y267590D01*
X108159Y267716D01*
X108102Y267842D01*
X108090Y267858D01*
X108081Y267876D01*
X107990Y267982D01*
X107904Y268090D01*
X107887Y268103D01*
X107874Y268118D01*
X107760Y268198D01*
X107649Y268282D01*
X107624Y268294D01*
X107614Y268301D01*
X107595Y268308D01*
X107505Y268353D01*
X103426Y270042D01*
X100162Y273306D01*
X98395Y277572D01*
X98395Y282188D01*
X100162Y286454D01*
X103426Y289718D01*
X107692Y291485D01*
X112308Y291485D01*
X116574Y289718D01*
X119838Y286454D01*
X121605Y282188D01*
X121605Y277572D01*
X119838Y273306D01*
X116574Y270042D01*
X112495Y268353D01*
X112375Y268284D01*
X112251Y268219D01*
X112236Y268205D01*
X112219Y268195D01*
X112119Y268098D01*
X112016Y268005D01*
X112005Y267988D01*
X111990Y267974D01*
X111918Y267856D01*
X111841Y267739D01*
X111835Y267720D01*
X111824Y267703D01*
X111783Y267570D01*
X111738Y267438D01*
X111736Y267418D01*
X111731Y267399D01*
X111724Y267260D01*
X111713Y267121D01*
X111716Y267101D01*
X111715Y267081D01*
X111744Y266945D01*
X111767Y266808D01*
X111776Y266789D01*
X111780Y266770D01*
X111841Y266645D01*
X111898Y266518D01*
X111910Y266502D01*
X111919Y266484D01*
X112010Y266378D01*
X112096Y266270D01*
X112113Y266257D01*
X112126Y266242D01*
X112239Y266162D01*
X112351Y266078D01*
X112376Y266066D01*
X112386Y266059D01*
X112405Y266052D01*
X112495Y266007D01*
X116574Y264318D01*
X119838Y261054D01*
X121605Y256788D01*
X121605Y252172D01*
X119838Y247906D01*
X116574Y244642D01*
X112308Y242875D01*
X107692Y242875D01*
G37*
%LPD*%
%LPC*%
G36*
X167692Y242875D02*
X167692Y242875D01*
X163426Y244642D01*
X160162Y247906D01*
X158395Y252172D01*
X158395Y256788D01*
X160162Y261054D01*
X163426Y264318D01*
X167505Y266007D01*
X167626Y266076D01*
X167749Y266141D01*
X167764Y266155D01*
X167781Y266165D01*
X167881Y266262D01*
X167984Y266355D01*
X167995Y266372D01*
X168010Y266386D01*
X168083Y266505D01*
X168159Y266621D01*
X168165Y266640D01*
X168176Y266657D01*
X168217Y266790D01*
X168262Y266922D01*
X168263Y266942D01*
X168269Y266961D01*
X168276Y267100D01*
X168287Y267239D01*
X168284Y267259D01*
X168285Y267279D01*
X168256Y267415D01*
X168233Y267552D01*
X168224Y267571D01*
X168220Y267590D01*
X168159Y267716D01*
X168102Y267842D01*
X168090Y267858D01*
X168081Y267876D01*
X167990Y267982D01*
X167904Y268090D01*
X167887Y268103D01*
X167874Y268118D01*
X167760Y268198D01*
X167649Y268282D01*
X167624Y268294D01*
X167614Y268301D01*
X167595Y268308D01*
X167505Y268353D01*
X163426Y270042D01*
X160162Y273306D01*
X158395Y277572D01*
X158395Y282188D01*
X160162Y286454D01*
X163426Y289718D01*
X167692Y291485D01*
X172308Y291485D01*
X176574Y289718D01*
X179838Y286454D01*
X181605Y282188D01*
X181605Y277572D01*
X179838Y273306D01*
X176574Y270042D01*
X172495Y268353D01*
X172375Y268284D01*
X172251Y268219D01*
X172236Y268205D01*
X172219Y268195D01*
X172119Y268098D01*
X172016Y268005D01*
X172005Y267988D01*
X171990Y267974D01*
X171918Y267856D01*
X171841Y267739D01*
X171835Y267720D01*
X171824Y267703D01*
X171783Y267570D01*
X171738Y267438D01*
X171736Y267418D01*
X171731Y267399D01*
X171724Y267260D01*
X171713Y267121D01*
X171716Y267101D01*
X171715Y267081D01*
X171744Y266945D01*
X171767Y266808D01*
X171776Y266789D01*
X171780Y266770D01*
X171841Y266645D01*
X171898Y266518D01*
X171910Y266502D01*
X171919Y266484D01*
X172010Y266378D01*
X172096Y266270D01*
X172113Y266257D01*
X172126Y266242D01*
X172239Y266162D01*
X172351Y266078D01*
X172376Y266066D01*
X172386Y266059D01*
X172405Y266052D01*
X172495Y266007D01*
X176574Y264318D01*
X179838Y261054D01*
X181605Y256788D01*
X181605Y252172D01*
X179838Y247906D01*
X176574Y244642D01*
X172308Y242875D01*
X167692Y242875D01*
G37*
%LPD*%
%LPC*%
G36*
X227692Y242875D02*
X227692Y242875D01*
X223426Y244642D01*
X220162Y247906D01*
X218395Y252172D01*
X218395Y256788D01*
X220162Y261054D01*
X223426Y264318D01*
X227505Y266007D01*
X227626Y266076D01*
X227749Y266141D01*
X227764Y266155D01*
X227781Y266165D01*
X227881Y266262D01*
X227984Y266355D01*
X227995Y266372D01*
X228010Y266386D01*
X228083Y266505D01*
X228159Y266621D01*
X228165Y266640D01*
X228176Y266657D01*
X228217Y266790D01*
X228262Y266922D01*
X228263Y266942D01*
X228269Y266961D01*
X228276Y267100D01*
X228287Y267239D01*
X228284Y267259D01*
X228285Y267279D01*
X228256Y267415D01*
X228233Y267552D01*
X228224Y267571D01*
X228220Y267590D01*
X228159Y267716D01*
X228102Y267842D01*
X228090Y267858D01*
X228081Y267876D01*
X227990Y267982D01*
X227904Y268090D01*
X227887Y268103D01*
X227874Y268118D01*
X227760Y268198D01*
X227649Y268282D01*
X227624Y268294D01*
X227614Y268301D01*
X227595Y268308D01*
X227505Y268353D01*
X223426Y270042D01*
X220162Y273306D01*
X218395Y277572D01*
X218395Y282188D01*
X220162Y286454D01*
X223426Y289718D01*
X227692Y291485D01*
X232308Y291485D01*
X236574Y289718D01*
X239838Y286454D01*
X241605Y282188D01*
X241605Y277572D01*
X239838Y273306D01*
X236574Y270042D01*
X232495Y268353D01*
X232375Y268284D01*
X232251Y268219D01*
X232236Y268205D01*
X232219Y268195D01*
X232119Y268098D01*
X232016Y268005D01*
X232005Y267988D01*
X231990Y267974D01*
X231918Y267856D01*
X231841Y267739D01*
X231835Y267720D01*
X231824Y267703D01*
X231783Y267570D01*
X231738Y267438D01*
X231736Y267418D01*
X231731Y267399D01*
X231724Y267260D01*
X231713Y267121D01*
X231716Y267101D01*
X231715Y267081D01*
X231744Y266945D01*
X231767Y266808D01*
X231776Y266789D01*
X231780Y266770D01*
X231841Y266645D01*
X231898Y266518D01*
X231910Y266502D01*
X231919Y266484D01*
X232010Y266378D01*
X232096Y266270D01*
X232113Y266257D01*
X232126Y266242D01*
X232239Y266162D01*
X232351Y266078D01*
X232376Y266066D01*
X232386Y266059D01*
X232405Y266052D01*
X232495Y266007D01*
X236574Y264318D01*
X239838Y261054D01*
X241605Y256788D01*
X241605Y252172D01*
X239838Y247906D01*
X236574Y244642D01*
X232308Y242875D01*
X227692Y242875D01*
G37*
%LPD*%
%LPC*%
G36*
X351827Y28030D02*
X351827Y28030D01*
X346612Y30191D01*
X342621Y34182D01*
X340460Y39397D01*
X340460Y45043D01*
X342621Y50258D01*
X346612Y54249D01*
X351827Y56410D01*
X357473Y56410D01*
X362688Y54249D01*
X366679Y50258D01*
X368840Y45043D01*
X368840Y39397D01*
X366679Y34182D01*
X362688Y30191D01*
X357473Y28030D01*
X351827Y28030D01*
G37*
%LPD*%
%LPC*%
G36*
X211827Y28030D02*
X211827Y28030D01*
X206612Y30191D01*
X202621Y34182D01*
X200460Y39397D01*
X200460Y45043D01*
X202621Y50258D01*
X206612Y54249D01*
X211827Y56410D01*
X217473Y56410D01*
X222688Y54249D01*
X226679Y50258D01*
X228840Y45043D01*
X228840Y39397D01*
X226679Y34182D01*
X222688Y30191D01*
X217473Y28030D01*
X211827Y28030D01*
G37*
%LPD*%
%LPC*%
G36*
X246827Y28030D02*
X246827Y28030D01*
X241612Y30191D01*
X237621Y34182D01*
X235460Y39397D01*
X235460Y45043D01*
X237621Y50258D01*
X241612Y54249D01*
X246827Y56410D01*
X252473Y56410D01*
X257688Y54249D01*
X261679Y50258D01*
X263840Y45043D01*
X263840Y39397D01*
X261679Y34182D01*
X257688Y30191D01*
X252473Y28030D01*
X246827Y28030D01*
G37*
%LPD*%
%LPC*%
G36*
X106827Y28030D02*
X106827Y28030D01*
X101612Y30191D01*
X97621Y34182D01*
X95460Y39397D01*
X95460Y45043D01*
X97621Y50258D01*
X101612Y54249D01*
X106827Y56410D01*
X112473Y56410D01*
X117688Y54249D01*
X121679Y50258D01*
X123840Y45043D01*
X123840Y39397D01*
X121679Y34182D01*
X117688Y30191D01*
X112473Y28030D01*
X106827Y28030D01*
G37*
%LPD*%
%LPC*%
G36*
X141827Y28030D02*
X141827Y28030D01*
X136612Y30191D01*
X132621Y34182D01*
X130460Y39397D01*
X130460Y45043D01*
X132621Y50258D01*
X136612Y54249D01*
X141827Y56410D01*
X147473Y56410D01*
X152688Y54249D01*
X156679Y50258D01*
X158840Y45043D01*
X158840Y39397D01*
X156679Y34182D01*
X152688Y30191D01*
X147473Y28030D01*
X141827Y28030D01*
G37*
%LPD*%
%LPC*%
G36*
X176827Y28030D02*
X176827Y28030D01*
X171612Y30191D01*
X167621Y34182D01*
X165460Y39397D01*
X165460Y45043D01*
X167621Y50258D01*
X171612Y54249D01*
X176827Y56410D01*
X182473Y56410D01*
X187688Y54249D01*
X191679Y50258D01*
X193840Y45043D01*
X193840Y39397D01*
X191679Y34182D01*
X187688Y30191D01*
X182473Y28030D01*
X176827Y28030D01*
G37*
%LPD*%
%LPC*%
G36*
X281827Y28030D02*
X281827Y28030D01*
X276612Y30191D01*
X272621Y34182D01*
X270460Y39397D01*
X270460Y45043D01*
X272621Y50258D01*
X276612Y54249D01*
X281827Y56410D01*
X287473Y56410D01*
X292688Y54249D01*
X296679Y50258D01*
X298840Y45043D01*
X298840Y39397D01*
X296679Y34182D01*
X292688Y30191D01*
X287473Y28030D01*
X281827Y28030D01*
G37*
%LPD*%
%LPC*%
G36*
X316827Y28030D02*
X316827Y28030D01*
X311612Y30191D01*
X307621Y34182D01*
X305460Y39397D01*
X305460Y45043D01*
X307621Y50258D01*
X311612Y54249D01*
X316827Y56410D01*
X322473Y56410D01*
X327688Y54249D01*
X331679Y50258D01*
X333840Y45043D01*
X333840Y39397D01*
X331679Y34182D01*
X327688Y30191D01*
X322473Y28030D01*
X316827Y28030D01*
G37*
%LPD*%
%LPC*%
G36*
X93682Y515305D02*
X93682Y515305D01*
X88605Y517408D01*
X84718Y521295D01*
X82615Y526372D01*
X82615Y531868D01*
X84718Y536945D01*
X88605Y540832D01*
X93682Y542935D01*
X99178Y542935D01*
X104255Y540832D01*
X108142Y536945D01*
X110245Y531868D01*
X110245Y526372D01*
X108142Y521295D01*
X104255Y517408D01*
X99178Y515305D01*
X93682Y515305D01*
G37*
%LPD*%
%LPC*%
G36*
X128682Y515305D02*
X128682Y515305D01*
X123605Y517408D01*
X119718Y521295D01*
X117615Y526372D01*
X117615Y531868D01*
X119718Y536945D01*
X123605Y540832D01*
X128682Y542935D01*
X134178Y542935D01*
X139255Y540832D01*
X143142Y536945D01*
X145245Y531868D01*
X145245Y526372D01*
X143142Y521295D01*
X139255Y517408D01*
X134178Y515305D01*
X128682Y515305D01*
G37*
%LPD*%
%LPC*%
G36*
X328811Y350590D02*
X328811Y350590D01*
X326430Y352971D01*
X326430Y372089D01*
X328811Y374470D01*
X347929Y374470D01*
X350310Y372089D01*
X350310Y352971D01*
X347929Y350590D01*
X328811Y350590D01*
G37*
%LPD*%
%LPC*%
G36*
X302891Y378190D02*
X302891Y378190D01*
X300510Y380571D01*
X300510Y399689D01*
X302891Y402070D01*
X322009Y402070D01*
X324390Y399689D01*
X324390Y380571D01*
X322009Y378190D01*
X302891Y378190D01*
G37*
%LPD*%
%LPC*%
G36*
X40051Y490460D02*
X40051Y490460D01*
X37670Y492841D01*
X37670Y511959D01*
X40051Y514340D01*
X59169Y514340D01*
X61550Y511959D01*
X61550Y492841D01*
X59169Y490460D01*
X40051Y490460D01*
G37*
%LPD*%
%LPC*%
G36*
X47401Y89015D02*
X47401Y89015D01*
X42599Y91004D01*
X38924Y94679D01*
X36935Y99481D01*
X36935Y104679D01*
X38924Y109481D01*
X42599Y113156D01*
X47401Y115145D01*
X52599Y115145D01*
X57401Y113156D01*
X61076Y109481D01*
X63065Y104679D01*
X63065Y99481D01*
X61076Y94679D01*
X57401Y91004D01*
X52599Y89015D01*
X47401Y89015D01*
G37*
%LPD*%
%LPC*%
G36*
X227401Y139815D02*
X227401Y139815D01*
X222599Y141804D01*
X218924Y145479D01*
X216935Y150281D01*
X216935Y155479D01*
X218924Y160281D01*
X222599Y163956D01*
X227401Y165945D01*
X232599Y165945D01*
X237401Y163956D01*
X241076Y160281D01*
X243065Y155479D01*
X243065Y150281D01*
X241076Y145479D01*
X237401Y141804D01*
X232599Y139815D01*
X227401Y139815D01*
G37*
%LPD*%
%LPC*%
G36*
X167401Y139815D02*
X167401Y139815D01*
X162599Y141804D01*
X158924Y145479D01*
X156935Y150281D01*
X156935Y155479D01*
X158924Y160281D01*
X162599Y163956D01*
X167401Y165945D01*
X172599Y165945D01*
X177401Y163956D01*
X181076Y160281D01*
X183065Y155479D01*
X183065Y150281D01*
X181076Y145479D01*
X177401Y141804D01*
X172599Y139815D01*
X167401Y139815D01*
G37*
%LPD*%
%LPC*%
G36*
X107401Y89015D02*
X107401Y89015D01*
X102599Y91004D01*
X98924Y94679D01*
X96935Y99481D01*
X96935Y104679D01*
X98924Y109481D01*
X102599Y113156D01*
X107401Y115145D01*
X112599Y115145D01*
X117401Y113156D01*
X121076Y109481D01*
X123065Y104679D01*
X123065Y99481D01*
X121076Y94679D01*
X117401Y91004D01*
X112599Y89015D01*
X107401Y89015D01*
G37*
%LPD*%
%LPC*%
G36*
X167401Y89015D02*
X167401Y89015D01*
X162599Y91004D01*
X158924Y94679D01*
X156935Y99481D01*
X156935Y104679D01*
X158924Y109481D01*
X162599Y113156D01*
X167401Y115145D01*
X172599Y115145D01*
X177401Y113156D01*
X181076Y109481D01*
X183065Y104679D01*
X183065Y99481D01*
X181076Y94679D01*
X177401Y91004D01*
X172599Y89015D01*
X167401Y89015D01*
G37*
%LPD*%
%LPC*%
G36*
X47401Y139815D02*
X47401Y139815D01*
X42599Y141804D01*
X38924Y145479D01*
X36935Y150281D01*
X36935Y155479D01*
X38924Y160281D01*
X42599Y163956D01*
X47401Y165945D01*
X52599Y165945D01*
X57401Y163956D01*
X61076Y160281D01*
X63065Y155479D01*
X63065Y150281D01*
X61076Y145479D01*
X57401Y141804D01*
X52599Y139815D01*
X47401Y139815D01*
G37*
%LPD*%
%LPC*%
G36*
X227401Y89015D02*
X227401Y89015D01*
X222599Y91004D01*
X218924Y94679D01*
X216935Y99481D01*
X216935Y104679D01*
X218924Y109481D01*
X222599Y113156D01*
X227401Y115145D01*
X232599Y115145D01*
X237401Y113156D01*
X241076Y109481D01*
X243065Y104679D01*
X243065Y99481D01*
X241076Y94679D01*
X237401Y91004D01*
X232599Y89015D01*
X227401Y89015D01*
G37*
%LPD*%
%LPC*%
G36*
X107401Y139815D02*
X107401Y139815D01*
X102599Y141804D01*
X98924Y145479D01*
X96935Y150281D01*
X96935Y155479D01*
X98924Y160281D01*
X102599Y163956D01*
X107401Y165945D01*
X112599Y165945D01*
X117401Y163956D01*
X121076Y160281D01*
X123065Y155479D01*
X123065Y150281D01*
X121076Y145479D01*
X117401Y141804D01*
X112599Y139815D01*
X107401Y139815D01*
G37*
%LPD*%
%LPC*%
G36*
X269151Y203200D02*
X269151Y203200D01*
X266770Y205581D01*
X266770Y223879D01*
X269151Y226260D01*
X287449Y226260D01*
X289830Y223879D01*
X289830Y205581D01*
X287449Y203200D01*
X269151Y203200D01*
G37*
%LPD*%
%LPC*%
G36*
X87531Y308470D02*
X87531Y308470D01*
X85150Y310851D01*
X85150Y329149D01*
X87531Y331530D01*
X105829Y331530D01*
X108210Y329149D01*
X108210Y310851D01*
X105829Y308470D01*
X87531Y308470D01*
G37*
%LPD*%
%LPC*%
G36*
X165161Y308470D02*
X165161Y308470D01*
X162780Y310851D01*
X162780Y329149D01*
X165161Y331530D01*
X183459Y331530D01*
X185840Y329149D01*
X185840Y310851D01*
X183459Y308470D01*
X165161Y308470D01*
G37*
%LPD*%
%LPC*%
G36*
X135356Y334135D02*
X135356Y334135D01*
X132975Y336516D01*
X132975Y353464D01*
X135356Y355845D01*
X152304Y355845D01*
X154685Y353464D01*
X154685Y336516D01*
X152304Y334135D01*
X135356Y334135D01*
G37*
%LPD*%
%LPC*%
G36*
X310075Y237190D02*
X310075Y237190D01*
X305687Y239008D01*
X302328Y242367D01*
X300510Y246755D01*
X300510Y251505D01*
X302328Y255893D01*
X305687Y259252D01*
X310075Y261070D01*
X314825Y261070D01*
X319213Y259252D01*
X322572Y255893D01*
X324390Y251505D01*
X324390Y246755D01*
X322572Y242367D01*
X319213Y239008D01*
X314825Y237190D01*
X310075Y237190D01*
G37*
%LPD*%
%LPC*%
G36*
X335995Y209590D02*
X335995Y209590D01*
X331607Y211408D01*
X328248Y214767D01*
X326430Y219155D01*
X326430Y223905D01*
X328248Y228293D01*
X331607Y231652D01*
X335995Y233470D01*
X340745Y233470D01*
X345133Y231652D01*
X348492Y228293D01*
X350310Y223905D01*
X350310Y219155D01*
X348492Y214767D01*
X345133Y211408D01*
X340745Y209590D01*
X335995Y209590D01*
G37*
%LPD*%
%LPC*%
G36*
X47235Y349460D02*
X47235Y349460D01*
X42847Y351278D01*
X39488Y354637D01*
X37670Y359025D01*
X37670Y363775D01*
X39488Y368163D01*
X42847Y371522D01*
X47235Y373340D01*
X51985Y373340D01*
X56373Y371522D01*
X59732Y368163D01*
X61550Y363775D01*
X61550Y359025D01*
X59732Y354637D01*
X56373Y351278D01*
X51985Y349460D01*
X47235Y349460D01*
G37*
%LPD*%
%LPC*%
G36*
X70436Y456815D02*
X70436Y456815D01*
X68055Y459196D01*
X68055Y475444D01*
X70436Y477825D01*
X86684Y477825D01*
X89065Y475444D01*
X89065Y459196D01*
X86684Y456815D01*
X70436Y456815D01*
G37*
%LPD*%
%LPC*%
G36*
X276007Y177200D02*
X276007Y177200D01*
X271769Y178956D01*
X268526Y182199D01*
X266770Y186437D01*
X266770Y191023D01*
X268526Y195261D01*
X271769Y198504D01*
X276007Y200260D01*
X280593Y200260D01*
X284831Y198504D01*
X288074Y195261D01*
X289830Y191023D01*
X289830Y186437D01*
X288074Y182199D01*
X284831Y178956D01*
X280593Y177200D01*
X276007Y177200D01*
G37*
%LPD*%
%LPC*%
G36*
X43287Y308470D02*
X43287Y308470D01*
X39049Y310226D01*
X35806Y313469D01*
X34050Y317707D01*
X34050Y322293D01*
X35806Y326531D01*
X39049Y329774D01*
X43287Y331530D01*
X47873Y331530D01*
X52111Y329774D01*
X55354Y326531D01*
X57110Y322293D01*
X57110Y317707D01*
X55354Y313469D01*
X52111Y310226D01*
X47873Y308470D01*
X43287Y308470D01*
G37*
%LPD*%
%LPC*%
G36*
X198017Y308470D02*
X198017Y308470D01*
X193779Y310226D01*
X190536Y313469D01*
X188780Y317707D01*
X188780Y322293D01*
X190536Y326531D01*
X193779Y329774D01*
X198017Y331530D01*
X202603Y331530D01*
X206841Y329774D01*
X210084Y326531D01*
X211840Y322293D01*
X211840Y317707D01*
X210084Y313469D01*
X206841Y310226D01*
X202603Y308470D01*
X198017Y308470D01*
G37*
%LPD*%
%LPC*%
G36*
X120387Y308470D02*
X120387Y308470D01*
X116149Y310226D01*
X112906Y313469D01*
X111150Y317707D01*
X111150Y322293D01*
X112906Y326531D01*
X116149Y329774D01*
X120387Y331530D01*
X124973Y331530D01*
X129211Y329774D01*
X132454Y326531D01*
X134210Y322293D01*
X134210Y317707D01*
X132454Y313469D01*
X129211Y310226D01*
X124973Y308470D01*
X120387Y308470D01*
G37*
%LPD*%
%LPC*%
G36*
X417371Y307945D02*
X417371Y307945D01*
X413290Y309636D01*
X410166Y312760D01*
X408475Y316841D01*
X408475Y321259D01*
X410166Y325340D01*
X413290Y328464D01*
X417371Y330155D01*
X421789Y330155D01*
X425870Y328464D01*
X428994Y325340D01*
X430685Y321259D01*
X430685Y316841D01*
X428994Y312760D01*
X425870Y309636D01*
X421789Y307945D01*
X417371Y307945D01*
G37*
%LPD*%
%LPC*%
G36*
X454791Y307945D02*
X454791Y307945D01*
X450710Y309636D01*
X447586Y312760D01*
X445895Y316841D01*
X445895Y321259D01*
X447586Y325340D01*
X450710Y328464D01*
X454791Y330155D01*
X459209Y330155D01*
X463290Y328464D01*
X466414Y325340D01*
X468105Y321259D01*
X468105Y316841D01*
X466414Y312760D01*
X463290Y309636D01*
X459209Y307945D01*
X454791Y307945D01*
G37*
%LPD*%
%LPC*%
G36*
X391941Y307965D02*
X391941Y307965D01*
X387860Y309656D01*
X384736Y312780D01*
X383045Y316861D01*
X383045Y321279D01*
X384736Y325360D01*
X387860Y328484D01*
X391941Y330175D01*
X396359Y330175D01*
X400440Y328484D01*
X403564Y325360D01*
X405255Y321279D01*
X405255Y316861D01*
X403564Y312780D01*
X400440Y309656D01*
X396359Y307965D01*
X391941Y307965D01*
G37*
%LPD*%
%LPC*%
G36*
X365981Y308125D02*
X365981Y308125D01*
X361900Y309816D01*
X358776Y312940D01*
X357085Y317021D01*
X357085Y321439D01*
X358776Y325520D01*
X361900Y328644D01*
X365981Y330335D01*
X370399Y330335D01*
X374480Y328644D01*
X377604Y325520D01*
X379295Y321439D01*
X379295Y317021D01*
X377604Y312940D01*
X374480Y309816D01*
X370399Y308125D01*
X365981Y308125D01*
G37*
%LPD*%
%LPC*%
G36*
X417371Y154945D02*
X417371Y154945D01*
X413290Y156636D01*
X410166Y159760D01*
X408475Y163841D01*
X408475Y168259D01*
X410166Y172340D01*
X413290Y175464D01*
X417371Y177155D01*
X421789Y177155D01*
X425870Y175464D01*
X428994Y172340D01*
X430685Y168259D01*
X430685Y163841D01*
X428994Y159760D01*
X425870Y156636D01*
X421789Y154945D01*
X417371Y154945D01*
G37*
%LPD*%
%LPC*%
G36*
X454791Y154945D02*
X454791Y154945D01*
X450710Y156636D01*
X447586Y159760D01*
X445895Y163841D01*
X445895Y168259D01*
X447586Y172340D01*
X450710Y175464D01*
X454791Y177155D01*
X459209Y177155D01*
X463290Y175464D01*
X466414Y172340D01*
X468105Y168259D01*
X468105Y163841D01*
X466414Y159760D01*
X463290Y156636D01*
X459209Y154945D01*
X454791Y154945D01*
G37*
%LPD*%
%LPC*%
G36*
X391941Y154965D02*
X391941Y154965D01*
X387860Y156656D01*
X384736Y159780D01*
X383045Y163861D01*
X383045Y168279D01*
X384736Y172360D01*
X387860Y175484D01*
X391941Y177175D01*
X396359Y177175D01*
X400440Y175484D01*
X403564Y172360D01*
X405255Y168279D01*
X405255Y163861D01*
X403564Y159780D01*
X400440Y156656D01*
X396359Y154965D01*
X391941Y154965D01*
G37*
%LPD*%
%LPC*%
G36*
X218741Y516455D02*
X218741Y516455D01*
X214660Y518146D01*
X211536Y521270D01*
X209845Y525351D01*
X209845Y529769D01*
X211536Y533850D01*
X214660Y536974D01*
X218741Y538665D01*
X223159Y538665D01*
X227240Y536974D01*
X230364Y533850D01*
X232055Y529769D01*
X232055Y525351D01*
X230364Y521270D01*
X227240Y518146D01*
X223159Y516455D01*
X218741Y516455D01*
G37*
%LPD*%
%LPC*%
G36*
X365981Y155125D02*
X365981Y155125D01*
X361900Y156816D01*
X358776Y159940D01*
X357085Y164021D01*
X357085Y168439D01*
X358776Y172520D01*
X361900Y175644D01*
X365981Y177335D01*
X370399Y177335D01*
X374480Y175644D01*
X377604Y172520D01*
X379295Y168439D01*
X379295Y164021D01*
X377604Y159940D01*
X374480Y156816D01*
X370399Y155125D01*
X365981Y155125D01*
G37*
%LPD*%
%LPC*%
G36*
X218741Y491055D02*
X218741Y491055D01*
X214660Y492746D01*
X211536Y495870D01*
X209845Y499951D01*
X209845Y504369D01*
X211536Y508450D01*
X214660Y511574D01*
X218741Y513265D01*
X223159Y513265D01*
X227240Y511574D01*
X230364Y508450D01*
X232055Y504369D01*
X232055Y499951D01*
X230364Y495870D01*
X227240Y492746D01*
X223159Y491055D01*
X218741Y491055D01*
G37*
%LPD*%
%LPC*%
G36*
X218741Y440255D02*
X218741Y440255D01*
X214660Y441946D01*
X211536Y445070D01*
X209845Y449151D01*
X209845Y453569D01*
X211536Y457650D01*
X214660Y460774D01*
X218741Y462465D01*
X223159Y462465D01*
X227240Y460774D01*
X230364Y457650D01*
X232055Y453569D01*
X232055Y449151D01*
X230364Y445070D01*
X227240Y441946D01*
X223159Y440255D01*
X218741Y440255D01*
G37*
%LPD*%
%LPC*%
G36*
X91671Y334135D02*
X91671Y334135D01*
X87681Y335788D01*
X84628Y338841D01*
X82975Y342831D01*
X82975Y347149D01*
X84628Y351139D01*
X87681Y354192D01*
X91671Y355845D01*
X95989Y355845D01*
X99979Y354192D01*
X103032Y351139D01*
X104685Y347149D01*
X104685Y342831D01*
X103032Y338841D01*
X99979Y335788D01*
X95989Y334135D01*
X91671Y334135D01*
G37*
%LPD*%
%LPC*%
G36*
X156230Y456815D02*
X156230Y456815D01*
X152370Y458414D01*
X149414Y461370D01*
X147815Y465230D01*
X147815Y469410D01*
X149414Y473270D01*
X152370Y476226D01*
X156230Y477825D01*
X160410Y477825D01*
X164270Y476226D01*
X167226Y473270D01*
X168825Y469410D01*
X168825Y465230D01*
X167226Y461370D01*
X164270Y458414D01*
X160410Y456815D01*
X156230Y456815D01*
G37*
%LPD*%
%LPC*%
G36*
X156230Y405815D02*
X156230Y405815D01*
X152370Y407414D01*
X149414Y410370D01*
X147815Y414230D01*
X147815Y418410D01*
X149414Y422270D01*
X152370Y425226D01*
X156230Y426825D01*
X160410Y426825D01*
X164270Y425226D01*
X167226Y422270D01*
X168825Y418410D01*
X168825Y414230D01*
X167226Y410370D01*
X164270Y407414D01*
X160410Y405815D01*
X156230Y405815D01*
G37*
%LPD*%
%LPC*%
G36*
X76470Y405815D02*
X76470Y405815D01*
X72610Y407414D01*
X69654Y410370D01*
X68055Y414230D01*
X68055Y418410D01*
X69654Y422270D01*
X72610Y425226D01*
X76470Y426825D01*
X80650Y426825D01*
X84510Y425226D01*
X87466Y422270D01*
X89065Y418410D01*
X89065Y414230D01*
X87466Y410370D01*
X84510Y407414D01*
X80650Y405815D01*
X76470Y405815D01*
G37*
%LPD*%
%LPC*%
G36*
X77189Y44759D02*
X77189Y44759D01*
X77189Y54886D01*
X85109Y54886D01*
X85756Y54713D01*
X86335Y54378D01*
X86808Y53905D01*
X87143Y53326D01*
X87316Y52679D01*
X87316Y44759D01*
X77189Y44759D01*
G37*
%LPD*%
%LPC*%
G36*
X77189Y29554D02*
X77189Y29554D01*
X77189Y39681D01*
X87316Y39681D01*
X87316Y31761D01*
X87143Y31114D01*
X86808Y30535D01*
X86335Y30062D01*
X85756Y29727D01*
X85109Y29554D01*
X77189Y29554D01*
G37*
%LPD*%
%LPC*%
G36*
X61984Y44759D02*
X61984Y44759D01*
X61984Y52679D01*
X62157Y53326D01*
X62492Y53905D01*
X62965Y54378D01*
X63544Y54713D01*
X64191Y54886D01*
X72111Y54886D01*
X72111Y44759D01*
X61984Y44759D01*
G37*
%LPD*%
%LPC*%
G36*
X64191Y29554D02*
X64191Y29554D01*
X63544Y29727D01*
X62965Y30062D01*
X62492Y30535D01*
X62157Y31114D01*
X61984Y31761D01*
X61984Y39681D01*
X72111Y39681D01*
X72111Y29554D01*
X64191Y29554D01*
G37*
%LPD*%
%LPC*%
G36*
X440959Y451429D02*
X440959Y451429D01*
X440959Y460575D01*
X441216Y460535D01*
X443003Y459954D01*
X444677Y459101D01*
X446198Y457996D01*
X447526Y456668D01*
X448631Y455147D01*
X449484Y453473D01*
X450065Y451686D01*
X450105Y451429D01*
X440959Y451429D01*
G37*
%LPD*%
%LPC*%
G36*
X440959Y446351D02*
X440959Y446351D01*
X450105Y446351D01*
X450065Y446094D01*
X449484Y444307D01*
X448631Y442633D01*
X447526Y441112D01*
X446198Y439784D01*
X444677Y438679D01*
X443003Y437826D01*
X441216Y437245D01*
X440959Y437205D01*
X440959Y446351D01*
G37*
%LPD*%
%LPC*%
G36*
X151079Y322399D02*
X151079Y322399D01*
X151079Y329741D01*
X152521Y329273D01*
X153924Y328558D01*
X155198Y327632D01*
X156312Y326518D01*
X157238Y325244D01*
X157953Y323841D01*
X158421Y322399D01*
X151079Y322399D01*
G37*
%LPD*%
%LPC*%
G36*
X280699Y165129D02*
X280699Y165129D01*
X280699Y172471D01*
X282141Y172003D01*
X283544Y171288D01*
X284818Y170362D01*
X285932Y169248D01*
X286858Y167974D01*
X287573Y166571D01*
X288041Y165129D01*
X280699Y165129D01*
G37*
%LPD*%
%LPC*%
G36*
X73979Y322399D02*
X73979Y322399D01*
X73979Y329741D01*
X75421Y329273D01*
X76824Y328558D01*
X78098Y327632D01*
X79212Y326518D01*
X80138Y325244D01*
X80853Y323841D01*
X81321Y322399D01*
X73979Y322399D01*
G37*
%LPD*%
%LPC*%
G36*
X228709Y322399D02*
X228709Y322399D01*
X228709Y329741D01*
X230151Y329273D01*
X231554Y328558D01*
X232828Y327632D01*
X233942Y326518D01*
X234868Y325244D01*
X235583Y323841D01*
X236051Y322399D01*
X228709Y322399D01*
G37*
%LPD*%
%LPC*%
G36*
X73979Y317601D02*
X73979Y317601D01*
X81321Y317601D01*
X80853Y316159D01*
X80138Y314756D01*
X79212Y313482D01*
X78098Y312368D01*
X76824Y311442D01*
X75421Y310727D01*
X73979Y310259D01*
X73979Y317601D01*
G37*
%LPD*%
%LPC*%
G36*
X280699Y160331D02*
X280699Y160331D01*
X288041Y160331D01*
X287573Y158889D01*
X286858Y157486D01*
X285932Y156212D01*
X284818Y155098D01*
X283544Y154172D01*
X282141Y153457D01*
X280699Y152989D01*
X280699Y160331D01*
G37*
%LPD*%
%LPC*%
G36*
X151079Y317601D02*
X151079Y317601D01*
X158421Y317601D01*
X157953Y316159D01*
X157238Y314756D01*
X156312Y313482D01*
X155198Y312368D01*
X153924Y311442D01*
X152521Y310727D01*
X151079Y310259D01*
X151079Y317601D01*
G37*
%LPD*%
%LPC*%
G36*
X268559Y165129D02*
X268559Y165129D01*
X269027Y166571D01*
X269742Y167974D01*
X270668Y169248D01*
X271782Y170362D01*
X273056Y171288D01*
X274459Y172003D01*
X275901Y172471D01*
X275901Y165129D01*
X268559Y165129D01*
G37*
%LPD*%
%LPC*%
G36*
X216569Y322399D02*
X216569Y322399D01*
X217037Y323841D01*
X217752Y325244D01*
X218678Y326518D01*
X219792Y327632D01*
X221066Y328558D01*
X222469Y329273D01*
X223911Y329741D01*
X223911Y322399D01*
X216569Y322399D01*
G37*
%LPD*%
%LPC*%
G36*
X61839Y322399D02*
X61839Y322399D01*
X62307Y323841D01*
X63022Y325244D01*
X63948Y326518D01*
X65062Y327632D01*
X66336Y328558D01*
X67739Y329273D01*
X69181Y329741D01*
X69181Y322399D01*
X61839Y322399D01*
G37*
%LPD*%
%LPC*%
G36*
X138939Y322399D02*
X138939Y322399D01*
X139407Y323841D01*
X140122Y325244D01*
X141048Y326518D01*
X142162Y327632D01*
X143436Y328558D01*
X144839Y329273D01*
X146281Y329741D01*
X146281Y322399D01*
X138939Y322399D01*
G37*
%LPD*%
%LPC*%
G36*
X228709Y317601D02*
X228709Y317601D01*
X236051Y317601D01*
X235583Y316159D01*
X234868Y314756D01*
X233942Y313482D01*
X232828Y312368D01*
X231554Y311442D01*
X230151Y310727D01*
X228709Y310259D01*
X228709Y317601D01*
G37*
%LPD*%
%LPC*%
G36*
X274459Y153457D02*
X274459Y153457D01*
X273056Y154172D01*
X271782Y155098D01*
X270668Y156212D01*
X269742Y157486D01*
X269027Y158889D01*
X268559Y160331D01*
X275901Y160331D01*
X275901Y152989D01*
X274459Y153457D01*
G37*
%LPD*%
%LPC*%
G36*
X67739Y310727D02*
X67739Y310727D01*
X66336Y311442D01*
X65062Y312368D01*
X63948Y313482D01*
X63022Y314756D01*
X62307Y316159D01*
X61839Y317601D01*
X69181Y317601D01*
X69181Y310259D01*
X67739Y310727D01*
G37*
%LPD*%
%LPC*%
G36*
X144839Y310727D02*
X144839Y310727D01*
X143436Y311442D01*
X142162Y312368D01*
X141048Y313482D01*
X140122Y314756D01*
X139407Y316159D01*
X138939Y317601D01*
X146281Y317601D01*
X146281Y310259D01*
X144839Y310727D01*
G37*
%LPD*%
%LPC*%
G36*
X222469Y310727D02*
X222469Y310727D01*
X221066Y311442D01*
X219792Y312368D01*
X218678Y313482D01*
X217752Y314756D01*
X217037Y316159D01*
X216569Y317601D01*
X223911Y317601D01*
X223911Y310259D01*
X222469Y310727D01*
G37*
%LPD*%
%LPC*%
G36*
X223199Y402809D02*
X223199Y402809D01*
X223199Y409903D01*
X224628Y409439D01*
X225971Y408754D01*
X227191Y407868D01*
X228258Y406801D01*
X229144Y405581D01*
X229829Y404238D01*
X230293Y402809D01*
X223199Y402809D01*
G37*
%LPD*%
%LPC*%
G36*
X211607Y402809D02*
X211607Y402809D01*
X212071Y404238D01*
X212756Y405581D01*
X213642Y406801D01*
X214709Y407868D01*
X215929Y408754D01*
X217272Y409439D01*
X218701Y409903D01*
X218701Y402809D01*
X211607Y402809D01*
G37*
%LPD*%
%LPC*%
G36*
X223199Y398311D02*
X223199Y398311D01*
X230293Y398311D01*
X229829Y396882D01*
X229144Y395539D01*
X228258Y394319D01*
X227191Y393252D01*
X225971Y392366D01*
X224628Y391681D01*
X223199Y391217D01*
X223199Y398311D01*
G37*
%LPD*%
%LPC*%
G36*
X217272Y391681D02*
X217272Y391681D01*
X215929Y392366D01*
X214709Y393252D01*
X213642Y394319D01*
X212756Y395539D01*
X212071Y396882D01*
X211607Y398311D01*
X218701Y398311D01*
X218701Y391217D01*
X217272Y391681D01*
G37*
%LPD*%
%LPC*%
G36*
X275539Y303131D02*
X275539Y303131D01*
X282417Y303131D01*
X282397Y303004D01*
X281955Y301644D01*
X281307Y300371D01*
X280466Y299214D01*
X279456Y298204D01*
X278299Y297363D01*
X277026Y296715D01*
X275666Y296273D01*
X275539Y296253D01*
X275539Y303131D01*
G37*
%LPD*%
%LPC*%
G36*
X271414Y296273D02*
X271414Y296273D01*
X270054Y296715D01*
X268781Y297363D01*
X267624Y298204D01*
X266614Y299214D01*
X265773Y300371D01*
X265125Y301644D01*
X264683Y303004D01*
X264663Y303131D01*
X271541Y303131D01*
X271541Y296253D01*
X271414Y296273D01*
G37*
%LPD*%
%LPC*%
G36*
X74649Y42219D02*
X74649Y42219D01*
X74649Y42221D01*
X74651Y42221D01*
X74651Y42219D01*
X74649Y42219D01*
G37*
%LPD*%
D10*
X78560Y467320D03*
D11*
X78560Y416320D03*
X158320Y416320D03*
X158320Y467320D03*
D12*
X18830Y502400D03*
D13*
X18830Y361400D03*
D12*
X49610Y502400D03*
D13*
X49610Y361400D03*
D12*
X312450Y390130D03*
D13*
X312450Y249130D03*
D12*
X338370Y362530D03*
D13*
X338370Y221530D03*
D14*
X131430Y529120D03*
X96430Y529120D03*
D15*
X74650Y42220D03*
D16*
X109650Y42220D03*
X144650Y42220D03*
X179650Y42220D03*
X214650Y42220D03*
X249650Y42220D03*
X284650Y42220D03*
X319650Y42220D03*
X354650Y42220D03*
D17*
X50000Y279880D03*
X50000Y254480D03*
D18*
X50000Y152880D03*
X50000Y102080D03*
D17*
X110000Y279880D03*
X110000Y254480D03*
D18*
X110000Y152880D03*
X110000Y102080D03*
D17*
X170000Y279880D03*
X170000Y254480D03*
D18*
X170000Y152880D03*
X170000Y102080D03*
D17*
X230000Y279880D03*
X230000Y254480D03*
D18*
X230000Y152880D03*
X230000Y102080D03*
D19*
X220950Y527560D03*
X220950Y502160D03*
X220950Y451360D03*
X220950Y400560D03*
D20*
X19580Y320000D03*
D21*
X45580Y320000D03*
X71580Y320000D03*
D20*
X96680Y320000D03*
D21*
X122680Y320000D03*
X148680Y320000D03*
D20*
X174310Y320000D03*
D21*
X200310Y320000D03*
X226310Y320000D03*
D20*
X278300Y214730D03*
D21*
X278300Y188730D03*
X278300Y162730D03*
D19*
X368190Y166230D03*
X368190Y319230D03*
X394150Y166070D03*
X394150Y319070D03*
X419580Y166050D03*
X419580Y319050D03*
X457000Y166050D03*
X457000Y319050D03*
D22*
X273540Y485130D03*
X273540Y465130D03*
X273540Y445130D03*
X273540Y425130D03*
X273540Y405130D03*
X273540Y385130D03*
X273540Y365130D03*
X273540Y345130D03*
X273540Y325130D03*
X273540Y305130D03*
X493540Y305130D03*
X493540Y325130D03*
X493540Y345130D03*
X493540Y365130D03*
X493540Y385130D03*
X493540Y405130D03*
X493540Y425130D03*
X493540Y445130D03*
X493540Y465130D03*
X493540Y485130D03*
D23*
X143830Y344990D03*
D24*
X93830Y344990D03*
D23*
X257000Y502320D03*
D24*
X257000Y527720D03*
D25*
X311420Y448890D03*
X336820Y448890D03*
X362220Y448890D03*
X387620Y448890D03*
X413020Y448890D03*
X438420Y448890D03*
D26*
X311420Y448890D02*
X311420Y431420D01*
X290000Y410000D01*
X290000Y340000D01*
X275130Y325130D01*
X273540Y325130D01*
X480000Y330000D02*
X484870Y325130D01*
X493540Y325130D01*
X413020Y448890D02*
X434130Y470000D01*
X470000Y470000D02*
X480000Y460000D01*
X470000Y470000D02*
X434130Y470000D01*
X480000Y460000D02*
X480000Y330000D01*
M02*
