G04 EAGLE Gerber RS-274X export*
G75*
%MOMM*%
%FSLAX34Y34*%
%LPD*%
%INBottom Copper*%
%IPPOS*%
%AMOC8*
5,1,8,0,0,1.08239X$1,22.5*%
G01*
%ADD10R,1.288000X1.288000*%
%ADD11C,1.288000*%
%ADD12R,1.575000X1.575000*%
%ADD13C,1.575000*%
%ADD14C,1.950000*%
%ADD15R,2.025000X2.025000*%
%ADD16C,2.025000*%
%ADD17C,1.508000*%
%ADD18C,1.800000*%
%ADD19C,1.408000*%
%ADD20R,1.493000X1.493000*%
%ADD21C,1.493000*%
%ADD22C,1.308000*%
%ADD23C,0.406400*%

G36*
X108291Y10178D02*
X108291Y10178D01*
X108429Y10191D01*
X108448Y10198D01*
X108468Y10201D01*
X108598Y10252D01*
X108729Y10299D01*
X108745Y10310D01*
X108764Y10318D01*
X108877Y10399D01*
X108992Y10477D01*
X109005Y10493D01*
X109022Y10504D01*
X109110Y10612D01*
X109202Y10716D01*
X109211Y10734D01*
X109224Y10749D01*
X109284Y10875D01*
X109347Y10999D01*
X109351Y11019D01*
X109360Y11037D01*
X109386Y11173D01*
X109416Y11309D01*
X109416Y11330D01*
X109420Y11349D01*
X109411Y11488D01*
X109407Y11627D01*
X109401Y11647D01*
X109400Y11667D01*
X109357Y11799D01*
X109318Y11933D01*
X109308Y11950D01*
X109302Y11969D01*
X109227Y12087D01*
X109157Y12207D01*
X109138Y12228D01*
X109132Y12238D01*
X109117Y12252D01*
X109050Y12327D01*
X104481Y16896D01*
X103553Y19137D01*
X103553Y28538D01*
X103550Y28568D01*
X103552Y28597D01*
X103530Y28725D01*
X103513Y28854D01*
X103503Y28881D01*
X103498Y28910D01*
X103444Y29029D01*
X103396Y29150D01*
X103379Y29174D01*
X103367Y29200D01*
X103286Y29302D01*
X103210Y29407D01*
X103187Y29426D01*
X103168Y29449D01*
X103065Y29527D01*
X102965Y29610D01*
X102938Y29622D01*
X102914Y29640D01*
X102770Y29711D01*
X101612Y30191D01*
X97621Y34182D01*
X95460Y39397D01*
X95460Y45043D01*
X97621Y50258D01*
X101612Y54249D01*
X106827Y56410D01*
X112473Y56410D01*
X117688Y54249D01*
X121679Y50258D01*
X123840Y45043D01*
X123840Y39397D01*
X121679Y34182D01*
X117688Y30191D01*
X116530Y29711D01*
X116505Y29696D01*
X116477Y29687D01*
X116367Y29618D01*
X116254Y29554D01*
X116233Y29533D01*
X116208Y29517D01*
X116119Y29423D01*
X116026Y29332D01*
X116010Y29307D01*
X115990Y29286D01*
X115927Y29172D01*
X115859Y29061D01*
X115851Y29033D01*
X115836Y29007D01*
X115804Y28881D01*
X115766Y28757D01*
X115764Y28728D01*
X115757Y28699D01*
X115747Y28538D01*
X115747Y23401D01*
X115759Y23303D01*
X115762Y23204D01*
X115779Y23146D01*
X115787Y23086D01*
X115823Y22993D01*
X115851Y22898D01*
X115881Y22846D01*
X115904Y22790D01*
X115962Y22710D01*
X116012Y22624D01*
X116078Y22549D01*
X116090Y22533D01*
X116100Y22525D01*
X116118Y22504D01*
X119962Y18660D01*
X120040Y18600D01*
X120112Y18532D01*
X120165Y18503D01*
X120213Y18466D01*
X120304Y18426D01*
X120390Y18378D01*
X120449Y18363D01*
X120505Y18339D01*
X120603Y18324D01*
X120698Y18299D01*
X120798Y18293D01*
X120819Y18289D01*
X120831Y18291D01*
X120859Y18289D01*
X138935Y18289D01*
X139073Y18306D01*
X139211Y18319D01*
X139230Y18326D01*
X139250Y18329D01*
X139380Y18380D01*
X139511Y18427D01*
X139527Y18438D01*
X139546Y18446D01*
X139659Y18527D01*
X139774Y18605D01*
X139787Y18621D01*
X139804Y18632D01*
X139893Y18740D01*
X139984Y18844D01*
X139993Y18862D01*
X140006Y18877D01*
X140066Y19003D01*
X140129Y19127D01*
X140133Y19147D01*
X140142Y19165D01*
X140168Y19301D01*
X140198Y19437D01*
X140198Y19458D01*
X140202Y19477D01*
X140193Y19616D01*
X140189Y19755D01*
X140183Y19775D01*
X140182Y19795D01*
X140139Y19927D01*
X140100Y20061D01*
X140090Y20078D01*
X140084Y20097D01*
X140010Y20215D01*
X139939Y20335D01*
X139920Y20356D01*
X139914Y20366D01*
X139899Y20380D01*
X139832Y20456D01*
X139481Y20807D01*
X138553Y23047D01*
X138553Y28538D01*
X138550Y28568D01*
X138552Y28597D01*
X138530Y28725D01*
X138513Y28854D01*
X138503Y28881D01*
X138498Y28910D01*
X138444Y29029D01*
X138396Y29150D01*
X138379Y29174D01*
X138367Y29200D01*
X138286Y29302D01*
X138210Y29407D01*
X138187Y29426D01*
X138168Y29449D01*
X138065Y29527D01*
X137965Y29610D01*
X137938Y29622D01*
X137914Y29640D01*
X137770Y29711D01*
X136612Y30191D01*
X132621Y34182D01*
X130460Y39397D01*
X130460Y45043D01*
X132621Y50258D01*
X136612Y54249D01*
X141827Y56410D01*
X147473Y56410D01*
X152688Y54249D01*
X156679Y50258D01*
X158840Y45043D01*
X158840Y39397D01*
X156679Y34182D01*
X152688Y30191D01*
X151530Y29711D01*
X151505Y29696D01*
X151477Y29687D01*
X151367Y29618D01*
X151254Y29554D01*
X151233Y29533D01*
X151208Y29517D01*
X151119Y29423D01*
X151026Y29332D01*
X151010Y29307D01*
X150990Y29286D01*
X150927Y29172D01*
X150859Y29061D01*
X150851Y29033D01*
X150836Y29007D01*
X150804Y28881D01*
X150766Y28757D01*
X150764Y28728D01*
X150757Y28699D01*
X150747Y28538D01*
X150747Y27366D01*
X150762Y27248D01*
X150769Y27129D01*
X150782Y27091D01*
X150787Y27050D01*
X150830Y26940D01*
X150867Y26827D01*
X150889Y26792D01*
X150904Y26755D01*
X150973Y26659D01*
X151037Y26558D01*
X151067Y26530D01*
X151090Y26497D01*
X151182Y26421D01*
X151269Y26340D01*
X151304Y26320D01*
X151335Y26295D01*
X151443Y26244D01*
X151547Y26186D01*
X151587Y26176D01*
X151623Y26159D01*
X151740Y26137D01*
X151855Y26107D01*
X151915Y26103D01*
X151935Y26099D01*
X151956Y26101D01*
X152016Y26097D01*
X175115Y26097D01*
X175184Y26105D01*
X175254Y26104D01*
X175341Y26125D01*
X175430Y26137D01*
X175495Y26162D01*
X175563Y26179D01*
X175642Y26221D01*
X175726Y26254D01*
X175782Y26295D01*
X175844Y26327D01*
X175910Y26388D01*
X175983Y26440D01*
X176028Y26494D01*
X176079Y26541D01*
X176129Y26616D01*
X176186Y26685D01*
X176216Y26749D01*
X176254Y26807D01*
X176283Y26892D01*
X176321Y26973D01*
X176335Y27042D01*
X176357Y27108D01*
X176364Y27197D01*
X176381Y27285D01*
X176377Y27355D01*
X176382Y27425D01*
X176367Y27513D01*
X176361Y27603D01*
X176340Y27669D01*
X176328Y27738D01*
X176291Y27820D01*
X176263Y27905D01*
X176226Y27964D01*
X176197Y28028D01*
X176141Y28098D01*
X176093Y28174D01*
X176042Y28222D01*
X175999Y28276D01*
X175927Y28331D01*
X175862Y28392D01*
X175801Y28426D01*
X175745Y28468D01*
X175600Y28539D01*
X171612Y30191D01*
X167621Y34182D01*
X165460Y39397D01*
X165460Y45043D01*
X167621Y50258D01*
X171583Y54220D01*
X171656Y54314D01*
X171735Y54403D01*
X171753Y54439D01*
X171778Y54471D01*
X171825Y54581D01*
X171879Y54687D01*
X171888Y54726D01*
X171904Y54763D01*
X171923Y54881D01*
X171949Y54997D01*
X171948Y55037D01*
X171954Y55077D01*
X171943Y55196D01*
X171939Y55315D01*
X171928Y55354D01*
X171924Y55394D01*
X171884Y55506D01*
X171851Y55620D01*
X171830Y55655D01*
X171817Y55693D01*
X171750Y55792D01*
X171689Y55894D01*
X171649Y55939D01*
X171638Y55956D01*
X171623Y55970D01*
X171583Y56015D01*
X166756Y60842D01*
X166678Y60902D01*
X166606Y60970D01*
X166553Y60999D01*
X166505Y61036D01*
X166414Y61076D01*
X166328Y61124D01*
X166269Y61139D01*
X166213Y61163D01*
X166115Y61178D01*
X166020Y61203D01*
X165920Y61209D01*
X165899Y61213D01*
X165887Y61211D01*
X165859Y61213D01*
X120707Y61213D01*
X118466Y62141D01*
X104831Y75776D01*
X103903Y78017D01*
X103903Y89616D01*
X103900Y89645D01*
X103902Y89675D01*
X103880Y89803D01*
X103863Y89932D01*
X103853Y89959D01*
X103848Y89988D01*
X103794Y90107D01*
X103746Y90227D01*
X103729Y90251D01*
X103717Y90278D01*
X103636Y90380D01*
X103560Y90485D01*
X103537Y90503D01*
X103518Y90527D01*
X103415Y90605D01*
X103315Y90687D01*
X103288Y90700D01*
X103264Y90718D01*
X103120Y90789D01*
X102599Y91004D01*
X98924Y94679D01*
X98709Y95200D01*
X98694Y95225D01*
X98685Y95253D01*
X98616Y95363D01*
X98551Y95476D01*
X98531Y95497D01*
X98515Y95522D01*
X98420Y95611D01*
X98330Y95704D01*
X98305Y95720D01*
X98283Y95740D01*
X98169Y95803D01*
X98059Y95871D01*
X98031Y95879D01*
X98005Y95894D01*
X97879Y95926D01*
X97755Y95964D01*
X97725Y95966D01*
X97697Y95973D01*
X97536Y95983D01*
X62464Y95983D01*
X62435Y95980D01*
X62405Y95982D01*
X62277Y95960D01*
X62148Y95943D01*
X62121Y95933D01*
X62092Y95928D01*
X61973Y95874D01*
X61853Y95826D01*
X61829Y95809D01*
X61802Y95797D01*
X61700Y95716D01*
X61595Y95640D01*
X61577Y95617D01*
X61553Y95598D01*
X61475Y95495D01*
X61393Y95395D01*
X61380Y95368D01*
X61362Y95344D01*
X61291Y95200D01*
X61076Y94679D01*
X57401Y91004D01*
X52599Y89015D01*
X47401Y89015D01*
X42599Y91004D01*
X38924Y94679D01*
X36935Y99481D01*
X36935Y104679D01*
X38924Y109481D01*
X42599Y113156D01*
X47401Y115145D01*
X52599Y115145D01*
X57401Y113156D01*
X61076Y109481D01*
X61291Y108960D01*
X61306Y108935D01*
X61315Y108907D01*
X61384Y108797D01*
X61449Y108684D01*
X61469Y108663D01*
X61485Y108638D01*
X61580Y108549D01*
X61670Y108456D01*
X61695Y108440D01*
X61717Y108420D01*
X61831Y108357D01*
X61941Y108289D01*
X61969Y108281D01*
X61995Y108266D01*
X62121Y108234D01*
X62245Y108196D01*
X62275Y108194D01*
X62303Y108187D01*
X62464Y108177D01*
X97536Y108177D01*
X97565Y108180D01*
X97595Y108178D01*
X97723Y108200D01*
X97852Y108217D01*
X97879Y108227D01*
X97908Y108232D01*
X98027Y108286D01*
X98147Y108334D01*
X98171Y108351D01*
X98198Y108363D01*
X98300Y108444D01*
X98405Y108520D01*
X98423Y108543D01*
X98447Y108562D01*
X98525Y108665D01*
X98607Y108765D01*
X98620Y108792D01*
X98638Y108816D01*
X98709Y108960D01*
X98924Y109481D01*
X102599Y113156D01*
X107401Y115145D01*
X112599Y115145D01*
X112908Y115017D01*
X112975Y114998D01*
X113039Y114971D01*
X113128Y114956D01*
X113215Y114933D01*
X113284Y114932D01*
X113353Y114921D01*
X113443Y114929D01*
X113533Y114928D01*
X113600Y114944D01*
X113670Y114950D01*
X113755Y114981D01*
X113842Y115002D01*
X113904Y115034D01*
X113969Y115058D01*
X114044Y115109D01*
X114123Y115151D01*
X114175Y115197D01*
X114232Y115237D01*
X114292Y115304D01*
X114358Y115364D01*
X114397Y115423D01*
X114443Y115475D01*
X114484Y115555D01*
X114533Y115630D01*
X114556Y115696D01*
X114587Y115758D01*
X114607Y115846D01*
X114636Y115931D01*
X114642Y116001D01*
X114657Y116069D01*
X114654Y116158D01*
X114662Y116248D01*
X114650Y116317D01*
X114647Y116387D01*
X114623Y116473D01*
X114607Y116561D01*
X114578Y116625D01*
X114559Y116692D01*
X114513Y116769D01*
X114477Y116851D01*
X114433Y116906D01*
X114398Y116966D01*
X114291Y117087D01*
X84966Y146412D01*
X84888Y146472D01*
X84816Y146540D01*
X84763Y146569D01*
X84715Y146606D01*
X84624Y146646D01*
X84538Y146694D01*
X84479Y146709D01*
X84423Y146733D01*
X84325Y146748D01*
X84230Y146773D01*
X84130Y146779D01*
X84109Y146783D01*
X84097Y146781D01*
X84069Y146783D01*
X62464Y146783D01*
X62435Y146780D01*
X62405Y146782D01*
X62277Y146760D01*
X62148Y146743D01*
X62121Y146733D01*
X62092Y146728D01*
X61973Y146674D01*
X61853Y146626D01*
X61829Y146609D01*
X61802Y146597D01*
X61700Y146516D01*
X61595Y146440D01*
X61577Y146417D01*
X61553Y146398D01*
X61475Y146295D01*
X61393Y146195D01*
X61380Y146168D01*
X61362Y146144D01*
X61291Y146000D01*
X61076Y145479D01*
X57401Y141804D01*
X52599Y139815D01*
X47401Y139815D01*
X42599Y141804D01*
X38924Y145479D01*
X36935Y150281D01*
X36935Y155479D01*
X38924Y160281D01*
X42599Y163956D01*
X47401Y165945D01*
X52599Y165945D01*
X57401Y163956D01*
X61076Y160281D01*
X61291Y159760D01*
X61306Y159735D01*
X61315Y159707D01*
X61384Y159597D01*
X61449Y159484D01*
X61469Y159463D01*
X61485Y159438D01*
X61580Y159349D01*
X61670Y159256D01*
X61695Y159240D01*
X61717Y159220D01*
X61831Y159157D01*
X61941Y159089D01*
X61969Y159081D01*
X61995Y159066D01*
X62121Y159034D01*
X62245Y158996D01*
X62275Y158994D01*
X62303Y158987D01*
X62464Y158977D01*
X88333Y158977D01*
X90574Y158049D01*
X94769Y153854D01*
X94878Y153768D01*
X94985Y153680D01*
X95004Y153671D01*
X95020Y153659D01*
X95148Y153603D01*
X95273Y153544D01*
X95293Y153540D01*
X95312Y153532D01*
X95450Y153510D01*
X95586Y153484D01*
X95606Y153486D01*
X95626Y153482D01*
X95765Y153496D01*
X95903Y153504D01*
X95922Y153510D01*
X95942Y153512D01*
X96074Y153559D01*
X96205Y153602D01*
X96223Y153613D01*
X96242Y153620D01*
X96357Y153698D01*
X96474Y153772D01*
X96488Y153787D01*
X96505Y153798D01*
X96597Y153903D01*
X96692Y154004D01*
X96702Y154022D01*
X96715Y154037D01*
X96779Y154161D01*
X96846Y154282D01*
X96851Y154302D01*
X96860Y154320D01*
X96890Y154456D01*
X96925Y154590D01*
X96927Y154618D01*
X96930Y154630D01*
X96929Y154651D01*
X96935Y154751D01*
X96935Y155479D01*
X98924Y160281D01*
X102599Y163956D01*
X107401Y165945D01*
X112599Y165945D01*
X117401Y163956D01*
X121076Y160281D01*
X123065Y155479D01*
X123065Y150281D01*
X122849Y149761D01*
X122841Y149732D01*
X122828Y149706D01*
X122800Y149580D01*
X122765Y149454D01*
X122765Y149425D01*
X122758Y149396D01*
X122762Y149266D01*
X122760Y149136D01*
X122767Y149108D01*
X122768Y149078D01*
X122804Y148953D01*
X122834Y148827D01*
X122848Y148801D01*
X122856Y148773D01*
X122922Y148661D01*
X122983Y148546D01*
X123003Y148524D01*
X123018Y148499D01*
X123124Y148378D01*
X153275Y118227D01*
X155169Y116333D01*
X156097Y114093D01*
X156097Y109035D01*
X156105Y108966D01*
X156104Y108896D01*
X156125Y108809D01*
X156137Y108720D01*
X156162Y108655D01*
X156179Y108587D01*
X156221Y108508D01*
X156254Y108424D01*
X156295Y108368D01*
X156327Y108306D01*
X156388Y108239D01*
X156440Y108167D01*
X156494Y108122D01*
X156541Y108071D01*
X156616Y108021D01*
X156685Y107964D01*
X156749Y107934D01*
X156807Y107896D01*
X156892Y107867D01*
X156973Y107828D01*
X157042Y107815D01*
X157108Y107793D01*
X157197Y107785D01*
X157285Y107769D01*
X157355Y107773D01*
X157425Y107767D01*
X157513Y107783D01*
X157603Y107788D01*
X157669Y107810D01*
X157738Y107822D01*
X157820Y107859D01*
X157905Y107886D01*
X157964Y107924D01*
X158028Y107952D01*
X158098Y108008D01*
X158174Y108056D01*
X158222Y108107D01*
X158276Y108151D01*
X158331Y108223D01*
X158392Y108288D01*
X158426Y108349D01*
X158468Y108405D01*
X158539Y108550D01*
X158924Y109481D01*
X162599Y113156D01*
X167401Y115145D01*
X172599Y115145D01*
X177401Y113156D01*
X181076Y109481D01*
X181291Y108960D01*
X181306Y108935D01*
X181315Y108907D01*
X181384Y108797D01*
X181449Y108684D01*
X181469Y108663D01*
X181485Y108638D01*
X181580Y108549D01*
X181670Y108456D01*
X181695Y108440D01*
X181717Y108420D01*
X181831Y108357D01*
X181941Y108289D01*
X181969Y108281D01*
X181995Y108266D01*
X182121Y108234D01*
X182245Y108196D01*
X182275Y108194D01*
X182303Y108187D01*
X182464Y108177D01*
X217536Y108177D01*
X217565Y108180D01*
X217595Y108178D01*
X217723Y108200D01*
X217852Y108217D01*
X217879Y108227D01*
X217908Y108232D01*
X218027Y108286D01*
X218147Y108334D01*
X218171Y108351D01*
X218198Y108363D01*
X218300Y108444D01*
X218405Y108520D01*
X218423Y108543D01*
X218447Y108562D01*
X218525Y108665D01*
X218607Y108765D01*
X218620Y108792D01*
X218638Y108816D01*
X218709Y108960D01*
X218924Y109481D01*
X221180Y111737D01*
X221265Y111846D01*
X221354Y111953D01*
X221363Y111972D01*
X221375Y111988D01*
X221431Y112116D01*
X221490Y112241D01*
X221493Y112261D01*
X221502Y112280D01*
X221523Y112418D01*
X221549Y112554D01*
X221548Y112574D01*
X221551Y112594D01*
X221538Y112733D01*
X221530Y112871D01*
X221523Y112890D01*
X221522Y112910D01*
X221474Y113041D01*
X221432Y113173D01*
X221421Y113191D01*
X221414Y113210D01*
X221336Y113324D01*
X221261Y113442D01*
X221247Y113456D01*
X221235Y113473D01*
X221131Y113565D01*
X221030Y113660D01*
X221012Y113670D01*
X220997Y113683D01*
X220873Y113747D01*
X220751Y113814D01*
X220732Y113819D01*
X220714Y113828D01*
X220578Y113858D01*
X220443Y113893D01*
X220415Y113895D01*
X220403Y113898D01*
X220383Y113897D01*
X220283Y113903D01*
X201667Y113903D01*
X199426Y114831D01*
X197533Y116725D01*
X174502Y139756D01*
X174479Y139774D01*
X174460Y139796D01*
X174354Y139871D01*
X174251Y139951D01*
X174224Y139962D01*
X174200Y139979D01*
X174078Y140025D01*
X173959Y140077D01*
X173930Y140082D01*
X173902Y140092D01*
X173773Y140106D01*
X173645Y140127D01*
X173616Y140124D01*
X173586Y140127D01*
X173458Y140109D01*
X173328Y140097D01*
X173301Y140087D01*
X173271Y140083D01*
X173119Y140031D01*
X172599Y139815D01*
X167401Y139815D01*
X162599Y141804D01*
X158924Y145479D01*
X156935Y150281D01*
X156935Y155479D01*
X158924Y160281D01*
X162599Y163956D01*
X167401Y165945D01*
X172599Y165945D01*
X177401Y163956D01*
X181076Y160281D01*
X183065Y155479D01*
X183065Y150281D01*
X182849Y149761D01*
X182841Y149732D01*
X182828Y149706D01*
X182800Y149580D01*
X182765Y149454D01*
X182765Y149425D01*
X182758Y149396D01*
X182762Y149266D01*
X182760Y149136D01*
X182767Y149108D01*
X182768Y149078D01*
X182804Y148953D01*
X182834Y148827D01*
X182848Y148801D01*
X182856Y148773D01*
X182922Y148661D01*
X182983Y148546D01*
X183003Y148524D01*
X183018Y148499D01*
X183124Y148378D01*
X205034Y126468D01*
X205112Y126408D01*
X205184Y126340D01*
X205237Y126311D01*
X205285Y126274D01*
X205376Y126234D01*
X205462Y126186D01*
X205521Y126171D01*
X205577Y126147D01*
X205675Y126132D01*
X205770Y126107D01*
X205870Y126101D01*
X205891Y126097D01*
X205903Y126099D01*
X205931Y126097D01*
X243083Y126097D01*
X245324Y125169D01*
X314287Y56205D01*
X314310Y56187D01*
X314329Y56165D01*
X314391Y56121D01*
X314417Y56097D01*
X314450Y56079D01*
X314538Y56010D01*
X314565Y55999D01*
X314589Y55982D01*
X314711Y55936D01*
X314830Y55884D01*
X314859Y55879D01*
X314887Y55869D01*
X315016Y55855D01*
X315144Y55834D01*
X315173Y55837D01*
X315203Y55834D01*
X315331Y55852D01*
X315461Y55864D01*
X315488Y55874D01*
X315518Y55878D01*
X315670Y55930D01*
X316827Y56410D01*
X322473Y56410D01*
X327688Y54249D01*
X331679Y50258D01*
X333840Y45043D01*
X333840Y39397D01*
X331679Y34182D01*
X327688Y30191D01*
X323700Y28539D01*
X323639Y28504D01*
X323574Y28478D01*
X323502Y28426D01*
X323424Y28381D01*
X323373Y28332D01*
X323317Y28292D01*
X323260Y28222D01*
X323195Y28160D01*
X323159Y28100D01*
X323114Y28047D01*
X323076Y27965D01*
X323029Y27889D01*
X323008Y27822D01*
X322979Y27759D01*
X322962Y27671D01*
X322935Y27585D01*
X322932Y27515D01*
X322919Y27446D01*
X322924Y27357D01*
X322920Y27267D01*
X322934Y27199D01*
X322939Y27129D01*
X322966Y27044D01*
X322984Y26956D01*
X323015Y26893D01*
X323037Y26827D01*
X323085Y26751D01*
X323124Y26670D01*
X323169Y26617D01*
X323207Y26558D01*
X323272Y26496D01*
X323330Y26428D01*
X323388Y26388D01*
X323438Y26340D01*
X323517Y26297D01*
X323590Y26245D01*
X323656Y26220D01*
X323717Y26186D01*
X323804Y26164D01*
X323888Y26132D01*
X323957Y26124D01*
X324025Y26107D01*
X324185Y26097D01*
X350115Y26097D01*
X350184Y26105D01*
X350254Y26104D01*
X350341Y26125D01*
X350430Y26137D01*
X350495Y26162D01*
X350563Y26179D01*
X350642Y26221D01*
X350726Y26254D01*
X350782Y26295D01*
X350844Y26327D01*
X350910Y26388D01*
X350983Y26440D01*
X351028Y26494D01*
X351079Y26541D01*
X351129Y26616D01*
X351186Y26685D01*
X351216Y26749D01*
X351254Y26807D01*
X351283Y26892D01*
X351321Y26973D01*
X351335Y27042D01*
X351357Y27108D01*
X351364Y27197D01*
X351381Y27285D01*
X351377Y27355D01*
X351382Y27425D01*
X351367Y27513D01*
X351361Y27603D01*
X351340Y27669D01*
X351328Y27738D01*
X351291Y27820D01*
X351263Y27905D01*
X351226Y27964D01*
X351197Y28028D01*
X351141Y28098D01*
X351093Y28174D01*
X351042Y28222D01*
X350999Y28276D01*
X350927Y28331D01*
X350862Y28392D01*
X350801Y28426D01*
X350745Y28468D01*
X350600Y28539D01*
X346612Y30191D01*
X342621Y34182D01*
X340460Y39397D01*
X340460Y45043D01*
X340940Y46200D01*
X340948Y46228D01*
X340961Y46255D01*
X340989Y46382D01*
X341024Y46507D01*
X341024Y46536D01*
X341031Y46565D01*
X341027Y46695D01*
X341029Y46825D01*
X341022Y46854D01*
X341021Y46883D01*
X340985Y47008D01*
X340955Y47134D01*
X340941Y47160D01*
X340933Y47189D01*
X340867Y47300D01*
X340806Y47415D01*
X340786Y47437D01*
X340771Y47462D01*
X340665Y47583D01*
X242820Y145428D01*
X242725Y145501D01*
X242636Y145580D01*
X242600Y145598D01*
X242568Y145623D01*
X242459Y145671D01*
X242353Y145725D01*
X242314Y145734D01*
X242276Y145750D01*
X242159Y145768D01*
X242043Y145794D01*
X242002Y145793D01*
X241962Y145799D01*
X241844Y145788D01*
X241725Y145785D01*
X241686Y145773D01*
X241646Y145770D01*
X241534Y145729D01*
X241419Y145696D01*
X241385Y145676D01*
X241346Y145662D01*
X241248Y145595D01*
X241145Y145535D01*
X241100Y145495D01*
X241083Y145483D01*
X241070Y145468D01*
X241025Y145428D01*
X237401Y141804D01*
X232599Y139815D01*
X227401Y139815D01*
X222599Y141804D01*
X218924Y145479D01*
X216935Y150281D01*
X216935Y155479D01*
X218924Y160281D01*
X222599Y163956D01*
X227401Y165945D01*
X232599Y165945D01*
X237401Y163956D01*
X241076Y160281D01*
X241291Y159760D01*
X241306Y159735D01*
X241315Y159707D01*
X241384Y159597D01*
X241449Y159484D01*
X241469Y159463D01*
X241485Y159438D01*
X241580Y159349D01*
X241670Y159256D01*
X241695Y159240D01*
X241717Y159220D01*
X241831Y159157D01*
X241941Y159089D01*
X241969Y159081D01*
X241995Y159066D01*
X242121Y159034D01*
X242245Y158996D01*
X242275Y158994D01*
X242303Y158987D01*
X242464Y158977D01*
X245203Y158977D01*
X247444Y158049D01*
X349287Y56205D01*
X349310Y56187D01*
X349329Y56165D01*
X349391Y56121D01*
X349417Y56097D01*
X349450Y56079D01*
X349538Y56010D01*
X349565Y55999D01*
X349589Y55982D01*
X349711Y55936D01*
X349830Y55884D01*
X349859Y55879D01*
X349887Y55869D01*
X350016Y55855D01*
X350144Y55834D01*
X350173Y55837D01*
X350203Y55834D01*
X350331Y55852D01*
X350461Y55864D01*
X350488Y55874D01*
X350518Y55878D01*
X350670Y55930D01*
X351827Y56410D01*
X357473Y56410D01*
X362688Y54249D01*
X366679Y50258D01*
X368840Y45043D01*
X368840Y39397D01*
X366679Y34182D01*
X362688Y30191D01*
X358700Y28539D01*
X358639Y28504D01*
X358574Y28478D01*
X358502Y28426D01*
X358424Y28381D01*
X358373Y28332D01*
X358317Y28292D01*
X358260Y28222D01*
X358195Y28160D01*
X358159Y28100D01*
X358114Y28047D01*
X358076Y27965D01*
X358029Y27889D01*
X358008Y27822D01*
X357979Y27759D01*
X357962Y27671D01*
X357935Y27585D01*
X357932Y27515D01*
X357919Y27446D01*
X357924Y27357D01*
X357920Y27267D01*
X357934Y27199D01*
X357939Y27129D01*
X357966Y27044D01*
X357984Y26956D01*
X358015Y26893D01*
X358037Y26827D01*
X358085Y26751D01*
X358124Y26670D01*
X358169Y26617D01*
X358207Y26558D01*
X358272Y26496D01*
X358330Y26428D01*
X358388Y26388D01*
X358438Y26340D01*
X358517Y26297D01*
X358590Y26245D01*
X358656Y26220D01*
X358717Y26186D01*
X358804Y26164D01*
X358888Y26132D01*
X358957Y26124D01*
X359025Y26107D01*
X359185Y26097D01*
X391599Y26097D01*
X391697Y26109D01*
X391796Y26112D01*
X391854Y26129D01*
X391914Y26137D01*
X392007Y26173D01*
X392102Y26201D01*
X392154Y26231D01*
X392210Y26254D01*
X392290Y26312D01*
X392376Y26362D01*
X392451Y26428D01*
X392467Y26440D01*
X392475Y26450D01*
X392496Y26468D01*
X482482Y116454D01*
X482542Y116532D01*
X482610Y116604D01*
X482639Y116657D01*
X482676Y116705D01*
X482716Y116796D01*
X482764Y116882D01*
X482779Y116941D01*
X482803Y116997D01*
X482818Y117095D01*
X482843Y117190D01*
X482849Y117290D01*
X482853Y117311D01*
X482851Y117323D01*
X482853Y117351D01*
X482853Y227999D01*
X482841Y228097D01*
X482838Y228196D01*
X482821Y228254D01*
X482813Y228314D01*
X482777Y228407D01*
X482749Y228502D01*
X482719Y228554D01*
X482696Y228610D01*
X482638Y228690D01*
X482588Y228776D01*
X482522Y228851D01*
X482510Y228867D01*
X482500Y228875D01*
X482482Y228896D01*
X424831Y286546D01*
X423903Y288787D01*
X423903Y309685D01*
X423886Y309823D01*
X423873Y309961D01*
X423866Y309980D01*
X423863Y310000D01*
X423812Y310129D01*
X423765Y310260D01*
X423754Y310277D01*
X423746Y310296D01*
X423665Y310408D01*
X423587Y310523D01*
X423571Y310537D01*
X423560Y310553D01*
X423452Y310642D01*
X423348Y310734D01*
X423330Y310743D01*
X423315Y310756D01*
X423189Y310815D01*
X423065Y310878D01*
X423045Y310883D01*
X423027Y310891D01*
X422890Y310918D01*
X422755Y310948D01*
X422734Y310947D01*
X422715Y310951D01*
X422576Y310943D01*
X422437Y310938D01*
X422417Y310933D01*
X422397Y310932D01*
X422265Y310889D01*
X422131Y310850D01*
X422114Y310840D01*
X422095Y310833D01*
X421977Y310759D01*
X421857Y310688D01*
X421836Y310670D01*
X421826Y310663D01*
X421812Y310648D01*
X421737Y310582D01*
X420790Y309636D01*
X416709Y307945D01*
X412291Y307945D01*
X408210Y309636D01*
X405086Y312760D01*
X403395Y316841D01*
X403395Y321259D01*
X405086Y325340D01*
X408032Y328286D01*
X408092Y328364D01*
X408160Y328436D01*
X408189Y328489D01*
X408226Y328537D01*
X408266Y328628D01*
X408314Y328715D01*
X408329Y328773D01*
X408353Y328829D01*
X408368Y328927D01*
X408393Y329023D01*
X408399Y329123D01*
X408403Y329143D01*
X408401Y329155D01*
X408403Y329183D01*
X408403Y334289D01*
X408391Y334387D01*
X408388Y334486D01*
X408371Y334544D01*
X408363Y334604D01*
X408327Y334697D01*
X408299Y334792D01*
X408269Y334844D01*
X408246Y334900D01*
X408188Y334980D01*
X408138Y335066D01*
X408072Y335141D01*
X408060Y335157D01*
X408050Y335165D01*
X408032Y335186D01*
X405516Y337702D01*
X405438Y337762D01*
X405366Y337830D01*
X405313Y337859D01*
X405265Y337896D01*
X405174Y337936D01*
X405088Y337984D01*
X405029Y337999D01*
X404973Y338023D01*
X404875Y338038D01*
X404780Y338063D01*
X404680Y338069D01*
X404659Y338073D01*
X404647Y338071D01*
X404619Y338073D01*
X387353Y338073D01*
X387216Y338056D01*
X387077Y338043D01*
X387058Y338036D01*
X387038Y338033D01*
X386909Y337982D01*
X386777Y337935D01*
X386761Y337924D01*
X386742Y337916D01*
X386629Y337835D01*
X386514Y337757D01*
X386501Y337741D01*
X386484Y337730D01*
X386396Y337622D01*
X386304Y337518D01*
X386295Y337500D01*
X386282Y337485D01*
X386222Y337359D01*
X386159Y337235D01*
X386155Y337215D01*
X386146Y337197D01*
X386120Y337061D01*
X386090Y336925D01*
X386090Y336904D01*
X386086Y336885D01*
X386095Y336746D01*
X386099Y336607D01*
X386105Y336587D01*
X386106Y336567D01*
X386149Y336435D01*
X386188Y336301D01*
X386198Y336284D01*
X386204Y336265D01*
X386279Y336147D01*
X386349Y336027D01*
X386368Y336006D01*
X386374Y335996D01*
X386389Y335982D01*
X386456Y335907D01*
X389269Y333094D01*
X390197Y330853D01*
X390197Y329183D01*
X390209Y329085D01*
X390212Y328986D01*
X390229Y328928D01*
X390237Y328868D01*
X390273Y328776D01*
X390301Y328681D01*
X390331Y328629D01*
X390354Y328572D01*
X390412Y328492D01*
X390462Y328407D01*
X390528Y328331D01*
X390540Y328315D01*
X390550Y328307D01*
X390568Y328286D01*
X393514Y325340D01*
X395205Y321259D01*
X395205Y316841D01*
X393514Y312760D01*
X390390Y309636D01*
X386309Y307945D01*
X381891Y307945D01*
X377810Y309636D01*
X374686Y312760D01*
X372995Y316841D01*
X372995Y321259D01*
X374686Y325340D01*
X376334Y326989D01*
X376407Y327083D01*
X376486Y327173D01*
X376505Y327208D01*
X376529Y327240D01*
X376577Y327350D01*
X376631Y327456D01*
X376640Y327495D01*
X376656Y327532D01*
X376674Y327650D01*
X376700Y327766D01*
X376699Y327806D01*
X376705Y327846D01*
X376694Y327965D01*
X376690Y328084D01*
X376679Y328123D01*
X376676Y328163D01*
X376635Y328275D01*
X376602Y328390D01*
X376582Y328424D01*
X376568Y328462D01*
X376501Y328561D01*
X376440Y328663D01*
X376401Y328708D01*
X376389Y328725D01*
X376374Y328738D01*
X376334Y328784D01*
X376306Y328812D01*
X376228Y328872D01*
X376156Y328940D01*
X376103Y328970D01*
X376054Y329007D01*
X375964Y329046D01*
X375878Y329094D01*
X375819Y329109D01*
X375763Y329133D01*
X375665Y329148D01*
X375570Y329173D01*
X375468Y329179D01*
X375448Y329183D01*
X375437Y329182D01*
X375409Y329183D01*
X362175Y329183D01*
X362038Y329166D01*
X361899Y329153D01*
X361880Y329146D01*
X361860Y329143D01*
X361731Y329092D01*
X361600Y329045D01*
X361583Y329034D01*
X361564Y329026D01*
X361452Y328945D01*
X361337Y328867D01*
X361323Y328851D01*
X361307Y328840D01*
X361218Y328732D01*
X361126Y328628D01*
X361117Y328610D01*
X361104Y328595D01*
X361045Y328469D01*
X360982Y328345D01*
X360977Y328325D01*
X360969Y328307D01*
X360942Y328170D01*
X360912Y328035D01*
X360913Y328014D01*
X360909Y327995D01*
X360917Y327856D01*
X360922Y327717D01*
X360927Y327697D01*
X360928Y327677D01*
X360971Y327545D01*
X361010Y327411D01*
X361020Y327394D01*
X361027Y327375D01*
X361101Y327257D01*
X361172Y327137D01*
X361190Y327116D01*
X361197Y327106D01*
X361212Y327092D01*
X361278Y327017D01*
X362954Y325340D01*
X364645Y321259D01*
X364645Y316841D01*
X362954Y312760D01*
X359830Y309636D01*
X355749Y307945D01*
X351331Y307945D01*
X347250Y309636D01*
X344304Y312582D01*
X344226Y312642D01*
X344154Y312710D01*
X344101Y312739D01*
X344053Y312776D01*
X343962Y312816D01*
X343875Y312864D01*
X343817Y312879D01*
X343761Y312903D01*
X343663Y312918D01*
X343567Y312943D01*
X343467Y312949D01*
X343447Y312953D01*
X343435Y312951D01*
X343407Y312953D01*
X307117Y312953D01*
X304876Y313881D01*
X302983Y315775D01*
X283745Y335013D01*
X281980Y336778D01*
X281886Y336851D01*
X281797Y336930D01*
X281761Y336948D01*
X281729Y336973D01*
X281619Y337020D01*
X281514Y337074D01*
X281474Y337083D01*
X281437Y337099D01*
X281319Y337118D01*
X281203Y337144D01*
X281163Y337143D01*
X281123Y337149D01*
X281004Y337138D01*
X280885Y337134D01*
X280847Y337123D01*
X280806Y337119D01*
X280694Y337079D01*
X280580Y337046D01*
X280545Y337025D01*
X280507Y337012D01*
X280409Y336945D01*
X280306Y336884D01*
X280261Y336844D01*
X280244Y336833D01*
X280230Y336818D01*
X280185Y336778D01*
X279435Y336028D01*
X279362Y335933D01*
X279283Y335844D01*
X279265Y335808D01*
X279240Y335776D01*
X279193Y335667D01*
X279138Y335561D01*
X279130Y335522D01*
X279114Y335484D01*
X279095Y335367D01*
X279069Y335251D01*
X279070Y335210D01*
X279064Y335170D01*
X279075Y335052D01*
X279078Y334933D01*
X279090Y334894D01*
X279094Y334854D01*
X279134Y334741D01*
X279167Y334627D01*
X279187Y334593D01*
X279201Y334554D01*
X279268Y334456D01*
X279328Y334353D01*
X279368Y334308D01*
X279380Y334291D01*
X279395Y334278D01*
X279435Y334233D01*
X282530Y331137D01*
X284145Y327239D01*
X284145Y323021D01*
X282530Y319123D01*
X279547Y316140D01*
X277892Y315454D01*
X277814Y315410D01*
X277732Y315374D01*
X277676Y315331D01*
X277615Y315296D01*
X277551Y315234D01*
X277480Y315179D01*
X277437Y315124D01*
X277387Y315075D01*
X277340Y314999D01*
X277285Y314928D01*
X277257Y314864D01*
X277221Y314804D01*
X277194Y314719D01*
X277159Y314636D01*
X277148Y314567D01*
X277127Y314500D01*
X277123Y314411D01*
X277109Y314322D01*
X277115Y314252D01*
X277112Y314182D01*
X277130Y314095D01*
X277138Y314006D01*
X277162Y313940D01*
X277176Y313871D01*
X277216Y313790D01*
X277246Y313706D01*
X277285Y313648D01*
X277316Y313585D01*
X277374Y313517D01*
X277424Y313443D01*
X277477Y313397D01*
X277522Y313343D01*
X277596Y313292D01*
X277663Y313232D01*
X277770Y313169D01*
X277782Y313160D01*
X277789Y313158D01*
X277801Y313150D01*
X278299Y312897D01*
X279456Y312056D01*
X280466Y311046D01*
X281307Y309889D01*
X281955Y308616D01*
X282397Y307256D01*
X282417Y307129D01*
X274270Y307129D01*
X274152Y307114D01*
X274033Y307107D01*
X273995Y307094D01*
X273955Y307089D01*
X273844Y307046D01*
X273731Y307009D01*
X273697Y306987D01*
X273659Y306972D01*
X273563Y306903D01*
X273546Y306892D01*
X273522Y306906D01*
X273490Y306931D01*
X273383Y306982D01*
X273278Y307040D01*
X273239Y307050D01*
X273203Y307067D01*
X273086Y307089D01*
X272970Y307119D01*
X272910Y307123D01*
X272890Y307127D01*
X272870Y307125D01*
X272810Y307129D01*
X264663Y307129D01*
X264683Y307256D01*
X265125Y308616D01*
X265773Y309889D01*
X266614Y311046D01*
X267624Y312056D01*
X268781Y312897D01*
X269279Y313150D01*
X269353Y313201D01*
X269432Y313243D01*
X269484Y313290D01*
X269542Y313329D01*
X269601Y313396D01*
X269667Y313457D01*
X269706Y313515D01*
X269752Y313568D01*
X269793Y313647D01*
X269842Y313722D01*
X269865Y313789D01*
X269897Y313851D01*
X269916Y313938D01*
X269945Y314023D01*
X269951Y314093D01*
X269966Y314161D01*
X269964Y314251D01*
X269971Y314340D01*
X269959Y314409D01*
X269956Y314479D01*
X269932Y314565D01*
X269916Y314653D01*
X269887Y314717D01*
X269868Y314785D01*
X269822Y314862D01*
X269786Y314943D01*
X269742Y314998D01*
X269706Y315059D01*
X269643Y315122D01*
X269587Y315192D01*
X269531Y315234D01*
X269482Y315284D01*
X269405Y315329D01*
X269333Y315383D01*
X269221Y315438D01*
X269208Y315446D01*
X269201Y315448D01*
X269188Y315454D01*
X267533Y316140D01*
X264550Y319123D01*
X262935Y323021D01*
X262935Y327239D01*
X264550Y331137D01*
X267645Y334233D01*
X267718Y334327D01*
X267797Y334416D01*
X267815Y334452D01*
X267840Y334484D01*
X267887Y334593D01*
X267942Y334699D01*
X267950Y334738D01*
X267966Y334776D01*
X267985Y334893D01*
X268011Y335009D01*
X268010Y335050D01*
X268016Y335090D01*
X268005Y335208D01*
X268002Y335327D01*
X267990Y335366D01*
X267986Y335406D01*
X267946Y335519D01*
X267913Y335633D01*
X267893Y335668D01*
X267879Y335706D01*
X267812Y335804D01*
X267752Y335907D01*
X267712Y335952D01*
X267700Y335969D01*
X267685Y335982D01*
X267645Y336028D01*
X264550Y339123D01*
X262935Y343021D01*
X262935Y347239D01*
X264550Y351137D01*
X267645Y354233D01*
X267718Y354327D01*
X267797Y354416D01*
X267815Y354452D01*
X267840Y354484D01*
X267887Y354593D01*
X267942Y354699D01*
X267950Y354738D01*
X267966Y354776D01*
X267985Y354893D01*
X268011Y355009D01*
X268010Y355050D01*
X268016Y355090D01*
X268005Y355208D01*
X268002Y355327D01*
X267990Y355366D01*
X267986Y355406D01*
X267946Y355519D01*
X267913Y355633D01*
X267893Y355668D01*
X267879Y355706D01*
X267812Y355804D01*
X267752Y355907D01*
X267712Y355952D01*
X267700Y355969D01*
X267685Y355982D01*
X267645Y356028D01*
X264550Y359123D01*
X262935Y363021D01*
X262935Y367239D01*
X264550Y371137D01*
X267645Y374233D01*
X267718Y374327D01*
X267797Y374416D01*
X267815Y374452D01*
X267840Y374484D01*
X267887Y374593D01*
X267942Y374699D01*
X267950Y374738D01*
X267966Y374776D01*
X267985Y374893D01*
X268011Y375009D01*
X268010Y375050D01*
X268016Y375090D01*
X268005Y375208D01*
X268002Y375327D01*
X267990Y375366D01*
X267986Y375406D01*
X267946Y375519D01*
X267913Y375633D01*
X267893Y375668D01*
X267879Y375706D01*
X267812Y375804D01*
X267752Y375907D01*
X267712Y375952D01*
X267700Y375969D01*
X267685Y375982D01*
X267645Y376028D01*
X264550Y379123D01*
X262935Y383021D01*
X262935Y387239D01*
X264550Y391137D01*
X267645Y394233D01*
X267718Y394327D01*
X267797Y394416D01*
X267815Y394452D01*
X267840Y394484D01*
X267887Y394593D01*
X267942Y394699D01*
X267950Y394738D01*
X267966Y394776D01*
X267985Y394893D01*
X268011Y395009D01*
X268010Y395050D01*
X268016Y395090D01*
X268005Y395208D01*
X268002Y395327D01*
X267990Y395366D01*
X267986Y395406D01*
X267946Y395519D01*
X267913Y395633D01*
X267893Y395668D01*
X267879Y395706D01*
X267812Y395804D01*
X267752Y395907D01*
X267712Y395952D01*
X267700Y395969D01*
X267685Y395982D01*
X267645Y396028D01*
X264550Y399123D01*
X262935Y403021D01*
X262935Y407239D01*
X264550Y411137D01*
X267645Y414233D01*
X267718Y414327D01*
X267797Y414416D01*
X267815Y414452D01*
X267840Y414484D01*
X267887Y414593D01*
X267942Y414699D01*
X267950Y414738D01*
X267966Y414776D01*
X267985Y414893D01*
X268011Y415009D01*
X268010Y415050D01*
X268016Y415090D01*
X268005Y415208D01*
X268002Y415327D01*
X267990Y415366D01*
X267986Y415406D01*
X267946Y415519D01*
X267913Y415633D01*
X267893Y415668D01*
X267879Y415706D01*
X267812Y415804D01*
X267752Y415907D01*
X267712Y415952D01*
X267700Y415969D01*
X267685Y415982D01*
X267645Y416028D01*
X264550Y419123D01*
X262935Y423021D01*
X262935Y427239D01*
X264550Y431137D01*
X267645Y434233D01*
X267718Y434327D01*
X267797Y434416D01*
X267815Y434452D01*
X267840Y434484D01*
X267887Y434593D01*
X267942Y434699D01*
X267950Y434738D01*
X267966Y434776D01*
X267985Y434893D01*
X268011Y435009D01*
X268010Y435050D01*
X268016Y435090D01*
X268005Y435208D01*
X268002Y435327D01*
X267990Y435366D01*
X267986Y435406D01*
X267946Y435519D01*
X267913Y435633D01*
X267893Y435668D01*
X267879Y435706D01*
X267812Y435804D01*
X267752Y435907D01*
X267712Y435952D01*
X267700Y435969D01*
X267685Y435982D01*
X267645Y436028D01*
X264550Y439123D01*
X262935Y443021D01*
X262935Y447239D01*
X264550Y451137D01*
X267645Y454233D01*
X267718Y454327D01*
X267797Y454416D01*
X267815Y454452D01*
X267840Y454484D01*
X267887Y454593D01*
X267942Y454699D01*
X267950Y454738D01*
X267966Y454776D01*
X267985Y454893D01*
X268011Y455009D01*
X268010Y455050D01*
X268016Y455090D01*
X268005Y455208D01*
X268002Y455327D01*
X267990Y455366D01*
X267986Y455406D01*
X267946Y455519D01*
X267913Y455633D01*
X267893Y455667D01*
X267879Y455706D01*
X267812Y455804D01*
X267752Y455907D01*
X267712Y455952D01*
X267700Y455969D01*
X267685Y455982D01*
X267645Y456028D01*
X264550Y459123D01*
X262935Y463021D01*
X262935Y467239D01*
X264550Y471137D01*
X267645Y474233D01*
X267718Y474327D01*
X267797Y474416D01*
X267815Y474452D01*
X267840Y474484D01*
X267887Y474593D01*
X267942Y474699D01*
X267950Y474738D01*
X267966Y474776D01*
X267985Y474893D01*
X268011Y475009D01*
X268010Y475050D01*
X268016Y475090D01*
X268005Y475208D01*
X268002Y475327D01*
X267990Y475366D01*
X267986Y475406D01*
X267946Y475518D01*
X267913Y475633D01*
X267893Y475668D01*
X267879Y475706D01*
X267812Y475804D01*
X267752Y475907D01*
X267712Y475952D01*
X267700Y475969D01*
X267685Y475982D01*
X267645Y476028D01*
X265001Y478672D01*
X264923Y478732D01*
X264851Y478800D01*
X264798Y478829D01*
X264750Y478866D01*
X264659Y478906D01*
X264572Y478954D01*
X264514Y478969D01*
X264458Y478993D01*
X264360Y479008D01*
X264264Y479033D01*
X264164Y479039D01*
X264144Y479043D01*
X264132Y479041D01*
X264104Y479043D01*
X257781Y479043D01*
X257683Y479031D01*
X257584Y479028D01*
X257526Y479011D01*
X257466Y479003D01*
X257373Y478967D01*
X257278Y478939D01*
X257226Y478909D01*
X257170Y478886D01*
X257090Y478828D01*
X257004Y478778D01*
X256929Y478712D01*
X256913Y478700D01*
X256905Y478690D01*
X256884Y478672D01*
X232426Y454214D01*
X232366Y454136D01*
X232298Y454064D01*
X232269Y454011D01*
X232232Y453963D01*
X232192Y453872D01*
X232144Y453786D01*
X232129Y453727D01*
X232105Y453671D01*
X232090Y453573D01*
X232065Y453478D01*
X232059Y453378D01*
X232055Y453357D01*
X232057Y453345D01*
X232055Y453317D01*
X232055Y449403D01*
X232067Y449305D01*
X232070Y449206D01*
X232087Y449148D01*
X232095Y449088D01*
X232131Y448995D01*
X232159Y448900D01*
X232189Y448848D01*
X232212Y448792D01*
X232270Y448712D01*
X232320Y448626D01*
X232386Y448551D01*
X232398Y448535D01*
X232408Y448527D01*
X232426Y448506D01*
X245845Y435087D01*
X247739Y433194D01*
X248667Y430953D01*
X248667Y353117D01*
X247739Y350876D01*
X245845Y348983D01*
X239027Y342165D01*
X237134Y340271D01*
X234893Y339343D01*
X222761Y339343D01*
X222663Y339331D01*
X222564Y339328D01*
X222506Y339311D01*
X222446Y339303D01*
X222353Y339267D01*
X222258Y339239D01*
X222206Y339209D01*
X222150Y339186D01*
X222070Y339128D01*
X221984Y339078D01*
X221909Y339012D01*
X221893Y339000D01*
X221885Y338990D01*
X221864Y338972D01*
X216392Y333500D01*
X216349Y333445D01*
X216299Y333396D01*
X216252Y333320D01*
X216197Y333249D01*
X216169Y333184D01*
X216133Y333125D01*
X216106Y333039D01*
X216071Y332957D01*
X216060Y332888D01*
X216039Y332821D01*
X216035Y332731D01*
X216021Y332643D01*
X216027Y332573D01*
X216024Y332503D01*
X216042Y332416D01*
X216051Y332326D01*
X216074Y332260D01*
X216088Y332192D01*
X216128Y332111D01*
X216158Y332027D01*
X216197Y331969D01*
X216228Y331906D01*
X216286Y331838D01*
X216337Y331764D01*
X216389Y331717D01*
X216434Y331664D01*
X216508Y331613D01*
X216575Y331553D01*
X216637Y331521D01*
X216695Y331481D01*
X216778Y331449D01*
X216858Y331408D01*
X216927Y331393D01*
X216992Y331368D01*
X217081Y331359D01*
X217169Y331339D01*
X217239Y331341D01*
X217308Y331333D01*
X217397Y331346D01*
X217487Y331348D01*
X217554Y331368D01*
X217623Y331378D01*
X217775Y331430D01*
X218017Y331530D01*
X222603Y331530D01*
X226841Y329774D01*
X230084Y326531D01*
X231840Y322293D01*
X231840Y317618D01*
X231852Y317520D01*
X231855Y317421D01*
X231872Y317363D01*
X231880Y317303D01*
X231916Y317210D01*
X231944Y317115D01*
X231974Y317063D01*
X231997Y317007D01*
X232055Y316927D01*
X232105Y316841D01*
X232171Y316766D01*
X232183Y316750D01*
X232193Y316742D01*
X232211Y316721D01*
X235850Y313082D01*
X235897Y313045D01*
X235939Y313002D01*
X236023Y312948D01*
X236101Y312887D01*
X236156Y312863D01*
X236207Y312831D01*
X236302Y312800D01*
X236393Y312761D01*
X236452Y312751D01*
X236510Y312733D01*
X236609Y312727D01*
X236707Y312711D01*
X236767Y312717D01*
X236827Y312713D01*
X236924Y312732D01*
X237024Y312741D01*
X237080Y312761D01*
X237139Y312772D01*
X237229Y312815D01*
X237323Y312848D01*
X237373Y312882D01*
X237427Y312908D01*
X237504Y312971D01*
X237586Y313027D01*
X237626Y313072D01*
X237672Y313110D01*
X237731Y313191D01*
X237797Y313266D01*
X237824Y313319D01*
X237859Y313368D01*
X237896Y313460D01*
X237941Y313549D01*
X237954Y313607D01*
X237977Y313663D01*
X237989Y313762D01*
X238011Y313859D01*
X238009Y313919D01*
X238017Y313979D01*
X238004Y314077D01*
X238001Y314177D01*
X237985Y314235D01*
X237977Y314294D01*
X237940Y314387D01*
X237913Y314482D01*
X237882Y314534D01*
X237860Y314590D01*
X237774Y314726D01*
X237752Y314756D01*
X237037Y316159D01*
X236569Y317601D01*
X243911Y317601D01*
X243911Y310259D01*
X242469Y310727D01*
X241066Y311442D01*
X241036Y311464D01*
X240983Y311493D01*
X240936Y311530D01*
X240844Y311569D01*
X240757Y311617D01*
X240699Y311632D01*
X240644Y311656D01*
X240546Y311672D01*
X240449Y311697D01*
X240389Y311697D01*
X240330Y311706D01*
X240231Y311697D01*
X240131Y311697D01*
X240073Y311682D01*
X240013Y311676D01*
X239920Y311642D01*
X239823Y311618D01*
X239771Y311589D01*
X239714Y311569D01*
X239632Y311513D01*
X239544Y311465D01*
X239501Y311424D01*
X239451Y311390D01*
X239385Y311315D01*
X239312Y311247D01*
X239280Y311197D01*
X239240Y311152D01*
X239195Y311063D01*
X239142Y310979D01*
X239123Y310922D01*
X239096Y310868D01*
X239074Y310771D01*
X239043Y310677D01*
X239039Y310617D01*
X239026Y310558D01*
X239029Y310459D01*
X239023Y310359D01*
X239034Y310300D01*
X239036Y310240D01*
X239064Y310145D01*
X239082Y310047D01*
X239108Y309992D01*
X239124Y309935D01*
X239175Y309849D01*
X239217Y309759D01*
X239255Y309712D01*
X239286Y309661D01*
X239392Y309540D01*
X275764Y273168D01*
X275842Y273108D01*
X275914Y273040D01*
X275967Y273011D01*
X276015Y272974D01*
X276106Y272934D01*
X276192Y272886D01*
X276251Y272871D01*
X276307Y272847D01*
X276405Y272832D01*
X276500Y272807D01*
X276600Y272801D01*
X276621Y272797D01*
X276633Y272799D01*
X276661Y272797D01*
X315063Y272797D01*
X317304Y271869D01*
X411646Y177526D01*
X411724Y177466D01*
X411796Y177398D01*
X411849Y177369D01*
X411897Y177332D01*
X411988Y177292D01*
X412074Y177244D01*
X412133Y177229D01*
X412189Y177205D01*
X412287Y177190D01*
X412382Y177165D01*
X412482Y177159D01*
X412503Y177155D01*
X412515Y177157D01*
X412543Y177155D01*
X416709Y177155D01*
X420790Y175464D01*
X423914Y172340D01*
X425605Y168259D01*
X425605Y163841D01*
X423914Y159760D01*
X422418Y158263D01*
X422333Y158154D01*
X422244Y158047D01*
X422235Y158028D01*
X422223Y158012D01*
X422168Y157884D01*
X422109Y157759D01*
X422105Y157739D01*
X422097Y157720D01*
X422075Y157582D01*
X422049Y157446D01*
X422050Y157426D01*
X422047Y157406D01*
X422060Y157267D01*
X422068Y157129D01*
X422075Y157110D01*
X422077Y157090D01*
X422124Y156958D01*
X422167Y156827D01*
X422177Y156809D01*
X422184Y156790D01*
X422262Y156675D01*
X422337Y156558D01*
X422351Y156544D01*
X422363Y156527D01*
X422467Y156435D01*
X422568Y156340D01*
X422586Y156330D01*
X422601Y156317D01*
X422725Y156253D01*
X422847Y156186D01*
X422866Y156181D01*
X422884Y156172D01*
X423020Y156142D01*
X423155Y156107D01*
X423183Y156105D01*
X423195Y156102D01*
X423215Y156103D01*
X423315Y156097D01*
X437899Y156097D01*
X437997Y156109D01*
X438096Y156112D01*
X438154Y156129D01*
X438214Y156137D01*
X438307Y156173D01*
X438402Y156201D01*
X438454Y156231D01*
X438510Y156254D01*
X438590Y156312D01*
X438676Y156362D01*
X438751Y156428D01*
X438767Y156440D01*
X438775Y156450D01*
X438796Y156468D01*
X445524Y163196D01*
X445584Y163274D01*
X445652Y163346D01*
X445681Y163399D01*
X445718Y163447D01*
X445758Y163538D01*
X445806Y163624D01*
X445821Y163683D01*
X445845Y163739D01*
X445860Y163837D01*
X445885Y163932D01*
X445891Y164032D01*
X445895Y164053D01*
X445893Y164065D01*
X445895Y164093D01*
X445895Y168259D01*
X447586Y172340D01*
X450710Y175464D01*
X454791Y177155D01*
X459209Y177155D01*
X463290Y175464D01*
X466414Y172340D01*
X468105Y168259D01*
X468105Y163841D01*
X466414Y159760D01*
X463290Y156636D01*
X459209Y154945D01*
X455043Y154945D01*
X454945Y154933D01*
X454846Y154930D01*
X454788Y154913D01*
X454728Y154905D01*
X454635Y154869D01*
X454540Y154841D01*
X454488Y154811D01*
X454432Y154788D01*
X454352Y154730D01*
X454266Y154680D01*
X454191Y154614D01*
X454175Y154602D01*
X454167Y154592D01*
X454146Y154574D01*
X444404Y144831D01*
X442163Y143903D01*
X378787Y143903D01*
X376546Y144831D01*
X364401Y156976D01*
X363889Y158213D01*
X363865Y158256D01*
X363848Y158303D01*
X363786Y158394D01*
X363732Y158489D01*
X363697Y158525D01*
X363669Y158566D01*
X363587Y158639D01*
X363510Y158718D01*
X363468Y158744D01*
X363431Y158776D01*
X363333Y158826D01*
X363239Y158884D01*
X363192Y158898D01*
X363148Y158921D01*
X363040Y158945D01*
X362935Y158977D01*
X362886Y158980D01*
X362837Y158991D01*
X362727Y158987D01*
X362618Y158993D01*
X362569Y158983D01*
X362519Y158981D01*
X362414Y158950D01*
X362306Y158928D01*
X362262Y158906D01*
X362214Y158893D01*
X362120Y158837D01*
X362021Y158789D01*
X361983Y158756D01*
X361940Y158731D01*
X361819Y158625D01*
X359830Y156636D01*
X355749Y154945D01*
X351331Y154945D01*
X347250Y156636D01*
X344126Y159760D01*
X342435Y163841D01*
X342435Y167894D01*
X342420Y168012D01*
X342413Y168131D01*
X342400Y168169D01*
X342395Y168210D01*
X342352Y168320D01*
X342315Y168433D01*
X342293Y168468D01*
X342278Y168505D01*
X342209Y168601D01*
X342145Y168702D01*
X342115Y168730D01*
X342092Y168763D01*
X342000Y168839D01*
X341913Y168920D01*
X341878Y168940D01*
X341847Y168965D01*
X341739Y169016D01*
X341635Y169074D01*
X341595Y169084D01*
X341559Y169101D01*
X341442Y169123D01*
X341327Y169153D01*
X341267Y169157D01*
X341247Y169161D01*
X341226Y169159D01*
X341166Y169163D01*
X288323Y169163D01*
X288224Y169151D01*
X288125Y169148D01*
X288067Y169131D01*
X288007Y169123D01*
X287915Y169087D01*
X287820Y169059D01*
X287768Y169029D01*
X287712Y169006D01*
X287631Y168948D01*
X287546Y168897D01*
X287503Y168855D01*
X287454Y168820D01*
X287391Y168743D01*
X287321Y168673D01*
X287290Y168621D01*
X287252Y168575D01*
X287209Y168485D01*
X287159Y168399D01*
X287142Y168341D01*
X287116Y168287D01*
X287097Y168189D01*
X287070Y168094D01*
X287068Y168034D01*
X287056Y167975D01*
X287062Y167875D01*
X287059Y167776D01*
X287072Y167717D01*
X287076Y167657D01*
X287107Y167563D01*
X287128Y167466D01*
X287168Y167374D01*
X287174Y167355D01*
X287181Y167344D01*
X287192Y167318D01*
X287573Y166571D01*
X288041Y165129D01*
X279430Y165129D01*
X279312Y165114D01*
X279193Y165107D01*
X279155Y165094D01*
X279115Y165089D01*
X279004Y165046D01*
X278891Y165009D01*
X278857Y164987D01*
X278819Y164972D01*
X278723Y164903D01*
X278622Y164839D01*
X278594Y164809D01*
X278562Y164786D01*
X278486Y164694D01*
X278404Y164607D01*
X278385Y164572D01*
X278359Y164541D01*
X278308Y164433D01*
X278303Y164424D01*
X278297Y164434D01*
X278282Y164471D01*
X278212Y164567D01*
X278149Y164668D01*
X278119Y164696D01*
X278095Y164729D01*
X278004Y164805D01*
X277917Y164886D01*
X277882Y164906D01*
X277850Y164931D01*
X277743Y164982D01*
X277638Y165040D01*
X277599Y165050D01*
X277563Y165067D01*
X277446Y165089D01*
X277330Y165119D01*
X277270Y165123D01*
X277250Y165127D01*
X277230Y165125D01*
X277170Y165129D01*
X268559Y165129D01*
X269027Y166571D01*
X269408Y167318D01*
X269442Y167411D01*
X269484Y167501D01*
X269495Y167560D01*
X269516Y167617D01*
X269525Y167716D01*
X269544Y167814D01*
X269540Y167874D01*
X269546Y167934D01*
X269530Y168032D01*
X269524Y168131D01*
X269505Y168188D01*
X269496Y168248D01*
X269457Y168339D01*
X269426Y168433D01*
X269394Y168484D01*
X269370Y168540D01*
X269309Y168618D01*
X269256Y168702D01*
X269212Y168743D01*
X269175Y168791D01*
X269097Y168852D01*
X269024Y168920D01*
X268971Y168949D01*
X268924Y168986D01*
X268833Y169026D01*
X268746Y169074D01*
X268687Y169089D01*
X268632Y169113D01*
X268534Y169128D01*
X268438Y169153D01*
X268338Y169159D01*
X268318Y169163D01*
X268306Y169161D01*
X268277Y169163D01*
X123527Y169163D01*
X121286Y170091D01*
X74831Y216546D01*
X73903Y218787D01*
X73903Y243649D01*
X73891Y243747D01*
X73888Y243846D01*
X73871Y243904D01*
X73863Y243964D01*
X73827Y244057D01*
X73799Y244152D01*
X73769Y244204D01*
X73746Y244260D01*
X73688Y244340D01*
X73638Y244426D01*
X73572Y244501D01*
X73560Y244517D01*
X73550Y244525D01*
X73532Y244546D01*
X63771Y254306D01*
X63662Y254392D01*
X63555Y254480D01*
X63536Y254489D01*
X63520Y254501D01*
X63392Y254557D01*
X63267Y254616D01*
X63247Y254620D01*
X63228Y254628D01*
X63090Y254650D01*
X62954Y254676D01*
X62934Y254674D01*
X62914Y254678D01*
X62775Y254664D01*
X62637Y254656D01*
X62618Y254650D01*
X62598Y254648D01*
X62466Y254601D01*
X62335Y254558D01*
X62317Y254547D01*
X62298Y254540D01*
X62183Y254462D01*
X62066Y254388D01*
X62052Y254373D01*
X62035Y254362D01*
X61943Y254257D01*
X61848Y254156D01*
X61838Y254138D01*
X61825Y254123D01*
X61761Y253999D01*
X61694Y253878D01*
X61689Y253858D01*
X61680Y253840D01*
X61650Y253704D01*
X61615Y253570D01*
X61613Y253542D01*
X61610Y253530D01*
X61611Y253509D01*
X61605Y253409D01*
X61605Y252172D01*
X59838Y247906D01*
X56574Y244642D01*
X52308Y242875D01*
X47692Y242875D01*
X43426Y244642D01*
X40537Y247532D01*
X40459Y247592D01*
X40387Y247660D01*
X40334Y247689D01*
X40286Y247726D01*
X40195Y247766D01*
X40108Y247814D01*
X40049Y247829D01*
X39994Y247853D01*
X39896Y247868D01*
X39800Y247893D01*
X39700Y247899D01*
X39680Y247903D01*
X39667Y247901D01*
X39639Y247903D01*
X33077Y247903D01*
X30836Y248831D01*
X14411Y265256D01*
X13483Y267497D01*
X13483Y307201D01*
X13468Y307319D01*
X13461Y307438D01*
X13448Y307476D01*
X13443Y307517D01*
X13400Y307627D01*
X13363Y307740D01*
X13341Y307775D01*
X13326Y307812D01*
X13257Y307908D01*
X13193Y308009D01*
X13163Y308037D01*
X13140Y308070D01*
X13048Y308146D01*
X12961Y308227D01*
X12926Y308247D01*
X12895Y308272D01*
X12787Y308323D01*
X12683Y308381D01*
X12643Y308391D01*
X12607Y308408D01*
X12490Y308430D01*
X12375Y308460D01*
X12315Y308464D01*
X12295Y308468D01*
X12274Y308466D01*
X12214Y308470D01*
X11430Y308470D01*
X11312Y308455D01*
X11193Y308448D01*
X11155Y308435D01*
X11114Y308430D01*
X11004Y308387D01*
X10891Y308350D01*
X10856Y308328D01*
X10819Y308313D01*
X10723Y308244D01*
X10622Y308180D01*
X10594Y308150D01*
X10561Y308127D01*
X10485Y308035D01*
X10404Y307948D01*
X10384Y307913D01*
X10359Y307882D01*
X10308Y307774D01*
X10250Y307670D01*
X10240Y307630D01*
X10223Y307594D01*
X10201Y307477D01*
X10171Y307362D01*
X10167Y307302D01*
X10163Y307282D01*
X10165Y307261D01*
X10164Y307248D01*
X10163Y307246D01*
X10163Y307243D01*
X10161Y307201D01*
X10161Y41167D01*
X10169Y41098D01*
X10168Y41028D01*
X10189Y40941D01*
X10201Y40852D01*
X10226Y40787D01*
X10243Y40719D01*
X10285Y40639D01*
X10318Y40556D01*
X10359Y40499D01*
X10391Y40438D01*
X10452Y40371D01*
X10504Y40299D01*
X10558Y40254D01*
X10605Y40202D01*
X10680Y40153D01*
X10749Y40096D01*
X10813Y40066D01*
X10871Y40028D01*
X10956Y39999D01*
X11037Y39960D01*
X11106Y39947D01*
X11172Y39924D01*
X11261Y39917D01*
X11349Y39900D01*
X11419Y39905D01*
X11489Y39899D01*
X11577Y39915D01*
X11667Y39920D01*
X11733Y39942D01*
X11802Y39954D01*
X11884Y39991D01*
X11969Y40018D01*
X12028Y40056D01*
X12092Y40084D01*
X12162Y40140D01*
X12238Y40188D01*
X12286Y40239D01*
X12340Y40283D01*
X12394Y40355D01*
X12456Y40420D01*
X12490Y40481D01*
X12532Y40537D01*
X12603Y40681D01*
X12909Y41420D01*
X18580Y47091D01*
X25990Y50161D01*
X34010Y50161D01*
X41420Y47091D01*
X47091Y41420D01*
X50161Y34010D01*
X50161Y25990D01*
X47091Y18580D01*
X41420Y12909D01*
X40681Y12603D01*
X40621Y12568D01*
X40556Y12542D01*
X40483Y12490D01*
X40405Y12445D01*
X40355Y12397D01*
X40299Y12356D01*
X40241Y12286D01*
X40177Y12224D01*
X40140Y12164D01*
X40096Y12111D01*
X40058Y12029D01*
X40011Y11953D01*
X39990Y11886D01*
X39960Y11823D01*
X39943Y11735D01*
X39917Y11649D01*
X39914Y11579D01*
X39900Y11510D01*
X39906Y11421D01*
X39902Y11331D01*
X39916Y11263D01*
X39920Y11193D01*
X39948Y11108D01*
X39966Y11020D01*
X39997Y10957D01*
X40018Y10891D01*
X40066Y10815D01*
X40106Y10734D01*
X40151Y10681D01*
X40188Y10622D01*
X40254Y10560D01*
X40312Y10492D01*
X40369Y10452D01*
X40420Y10404D01*
X40499Y10361D01*
X40572Y10309D01*
X40637Y10284D01*
X40699Y10250D01*
X40786Y10228D01*
X40869Y10196D01*
X40939Y10188D01*
X41006Y10171D01*
X41167Y10161D01*
X108153Y10161D01*
X108291Y10178D01*
G37*
G36*
X136964Y276065D02*
X136964Y276065D01*
X137103Y276069D01*
X137123Y276075D01*
X137143Y276076D01*
X137275Y276119D01*
X137409Y276158D01*
X137426Y276168D01*
X137445Y276174D01*
X137563Y276249D01*
X137683Y276319D01*
X137704Y276338D01*
X137714Y276344D01*
X137728Y276359D01*
X137803Y276426D01*
X146426Y285049D01*
X148667Y285977D01*
X159159Y285977D01*
X159258Y285989D01*
X159357Y285992D01*
X159415Y286009D01*
X159475Y286017D01*
X159567Y286053D01*
X159662Y286081D01*
X159714Y286111D01*
X159771Y286134D01*
X159851Y286192D01*
X159936Y286242D01*
X160011Y286308D01*
X160028Y286320D01*
X160036Y286330D01*
X160057Y286348D01*
X161355Y287647D01*
X161440Y287756D01*
X161529Y287863D01*
X161538Y287882D01*
X161550Y287898D01*
X161605Y288025D01*
X161664Y288151D01*
X161668Y288171D01*
X161676Y288190D01*
X161698Y288328D01*
X161724Y288464D01*
X161723Y288484D01*
X161726Y288504D01*
X161713Y288643D01*
X161704Y288781D01*
X161698Y288800D01*
X161696Y288820D01*
X161649Y288951D01*
X161606Y289083D01*
X161596Y289101D01*
X161589Y289120D01*
X161511Y289234D01*
X161436Y289352D01*
X161421Y289366D01*
X161410Y289383D01*
X161306Y289475D01*
X161205Y289570D01*
X161187Y289580D01*
X161172Y289593D01*
X161048Y289657D01*
X160926Y289724D01*
X160907Y289729D01*
X160888Y289738D01*
X160753Y289768D01*
X160618Y289803D01*
X160590Y289805D01*
X160578Y289808D01*
X160558Y289807D01*
X160457Y289813D01*
X155557Y289813D01*
X153316Y290741D01*
X135959Y308099D01*
X135881Y308159D01*
X135809Y308227D01*
X135756Y308256D01*
X135708Y308293D01*
X135617Y308333D01*
X135531Y308381D01*
X135472Y308396D01*
X135416Y308420D01*
X135318Y308435D01*
X135223Y308460D01*
X135123Y308466D01*
X135102Y308470D01*
X135090Y308468D01*
X135062Y308470D01*
X130387Y308470D01*
X126149Y310226D01*
X122906Y313469D01*
X121150Y317707D01*
X121150Y322293D01*
X122906Y326531D01*
X126149Y329774D01*
X130387Y331530D01*
X134973Y331530D01*
X139211Y329774D01*
X142454Y326531D01*
X144210Y322293D01*
X144210Y317618D01*
X144222Y317520D01*
X144225Y317421D01*
X144242Y317363D01*
X144250Y317303D01*
X144286Y317210D01*
X144314Y317115D01*
X144344Y317063D01*
X144367Y317007D01*
X144425Y316927D01*
X144475Y316841D01*
X144541Y316766D01*
X144553Y316750D01*
X144563Y316742D01*
X144581Y316721D01*
X148220Y313082D01*
X148267Y313045D01*
X148308Y313002D01*
X148392Y312948D01*
X148471Y312887D01*
X148526Y312863D01*
X148577Y312831D01*
X148672Y312801D01*
X148763Y312761D01*
X148822Y312752D01*
X148879Y312733D01*
X148979Y312727D01*
X149077Y312711D01*
X149137Y312717D01*
X149197Y312713D01*
X149294Y312732D01*
X149394Y312741D01*
X149450Y312761D01*
X149509Y312772D01*
X149599Y312815D01*
X149693Y312849D01*
X149743Y312882D01*
X149797Y312908D01*
X149874Y312971D01*
X149956Y313027D01*
X149996Y313072D01*
X150042Y313110D01*
X150101Y313191D01*
X150167Y313266D01*
X150194Y313319D01*
X150229Y313368D01*
X150266Y313460D01*
X150311Y313549D01*
X150324Y313607D01*
X150346Y313663D01*
X150359Y313762D01*
X150381Y313859D01*
X150379Y313919D01*
X150387Y313979D01*
X150374Y314077D01*
X150371Y314177D01*
X150354Y314235D01*
X150347Y314294D01*
X150310Y314387D01*
X150283Y314482D01*
X150252Y314534D01*
X150230Y314590D01*
X150144Y314726D01*
X150122Y314756D01*
X149407Y316159D01*
X148939Y317601D01*
X156281Y317601D01*
X156281Y310259D01*
X154839Y310727D01*
X153436Y311442D01*
X153406Y311464D01*
X153353Y311493D01*
X153306Y311530D01*
X153215Y311569D01*
X153127Y311617D01*
X153069Y311632D01*
X153014Y311656D01*
X152916Y311672D01*
X152819Y311697D01*
X152759Y311697D01*
X152700Y311706D01*
X152601Y311697D01*
X152501Y311697D01*
X152443Y311682D01*
X152383Y311676D01*
X152290Y311642D01*
X152193Y311618D01*
X152141Y311589D01*
X152084Y311569D01*
X152002Y311513D01*
X151914Y311465D01*
X151871Y311424D01*
X151821Y311390D01*
X151755Y311315D01*
X151682Y311247D01*
X151650Y311197D01*
X151611Y311152D01*
X151565Y311063D01*
X151512Y310979D01*
X151493Y310922D01*
X151466Y310868D01*
X151444Y310771D01*
X151413Y310676D01*
X151409Y310616D01*
X151396Y310558D01*
X151399Y310459D01*
X151393Y310359D01*
X151404Y310300D01*
X151406Y310240D01*
X151434Y310145D01*
X151452Y310047D01*
X151478Y309992D01*
X151494Y309935D01*
X151545Y309849D01*
X151587Y309759D01*
X151625Y309712D01*
X151656Y309661D01*
X151762Y309540D01*
X158924Y302378D01*
X159002Y302318D01*
X159074Y302250D01*
X159127Y302221D01*
X159175Y302184D01*
X159266Y302144D01*
X159352Y302096D01*
X159411Y302081D01*
X159467Y302057D01*
X159565Y302042D01*
X159660Y302017D01*
X159760Y302011D01*
X159781Y302007D01*
X159793Y302009D01*
X159821Y302007D01*
X180283Y302007D01*
X182524Y301079D01*
X186047Y297556D01*
X186156Y297470D01*
X186263Y297382D01*
X186282Y297373D01*
X186298Y297361D01*
X186426Y297305D01*
X186551Y297246D01*
X186571Y297242D01*
X186590Y297234D01*
X186728Y297212D01*
X186864Y297186D01*
X186884Y297188D01*
X186904Y297184D01*
X187043Y297198D01*
X187181Y297206D01*
X187200Y297212D01*
X187220Y297214D01*
X187352Y297261D01*
X187483Y297304D01*
X187501Y297315D01*
X187520Y297322D01*
X187635Y297400D01*
X187752Y297474D01*
X187766Y297489D01*
X187783Y297500D01*
X187875Y297605D01*
X187970Y297706D01*
X187980Y297724D01*
X187993Y297739D01*
X188057Y297863D01*
X188124Y297984D01*
X188129Y298004D01*
X188138Y298022D01*
X188168Y298158D01*
X188203Y298292D01*
X188205Y298320D01*
X188208Y298332D01*
X188207Y298353D01*
X188213Y298453D01*
X188213Y307201D01*
X188198Y307319D01*
X188191Y307438D01*
X188178Y307476D01*
X188173Y307517D01*
X188130Y307627D01*
X188093Y307740D01*
X188071Y307775D01*
X188056Y307812D01*
X187987Y307908D01*
X187923Y308009D01*
X187893Y308037D01*
X187870Y308070D01*
X187778Y308146D01*
X187691Y308227D01*
X187656Y308247D01*
X187625Y308272D01*
X187517Y308323D01*
X187413Y308381D01*
X187373Y308391D01*
X187337Y308408D01*
X187220Y308430D01*
X187105Y308460D01*
X187045Y308464D01*
X187025Y308468D01*
X187004Y308466D01*
X186944Y308470D01*
X185161Y308470D01*
X182780Y310851D01*
X182780Y329149D01*
X185161Y331530D01*
X186944Y331530D01*
X187062Y331545D01*
X187181Y331552D01*
X187219Y331565D01*
X187260Y331570D01*
X187370Y331613D01*
X187483Y331650D01*
X187518Y331672D01*
X187555Y331687D01*
X187651Y331756D01*
X187752Y331820D01*
X187780Y331850D01*
X187813Y331873D01*
X187889Y331965D01*
X187970Y332052D01*
X187990Y332087D01*
X188015Y332118D01*
X188066Y332226D01*
X188124Y332330D01*
X188134Y332370D01*
X188151Y332406D01*
X188173Y332523D01*
X188203Y332638D01*
X188207Y332698D01*
X188211Y332718D01*
X188209Y332739D01*
X188213Y332799D01*
X188213Y346653D01*
X189141Y348894D01*
X199350Y359103D01*
X199436Y359212D01*
X199524Y359319D01*
X199533Y359338D01*
X199545Y359354D01*
X199601Y359482D01*
X199660Y359607D01*
X199664Y359627D01*
X199672Y359646D01*
X199694Y359784D01*
X199720Y359920D01*
X199718Y359940D01*
X199722Y359960D01*
X199708Y360099D01*
X199700Y360237D01*
X199694Y360256D01*
X199692Y360276D01*
X199673Y360328D01*
X199743Y360314D01*
X199879Y360284D01*
X199900Y360284D01*
X199920Y360280D01*
X200058Y360289D01*
X200197Y360293D01*
X200217Y360299D01*
X200237Y360300D01*
X200369Y360343D01*
X200503Y360382D01*
X200520Y360392D01*
X200539Y360398D01*
X200657Y360473D01*
X200777Y360543D01*
X200798Y360562D01*
X200808Y360568D01*
X200822Y360583D01*
X200898Y360650D01*
X205996Y365749D01*
X208237Y366677D01*
X212744Y366677D01*
X212773Y366680D01*
X212803Y366678D01*
X212930Y366700D01*
X213059Y366717D01*
X213087Y366727D01*
X213116Y366733D01*
X213235Y366786D01*
X213355Y366834D01*
X213379Y366851D01*
X213406Y366863D01*
X213507Y366944D01*
X213612Y367020D01*
X213631Y367043D01*
X213654Y367062D01*
X213732Y367165D01*
X213815Y367265D01*
X213828Y367292D01*
X213846Y367316D01*
X213850Y367326D01*
X217227Y370702D01*
X221615Y372520D01*
X226365Y372520D01*
X230753Y370702D01*
X234182Y367273D01*
X234188Y367262D01*
X234237Y367212D01*
X234278Y367155D01*
X234347Y367098D01*
X234410Y367034D01*
X234469Y366997D01*
X234523Y366952D01*
X234604Y366914D01*
X234681Y366867D01*
X234748Y366847D01*
X234811Y366817D01*
X234899Y366800D01*
X234984Y366774D01*
X235055Y366770D01*
X235124Y366757D01*
X235213Y366763D01*
X235302Y366758D01*
X235371Y366772D01*
X235441Y366777D01*
X235526Y366804D01*
X235614Y366822D01*
X235677Y366853D01*
X235743Y366875D01*
X235819Y366923D01*
X235899Y366962D01*
X235953Y367007D01*
X236012Y367045D01*
X236073Y367110D01*
X236141Y367168D01*
X236182Y367225D01*
X236230Y367277D01*
X236273Y367355D01*
X236325Y367428D01*
X236350Y367494D01*
X236384Y367555D01*
X236406Y367642D01*
X236438Y367725D01*
X236446Y367795D01*
X236463Y367863D01*
X236473Y368024D01*
X236473Y426689D01*
X236461Y426787D01*
X236458Y426886D01*
X236441Y426944D01*
X236433Y427004D01*
X236397Y427097D01*
X236369Y427192D01*
X236339Y427244D01*
X236316Y427300D01*
X236258Y427380D01*
X236208Y427466D01*
X236142Y427541D01*
X236130Y427557D01*
X236120Y427565D01*
X236102Y427586D01*
X223804Y439884D01*
X223726Y439944D01*
X223654Y440012D01*
X223601Y440041D01*
X223553Y440078D01*
X223462Y440118D01*
X223376Y440166D01*
X223317Y440181D01*
X223261Y440205D01*
X223163Y440220D01*
X223068Y440245D01*
X222968Y440251D01*
X222947Y440255D01*
X222935Y440253D01*
X222907Y440255D01*
X218741Y440255D01*
X214660Y441946D01*
X211536Y445070D01*
X209845Y449151D01*
X209845Y453569D01*
X211536Y457650D01*
X212988Y459103D01*
X213073Y459212D01*
X213162Y459319D01*
X213171Y459338D01*
X213183Y459354D01*
X213238Y459482D01*
X213297Y459607D01*
X213301Y459627D01*
X213309Y459646D01*
X213331Y459784D01*
X213357Y459920D01*
X213356Y459940D01*
X213359Y459960D01*
X213346Y460099D01*
X213337Y460237D01*
X213331Y460256D01*
X213329Y460276D01*
X213282Y460408D01*
X213239Y460539D01*
X213229Y460557D01*
X213222Y460576D01*
X213144Y460691D01*
X213069Y460808D01*
X213055Y460822D01*
X213043Y460839D01*
X212939Y460931D01*
X212838Y461026D01*
X212820Y461036D01*
X212805Y461049D01*
X212681Y461112D01*
X212559Y461180D01*
X212540Y461185D01*
X212522Y461194D01*
X212386Y461224D01*
X212251Y461259D01*
X212223Y461261D01*
X212211Y461264D01*
X212191Y461263D01*
X212091Y461269D01*
X210000Y461269D01*
X209902Y461257D01*
X209803Y461254D01*
X209745Y461237D01*
X209684Y461229D01*
X209592Y461193D01*
X209497Y461165D01*
X209445Y461135D01*
X209389Y461112D01*
X209309Y461054D01*
X209223Y461004D01*
X209148Y460938D01*
X209131Y460926D01*
X209124Y460916D01*
X209103Y460898D01*
X199103Y450898D01*
X199042Y450819D01*
X198974Y450747D01*
X198945Y450694D01*
X198908Y450646D01*
X198868Y450555D01*
X198820Y450469D01*
X198805Y450410D01*
X198781Y450354D01*
X198766Y450256D01*
X198741Y450161D01*
X198735Y450061D01*
X198731Y450040D01*
X198733Y450028D01*
X198731Y450000D01*
X198731Y361547D01*
X198748Y361410D01*
X198761Y361271D01*
X198768Y361252D01*
X198771Y361232D01*
X198776Y361218D01*
X198748Y361224D01*
X198614Y361259D01*
X198586Y361261D01*
X198574Y361264D01*
X198553Y361263D01*
X198453Y361269D01*
X114046Y361269D01*
X113928Y361254D01*
X113809Y361247D01*
X113771Y361234D01*
X113730Y361229D01*
X113620Y361186D01*
X113507Y361149D01*
X113472Y361127D01*
X113435Y361112D01*
X113339Y361043D01*
X113238Y360979D01*
X113210Y360949D01*
X113177Y360926D01*
X113101Y360834D01*
X113020Y360747D01*
X113000Y360712D01*
X112975Y360681D01*
X112924Y360573D01*
X112866Y360469D01*
X112856Y360429D01*
X112839Y360393D01*
X112817Y360276D01*
X112787Y360161D01*
X112783Y360101D01*
X112779Y360081D01*
X112781Y360060D01*
X112777Y360000D01*
X112777Y332799D01*
X112792Y332681D01*
X112799Y332562D01*
X112812Y332524D01*
X112817Y332483D01*
X112860Y332373D01*
X112897Y332260D01*
X112919Y332225D01*
X112934Y332188D01*
X113003Y332092D01*
X113067Y331991D01*
X113097Y331963D01*
X113120Y331930D01*
X113212Y331854D01*
X113299Y331773D01*
X113334Y331753D01*
X113365Y331728D01*
X113473Y331677D01*
X113577Y331619D01*
X113617Y331609D01*
X113653Y331592D01*
X113770Y331570D01*
X113885Y331540D01*
X113945Y331536D01*
X113965Y331532D01*
X113986Y331534D01*
X114046Y331530D01*
X115829Y331530D01*
X118210Y329149D01*
X118210Y310851D01*
X115829Y308470D01*
X114046Y308470D01*
X113928Y308455D01*
X113809Y308448D01*
X113771Y308435D01*
X113730Y308430D01*
X113620Y308387D01*
X113507Y308350D01*
X113472Y308328D01*
X113435Y308313D01*
X113339Y308244D01*
X113238Y308180D01*
X113210Y308150D01*
X113177Y308127D01*
X113101Y308035D01*
X113020Y307948D01*
X113000Y307913D01*
X112975Y307882D01*
X112924Y307774D01*
X112866Y307670D01*
X112856Y307630D01*
X112839Y307594D01*
X112817Y307477D01*
X112787Y307362D01*
X112783Y307302D01*
X112779Y307282D01*
X112781Y307261D01*
X112780Y307248D01*
X112779Y307246D01*
X112779Y307243D01*
X112777Y307201D01*
X112777Y304041D01*
X112789Y303943D01*
X112792Y303844D01*
X112809Y303786D01*
X112817Y303726D01*
X112853Y303633D01*
X112881Y303538D01*
X112911Y303486D01*
X112934Y303430D01*
X112992Y303350D01*
X113042Y303264D01*
X113108Y303189D01*
X113120Y303173D01*
X113130Y303165D01*
X113148Y303144D01*
X116454Y299838D01*
X116532Y299778D01*
X116604Y299710D01*
X116657Y299681D01*
X116705Y299644D01*
X116796Y299604D01*
X116882Y299556D01*
X116941Y299541D01*
X116997Y299517D01*
X117095Y299502D01*
X117190Y299477D01*
X117290Y299471D01*
X117311Y299467D01*
X117323Y299469D01*
X117351Y299467D01*
X126943Y299467D01*
X129184Y298539D01*
X134709Y293014D01*
X135637Y290773D01*
X135637Y277323D01*
X135654Y277185D01*
X135667Y277047D01*
X135674Y277028D01*
X135677Y277008D01*
X135728Y276878D01*
X135775Y276747D01*
X135786Y276731D01*
X135794Y276712D01*
X135875Y276600D01*
X135953Y276484D01*
X135969Y276471D01*
X135980Y276454D01*
X136088Y276366D01*
X136192Y276274D01*
X136210Y276265D01*
X136225Y276252D01*
X136351Y276192D01*
X136475Y276129D01*
X136495Y276125D01*
X136513Y276116D01*
X136649Y276090D01*
X136785Y276060D01*
X136806Y276060D01*
X136825Y276056D01*
X136964Y276065D01*
G37*
G36*
X99258Y285989D02*
X99258Y285989D01*
X99357Y285992D01*
X99415Y286009D01*
X99475Y286017D01*
X99567Y286053D01*
X99662Y286081D01*
X99714Y286111D01*
X99771Y286134D01*
X99851Y286192D01*
X99936Y286242D01*
X100011Y286308D01*
X100028Y286320D01*
X100036Y286330D01*
X100057Y286348D01*
X103426Y289718D01*
X105846Y290720D01*
X105889Y290745D01*
X105936Y290762D01*
X106027Y290823D01*
X106122Y290878D01*
X106158Y290912D01*
X106199Y290940D01*
X106272Y291023D01*
X106351Y291099D01*
X106376Y291141D01*
X106409Y291179D01*
X106459Y291276D01*
X106517Y291370D01*
X106531Y291418D01*
X106554Y291462D01*
X106578Y291569D01*
X106610Y291674D01*
X106613Y291724D01*
X106624Y291772D01*
X106620Y291882D01*
X106626Y291992D01*
X106615Y292040D01*
X106614Y292090D01*
X106583Y292195D01*
X106561Y292303D01*
X106539Y292348D01*
X106526Y292396D01*
X106470Y292490D01*
X106422Y292589D01*
X106389Y292627D01*
X106364Y292669D01*
X106258Y292790D01*
X101511Y297536D01*
X100583Y299777D01*
X100583Y307201D01*
X100568Y307319D01*
X100561Y307438D01*
X100548Y307476D01*
X100543Y307517D01*
X100500Y307627D01*
X100463Y307740D01*
X100441Y307775D01*
X100426Y307812D01*
X100357Y307908D01*
X100293Y308009D01*
X100263Y308037D01*
X100240Y308070D01*
X100148Y308146D01*
X100061Y308227D01*
X100026Y308247D01*
X99995Y308272D01*
X99887Y308323D01*
X99783Y308381D01*
X99743Y308391D01*
X99707Y308408D01*
X99590Y308430D01*
X99475Y308460D01*
X99415Y308464D01*
X99395Y308468D01*
X99374Y308466D01*
X99314Y308470D01*
X97531Y308470D01*
X95150Y310851D01*
X95150Y329149D01*
X97531Y331530D01*
X99314Y331530D01*
X99432Y331545D01*
X99551Y331552D01*
X99589Y331565D01*
X99630Y331570D01*
X99740Y331613D01*
X99853Y331650D01*
X99888Y331672D01*
X99925Y331687D01*
X100021Y331756D01*
X100122Y331820D01*
X100150Y331850D01*
X100183Y331873D01*
X100259Y331965D01*
X100340Y332052D01*
X100360Y332087D01*
X100385Y332118D01*
X100436Y332226D01*
X100494Y332330D01*
X100504Y332370D01*
X100521Y332406D01*
X100543Y332523D01*
X100573Y332638D01*
X100577Y332698D01*
X100581Y332718D01*
X100579Y332739D01*
X100583Y332799D01*
X100583Y360000D01*
X100568Y360118D01*
X100561Y360237D01*
X100548Y360275D01*
X100543Y360316D01*
X100500Y360426D01*
X100463Y360539D01*
X100441Y360574D01*
X100426Y360611D01*
X100357Y360707D01*
X100293Y360808D01*
X100263Y360836D01*
X100240Y360869D01*
X100148Y360945D01*
X100061Y361026D01*
X100026Y361046D01*
X99995Y361071D01*
X99887Y361122D01*
X99783Y361180D01*
X99743Y361190D01*
X99707Y361207D01*
X99590Y361229D01*
X99475Y361259D01*
X99415Y361263D01*
X99395Y361267D01*
X99374Y361265D01*
X99314Y361269D01*
X96199Y361269D01*
X96081Y361254D01*
X95962Y361247D01*
X95924Y361234D01*
X95883Y361229D01*
X95773Y361186D01*
X95660Y361149D01*
X95625Y361127D01*
X95588Y361112D01*
X95492Y361043D01*
X95391Y360979D01*
X95363Y360949D01*
X95330Y360926D01*
X95254Y360834D01*
X95173Y360747D01*
X95153Y360712D01*
X95128Y360681D01*
X95077Y360573D01*
X95019Y360469D01*
X95009Y360429D01*
X94992Y360393D01*
X94970Y360276D01*
X94940Y360161D01*
X94936Y360101D01*
X94932Y360081D01*
X94934Y360060D01*
X94930Y360000D01*
X94930Y351021D01*
X92549Y348640D01*
X75848Y348640D01*
X75750Y348628D01*
X75651Y348625D01*
X75593Y348608D01*
X75533Y348600D01*
X75440Y348564D01*
X75345Y348536D01*
X75293Y348506D01*
X75237Y348483D01*
X75157Y348425D01*
X75071Y348375D01*
X74996Y348309D01*
X74980Y348297D01*
X74972Y348287D01*
X74951Y348269D01*
X63618Y336936D01*
X63558Y336858D01*
X63490Y336786D01*
X63461Y336733D01*
X63424Y336685D01*
X63384Y336594D01*
X63336Y336508D01*
X63321Y336449D01*
X63297Y336393D01*
X63282Y336295D01*
X63257Y336200D01*
X63251Y336100D01*
X63247Y336079D01*
X63249Y336067D01*
X63247Y336039D01*
X63247Y328804D01*
X63252Y328765D01*
X63249Y328725D01*
X63272Y328607D01*
X63287Y328489D01*
X63301Y328452D01*
X63309Y328413D01*
X63360Y328304D01*
X63404Y328193D01*
X63427Y328161D01*
X63444Y328125D01*
X63520Y328033D01*
X63590Y327936D01*
X63621Y327910D01*
X63646Y327880D01*
X63743Y327809D01*
X63835Y327733D01*
X63871Y327716D01*
X63904Y327693D01*
X64015Y327648D01*
X64123Y327597D01*
X64162Y327590D01*
X64199Y327575D01*
X64318Y327560D01*
X64435Y327538D01*
X64475Y327540D01*
X64515Y327535D01*
X64634Y327550D01*
X64753Y327557D01*
X64791Y327570D01*
X64830Y327575D01*
X64942Y327619D01*
X65055Y327655D01*
X65089Y327677D01*
X65126Y327691D01*
X65262Y327777D01*
X66336Y328558D01*
X67739Y329273D01*
X69181Y329741D01*
X69181Y321130D01*
X69196Y321012D01*
X69203Y320893D01*
X69215Y320855D01*
X69221Y320815D01*
X69264Y320704D01*
X69301Y320591D01*
X69323Y320557D01*
X69338Y320519D01*
X69407Y320423D01*
X69471Y320322D01*
X69501Y320294D01*
X69524Y320262D01*
X69616Y320186D01*
X69703Y320104D01*
X69738Y320085D01*
X69769Y320059D01*
X69877Y320008D01*
X69886Y320003D01*
X69876Y319997D01*
X69839Y319982D01*
X69742Y319912D01*
X69642Y319849D01*
X69614Y319819D01*
X69581Y319795D01*
X69505Y319704D01*
X69424Y319617D01*
X69404Y319582D01*
X69379Y319550D01*
X69328Y319443D01*
X69270Y319338D01*
X69260Y319299D01*
X69243Y319263D01*
X69221Y319146D01*
X69191Y319030D01*
X69187Y318970D01*
X69183Y318950D01*
X69185Y318930D01*
X69181Y318870D01*
X69181Y310259D01*
X67739Y310727D01*
X66336Y311442D01*
X65262Y312223D01*
X65227Y312242D01*
X65197Y312267D01*
X65088Y312318D01*
X64983Y312376D01*
X64945Y312386D01*
X64909Y312403D01*
X64792Y312425D01*
X64675Y312455D01*
X64635Y312455D01*
X64596Y312462D01*
X64477Y312455D01*
X64357Y312455D01*
X64319Y312445D01*
X64279Y312443D01*
X64165Y312406D01*
X64049Y312376D01*
X64014Y312357D01*
X63977Y312345D01*
X63875Y312281D01*
X63770Y312223D01*
X63741Y312196D01*
X63708Y312174D01*
X63626Y312087D01*
X63539Y312005D01*
X63517Y311972D01*
X63490Y311943D01*
X63432Y311838D01*
X63368Y311737D01*
X63356Y311699D01*
X63336Y311664D01*
X63307Y311548D01*
X63269Y311435D01*
X63267Y311395D01*
X63257Y311356D01*
X63247Y311196D01*
X63247Y287246D01*
X63262Y287128D01*
X63269Y287009D01*
X63282Y286971D01*
X63287Y286930D01*
X63330Y286820D01*
X63367Y286707D01*
X63389Y286672D01*
X63404Y286635D01*
X63473Y286539D01*
X63537Y286438D01*
X63567Y286410D01*
X63590Y286377D01*
X63682Y286301D01*
X63769Y286220D01*
X63804Y286200D01*
X63835Y286175D01*
X63943Y286124D01*
X64047Y286066D01*
X64087Y286056D01*
X64123Y286039D01*
X64240Y286017D01*
X64355Y285987D01*
X64415Y285983D01*
X64435Y285979D01*
X64456Y285981D01*
X64516Y285977D01*
X99159Y285977D01*
X99258Y285989D01*
G37*
%LPC*%
G36*
X77189Y44759D02*
X77189Y44759D01*
X77189Y54886D01*
X85109Y54886D01*
X85756Y54713D01*
X86335Y54378D01*
X86808Y53905D01*
X87143Y53326D01*
X87316Y52679D01*
X87316Y44759D01*
X77189Y44759D01*
G37*
%LPD*%
%LPC*%
G36*
X77189Y29554D02*
X77189Y29554D01*
X77189Y39681D01*
X87316Y39681D01*
X87316Y31761D01*
X87143Y31114D01*
X86808Y30535D01*
X86335Y30062D01*
X85756Y29727D01*
X85109Y29554D01*
X77189Y29554D01*
G37*
%LPD*%
%LPC*%
G36*
X61984Y44759D02*
X61984Y44759D01*
X61984Y52679D01*
X62157Y53326D01*
X62492Y53905D01*
X62965Y54378D01*
X63544Y54713D01*
X64191Y54886D01*
X72111Y54886D01*
X72111Y44759D01*
X61984Y44759D01*
G37*
%LPD*%
%LPC*%
G36*
X64191Y29554D02*
X64191Y29554D01*
X63544Y29727D01*
X62965Y30062D01*
X62492Y30535D01*
X62157Y31114D01*
X61984Y31761D01*
X61984Y39681D01*
X72111Y39681D01*
X72111Y29554D01*
X64191Y29554D01*
G37*
%LPD*%
%LPC*%
G36*
X73979Y322399D02*
X73979Y322399D01*
X73979Y329741D01*
X75421Y329273D01*
X76824Y328558D01*
X78098Y327632D01*
X79212Y326518D01*
X80138Y325244D01*
X80853Y323841D01*
X81321Y322399D01*
X73979Y322399D01*
G37*
%LPD*%
%LPC*%
G36*
X161079Y322399D02*
X161079Y322399D01*
X161079Y329741D01*
X162521Y329273D01*
X163924Y328558D01*
X165198Y327632D01*
X166312Y326518D01*
X167238Y325244D01*
X167953Y323841D01*
X168421Y322399D01*
X161079Y322399D01*
G37*
%LPD*%
%LPC*%
G36*
X248709Y322399D02*
X248709Y322399D01*
X248709Y329741D01*
X250151Y329273D01*
X251554Y328558D01*
X252828Y327632D01*
X253942Y326518D01*
X254868Y325244D01*
X255583Y323841D01*
X256051Y322399D01*
X248709Y322399D01*
G37*
%LPD*%
%LPC*%
G36*
X148939Y322399D02*
X148939Y322399D01*
X149407Y323841D01*
X150122Y325244D01*
X151048Y326518D01*
X152162Y327632D01*
X153436Y328558D01*
X154839Y329273D01*
X156281Y329741D01*
X156281Y322399D01*
X148939Y322399D01*
G37*
%LPD*%
%LPC*%
G36*
X236569Y322399D02*
X236569Y322399D01*
X237037Y323841D01*
X237752Y325244D01*
X238678Y326518D01*
X239792Y327632D01*
X241066Y328558D01*
X242469Y329273D01*
X243911Y329741D01*
X243911Y322399D01*
X236569Y322399D01*
G37*
%LPD*%
%LPC*%
G36*
X280699Y160331D02*
X280699Y160331D01*
X288041Y160331D01*
X287573Y158889D01*
X286858Y157486D01*
X285932Y156212D01*
X284818Y155098D01*
X283544Y154172D01*
X282141Y153457D01*
X280699Y152989D01*
X280699Y160331D01*
G37*
%LPD*%
%LPC*%
G36*
X248709Y317601D02*
X248709Y317601D01*
X256051Y317601D01*
X255583Y316159D01*
X254868Y314756D01*
X253942Y313482D01*
X252828Y312368D01*
X251554Y311442D01*
X250151Y310727D01*
X248709Y310259D01*
X248709Y317601D01*
G37*
%LPD*%
%LPC*%
G36*
X161079Y317601D02*
X161079Y317601D01*
X168421Y317601D01*
X167953Y316159D01*
X167238Y314756D01*
X166312Y313482D01*
X165198Y312368D01*
X163924Y311442D01*
X162521Y310727D01*
X161079Y310259D01*
X161079Y317601D01*
G37*
%LPD*%
%LPC*%
G36*
X73979Y317601D02*
X73979Y317601D01*
X81321Y317601D01*
X80853Y316159D01*
X80138Y314756D01*
X79212Y313482D01*
X78098Y312368D01*
X76824Y311442D01*
X75421Y310727D01*
X73979Y310259D01*
X73979Y317601D01*
G37*
%LPD*%
%LPC*%
G36*
X274459Y153457D02*
X274459Y153457D01*
X273056Y154172D01*
X271782Y155098D01*
X270668Y156212D01*
X269742Y157486D01*
X269027Y158889D01*
X268559Y160331D01*
X275901Y160331D01*
X275901Y152989D01*
X274459Y153457D01*
G37*
%LPD*%
%LPC*%
G36*
X223199Y402809D02*
X223199Y402809D01*
X223199Y409903D01*
X224628Y409439D01*
X225971Y408754D01*
X227191Y407868D01*
X228258Y406801D01*
X229144Y405581D01*
X229829Y404238D01*
X230293Y402809D01*
X223199Y402809D01*
G37*
%LPD*%
%LPC*%
G36*
X223199Y398311D02*
X223199Y398311D01*
X230293Y398311D01*
X229829Y396882D01*
X229144Y395539D01*
X228258Y394319D01*
X227191Y393252D01*
X225971Y392366D01*
X224628Y391681D01*
X223199Y391217D01*
X223199Y398311D01*
G37*
%LPD*%
%LPC*%
G36*
X211607Y402809D02*
X211607Y402809D01*
X212071Y404238D01*
X212756Y405581D01*
X213642Y406801D01*
X214709Y407868D01*
X215929Y408754D01*
X217272Y409439D01*
X218701Y409903D01*
X218701Y402809D01*
X211607Y402809D01*
G37*
%LPD*%
%LPC*%
G36*
X217272Y391681D02*
X217272Y391681D01*
X215929Y392366D01*
X214709Y393252D01*
X213642Y394319D01*
X212756Y395539D01*
X212071Y396882D01*
X211607Y398311D01*
X218701Y398311D01*
X218701Y391217D01*
X217272Y391681D01*
G37*
%LPD*%
%LPC*%
G36*
X275539Y303131D02*
X275539Y303131D01*
X282417Y303131D01*
X282397Y303004D01*
X281955Y301644D01*
X281307Y300371D01*
X280466Y299214D01*
X279456Y298204D01*
X278299Y297363D01*
X277026Y296715D01*
X275666Y296273D01*
X275539Y296253D01*
X275539Y303131D01*
G37*
%LPD*%
%LPC*%
G36*
X271414Y296273D02*
X271414Y296273D01*
X270054Y296715D01*
X268781Y297363D01*
X267624Y298204D01*
X266614Y299214D01*
X265773Y300371D01*
X265125Y301644D01*
X264683Y303004D01*
X264663Y303131D01*
X271541Y303131D01*
X271541Y296253D01*
X271414Y296273D01*
G37*
%LPD*%
%LPC*%
G36*
X74649Y42219D02*
X74649Y42219D01*
X74649Y42221D01*
X74651Y42221D01*
X74651Y42219D01*
X74649Y42219D01*
G37*
%LPD*%
D10*
X140970Y466360D03*
D11*
X89970Y466360D03*
X89970Y386600D03*
X140970Y386600D03*
D12*
X18830Y502400D03*
D13*
X18830Y361400D03*
D12*
X49610Y502400D03*
D13*
X49610Y361400D03*
D12*
X82990Y360580D03*
D13*
X223990Y360580D03*
D12*
X323130Y362530D03*
D13*
X323130Y221530D03*
D14*
X97460Y508500D03*
X132460Y508500D03*
D15*
X74650Y42220D03*
D16*
X109650Y42220D03*
X144650Y42220D03*
X179650Y42220D03*
X214650Y42220D03*
X249650Y42220D03*
X284650Y42220D03*
X319650Y42220D03*
X354650Y42220D03*
D17*
X50000Y279880D03*
X50000Y254480D03*
D18*
X50000Y152880D03*
X50000Y102080D03*
D17*
X110000Y279880D03*
X110000Y254480D03*
D18*
X110000Y152880D03*
X110000Y102080D03*
D17*
X170000Y279880D03*
X170000Y254480D03*
D18*
X170000Y152880D03*
X170000Y102080D03*
D17*
X230000Y279880D03*
X230000Y254480D03*
D18*
X230000Y152880D03*
X230000Y102080D03*
D19*
X220950Y527560D03*
X220950Y502160D03*
X220950Y451360D03*
X220950Y400560D03*
D20*
X19580Y320000D03*
D21*
X45580Y320000D03*
X71580Y320000D03*
D20*
X106680Y320000D03*
D21*
X132680Y320000D03*
X158680Y320000D03*
D20*
X194310Y320000D03*
D21*
X220310Y320000D03*
X246310Y320000D03*
D20*
X278300Y214730D03*
D21*
X278300Y188730D03*
X278300Y162730D03*
D19*
X353540Y166050D03*
X353540Y319050D03*
X384100Y166050D03*
X384100Y319050D03*
X414500Y166050D03*
X414500Y319050D03*
X457000Y166050D03*
X457000Y319050D03*
D22*
X273540Y485130D03*
X273540Y465130D03*
X273540Y445130D03*
X273540Y425130D03*
X273540Y405130D03*
X273540Y385130D03*
X273540Y365130D03*
X273540Y345130D03*
X273540Y325130D03*
X273540Y305130D03*
X493540Y305130D03*
X493540Y325130D03*
X493540Y345130D03*
X493540Y365130D03*
X493540Y385130D03*
X493540Y405130D03*
X493540Y425130D03*
X493540Y445130D03*
X493540Y465130D03*
X493540Y485130D03*
D23*
X323130Y475700D02*
X323130Y362530D01*
X323130Y475700D02*
X313690Y485140D01*
X273550Y485140D01*
X273540Y485130D01*
X254730Y485140D02*
X220950Y451360D01*
X254730Y485140D02*
X273550Y485140D01*
X97210Y550000D02*
X49610Y502400D01*
X97210Y550000D02*
X250000Y550000D01*
X273550Y526450D01*
X273550Y485140D01*
X49610Y502400D02*
X18830Y502400D01*
X57150Y287030D02*
X50000Y279880D01*
X57150Y287030D02*
X57150Y339090D01*
X78640Y360580D01*
X82990Y360580D01*
X57150Y339090D02*
X52070Y344170D01*
X41910Y344170D02*
X33020Y353060D01*
X33020Y485810D01*
X49610Y502400D01*
X52070Y344170D02*
X41910Y344170D01*
X109220Y279880D02*
X110000Y279880D01*
X109220Y279880D02*
X50000Y279880D01*
X207010Y302870D02*
X230000Y279880D01*
X207010Y302870D02*
X207010Y332740D01*
X219710Y345440D01*
X233680Y345440D01*
X242570Y354330D01*
X242570Y429740D02*
X220950Y451360D01*
X242570Y429740D02*
X242570Y354330D01*
X170000Y279880D02*
X149880Y279880D01*
X130000Y248110D02*
X119380Y237490D01*
X100330Y237490D01*
X91440Y262100D02*
X109220Y279880D01*
X130000Y260000D02*
X149880Y279880D01*
X130000Y260000D02*
X130000Y248110D01*
X100330Y237490D02*
X91440Y246380D01*
X91440Y262100D01*
X34290Y308710D02*
X45580Y320000D01*
X34290Y308710D02*
X34290Y274320D01*
X41910Y266700D01*
X60000Y266700D01*
X62230Y266700D01*
X344330Y175260D02*
X353540Y166050D01*
X80000Y246700D02*
X60000Y266700D01*
X80000Y246700D02*
X80000Y220000D01*
X124740Y175260D01*
X344330Y175260D01*
X19580Y360650D02*
X18830Y361400D01*
X19580Y360650D02*
X19580Y320000D01*
X19580Y268710D01*
X34290Y254000D01*
X49520Y254000D01*
X50000Y254480D01*
X140970Y386600D02*
X180000Y425630D01*
X180000Y460000D01*
X200000Y480000D01*
X230000Y480000D01*
X240000Y490000D01*
X240000Y508510D01*
X220950Y527560D01*
X205530Y502160D02*
X89970Y386600D01*
X205530Y502160D02*
X220950Y502160D01*
X110000Y102080D02*
X50000Y102080D01*
X110000Y102080D02*
X110000Y79230D01*
X121920Y67310D02*
X168910Y67310D01*
X179650Y56570D01*
X179650Y42220D01*
X121920Y67310D02*
X110000Y79230D01*
X87120Y152880D02*
X50000Y152880D01*
X87120Y152880D02*
X131270Y108730D01*
X131270Y78730D01*
X133650Y76350D01*
X183650Y76350D01*
X214650Y45350D01*
X214650Y42220D01*
X150000Y112880D02*
X110000Y152880D01*
X150000Y90000D02*
X154920Y85080D01*
X206790Y85080D02*
X249650Y42220D01*
X150000Y90000D02*
X150000Y112880D01*
X154920Y85080D02*
X206790Y85080D01*
X230000Y102080D02*
X170000Y102080D01*
X230000Y102080D02*
X284650Y47430D01*
X284650Y42220D01*
X202880Y120000D02*
X170000Y152880D01*
X241870Y120000D02*
X319650Y42220D01*
X241870Y120000D02*
X202880Y120000D01*
X230000Y152880D02*
X243990Y152880D01*
X354650Y42220D01*
X384100Y166050D02*
X384100Y181050D01*
X363220Y201930D01*
X156770Y295910D02*
X132680Y320000D01*
X156770Y295910D02*
X179070Y295910D01*
X185420Y289560D01*
X185420Y270510D01*
X181610Y266700D01*
X156210Y266700D01*
X152400Y262890D01*
X152400Y247650D01*
X198120Y201930D02*
X363220Y201930D01*
X198120Y201930D02*
X152400Y247650D01*
X49610Y361400D02*
X62860Y374650D01*
X97790Y374650D02*
X106680Y365760D01*
X106680Y320000D01*
X97790Y374650D02*
X62860Y374650D01*
X106680Y320000D02*
X106680Y300990D01*
X114300Y293370D01*
X119380Y293370D01*
X124460Y293370D01*
X125730Y293370D01*
X129540Y289560D01*
X129540Y274020D01*
X110000Y254480D01*
X313850Y266700D02*
X414500Y166050D01*
X273610Y266700D02*
X220310Y320000D01*
X273610Y266700D02*
X313850Y266700D01*
X194310Y262890D02*
X194310Y320000D01*
X194310Y262890D02*
X185420Y254000D01*
X170480Y254000D01*
X170000Y254480D01*
X194310Y320000D02*
X194310Y345440D01*
X209450Y360580D02*
X223990Y360580D01*
X209450Y360580D02*
X194310Y345440D01*
X440950Y150000D02*
X457000Y166050D01*
X440950Y150000D02*
X380000Y150000D01*
X369570Y160430D01*
X369570Y179070D01*
X359910Y188730D01*
X278300Y188730D01*
X278300Y214730D02*
X285100Y221530D01*
X323130Y221530D01*
X238550Y254480D02*
X230000Y254480D01*
X238550Y254480D02*
X278300Y214730D01*
X287020Y351650D02*
X273540Y365130D01*
X287020Y351650D02*
X287020Y340360D01*
X308330Y319050D01*
X353540Y319050D01*
X297180Y361490D02*
X273540Y385130D01*
X297180Y344170D02*
X306070Y335280D01*
X384100Y329640D02*
X384100Y319050D01*
X297180Y344170D02*
X297180Y361490D01*
X306070Y335280D02*
X378460Y335280D01*
X384100Y329640D01*
X307340Y391330D02*
X273540Y425130D01*
X307340Y350520D02*
X313690Y344170D01*
X414500Y337340D02*
X414500Y319050D01*
X307340Y350520D02*
X307340Y391330D01*
X313690Y344170D02*
X407670Y344170D01*
X414500Y337340D01*
X457000Y319050D02*
X470920Y305130D01*
X493540Y305130D01*
X132460Y474870D02*
X132460Y508500D01*
X132460Y474870D02*
X140970Y466360D01*
X97460Y473850D02*
X97460Y508500D01*
X97460Y473850D02*
X89970Y466360D01*
X441960Y393550D02*
X493540Y445130D01*
X441960Y393550D02*
X441960Y300990D01*
X497808Y245142D01*
X497808Y110000D02*
X400000Y12192D01*
X117808Y12192D01*
X109650Y20350D02*
X109650Y42220D01*
X497808Y110000D02*
X497808Y245142D01*
X117808Y12192D02*
X109650Y20350D01*
X430000Y401590D02*
X493540Y465130D01*
X430000Y401590D02*
X430000Y290000D01*
X488950Y231050D02*
X488950Y114300D01*
X394650Y20000D01*
X144650Y24260D02*
X144650Y42220D01*
X430000Y290000D02*
X488950Y231050D01*
X394650Y20000D02*
X148910Y20000D01*
X144650Y24260D01*
M02*
