G04 EAGLE Gerber RS-274X export*
G75*
%MOMM*%
%FSLAX34Y34*%
%LPD*%
%INBottom Copper*%
%IPPOS*%
%AMOC8*
5,1,8,0,0,1.08239X$1,22.5*%
G01*
%ADD10R,1.288000X1.288000*%
%ADD11C,1.288000*%
%ADD12R,1.575000X1.575000*%
%ADD13C,1.575000*%
%ADD14C,1.950000*%
%ADD15R,2.025000X2.025000*%
%ADD16C,2.025000*%
%ADD17C,1.508000*%
%ADD18C,1.800000*%
%ADD19C,1.408000*%
%ADD20R,1.493000X1.493000*%
%ADD21C,1.493000*%
%ADD22C,1.308000*%
%ADD23R,1.358000X1.358000*%
%ADD24C,1.358000*%
%ADD25C,1.879600*%
%ADD26C,0.406400*%

G36*
X108291Y10178D02*
X108291Y10178D01*
X108429Y10191D01*
X108448Y10198D01*
X108468Y10201D01*
X108598Y10252D01*
X108729Y10299D01*
X108745Y10310D01*
X108764Y10318D01*
X108877Y10399D01*
X108992Y10477D01*
X109005Y10493D01*
X109022Y10504D01*
X109110Y10612D01*
X109202Y10716D01*
X109211Y10734D01*
X109224Y10749D01*
X109284Y10875D01*
X109347Y10999D01*
X109351Y11019D01*
X109360Y11037D01*
X109386Y11173D01*
X109416Y11309D01*
X109416Y11330D01*
X109420Y11349D01*
X109411Y11488D01*
X109407Y11627D01*
X109401Y11647D01*
X109400Y11667D01*
X109357Y11799D01*
X109318Y11933D01*
X109308Y11950D01*
X109302Y11969D01*
X109227Y12087D01*
X109157Y12207D01*
X109138Y12228D01*
X109132Y12238D01*
X109117Y12252D01*
X109050Y12327D01*
X104481Y16896D01*
X103553Y19137D01*
X103553Y28538D01*
X103550Y28568D01*
X103552Y28597D01*
X103530Y28725D01*
X103513Y28854D01*
X103503Y28881D01*
X103498Y28910D01*
X103444Y29029D01*
X103396Y29150D01*
X103379Y29174D01*
X103367Y29200D01*
X103286Y29302D01*
X103210Y29407D01*
X103187Y29426D01*
X103168Y29449D01*
X103065Y29527D01*
X102965Y29610D01*
X102938Y29622D01*
X102914Y29640D01*
X102770Y29711D01*
X101612Y30191D01*
X97621Y34182D01*
X95460Y39397D01*
X95460Y45043D01*
X97621Y50258D01*
X101612Y54249D01*
X106827Y56410D01*
X112473Y56410D01*
X117688Y54249D01*
X121679Y50258D01*
X123840Y45043D01*
X123840Y39397D01*
X121679Y34182D01*
X117688Y30191D01*
X116530Y29711D01*
X116505Y29696D01*
X116477Y29687D01*
X116367Y29618D01*
X116254Y29554D01*
X116233Y29533D01*
X116208Y29517D01*
X116119Y29423D01*
X116026Y29332D01*
X116010Y29307D01*
X115990Y29286D01*
X115927Y29172D01*
X115859Y29061D01*
X115851Y29033D01*
X115836Y29007D01*
X115804Y28881D01*
X115766Y28757D01*
X115764Y28728D01*
X115757Y28699D01*
X115747Y28538D01*
X115747Y23401D01*
X115759Y23303D01*
X115762Y23204D01*
X115779Y23146D01*
X115787Y23086D01*
X115823Y22993D01*
X115851Y22898D01*
X115881Y22846D01*
X115904Y22790D01*
X115962Y22710D01*
X116012Y22624D01*
X116078Y22549D01*
X116090Y22533D01*
X116100Y22525D01*
X116118Y22504D01*
X119962Y18660D01*
X120040Y18600D01*
X120112Y18532D01*
X120165Y18503D01*
X120213Y18466D01*
X120304Y18426D01*
X120390Y18378D01*
X120449Y18363D01*
X120505Y18339D01*
X120603Y18324D01*
X120698Y18299D01*
X120798Y18293D01*
X120819Y18289D01*
X120831Y18291D01*
X120859Y18289D01*
X138935Y18289D01*
X139073Y18306D01*
X139211Y18319D01*
X139230Y18326D01*
X139250Y18329D01*
X139380Y18380D01*
X139511Y18427D01*
X139527Y18438D01*
X139546Y18446D01*
X139659Y18527D01*
X139774Y18605D01*
X139787Y18621D01*
X139804Y18632D01*
X139893Y18740D01*
X139984Y18844D01*
X139993Y18862D01*
X140006Y18877D01*
X140066Y19003D01*
X140129Y19127D01*
X140133Y19147D01*
X140142Y19165D01*
X140168Y19301D01*
X140198Y19437D01*
X140198Y19458D01*
X140202Y19477D01*
X140193Y19616D01*
X140189Y19755D01*
X140183Y19775D01*
X140182Y19795D01*
X140139Y19927D01*
X140100Y20061D01*
X140090Y20078D01*
X140084Y20097D01*
X140010Y20215D01*
X139939Y20335D01*
X139920Y20356D01*
X139914Y20366D01*
X139899Y20380D01*
X139832Y20456D01*
X139481Y20807D01*
X138553Y23047D01*
X138553Y28538D01*
X138550Y28568D01*
X138552Y28597D01*
X138530Y28725D01*
X138513Y28854D01*
X138503Y28881D01*
X138498Y28910D01*
X138444Y29029D01*
X138396Y29150D01*
X138379Y29174D01*
X138367Y29200D01*
X138286Y29302D01*
X138210Y29407D01*
X138187Y29426D01*
X138168Y29449D01*
X138065Y29527D01*
X137965Y29610D01*
X137938Y29622D01*
X137914Y29640D01*
X137770Y29711D01*
X136612Y30191D01*
X132621Y34182D01*
X130460Y39397D01*
X130460Y45043D01*
X132621Y50258D01*
X136612Y54249D01*
X141827Y56410D01*
X147473Y56410D01*
X152688Y54249D01*
X156679Y50258D01*
X158840Y45043D01*
X158840Y39397D01*
X156679Y34182D01*
X152688Y30191D01*
X151530Y29711D01*
X151505Y29696D01*
X151477Y29687D01*
X151367Y29618D01*
X151254Y29554D01*
X151233Y29533D01*
X151208Y29517D01*
X151119Y29423D01*
X151026Y29332D01*
X151010Y29307D01*
X150990Y29286D01*
X150927Y29172D01*
X150859Y29061D01*
X150851Y29033D01*
X150836Y29007D01*
X150804Y28881D01*
X150766Y28757D01*
X150764Y28728D01*
X150757Y28699D01*
X150747Y28538D01*
X150747Y27366D01*
X150762Y27248D01*
X150769Y27129D01*
X150782Y27091D01*
X150787Y27050D01*
X150830Y26940D01*
X150867Y26827D01*
X150889Y26792D01*
X150904Y26755D01*
X150973Y26659D01*
X151037Y26558D01*
X151067Y26530D01*
X151090Y26497D01*
X151182Y26421D01*
X151269Y26340D01*
X151304Y26320D01*
X151335Y26295D01*
X151443Y26244D01*
X151547Y26186D01*
X151587Y26176D01*
X151623Y26159D01*
X151740Y26137D01*
X151855Y26107D01*
X151915Y26103D01*
X151935Y26099D01*
X151956Y26101D01*
X152016Y26097D01*
X175115Y26097D01*
X175184Y26105D01*
X175254Y26104D01*
X175341Y26125D01*
X175430Y26137D01*
X175495Y26162D01*
X175563Y26179D01*
X175642Y26221D01*
X175726Y26254D01*
X175782Y26295D01*
X175844Y26327D01*
X175910Y26388D01*
X175983Y26440D01*
X176028Y26494D01*
X176079Y26541D01*
X176129Y26616D01*
X176186Y26685D01*
X176216Y26749D01*
X176254Y26807D01*
X176283Y26892D01*
X176321Y26973D01*
X176335Y27042D01*
X176357Y27108D01*
X176364Y27197D01*
X176381Y27285D01*
X176377Y27355D01*
X176382Y27425D01*
X176367Y27513D01*
X176361Y27603D01*
X176340Y27669D01*
X176328Y27738D01*
X176291Y27820D01*
X176263Y27905D01*
X176226Y27964D01*
X176197Y28028D01*
X176141Y28098D01*
X176093Y28174D01*
X176042Y28222D01*
X175999Y28276D01*
X175927Y28331D01*
X175862Y28392D01*
X175801Y28426D01*
X175745Y28468D01*
X175600Y28539D01*
X171612Y30191D01*
X167621Y34182D01*
X165460Y39397D01*
X165460Y45043D01*
X167621Y50258D01*
X171583Y54220D01*
X171656Y54314D01*
X171735Y54403D01*
X171753Y54439D01*
X171778Y54471D01*
X171825Y54581D01*
X171879Y54687D01*
X171888Y54726D01*
X171904Y54763D01*
X171923Y54881D01*
X171949Y54997D01*
X171948Y55037D01*
X171954Y55077D01*
X171943Y55196D01*
X171939Y55315D01*
X171928Y55354D01*
X171924Y55394D01*
X171884Y55506D01*
X171851Y55620D01*
X171830Y55655D01*
X171817Y55693D01*
X171750Y55792D01*
X171689Y55894D01*
X171649Y55939D01*
X171638Y55956D01*
X171623Y55970D01*
X171583Y56015D01*
X166756Y60842D01*
X166678Y60902D01*
X166606Y60970D01*
X166553Y60999D01*
X166505Y61036D01*
X166414Y61076D01*
X166328Y61124D01*
X166269Y61139D01*
X166213Y61163D01*
X166115Y61178D01*
X166020Y61203D01*
X165920Y61209D01*
X165899Y61213D01*
X165887Y61211D01*
X165859Y61213D01*
X120707Y61213D01*
X118466Y62141D01*
X104831Y75776D01*
X103903Y78017D01*
X103903Y89616D01*
X103900Y89645D01*
X103902Y89675D01*
X103880Y89803D01*
X103863Y89932D01*
X103853Y89959D01*
X103848Y89988D01*
X103794Y90107D01*
X103746Y90227D01*
X103729Y90251D01*
X103717Y90278D01*
X103636Y90380D01*
X103560Y90485D01*
X103537Y90503D01*
X103518Y90527D01*
X103415Y90605D01*
X103315Y90687D01*
X103288Y90700D01*
X103264Y90718D01*
X103120Y90789D01*
X102599Y91004D01*
X98924Y94679D01*
X98709Y95200D01*
X98694Y95225D01*
X98685Y95253D01*
X98616Y95363D01*
X98551Y95476D01*
X98531Y95497D01*
X98515Y95522D01*
X98420Y95611D01*
X98330Y95704D01*
X98305Y95720D01*
X98283Y95740D01*
X98169Y95803D01*
X98059Y95871D01*
X98031Y95879D01*
X98005Y95894D01*
X97879Y95926D01*
X97755Y95964D01*
X97725Y95966D01*
X97697Y95973D01*
X97536Y95983D01*
X62464Y95983D01*
X62435Y95980D01*
X62405Y95982D01*
X62277Y95960D01*
X62148Y95943D01*
X62121Y95933D01*
X62092Y95928D01*
X61973Y95874D01*
X61853Y95826D01*
X61829Y95809D01*
X61802Y95797D01*
X61700Y95716D01*
X61595Y95640D01*
X61577Y95617D01*
X61553Y95598D01*
X61475Y95495D01*
X61393Y95395D01*
X61380Y95368D01*
X61362Y95344D01*
X61291Y95200D01*
X61076Y94679D01*
X57401Y91004D01*
X52599Y89015D01*
X47401Y89015D01*
X42599Y91004D01*
X38924Y94679D01*
X36935Y99481D01*
X36935Y104679D01*
X38924Y109481D01*
X42599Y113156D01*
X47401Y115145D01*
X52599Y115145D01*
X57401Y113156D01*
X61076Y109481D01*
X61291Y108960D01*
X61306Y108935D01*
X61315Y108907D01*
X61384Y108797D01*
X61449Y108684D01*
X61469Y108663D01*
X61485Y108638D01*
X61580Y108549D01*
X61670Y108456D01*
X61695Y108440D01*
X61717Y108420D01*
X61831Y108357D01*
X61941Y108289D01*
X61969Y108281D01*
X61995Y108266D01*
X62121Y108234D01*
X62245Y108196D01*
X62275Y108194D01*
X62303Y108187D01*
X62464Y108177D01*
X97536Y108177D01*
X97565Y108180D01*
X97595Y108178D01*
X97723Y108200D01*
X97852Y108217D01*
X97879Y108227D01*
X97908Y108232D01*
X98027Y108286D01*
X98147Y108334D01*
X98171Y108351D01*
X98198Y108363D01*
X98300Y108444D01*
X98405Y108520D01*
X98423Y108543D01*
X98447Y108562D01*
X98525Y108665D01*
X98607Y108765D01*
X98620Y108792D01*
X98638Y108816D01*
X98709Y108960D01*
X98924Y109481D01*
X102599Y113156D01*
X107401Y115145D01*
X112599Y115145D01*
X112908Y115017D01*
X112975Y114998D01*
X113039Y114971D01*
X113128Y114956D01*
X113215Y114933D01*
X113284Y114932D01*
X113353Y114921D01*
X113443Y114929D01*
X113533Y114928D01*
X113600Y114944D01*
X113670Y114950D01*
X113755Y114981D01*
X113842Y115002D01*
X113903Y115034D01*
X113969Y115058D01*
X114044Y115109D01*
X114123Y115151D01*
X114175Y115197D01*
X114232Y115237D01*
X114292Y115304D01*
X114358Y115364D01*
X114397Y115423D01*
X114443Y115475D01*
X114484Y115555D01*
X114533Y115630D01*
X114556Y115696D01*
X114587Y115758D01*
X114607Y115846D01*
X114636Y115931D01*
X114642Y116001D01*
X114657Y116069D01*
X114654Y116158D01*
X114662Y116248D01*
X114650Y116317D01*
X114647Y116387D01*
X114622Y116473D01*
X114607Y116561D01*
X114578Y116625D01*
X114559Y116692D01*
X114513Y116769D01*
X114477Y116851D01*
X114433Y116906D01*
X114398Y116966D01*
X114291Y117087D01*
X84966Y146412D01*
X84888Y146472D01*
X84816Y146540D01*
X84763Y146569D01*
X84715Y146606D01*
X84624Y146646D01*
X84538Y146694D01*
X84479Y146709D01*
X84423Y146733D01*
X84325Y146748D01*
X84230Y146773D01*
X84130Y146779D01*
X84109Y146783D01*
X84097Y146781D01*
X84069Y146783D01*
X62464Y146783D01*
X62435Y146780D01*
X62405Y146782D01*
X62277Y146760D01*
X62148Y146743D01*
X62121Y146733D01*
X62092Y146728D01*
X61973Y146674D01*
X61853Y146626D01*
X61829Y146609D01*
X61802Y146597D01*
X61700Y146516D01*
X61595Y146440D01*
X61577Y146417D01*
X61553Y146398D01*
X61475Y146295D01*
X61393Y146195D01*
X61380Y146168D01*
X61362Y146144D01*
X61291Y146000D01*
X61076Y145479D01*
X57401Y141804D01*
X52599Y139815D01*
X47401Y139815D01*
X42599Y141804D01*
X38924Y145479D01*
X36935Y150281D01*
X36935Y155479D01*
X38924Y160281D01*
X42599Y163956D01*
X47401Y165945D01*
X52599Y165945D01*
X57401Y163956D01*
X61076Y160281D01*
X61291Y159760D01*
X61306Y159735D01*
X61315Y159707D01*
X61384Y159597D01*
X61449Y159484D01*
X61469Y159463D01*
X61485Y159438D01*
X61580Y159349D01*
X61670Y159256D01*
X61695Y159240D01*
X61717Y159220D01*
X61831Y159157D01*
X61941Y159089D01*
X61969Y159081D01*
X61995Y159066D01*
X62121Y159034D01*
X62245Y158996D01*
X62275Y158994D01*
X62303Y158987D01*
X62464Y158977D01*
X88333Y158977D01*
X90574Y158049D01*
X94769Y153854D01*
X94878Y153768D01*
X94985Y153680D01*
X95004Y153671D01*
X95020Y153659D01*
X95148Y153603D01*
X95273Y153544D01*
X95293Y153540D01*
X95312Y153532D01*
X95450Y153510D01*
X95586Y153484D01*
X95606Y153486D01*
X95626Y153482D01*
X95765Y153496D01*
X95903Y153504D01*
X95922Y153510D01*
X95942Y153512D01*
X96074Y153559D01*
X96205Y153602D01*
X96223Y153613D01*
X96242Y153620D01*
X96357Y153698D01*
X96474Y153772D01*
X96488Y153787D01*
X96505Y153798D01*
X96597Y153903D01*
X96692Y154004D01*
X96702Y154022D01*
X96715Y154037D01*
X96779Y154161D01*
X96846Y154282D01*
X96851Y154302D01*
X96860Y154320D01*
X96890Y154456D01*
X96925Y154590D01*
X96927Y154618D01*
X96930Y154630D01*
X96929Y154651D01*
X96935Y154751D01*
X96935Y155479D01*
X98924Y160281D01*
X102599Y163956D01*
X107401Y165945D01*
X112599Y165945D01*
X117401Y163956D01*
X121076Y160281D01*
X123065Y155479D01*
X123065Y150281D01*
X122849Y149761D01*
X122841Y149732D01*
X122828Y149706D01*
X122800Y149580D01*
X122765Y149454D01*
X122765Y149425D01*
X122758Y149396D01*
X122762Y149266D01*
X122760Y149136D01*
X122767Y149108D01*
X122768Y149078D01*
X122804Y148953D01*
X122834Y148827D01*
X122848Y148801D01*
X122856Y148773D01*
X122922Y148661D01*
X122983Y148546D01*
X123003Y148524D01*
X123018Y148499D01*
X123124Y148378D01*
X153275Y118227D01*
X155169Y116333D01*
X156097Y114093D01*
X156097Y109035D01*
X156105Y108966D01*
X156104Y108896D01*
X156125Y108809D01*
X156137Y108720D01*
X156162Y108655D01*
X156179Y108587D01*
X156221Y108508D01*
X156254Y108424D01*
X156295Y108368D01*
X156327Y108306D01*
X156388Y108239D01*
X156440Y108167D01*
X156494Y108122D01*
X156541Y108071D01*
X156616Y108021D01*
X156685Y107964D01*
X156749Y107934D01*
X156807Y107896D01*
X156892Y107867D01*
X156973Y107828D01*
X157042Y107815D01*
X157108Y107793D01*
X157197Y107785D01*
X157285Y107769D01*
X157355Y107773D01*
X157425Y107767D01*
X157513Y107783D01*
X157603Y107788D01*
X157669Y107810D01*
X157738Y107822D01*
X157820Y107859D01*
X157905Y107886D01*
X157964Y107924D01*
X158028Y107952D01*
X158098Y108008D01*
X158174Y108056D01*
X158222Y108107D01*
X158276Y108151D01*
X158331Y108223D01*
X158392Y108288D01*
X158426Y108349D01*
X158468Y108405D01*
X158539Y108550D01*
X158924Y109481D01*
X162599Y113156D01*
X167401Y115145D01*
X172599Y115145D01*
X177401Y113156D01*
X181076Y109481D01*
X181291Y108960D01*
X181306Y108935D01*
X181315Y108907D01*
X181384Y108797D01*
X181449Y108684D01*
X181469Y108663D01*
X181485Y108638D01*
X181580Y108549D01*
X181670Y108456D01*
X181695Y108440D01*
X181717Y108420D01*
X181831Y108357D01*
X181941Y108289D01*
X181969Y108281D01*
X181995Y108266D01*
X182121Y108234D01*
X182245Y108196D01*
X182275Y108194D01*
X182303Y108187D01*
X182464Y108177D01*
X217536Y108177D01*
X217565Y108180D01*
X217595Y108178D01*
X217723Y108200D01*
X217852Y108217D01*
X217879Y108227D01*
X217908Y108232D01*
X218027Y108286D01*
X218147Y108334D01*
X218171Y108351D01*
X218198Y108363D01*
X218300Y108444D01*
X218405Y108520D01*
X218423Y108543D01*
X218447Y108562D01*
X218525Y108665D01*
X218607Y108765D01*
X218620Y108792D01*
X218638Y108816D01*
X218709Y108960D01*
X218924Y109481D01*
X221180Y111737D01*
X221265Y111846D01*
X221354Y111953D01*
X221363Y111972D01*
X221375Y111988D01*
X221431Y112116D01*
X221490Y112241D01*
X221493Y112261D01*
X221502Y112280D01*
X221523Y112418D01*
X221549Y112554D01*
X221548Y112574D01*
X221551Y112594D01*
X221538Y112733D01*
X221530Y112871D01*
X221523Y112890D01*
X221522Y112910D01*
X221474Y113041D01*
X221432Y113173D01*
X221421Y113191D01*
X221414Y113210D01*
X221336Y113324D01*
X221261Y113442D01*
X221247Y113456D01*
X221235Y113473D01*
X221131Y113565D01*
X221030Y113660D01*
X221012Y113670D01*
X220997Y113683D01*
X220873Y113747D01*
X220751Y113814D01*
X220732Y113819D01*
X220714Y113828D01*
X220578Y113858D01*
X220443Y113893D01*
X220415Y113895D01*
X220403Y113898D01*
X220383Y113897D01*
X220283Y113903D01*
X201667Y113903D01*
X199426Y114831D01*
X197533Y116725D01*
X174502Y139756D01*
X174479Y139774D01*
X174460Y139796D01*
X174354Y139871D01*
X174251Y139951D01*
X174224Y139962D01*
X174200Y139979D01*
X174078Y140025D01*
X173959Y140077D01*
X173930Y140082D01*
X173902Y140092D01*
X173773Y140106D01*
X173645Y140127D01*
X173616Y140124D01*
X173586Y140127D01*
X173458Y140109D01*
X173328Y140097D01*
X173301Y140087D01*
X173271Y140083D01*
X173119Y140031D01*
X172599Y139815D01*
X167401Y139815D01*
X162599Y141804D01*
X158924Y145479D01*
X156935Y150281D01*
X156935Y155479D01*
X158924Y160281D01*
X162599Y163956D01*
X167401Y165945D01*
X172599Y165945D01*
X177401Y163956D01*
X181076Y160281D01*
X183065Y155479D01*
X183065Y150281D01*
X182849Y149761D01*
X182841Y149732D01*
X182828Y149706D01*
X182800Y149580D01*
X182765Y149454D01*
X182765Y149425D01*
X182758Y149396D01*
X182762Y149266D01*
X182760Y149136D01*
X182767Y149108D01*
X182768Y149078D01*
X182804Y148953D01*
X182834Y148827D01*
X182848Y148801D01*
X182856Y148773D01*
X182922Y148661D01*
X182983Y148546D01*
X183003Y148524D01*
X183018Y148499D01*
X183124Y148378D01*
X205034Y126468D01*
X205112Y126408D01*
X205184Y126340D01*
X205237Y126311D01*
X205285Y126274D01*
X205376Y126234D01*
X205462Y126186D01*
X205521Y126171D01*
X205577Y126147D01*
X205675Y126132D01*
X205770Y126107D01*
X205870Y126101D01*
X205891Y126097D01*
X205903Y126099D01*
X205931Y126097D01*
X243083Y126097D01*
X245324Y125169D01*
X314287Y56205D01*
X314310Y56187D01*
X314329Y56165D01*
X314391Y56121D01*
X314417Y56097D01*
X314450Y56079D01*
X314538Y56010D01*
X314565Y55999D01*
X314589Y55982D01*
X314711Y55936D01*
X314830Y55884D01*
X314859Y55879D01*
X314887Y55869D01*
X315016Y55855D01*
X315144Y55834D01*
X315173Y55837D01*
X315203Y55834D01*
X315331Y55852D01*
X315461Y55864D01*
X315488Y55874D01*
X315518Y55878D01*
X315670Y55930D01*
X316827Y56410D01*
X322473Y56410D01*
X327688Y54249D01*
X331679Y50258D01*
X333840Y45043D01*
X333840Y39397D01*
X331679Y34182D01*
X327688Y30191D01*
X323700Y28539D01*
X323639Y28504D01*
X323574Y28478D01*
X323502Y28426D01*
X323424Y28381D01*
X323373Y28332D01*
X323317Y28292D01*
X323260Y28222D01*
X323195Y28160D01*
X323159Y28100D01*
X323114Y28047D01*
X323076Y27965D01*
X323029Y27889D01*
X323008Y27822D01*
X322979Y27759D01*
X322962Y27671D01*
X322935Y27585D01*
X322932Y27515D01*
X322919Y27446D01*
X322924Y27357D01*
X322920Y27267D01*
X322934Y27199D01*
X322939Y27129D01*
X322966Y27044D01*
X322984Y26956D01*
X323015Y26893D01*
X323037Y26827D01*
X323085Y26751D01*
X323124Y26670D01*
X323169Y26617D01*
X323207Y26558D01*
X323272Y26496D01*
X323330Y26428D01*
X323388Y26388D01*
X323438Y26340D01*
X323517Y26297D01*
X323590Y26245D01*
X323656Y26220D01*
X323717Y26186D01*
X323804Y26164D01*
X323888Y26132D01*
X323957Y26124D01*
X324025Y26107D01*
X324185Y26097D01*
X350115Y26097D01*
X350184Y26105D01*
X350254Y26104D01*
X350341Y26125D01*
X350430Y26137D01*
X350495Y26162D01*
X350563Y26179D01*
X350642Y26221D01*
X350726Y26254D01*
X350782Y26295D01*
X350844Y26327D01*
X350910Y26388D01*
X350983Y26440D01*
X351028Y26494D01*
X351079Y26541D01*
X351129Y26616D01*
X351186Y26685D01*
X351216Y26749D01*
X351254Y26807D01*
X351283Y26892D01*
X351321Y26973D01*
X351335Y27042D01*
X351357Y27108D01*
X351364Y27197D01*
X351381Y27285D01*
X351377Y27355D01*
X351382Y27425D01*
X351367Y27513D01*
X351361Y27603D01*
X351340Y27669D01*
X351328Y27738D01*
X351291Y27820D01*
X351263Y27905D01*
X351226Y27964D01*
X351197Y28028D01*
X351141Y28098D01*
X351093Y28174D01*
X351042Y28222D01*
X350999Y28276D01*
X350927Y28331D01*
X350862Y28392D01*
X350801Y28426D01*
X350745Y28468D01*
X350600Y28539D01*
X346612Y30191D01*
X342621Y34182D01*
X340460Y39397D01*
X340460Y45043D01*
X340940Y46200D01*
X340948Y46228D01*
X340961Y46255D01*
X340989Y46382D01*
X341024Y46507D01*
X341024Y46536D01*
X341031Y46565D01*
X341027Y46695D01*
X341029Y46825D01*
X341022Y46854D01*
X341021Y46883D01*
X340985Y47008D01*
X340955Y47134D01*
X340941Y47160D01*
X340933Y47189D01*
X340867Y47300D01*
X340806Y47415D01*
X340786Y47437D01*
X340771Y47462D01*
X340665Y47583D01*
X242820Y145428D01*
X242725Y145501D01*
X242636Y145580D01*
X242600Y145598D01*
X242568Y145623D01*
X242459Y145671D01*
X242353Y145725D01*
X242314Y145734D01*
X242276Y145750D01*
X242159Y145768D01*
X242043Y145794D01*
X242002Y145793D01*
X241962Y145799D01*
X241844Y145788D01*
X241725Y145785D01*
X241686Y145773D01*
X241646Y145770D01*
X241534Y145729D01*
X241419Y145696D01*
X241385Y145676D01*
X241346Y145662D01*
X241248Y145595D01*
X241145Y145535D01*
X241100Y145495D01*
X241083Y145483D01*
X241070Y145468D01*
X241025Y145428D01*
X237401Y141804D01*
X232599Y139815D01*
X227401Y139815D01*
X222599Y141804D01*
X218924Y145479D01*
X216935Y150281D01*
X216935Y155479D01*
X218924Y160281D01*
X222599Y163956D01*
X227401Y165945D01*
X232599Y165945D01*
X237401Y163956D01*
X241076Y160281D01*
X241291Y159760D01*
X241306Y159735D01*
X241315Y159707D01*
X241384Y159597D01*
X241449Y159484D01*
X241469Y159463D01*
X241485Y159438D01*
X241580Y159349D01*
X241670Y159256D01*
X241695Y159240D01*
X241717Y159220D01*
X241831Y159157D01*
X241941Y159089D01*
X241969Y159081D01*
X241995Y159066D01*
X242121Y159034D01*
X242245Y158996D01*
X242275Y158994D01*
X242303Y158987D01*
X242464Y158977D01*
X245203Y158977D01*
X247444Y158049D01*
X349287Y56205D01*
X349310Y56187D01*
X349329Y56165D01*
X349391Y56121D01*
X349417Y56097D01*
X349450Y56079D01*
X349538Y56010D01*
X349565Y55999D01*
X349589Y55982D01*
X349711Y55936D01*
X349830Y55884D01*
X349859Y55879D01*
X349887Y55869D01*
X350016Y55855D01*
X350144Y55834D01*
X350173Y55837D01*
X350203Y55834D01*
X350331Y55852D01*
X350461Y55864D01*
X350488Y55874D01*
X350518Y55878D01*
X350670Y55930D01*
X351827Y56410D01*
X357473Y56410D01*
X362688Y54249D01*
X366679Y50258D01*
X368840Y45043D01*
X368840Y39397D01*
X366679Y34182D01*
X362688Y30191D01*
X358700Y28539D01*
X358639Y28504D01*
X358574Y28478D01*
X358502Y28426D01*
X358424Y28381D01*
X358373Y28332D01*
X358317Y28292D01*
X358260Y28222D01*
X358195Y28160D01*
X358159Y28100D01*
X358114Y28047D01*
X358076Y27965D01*
X358029Y27889D01*
X358008Y27822D01*
X357979Y27759D01*
X357962Y27671D01*
X357935Y27585D01*
X357932Y27515D01*
X357919Y27446D01*
X357924Y27357D01*
X357920Y27267D01*
X357934Y27199D01*
X357939Y27129D01*
X357966Y27044D01*
X357984Y26956D01*
X358015Y26893D01*
X358037Y26827D01*
X358085Y26751D01*
X358124Y26670D01*
X358169Y26617D01*
X358207Y26558D01*
X358272Y26496D01*
X358330Y26428D01*
X358388Y26388D01*
X358438Y26340D01*
X358517Y26297D01*
X358590Y26245D01*
X358656Y26220D01*
X358717Y26186D01*
X358804Y26164D01*
X358888Y26132D01*
X358957Y26124D01*
X359025Y26107D01*
X359185Y26097D01*
X391599Y26097D01*
X391697Y26109D01*
X391796Y26112D01*
X391854Y26129D01*
X391914Y26137D01*
X392007Y26173D01*
X392102Y26201D01*
X392154Y26231D01*
X392210Y26254D01*
X392290Y26312D01*
X392376Y26362D01*
X392451Y26428D01*
X392467Y26440D01*
X392475Y26450D01*
X392496Y26468D01*
X482482Y116454D01*
X482542Y116532D01*
X482610Y116604D01*
X482639Y116657D01*
X482676Y116705D01*
X482716Y116796D01*
X482764Y116882D01*
X482779Y116941D01*
X482803Y116997D01*
X482818Y117095D01*
X482843Y117190D01*
X482849Y117290D01*
X482853Y117311D01*
X482851Y117323D01*
X482853Y117351D01*
X482853Y237999D01*
X482841Y238097D01*
X482838Y238196D01*
X482821Y238254D01*
X482813Y238314D01*
X482777Y238407D01*
X482749Y238502D01*
X482719Y238554D01*
X482696Y238610D01*
X482638Y238690D01*
X482588Y238776D01*
X482522Y238851D01*
X482510Y238867D01*
X482500Y238875D01*
X482482Y238896D01*
X427371Y294006D01*
X426443Y296247D01*
X426443Y307974D01*
X426437Y308023D01*
X426439Y308073D01*
X426417Y308180D01*
X426403Y308289D01*
X426385Y308335D01*
X426375Y308384D01*
X426327Y308483D01*
X426286Y308585D01*
X426257Y308625D01*
X426235Y308670D01*
X426164Y308753D01*
X426100Y308842D01*
X426061Y308874D01*
X426029Y308912D01*
X425939Y308975D01*
X425855Y309045D01*
X425810Y309066D01*
X425769Y309095D01*
X425666Y309134D01*
X425567Y309181D01*
X425518Y309190D01*
X425472Y309207D01*
X425362Y309220D01*
X425255Y309240D01*
X425205Y309237D01*
X425156Y309243D01*
X425047Y309227D01*
X424937Y309221D01*
X424890Y309205D01*
X424841Y309198D01*
X424688Y309146D01*
X421789Y307945D01*
X417371Y307945D01*
X413290Y309636D01*
X410166Y312760D01*
X408475Y316841D01*
X408475Y321259D01*
X410166Y325340D01*
X413112Y328286D01*
X413172Y328364D01*
X413240Y328436D01*
X413269Y328489D01*
X413306Y328537D01*
X413346Y328628D01*
X413394Y328715D01*
X413409Y328773D01*
X413433Y328829D01*
X413448Y328927D01*
X413473Y329023D01*
X413477Y329086D01*
X413478Y329088D01*
X413477Y329091D01*
X413479Y329123D01*
X413483Y329143D01*
X413481Y329155D01*
X413483Y329183D01*
X413483Y329209D01*
X413471Y329307D01*
X413468Y329406D01*
X413453Y329457D01*
X413453Y329460D01*
X413451Y329465D01*
X413443Y329524D01*
X413407Y329617D01*
X413379Y329712D01*
X413349Y329764D01*
X413326Y329820D01*
X413268Y329900D01*
X413218Y329986D01*
X413152Y330061D01*
X413140Y330077D01*
X413130Y330085D01*
X413112Y330106D01*
X405516Y337702D01*
X405438Y337762D01*
X405366Y337830D01*
X405313Y337859D01*
X405265Y337896D01*
X405174Y337936D01*
X405088Y337984D01*
X405029Y337999D01*
X404973Y338023D01*
X404875Y338038D01*
X404780Y338063D01*
X404680Y338069D01*
X404659Y338073D01*
X404647Y338071D01*
X404619Y338073D01*
X387353Y338073D01*
X387215Y338056D01*
X387077Y338043D01*
X387058Y338036D01*
X387038Y338033D01*
X386908Y337982D01*
X386777Y337935D01*
X386761Y337924D01*
X386742Y337916D01*
X386629Y337835D01*
X386514Y337757D01*
X386501Y337741D01*
X386484Y337730D01*
X386396Y337622D01*
X386304Y337518D01*
X386295Y337500D01*
X386282Y337485D01*
X386222Y337359D01*
X386159Y337235D01*
X386155Y337215D01*
X386146Y337197D01*
X386120Y337061D01*
X386090Y336925D01*
X386090Y336904D01*
X386086Y336885D01*
X386095Y336746D01*
X386099Y336607D01*
X386105Y336587D01*
X386106Y336567D01*
X386149Y336435D01*
X386188Y336301D01*
X386198Y336284D01*
X386204Y336265D01*
X386279Y336147D01*
X386349Y336027D01*
X386368Y336006D01*
X386374Y335996D01*
X386389Y335982D01*
X386456Y335907D01*
X391816Y330546D01*
X391894Y330486D01*
X391966Y330418D01*
X392019Y330389D01*
X392067Y330352D01*
X392158Y330312D01*
X392244Y330264D01*
X392303Y330249D01*
X392359Y330225D01*
X392457Y330210D01*
X392552Y330185D01*
X392652Y330179D01*
X392673Y330175D01*
X392685Y330177D01*
X392713Y330175D01*
X396359Y330175D01*
X400440Y328484D01*
X403564Y325360D01*
X405255Y321279D01*
X405255Y316861D01*
X403564Y312780D01*
X400440Y309656D01*
X396359Y307965D01*
X391941Y307965D01*
X387860Y309656D01*
X384736Y312780D01*
X383045Y316861D01*
X383045Y321531D01*
X383040Y321569D01*
X383042Y321679D01*
X383035Y321709D01*
X383034Y321740D01*
X383007Y321834D01*
X383005Y321847D01*
X382998Y321865D01*
X382969Y321989D01*
X382954Y322016D01*
X382946Y322045D01*
X382881Y322156D01*
X382820Y322270D01*
X382800Y322293D01*
X382784Y322319D01*
X382678Y322440D01*
X380707Y324411D01*
X380651Y324454D01*
X380603Y324504D01*
X380526Y324551D01*
X380455Y324606D01*
X380391Y324634D01*
X380332Y324670D01*
X380246Y324697D01*
X380163Y324733D01*
X380094Y324744D01*
X380028Y324764D01*
X379938Y324768D01*
X379849Y324782D01*
X379780Y324776D01*
X379710Y324779D01*
X379622Y324761D01*
X379533Y324753D01*
X379467Y324729D01*
X379399Y324715D01*
X379318Y324675D01*
X379233Y324645D01*
X379176Y324606D01*
X379113Y324575D01*
X379045Y324517D01*
X378970Y324466D01*
X378924Y324414D01*
X378871Y324369D01*
X378819Y324295D01*
X378760Y324228D01*
X378728Y324166D01*
X378688Y324109D01*
X378656Y324025D01*
X378615Y323945D01*
X378600Y323877D01*
X378575Y323811D01*
X378565Y323722D01*
X378546Y323635D01*
X378548Y323565D01*
X378540Y323495D01*
X378553Y323406D01*
X378555Y323317D01*
X378575Y323250D01*
X378584Y323180D01*
X378636Y323028D01*
X379295Y321439D01*
X379295Y317021D01*
X377604Y312940D01*
X374480Y309816D01*
X370399Y308125D01*
X365981Y308125D01*
X361900Y309816D01*
X358954Y312762D01*
X358876Y312822D01*
X358804Y312890D01*
X358751Y312919D01*
X358703Y312956D01*
X358612Y312996D01*
X358525Y313044D01*
X358467Y313059D01*
X358411Y313083D01*
X358313Y313098D01*
X358217Y313123D01*
X358117Y313129D01*
X358097Y313133D01*
X358085Y313131D01*
X358057Y313133D01*
X306937Y313133D01*
X304696Y314061D01*
X302803Y315955D01*
X281980Y336778D01*
X281886Y336851D01*
X281797Y336930D01*
X281761Y336948D01*
X281729Y336973D01*
X281619Y337020D01*
X281514Y337074D01*
X281474Y337083D01*
X281437Y337099D01*
X281319Y337118D01*
X281203Y337144D01*
X281163Y337143D01*
X281123Y337149D01*
X281004Y337138D01*
X280885Y337134D01*
X280847Y337123D01*
X280806Y337119D01*
X280694Y337079D01*
X280580Y337046D01*
X280545Y337025D01*
X280507Y337012D01*
X280408Y336945D01*
X280306Y336884D01*
X280261Y336844D01*
X280244Y336833D01*
X280230Y336818D01*
X280185Y336778D01*
X279435Y336028D01*
X279362Y335934D01*
X279283Y335844D01*
X279265Y335808D01*
X279240Y335776D01*
X279193Y335667D01*
X279138Y335561D01*
X279130Y335522D01*
X279114Y335484D01*
X279095Y335367D01*
X279069Y335251D01*
X279070Y335210D01*
X279064Y335170D01*
X279075Y335052D01*
X279078Y334933D01*
X279090Y334894D01*
X279094Y334854D01*
X279134Y334742D01*
X279167Y334627D01*
X279187Y334592D01*
X279201Y334554D01*
X279268Y334456D01*
X279328Y334353D01*
X279368Y334308D01*
X279380Y334291D01*
X279395Y334278D01*
X279435Y334233D01*
X282530Y331137D01*
X284145Y327239D01*
X284145Y323021D01*
X282530Y319123D01*
X279547Y316140D01*
X277892Y315454D01*
X277814Y315410D01*
X277732Y315374D01*
X277676Y315331D01*
X277615Y315296D01*
X277551Y315234D01*
X277480Y315179D01*
X277437Y315124D01*
X277387Y315075D01*
X277340Y314999D01*
X277285Y314928D01*
X277257Y314864D01*
X277221Y314804D01*
X277194Y314719D01*
X277159Y314636D01*
X277148Y314567D01*
X277127Y314500D01*
X277123Y314411D01*
X277109Y314322D01*
X277115Y314252D01*
X277112Y314182D01*
X277130Y314095D01*
X277138Y314006D01*
X277162Y313940D01*
X277176Y313871D01*
X277216Y313790D01*
X277246Y313706D01*
X277285Y313648D01*
X277316Y313585D01*
X277374Y313517D01*
X277424Y313443D01*
X277477Y313397D01*
X277522Y313343D01*
X277596Y313292D01*
X277663Y313232D01*
X277770Y313169D01*
X277782Y313160D01*
X277789Y313158D01*
X277801Y313150D01*
X278299Y312897D01*
X279456Y312056D01*
X280466Y311046D01*
X281307Y309889D01*
X281955Y308616D01*
X282397Y307256D01*
X282417Y307129D01*
X274270Y307129D01*
X274152Y307114D01*
X274033Y307107D01*
X273995Y307094D01*
X273955Y307089D01*
X273844Y307046D01*
X273731Y307009D01*
X273697Y306987D01*
X273659Y306972D01*
X273563Y306903D01*
X273546Y306892D01*
X273522Y306906D01*
X273490Y306931D01*
X273383Y306982D01*
X273278Y307040D01*
X273239Y307050D01*
X273203Y307067D01*
X273086Y307089D01*
X272970Y307119D01*
X272910Y307123D01*
X272890Y307127D01*
X272870Y307125D01*
X272810Y307129D01*
X264663Y307129D01*
X264683Y307256D01*
X265125Y308616D01*
X265773Y309889D01*
X266614Y311046D01*
X267624Y312056D01*
X268781Y312897D01*
X269279Y313150D01*
X269353Y313201D01*
X269432Y313243D01*
X269484Y313290D01*
X269542Y313329D01*
X269601Y313396D01*
X269667Y313457D01*
X269706Y313515D01*
X269752Y313568D01*
X269793Y313647D01*
X269842Y313722D01*
X269865Y313789D01*
X269897Y313851D01*
X269916Y313938D01*
X269945Y314023D01*
X269951Y314093D01*
X269966Y314161D01*
X269964Y314251D01*
X269971Y314340D01*
X269959Y314409D01*
X269956Y314479D01*
X269932Y314565D01*
X269916Y314653D01*
X269887Y314717D01*
X269868Y314785D01*
X269822Y314862D01*
X269786Y314943D01*
X269742Y314998D01*
X269706Y315059D01*
X269643Y315122D01*
X269587Y315192D01*
X269531Y315234D01*
X269482Y315284D01*
X269405Y315329D01*
X269333Y315383D01*
X269221Y315438D01*
X269208Y315446D01*
X269201Y315448D01*
X269188Y315454D01*
X267533Y316140D01*
X264550Y319123D01*
X262935Y323021D01*
X262935Y327239D01*
X264550Y331137D01*
X267645Y334233D01*
X267718Y334327D01*
X267797Y334416D01*
X267815Y334452D01*
X267840Y334484D01*
X267887Y334593D01*
X267942Y334699D01*
X267950Y334738D01*
X267966Y334776D01*
X267985Y334893D01*
X268011Y335009D01*
X268010Y335050D01*
X268016Y335090D01*
X268005Y335208D01*
X268002Y335327D01*
X267990Y335366D01*
X267986Y335406D01*
X267946Y335519D01*
X267913Y335633D01*
X267893Y335668D01*
X267879Y335706D01*
X267812Y335804D01*
X267752Y335907D01*
X267712Y335952D01*
X267700Y335969D01*
X267685Y335982D01*
X267645Y336028D01*
X264550Y339123D01*
X262935Y343021D01*
X262935Y347239D01*
X264550Y351137D01*
X267645Y354233D01*
X267718Y354327D01*
X267797Y354416D01*
X267815Y354452D01*
X267840Y354484D01*
X267887Y354593D01*
X267942Y354699D01*
X267950Y354738D01*
X267966Y354776D01*
X267985Y354893D01*
X268011Y355009D01*
X268010Y355050D01*
X268016Y355090D01*
X268005Y355208D01*
X268002Y355327D01*
X267990Y355366D01*
X267986Y355406D01*
X267946Y355519D01*
X267913Y355633D01*
X267893Y355668D01*
X267879Y355706D01*
X267812Y355804D01*
X267752Y355907D01*
X267712Y355952D01*
X267700Y355969D01*
X267685Y355982D01*
X267645Y356028D01*
X264550Y359123D01*
X262935Y363021D01*
X262935Y367239D01*
X264550Y371137D01*
X267645Y374233D01*
X267718Y374327D01*
X267797Y374416D01*
X267815Y374452D01*
X267840Y374484D01*
X267887Y374593D01*
X267942Y374699D01*
X267950Y374738D01*
X267966Y374776D01*
X267985Y374893D01*
X268011Y375009D01*
X268010Y375050D01*
X268016Y375090D01*
X268005Y375208D01*
X268002Y375327D01*
X267990Y375366D01*
X267986Y375406D01*
X267946Y375519D01*
X267913Y375633D01*
X267893Y375668D01*
X267879Y375706D01*
X267812Y375804D01*
X267752Y375907D01*
X267712Y375952D01*
X267700Y375969D01*
X267685Y375982D01*
X267645Y376028D01*
X264550Y379123D01*
X262935Y383021D01*
X262935Y387239D01*
X264550Y391137D01*
X267645Y394233D01*
X267718Y394327D01*
X267797Y394416D01*
X267815Y394452D01*
X267840Y394484D01*
X267887Y394593D01*
X267942Y394699D01*
X267950Y394738D01*
X267966Y394776D01*
X267985Y394893D01*
X268011Y395009D01*
X268010Y395050D01*
X268016Y395090D01*
X268005Y395208D01*
X268002Y395327D01*
X267990Y395366D01*
X267986Y395406D01*
X267946Y395519D01*
X267913Y395633D01*
X267893Y395668D01*
X267879Y395706D01*
X267812Y395804D01*
X267752Y395907D01*
X267712Y395952D01*
X267700Y395969D01*
X267685Y395982D01*
X267645Y396028D01*
X264550Y399123D01*
X262935Y403021D01*
X262935Y407239D01*
X264550Y411137D01*
X267645Y414233D01*
X267718Y414327D01*
X267797Y414416D01*
X267815Y414452D01*
X267840Y414484D01*
X267887Y414593D01*
X267942Y414699D01*
X267950Y414738D01*
X267966Y414776D01*
X267985Y414893D01*
X268011Y415009D01*
X268010Y415050D01*
X268016Y415090D01*
X268005Y415208D01*
X268002Y415327D01*
X267990Y415366D01*
X267986Y415406D01*
X267946Y415519D01*
X267913Y415633D01*
X267893Y415668D01*
X267879Y415706D01*
X267812Y415804D01*
X267752Y415907D01*
X267712Y415952D01*
X267700Y415969D01*
X267685Y415982D01*
X267645Y416028D01*
X264550Y419123D01*
X262935Y423021D01*
X262935Y427239D01*
X264550Y431137D01*
X267645Y434233D01*
X267718Y434327D01*
X267797Y434416D01*
X267815Y434452D01*
X267840Y434484D01*
X267887Y434593D01*
X267942Y434699D01*
X267950Y434738D01*
X267966Y434776D01*
X267985Y434893D01*
X268011Y435009D01*
X268010Y435050D01*
X268016Y435090D01*
X268005Y435208D01*
X268002Y435327D01*
X267990Y435366D01*
X267986Y435406D01*
X267946Y435519D01*
X267913Y435633D01*
X267893Y435668D01*
X267879Y435706D01*
X267812Y435804D01*
X267752Y435907D01*
X267712Y435952D01*
X267700Y435969D01*
X267685Y435982D01*
X267645Y436028D01*
X264550Y439123D01*
X262935Y443021D01*
X262935Y447239D01*
X264550Y451137D01*
X267645Y454233D01*
X267718Y454327D01*
X267797Y454416D01*
X267815Y454452D01*
X267840Y454484D01*
X267887Y454593D01*
X267942Y454699D01*
X267950Y454738D01*
X267966Y454776D01*
X267985Y454893D01*
X268011Y455009D01*
X268010Y455050D01*
X268016Y455090D01*
X268005Y455208D01*
X268002Y455327D01*
X267990Y455366D01*
X267986Y455406D01*
X267946Y455519D01*
X267913Y455633D01*
X267893Y455667D01*
X267879Y455706D01*
X267812Y455804D01*
X267752Y455907D01*
X267712Y455952D01*
X267700Y455969D01*
X267685Y455982D01*
X267645Y456028D01*
X264550Y459123D01*
X262907Y463088D01*
X262905Y463115D01*
X262898Y463134D01*
X262895Y463154D01*
X262845Y463283D01*
X262797Y463415D01*
X262786Y463431D01*
X262778Y463450D01*
X262697Y463562D01*
X262619Y463678D01*
X262603Y463691D01*
X262592Y463708D01*
X262484Y463796D01*
X262380Y463888D01*
X262362Y463897D01*
X262347Y463910D01*
X262221Y463970D01*
X262097Y464033D01*
X262077Y464037D01*
X262059Y464046D01*
X261923Y464072D01*
X261787Y464102D01*
X261766Y464102D01*
X261747Y464106D01*
X261608Y464097D01*
X261469Y464093D01*
X261449Y464087D01*
X261429Y464086D01*
X261297Y464043D01*
X261163Y464004D01*
X261146Y463994D01*
X261127Y463988D01*
X261009Y463913D01*
X260889Y463843D01*
X260868Y463824D01*
X260858Y463818D01*
X260844Y463803D01*
X260769Y463736D01*
X245117Y448085D01*
X243224Y446191D01*
X240983Y445263D01*
X231083Y445263D01*
X230985Y445251D01*
X230886Y445248D01*
X230828Y445231D01*
X230768Y445223D01*
X230676Y445187D01*
X230581Y445159D01*
X230529Y445129D01*
X230472Y445106D01*
X230392Y445048D01*
X230307Y444998D01*
X230231Y444932D01*
X230215Y444920D01*
X230207Y444910D01*
X230186Y444892D01*
X227240Y441946D01*
X223159Y440255D01*
X218993Y440255D01*
X218895Y440243D01*
X218796Y440240D01*
X218738Y440223D01*
X218678Y440215D01*
X218585Y440179D01*
X218490Y440151D01*
X218438Y440121D01*
X218382Y440098D01*
X218302Y440040D01*
X218216Y439990D01*
X218141Y439924D01*
X218125Y439912D01*
X218117Y439902D01*
X218096Y439884D01*
X199103Y420890D01*
X199042Y420812D01*
X198974Y420740D01*
X198945Y420687D01*
X198908Y420639D01*
X198868Y420548D01*
X198820Y420462D01*
X198805Y420403D01*
X198781Y420347D01*
X198766Y420249D01*
X198741Y420154D01*
X198735Y420054D01*
X198731Y420033D01*
X198733Y420021D01*
X198731Y419993D01*
X198731Y332799D01*
X198746Y332681D01*
X198753Y332562D01*
X198766Y332524D01*
X198771Y332483D01*
X198814Y332373D01*
X198851Y332260D01*
X198873Y332225D01*
X198888Y332188D01*
X198958Y332092D01*
X199021Y331991D01*
X199051Y331963D01*
X199074Y331930D01*
X199166Y331854D01*
X199253Y331773D01*
X199288Y331753D01*
X199319Y331728D01*
X199427Y331677D01*
X199531Y331619D01*
X199571Y331609D01*
X199607Y331592D01*
X199724Y331570D01*
X199839Y331540D01*
X199900Y331536D01*
X199920Y331532D01*
X199940Y331534D01*
X200000Y331530D01*
X202603Y331530D01*
X206841Y329774D01*
X210084Y326531D01*
X211840Y322293D01*
X211840Y317618D01*
X211852Y317520D01*
X211855Y317421D01*
X211872Y317363D01*
X211880Y317303D01*
X211916Y317210D01*
X211944Y317115D01*
X211974Y317063D01*
X211997Y317007D01*
X212055Y316927D01*
X212105Y316841D01*
X212171Y316766D01*
X212183Y316750D01*
X212193Y316742D01*
X212211Y316721D01*
X215850Y313082D01*
X215897Y313045D01*
X215938Y313002D01*
X216022Y312948D01*
X216101Y312887D01*
X216156Y312863D01*
X216207Y312831D01*
X216301Y312801D01*
X216393Y312761D01*
X216452Y312751D01*
X216509Y312733D01*
X216609Y312727D01*
X216707Y312711D01*
X216767Y312717D01*
X216827Y312713D01*
X216925Y312732D01*
X217024Y312741D01*
X217080Y312761D01*
X217139Y312772D01*
X217229Y312815D01*
X217323Y312848D01*
X217373Y312882D01*
X217427Y312908D01*
X217504Y312971D01*
X217586Y313027D01*
X217626Y313072D01*
X217672Y313110D01*
X217731Y313191D01*
X217797Y313265D01*
X217824Y313319D01*
X217859Y313367D01*
X217896Y313460D01*
X217941Y313549D01*
X217954Y313607D01*
X217977Y313663D01*
X217989Y313762D01*
X218011Y313859D01*
X218009Y313919D01*
X218017Y313979D01*
X218004Y314077D01*
X218001Y314177D01*
X217985Y314235D01*
X217977Y314294D01*
X217941Y314387D01*
X217913Y314482D01*
X217882Y314534D01*
X217860Y314590D01*
X217774Y314726D01*
X217752Y314756D01*
X217037Y316159D01*
X216569Y317601D01*
X223911Y317601D01*
X223911Y310259D01*
X222469Y310727D01*
X221066Y311442D01*
X221036Y311464D01*
X220983Y311493D01*
X220936Y311530D01*
X220844Y311569D01*
X220757Y311617D01*
X220699Y311632D01*
X220644Y311656D01*
X220546Y311672D01*
X220449Y311697D01*
X220389Y311697D01*
X220330Y311706D01*
X220231Y311697D01*
X220131Y311697D01*
X220073Y311682D01*
X220013Y311676D01*
X219919Y311642D01*
X219823Y311618D01*
X219771Y311589D01*
X219714Y311569D01*
X219632Y311513D01*
X219544Y311465D01*
X219501Y311424D01*
X219451Y311390D01*
X219385Y311315D01*
X219312Y311247D01*
X219280Y311197D01*
X219240Y311152D01*
X219195Y311063D01*
X219142Y310979D01*
X219123Y310922D01*
X219096Y310868D01*
X219074Y310771D01*
X219043Y310676D01*
X219039Y310617D01*
X219026Y310558D01*
X219029Y310459D01*
X219023Y310359D01*
X219034Y310300D01*
X219036Y310240D01*
X219064Y310144D01*
X219082Y310047D01*
X219108Y309992D01*
X219124Y309935D01*
X219175Y309849D01*
X219217Y309759D01*
X219255Y309712D01*
X219286Y309661D01*
X219392Y309540D01*
X222464Y306468D01*
X222542Y306408D01*
X222614Y306340D01*
X222667Y306311D01*
X222715Y306274D01*
X222806Y306234D01*
X222892Y306186D01*
X222951Y306171D01*
X223007Y306147D01*
X223105Y306132D01*
X223200Y306107D01*
X223300Y306101D01*
X223321Y306097D01*
X223333Y306099D01*
X223361Y306097D01*
X241523Y306097D01*
X243764Y305169D01*
X245657Y303275D01*
X255764Y293168D01*
X255842Y293108D01*
X255914Y293040D01*
X255967Y293011D01*
X256015Y292974D01*
X256106Y292934D01*
X256192Y292886D01*
X256251Y292871D01*
X256307Y292847D01*
X256405Y292832D01*
X256500Y292807D01*
X256600Y292801D01*
X256621Y292797D01*
X256633Y292799D01*
X256661Y292797D01*
X340143Y292797D01*
X342384Y291869D01*
X424749Y209504D01*
X425677Y207263D01*
X425677Y176183D01*
X425689Y176085D01*
X425692Y175986D01*
X425709Y175928D01*
X425717Y175868D01*
X425753Y175776D01*
X425781Y175681D01*
X425811Y175629D01*
X425834Y175572D01*
X425892Y175492D01*
X425942Y175407D01*
X426008Y175331D01*
X426020Y175315D01*
X426030Y175307D01*
X426048Y175286D01*
X428994Y172340D01*
X430685Y168259D01*
X430685Y163841D01*
X428994Y159760D01*
X427498Y158263D01*
X427413Y158154D01*
X427324Y158047D01*
X427315Y158028D01*
X427303Y158012D01*
X427248Y157884D01*
X427189Y157759D01*
X427185Y157739D01*
X427177Y157720D01*
X427155Y157582D01*
X427129Y157446D01*
X427130Y157426D01*
X427127Y157406D01*
X427140Y157267D01*
X427148Y157129D01*
X427155Y157110D01*
X427157Y157090D01*
X427204Y156958D01*
X427247Y156827D01*
X427257Y156809D01*
X427264Y156790D01*
X427342Y156675D01*
X427417Y156558D01*
X427431Y156544D01*
X427443Y156527D01*
X427547Y156435D01*
X427648Y156340D01*
X427666Y156330D01*
X427681Y156317D01*
X427805Y156253D01*
X427927Y156186D01*
X427946Y156181D01*
X427964Y156172D01*
X428100Y156142D01*
X428235Y156107D01*
X428263Y156105D01*
X428275Y156102D01*
X428295Y156103D01*
X428395Y156097D01*
X437899Y156097D01*
X437997Y156109D01*
X438096Y156112D01*
X438154Y156129D01*
X438214Y156137D01*
X438307Y156173D01*
X438402Y156201D01*
X438454Y156231D01*
X438510Y156254D01*
X438590Y156312D01*
X438676Y156362D01*
X438751Y156428D01*
X438767Y156440D01*
X438775Y156450D01*
X438796Y156468D01*
X445524Y163196D01*
X445584Y163274D01*
X445652Y163346D01*
X445681Y163399D01*
X445718Y163447D01*
X445758Y163538D01*
X445806Y163624D01*
X445821Y163683D01*
X445845Y163739D01*
X445860Y163837D01*
X445885Y163932D01*
X445891Y164032D01*
X445895Y164053D01*
X445893Y164065D01*
X445895Y164093D01*
X445895Y168259D01*
X447586Y172340D01*
X450710Y175464D01*
X454791Y177155D01*
X459209Y177155D01*
X463290Y175464D01*
X466414Y172340D01*
X468105Y168259D01*
X468105Y163841D01*
X466414Y159760D01*
X463290Y156636D01*
X459209Y154945D01*
X455043Y154945D01*
X454945Y154933D01*
X454846Y154930D01*
X454788Y154913D01*
X454728Y154905D01*
X454635Y154869D01*
X454540Y154841D01*
X454488Y154811D01*
X454432Y154788D01*
X454352Y154730D01*
X454266Y154680D01*
X454191Y154614D01*
X454175Y154602D01*
X454167Y154592D01*
X454146Y154574D01*
X444404Y144831D01*
X442163Y143903D01*
X379627Y143903D01*
X377386Y144831D01*
X375671Y146546D01*
X374743Y148787D01*
X374743Y155025D01*
X374737Y155075D01*
X374739Y155124D01*
X374717Y155232D01*
X374703Y155341D01*
X374685Y155387D01*
X374675Y155436D01*
X374627Y155534D01*
X374586Y155636D01*
X374557Y155677D01*
X374535Y155721D01*
X374464Y155805D01*
X374400Y155894D01*
X374361Y155925D01*
X374329Y155963D01*
X374239Y156026D01*
X374155Y156097D01*
X374110Y156118D01*
X374069Y156146D01*
X373966Y156185D01*
X373867Y156232D01*
X373818Y156241D01*
X373772Y156259D01*
X373662Y156271D01*
X373555Y156292D01*
X373505Y156289D01*
X373456Y156294D01*
X373347Y156279D01*
X373237Y156272D01*
X373190Y156257D01*
X373141Y156250D01*
X372988Y156198D01*
X370399Y155125D01*
X365981Y155125D01*
X361900Y156816D01*
X358776Y159940D01*
X357085Y164021D01*
X357085Y167894D01*
X357070Y168012D01*
X357063Y168131D01*
X357050Y168169D01*
X357045Y168210D01*
X357002Y168320D01*
X356965Y168433D01*
X356943Y168468D01*
X356928Y168505D01*
X356859Y168601D01*
X356795Y168702D01*
X356765Y168730D01*
X356742Y168763D01*
X356650Y168839D01*
X356563Y168920D01*
X356528Y168940D01*
X356497Y168965D01*
X356389Y169016D01*
X356285Y169074D01*
X356245Y169084D01*
X356209Y169101D01*
X356092Y169123D01*
X355977Y169153D01*
X355917Y169157D01*
X355897Y169161D01*
X355876Y169159D01*
X355816Y169163D01*
X288323Y169163D01*
X288224Y169151D01*
X288125Y169148D01*
X288067Y169131D01*
X288007Y169123D01*
X287915Y169087D01*
X287820Y169059D01*
X287768Y169029D01*
X287712Y169006D01*
X287631Y168948D01*
X287546Y168897D01*
X287503Y168855D01*
X287454Y168820D01*
X287391Y168743D01*
X287321Y168673D01*
X287290Y168621D01*
X287252Y168575D01*
X287209Y168485D01*
X287159Y168399D01*
X287142Y168341D01*
X287116Y168287D01*
X287097Y168189D01*
X287070Y168094D01*
X287068Y168034D01*
X287056Y167975D01*
X287062Y167875D01*
X287059Y167776D01*
X287072Y167717D01*
X287076Y167657D01*
X287107Y167563D01*
X287128Y167466D01*
X287168Y167374D01*
X287174Y167355D01*
X287181Y167344D01*
X287192Y167318D01*
X287573Y166571D01*
X288041Y165129D01*
X279430Y165129D01*
X279312Y165114D01*
X279193Y165107D01*
X279155Y165094D01*
X279115Y165089D01*
X279004Y165046D01*
X278891Y165009D01*
X278857Y164987D01*
X278819Y164972D01*
X278723Y164903D01*
X278622Y164839D01*
X278594Y164809D01*
X278562Y164786D01*
X278486Y164694D01*
X278404Y164607D01*
X278385Y164572D01*
X278359Y164541D01*
X278308Y164433D01*
X278303Y164424D01*
X278297Y164434D01*
X278282Y164471D01*
X278212Y164567D01*
X278149Y164668D01*
X278119Y164696D01*
X278095Y164729D01*
X278004Y164805D01*
X277917Y164886D01*
X277882Y164906D01*
X277850Y164931D01*
X277743Y164982D01*
X277638Y165040D01*
X277599Y165050D01*
X277563Y165067D01*
X277446Y165089D01*
X277330Y165119D01*
X277270Y165123D01*
X277250Y165127D01*
X277230Y165125D01*
X277170Y165129D01*
X268559Y165129D01*
X269027Y166571D01*
X269408Y167318D01*
X269442Y167411D01*
X269484Y167501D01*
X269495Y167560D01*
X269516Y167617D01*
X269525Y167716D01*
X269544Y167814D01*
X269540Y167874D01*
X269546Y167934D01*
X269530Y168032D01*
X269524Y168131D01*
X269505Y168188D01*
X269496Y168248D01*
X269457Y168339D01*
X269426Y168433D01*
X269394Y168484D01*
X269370Y168540D01*
X269309Y168618D01*
X269256Y168702D01*
X269212Y168743D01*
X269175Y168791D01*
X269097Y168852D01*
X269024Y168920D01*
X268971Y168949D01*
X268924Y168986D01*
X268833Y169026D01*
X268746Y169074D01*
X268687Y169089D01*
X268632Y169113D01*
X268534Y169128D01*
X268438Y169153D01*
X268338Y169159D01*
X268318Y169163D01*
X268306Y169161D01*
X268277Y169163D01*
X123527Y169163D01*
X121286Y170091D01*
X74831Y216546D01*
X73903Y218787D01*
X73903Y243649D01*
X73891Y243747D01*
X73888Y243846D01*
X73871Y243904D01*
X73863Y243964D01*
X73827Y244057D01*
X73799Y244152D01*
X73769Y244204D01*
X73746Y244260D01*
X73688Y244340D01*
X73638Y244426D01*
X73572Y244501D01*
X73560Y244517D01*
X73550Y244525D01*
X73532Y244546D01*
X63771Y254306D01*
X63662Y254392D01*
X63555Y254480D01*
X63536Y254489D01*
X63520Y254501D01*
X63392Y254557D01*
X63267Y254616D01*
X63247Y254620D01*
X63228Y254628D01*
X63090Y254650D01*
X62954Y254676D01*
X62934Y254674D01*
X62914Y254678D01*
X62775Y254664D01*
X62637Y254656D01*
X62618Y254650D01*
X62598Y254648D01*
X62466Y254601D01*
X62335Y254558D01*
X62317Y254547D01*
X62298Y254540D01*
X62183Y254462D01*
X62066Y254388D01*
X62052Y254373D01*
X62035Y254362D01*
X61943Y254258D01*
X61848Y254156D01*
X61838Y254138D01*
X61825Y254123D01*
X61761Y253999D01*
X61694Y253878D01*
X61689Y253858D01*
X61680Y253840D01*
X61650Y253704D01*
X61615Y253570D01*
X61613Y253542D01*
X61610Y253530D01*
X61611Y253509D01*
X61605Y253409D01*
X61605Y252172D01*
X59838Y247906D01*
X56574Y244642D01*
X52308Y242875D01*
X47692Y242875D01*
X43426Y244642D01*
X40537Y247532D01*
X40459Y247592D01*
X40387Y247660D01*
X40334Y247689D01*
X40286Y247726D01*
X40195Y247766D01*
X40108Y247814D01*
X40049Y247829D01*
X39994Y247853D01*
X39896Y247868D01*
X39800Y247893D01*
X39700Y247899D01*
X39680Y247903D01*
X39667Y247901D01*
X39639Y247903D01*
X33077Y247903D01*
X30836Y248831D01*
X14411Y265256D01*
X13483Y267497D01*
X13483Y307201D01*
X13468Y307319D01*
X13461Y307438D01*
X13449Y307476D01*
X13443Y307517D01*
X13400Y307627D01*
X13363Y307740D01*
X13341Y307775D01*
X13326Y307812D01*
X13257Y307908D01*
X13193Y308009D01*
X13163Y308037D01*
X13140Y308070D01*
X13048Y308146D01*
X12961Y308227D01*
X12926Y308247D01*
X12895Y308272D01*
X12787Y308323D01*
X12683Y308381D01*
X12643Y308391D01*
X12607Y308408D01*
X12490Y308430D01*
X12375Y308460D01*
X12315Y308464D01*
X12295Y308468D01*
X12274Y308466D01*
X12214Y308470D01*
X11430Y308470D01*
X11312Y308455D01*
X11193Y308448D01*
X11155Y308435D01*
X11114Y308430D01*
X11004Y308387D01*
X10891Y308350D01*
X10856Y308328D01*
X10819Y308313D01*
X10723Y308244D01*
X10622Y308180D01*
X10594Y308150D01*
X10561Y308127D01*
X10485Y308035D01*
X10404Y307948D01*
X10384Y307913D01*
X10359Y307882D01*
X10308Y307774D01*
X10250Y307670D01*
X10240Y307630D01*
X10223Y307594D01*
X10201Y307477D01*
X10171Y307362D01*
X10167Y307302D01*
X10163Y307282D01*
X10165Y307261D01*
X10164Y307248D01*
X10163Y307246D01*
X10163Y307243D01*
X10161Y307201D01*
X10161Y41167D01*
X10169Y41098D01*
X10168Y41028D01*
X10189Y40941D01*
X10201Y40852D01*
X10226Y40787D01*
X10243Y40719D01*
X10285Y40639D01*
X10318Y40556D01*
X10359Y40499D01*
X10391Y40438D01*
X10452Y40371D01*
X10504Y40299D01*
X10558Y40254D01*
X10605Y40202D01*
X10680Y40153D01*
X10749Y40096D01*
X10813Y40066D01*
X10871Y40028D01*
X10956Y39999D01*
X11037Y39960D01*
X11106Y39947D01*
X11172Y39924D01*
X11261Y39917D01*
X11349Y39900D01*
X11419Y39905D01*
X11489Y39899D01*
X11577Y39915D01*
X11667Y39920D01*
X11733Y39942D01*
X11802Y39954D01*
X11884Y39991D01*
X11969Y40018D01*
X12028Y40056D01*
X12092Y40084D01*
X12162Y40140D01*
X12238Y40188D01*
X12286Y40239D01*
X12340Y40283D01*
X12394Y40355D01*
X12456Y40420D01*
X12490Y40481D01*
X12532Y40537D01*
X12603Y40681D01*
X12909Y41420D01*
X18580Y47091D01*
X25990Y50161D01*
X34010Y50161D01*
X41420Y47091D01*
X47091Y41420D01*
X50161Y34010D01*
X50161Y25990D01*
X47091Y18580D01*
X41420Y12909D01*
X40681Y12603D01*
X40621Y12568D01*
X40556Y12542D01*
X40483Y12490D01*
X40405Y12445D01*
X40355Y12397D01*
X40299Y12356D01*
X40241Y12286D01*
X40177Y12224D01*
X40140Y12164D01*
X40096Y12111D01*
X40058Y12029D01*
X40011Y11953D01*
X39990Y11886D01*
X39960Y11823D01*
X39943Y11735D01*
X39917Y11649D01*
X39914Y11579D01*
X39900Y11510D01*
X39906Y11421D01*
X39902Y11331D01*
X39916Y11263D01*
X39920Y11193D01*
X39948Y11108D01*
X39966Y11020D01*
X39997Y10957D01*
X40018Y10891D01*
X40066Y10815D01*
X40106Y10734D01*
X40151Y10681D01*
X40188Y10622D01*
X40254Y10560D01*
X40312Y10492D01*
X40369Y10452D01*
X40420Y10404D01*
X40499Y10361D01*
X40572Y10309D01*
X40637Y10284D01*
X40699Y10250D01*
X40786Y10228D01*
X40869Y10196D01*
X40939Y10188D01*
X41006Y10171D01*
X41167Y10161D01*
X108153Y10161D01*
X108291Y10178D01*
G37*
G36*
X425273Y335828D02*
X425273Y335828D01*
X425411Y335836D01*
X425430Y335842D01*
X425450Y335844D01*
X425582Y335891D01*
X425713Y335934D01*
X425731Y335945D01*
X425750Y335952D01*
X425865Y336030D01*
X425982Y336104D01*
X425996Y336119D01*
X426013Y336130D01*
X426105Y336235D01*
X426200Y336336D01*
X426210Y336354D01*
X426223Y336369D01*
X426287Y336493D01*
X426354Y336614D01*
X426359Y336634D01*
X426368Y336652D01*
X426398Y336788D01*
X426433Y336922D01*
X426435Y336950D01*
X426438Y336962D01*
X426437Y336983D01*
X426443Y337083D01*
X426443Y404863D01*
X427371Y407104D01*
X482564Y462296D01*
X482624Y462374D01*
X482692Y462446D01*
X482721Y462499D01*
X482758Y462547D01*
X482798Y462638D01*
X482846Y462724D01*
X482861Y462783D01*
X482885Y462839D01*
X482900Y462937D01*
X482925Y463032D01*
X482931Y463132D01*
X482935Y463153D01*
X482933Y463165D01*
X482935Y463193D01*
X482935Y467239D01*
X484550Y471137D01*
X487645Y474232D01*
X487718Y474327D01*
X487797Y474416D01*
X487815Y474452D01*
X487840Y474484D01*
X487887Y474593D01*
X487942Y474699D01*
X487950Y474738D01*
X487966Y474776D01*
X487985Y474893D01*
X488011Y475009D01*
X488010Y475050D01*
X488016Y475090D01*
X488005Y475208D01*
X488002Y475327D01*
X487990Y475366D01*
X487986Y475406D01*
X487946Y475519D01*
X487913Y475633D01*
X487893Y475667D01*
X487879Y475706D01*
X487812Y475804D01*
X487752Y475907D01*
X487712Y475952D01*
X487700Y475969D01*
X487685Y475982D01*
X487645Y476027D01*
X484550Y479123D01*
X482935Y483021D01*
X482935Y487239D01*
X483878Y489514D01*
X483886Y489544D01*
X483886Y489545D01*
X483891Y489562D01*
X483912Y489607D01*
X483932Y489715D01*
X483961Y489821D01*
X483962Y489871D01*
X483972Y489920D01*
X483965Y490029D01*
X483967Y490139D01*
X483955Y490187D01*
X483952Y490237D01*
X483918Y490341D01*
X483892Y490448D01*
X483869Y490492D01*
X483854Y490539D01*
X483795Y490632D01*
X483744Y490729D01*
X483710Y490766D01*
X483684Y490808D01*
X483604Y490883D01*
X483530Y490965D01*
X483488Y490992D01*
X483452Y491026D01*
X483356Y491079D01*
X483264Y491139D01*
X483217Y491156D01*
X483174Y491180D01*
X483067Y491207D01*
X482963Y491243D01*
X482914Y491247D01*
X482866Y491259D01*
X482705Y491269D01*
X356927Y491269D01*
X356790Y491252D01*
X356651Y491239D01*
X356632Y491232D01*
X356612Y491229D01*
X356483Y491178D01*
X356351Y491131D01*
X356335Y491120D01*
X356316Y491112D01*
X356204Y491031D01*
X356088Y490953D01*
X356075Y490937D01*
X356059Y490926D01*
X355970Y490818D01*
X355878Y490714D01*
X355869Y490696D01*
X355856Y490681D01*
X355797Y490555D01*
X355733Y490431D01*
X355729Y490411D01*
X355720Y490393D01*
X355694Y490257D01*
X355664Y490121D01*
X355664Y490100D01*
X355660Y490081D01*
X355669Y489942D01*
X355673Y489803D01*
X355679Y489783D01*
X355680Y489763D01*
X355723Y489631D01*
X355762Y489497D01*
X355772Y489480D01*
X355778Y489461D01*
X355853Y489343D01*
X355923Y489223D01*
X355942Y489202D01*
X355948Y489192D01*
X355963Y489178D01*
X356030Y489103D01*
X356717Y488415D01*
X382813Y462319D01*
X382836Y462301D01*
X382856Y462278D01*
X382962Y462204D01*
X383064Y462124D01*
X383092Y462112D01*
X383116Y462095D01*
X383237Y462049D01*
X383356Y461998D01*
X383385Y461993D01*
X383413Y461983D01*
X383542Y461968D01*
X383670Y461948D01*
X383700Y461951D01*
X383729Y461947D01*
X383858Y461965D01*
X383987Y461978D01*
X384015Y461988D01*
X384044Y461992D01*
X384196Y462044D01*
X384942Y462353D01*
X390298Y462353D01*
X395246Y460303D01*
X399033Y456516D01*
X399147Y456240D01*
X399216Y456120D01*
X399281Y455997D01*
X399295Y455982D01*
X399305Y455964D01*
X399401Y455865D01*
X399495Y455761D01*
X399512Y455750D01*
X399526Y455736D01*
X399645Y455663D01*
X399761Y455587D01*
X399780Y455580D01*
X399797Y455569D01*
X399930Y455528D01*
X400062Y455483D01*
X400082Y455482D01*
X400101Y455476D01*
X400240Y455469D01*
X400379Y455458D01*
X400399Y455462D01*
X400419Y455461D01*
X400555Y455489D01*
X400692Y455512D01*
X400711Y455521D01*
X400730Y455525D01*
X400855Y455586D01*
X400982Y455643D01*
X400998Y455656D01*
X401016Y455665D01*
X401122Y455755D01*
X401230Y455842D01*
X401243Y455858D01*
X401258Y455871D01*
X401338Y455985D01*
X401422Y456096D01*
X401434Y456121D01*
X401441Y456131D01*
X401448Y456150D01*
X401493Y456240D01*
X401607Y456516D01*
X405394Y460303D01*
X410342Y462353D01*
X415698Y462353D01*
X420646Y460303D01*
X424433Y456516D01*
X425385Y454217D01*
X425430Y454139D01*
X425465Y454057D01*
X425508Y454002D01*
X425543Y453941D01*
X425605Y453876D01*
X425660Y453806D01*
X425715Y453763D01*
X425764Y453712D01*
X425841Y453665D01*
X425911Y453611D01*
X425976Y453583D01*
X426035Y453546D01*
X426121Y453520D01*
X426203Y453484D01*
X426272Y453473D01*
X426339Y453452D01*
X426429Y453448D01*
X426517Y453434D01*
X426587Y453441D01*
X426657Y453437D01*
X426745Y453455D01*
X426834Y453464D01*
X426900Y453487D01*
X426968Y453502D01*
X427049Y453541D01*
X427133Y453571D01*
X427191Y453611D01*
X427254Y453641D01*
X427322Y453700D01*
X427396Y453750D01*
X427443Y453802D01*
X427496Y453848D01*
X427548Y453921D01*
X427607Y453988D01*
X427671Y454095D01*
X427679Y454108D01*
X427682Y454114D01*
X427689Y454127D01*
X428209Y455147D01*
X429314Y456668D01*
X430642Y457996D01*
X432163Y459101D01*
X433837Y459954D01*
X435624Y460535D01*
X435881Y460575D01*
X435881Y450160D01*
X435896Y450042D01*
X435903Y449923D01*
X435916Y449885D01*
X435921Y449845D01*
X435964Y449734D01*
X436001Y449621D01*
X436023Y449587D01*
X436038Y449549D01*
X436108Y449453D01*
X436171Y449352D01*
X436201Y449324D01*
X436224Y449292D01*
X436316Y449216D01*
X436403Y449134D01*
X436438Y449115D01*
X436469Y449089D01*
X436577Y449038D01*
X436681Y448981D01*
X436721Y448970D01*
X436757Y448953D01*
X436874Y448931D01*
X436989Y448901D01*
X437050Y448897D01*
X437070Y448893D01*
X437090Y448895D01*
X437150Y448891D01*
X438421Y448891D01*
X438421Y448889D01*
X437150Y448889D01*
X437032Y448874D01*
X436913Y448867D01*
X436875Y448854D01*
X436834Y448849D01*
X436724Y448805D01*
X436611Y448769D01*
X436576Y448747D01*
X436539Y448732D01*
X436443Y448662D01*
X436342Y448599D01*
X436314Y448569D01*
X436281Y448545D01*
X436206Y448454D01*
X436124Y448367D01*
X436104Y448332D01*
X436079Y448300D01*
X436028Y448193D01*
X435970Y448088D01*
X435960Y448049D01*
X435943Y448013D01*
X435921Y447896D01*
X435891Y447781D01*
X435887Y447720D01*
X435883Y447700D01*
X435885Y447680D01*
X435881Y447620D01*
X435881Y437205D01*
X435624Y437245D01*
X433837Y437826D01*
X432163Y438679D01*
X430642Y439784D01*
X429314Y441112D01*
X428209Y442633D01*
X427689Y443653D01*
X427639Y443727D01*
X427597Y443807D01*
X427550Y443859D01*
X427510Y443917D01*
X427443Y443976D01*
X427383Y444042D01*
X427324Y444081D01*
X427272Y444127D01*
X427192Y444167D01*
X427117Y444217D01*
X427051Y444240D01*
X426988Y444271D01*
X426901Y444291D01*
X426816Y444320D01*
X426746Y444326D01*
X426678Y444341D01*
X426589Y444338D01*
X426499Y444345D01*
X426430Y444333D01*
X426360Y444331D01*
X426274Y444306D01*
X426186Y444291D01*
X426122Y444262D01*
X426055Y444242D01*
X425978Y444197D01*
X425896Y444160D01*
X425841Y444116D01*
X425781Y444081D01*
X425718Y444017D01*
X425648Y443962D01*
X425606Y443906D01*
X425556Y443856D01*
X425510Y443779D01*
X425456Y443708D01*
X425401Y443595D01*
X425394Y443582D01*
X425392Y443576D01*
X425385Y443563D01*
X424433Y441264D01*
X420646Y437477D01*
X415698Y435427D01*
X410342Y435427D01*
X405394Y437477D01*
X401607Y441264D01*
X401493Y441540D01*
X401424Y441661D01*
X401359Y441783D01*
X401345Y441798D01*
X401335Y441816D01*
X401238Y441916D01*
X401145Y442019D01*
X401128Y442030D01*
X401114Y442044D01*
X400996Y442117D01*
X400879Y442194D01*
X400860Y442200D01*
X400843Y442211D01*
X400710Y442252D01*
X400578Y442297D01*
X400558Y442298D01*
X400539Y442304D01*
X400400Y442311D01*
X400261Y442322D01*
X400241Y442318D01*
X400221Y442319D01*
X400085Y442291D01*
X399948Y442267D01*
X399929Y442259D01*
X399910Y442255D01*
X399784Y442194D01*
X399658Y442137D01*
X399642Y442124D01*
X399624Y442115D01*
X399518Y442025D01*
X399409Y441938D01*
X399397Y441922D01*
X399382Y441909D01*
X399301Y441795D01*
X399218Y441684D01*
X399206Y441659D01*
X399199Y441649D01*
X399192Y441630D01*
X399147Y441540D01*
X399033Y441264D01*
X395246Y437477D01*
X394500Y437168D01*
X394475Y437153D01*
X394447Y437144D01*
X394337Y437075D01*
X394224Y437010D01*
X394203Y436990D01*
X394178Y436974D01*
X394089Y436879D01*
X393996Y436789D01*
X393980Y436764D01*
X393960Y436742D01*
X393897Y436629D01*
X393829Y436518D01*
X393821Y436490D01*
X393806Y436464D01*
X393774Y436338D01*
X393736Y436214D01*
X393734Y436185D01*
X393727Y436156D01*
X393717Y435995D01*
X393717Y410567D01*
X392789Y408326D01*
X350681Y366219D01*
X350621Y366141D01*
X350553Y366069D01*
X350524Y366016D01*
X350487Y365968D01*
X350447Y365877D01*
X350399Y365791D01*
X350384Y365732D01*
X350360Y365676D01*
X350345Y365578D01*
X350320Y365483D01*
X350314Y365383D01*
X350310Y365362D01*
X350312Y365350D01*
X350310Y365322D01*
X350310Y352971D01*
X349772Y352433D01*
X349687Y352324D01*
X349598Y352217D01*
X349589Y352198D01*
X349577Y352182D01*
X349522Y352054D01*
X349462Y351929D01*
X349459Y351909D01*
X349451Y351890D01*
X349429Y351752D01*
X349403Y351616D01*
X349404Y351596D01*
X349401Y351576D01*
X349414Y351437D01*
X349422Y351299D01*
X349429Y351280D01*
X349431Y351260D01*
X349478Y351128D01*
X349520Y350997D01*
X349531Y350979D01*
X349538Y350960D01*
X349616Y350845D01*
X349691Y350728D01*
X349705Y350714D01*
X349717Y350697D01*
X349821Y350605D01*
X349922Y350510D01*
X349940Y350500D01*
X349955Y350487D01*
X350079Y350424D01*
X350201Y350356D01*
X350220Y350351D01*
X350238Y350342D01*
X350374Y350312D01*
X350509Y350277D01*
X350537Y350275D01*
X350549Y350272D01*
X350569Y350273D01*
X350669Y350267D01*
X408883Y350267D01*
X411124Y349339D01*
X413017Y347445D01*
X422855Y337607D01*
X424277Y336186D01*
X424386Y336101D01*
X424493Y336012D01*
X424512Y336003D01*
X424528Y335991D01*
X424655Y335935D01*
X424781Y335876D01*
X424801Y335872D01*
X424820Y335864D01*
X424958Y335842D01*
X425094Y335816D01*
X425114Y335818D01*
X425134Y335814D01*
X425273Y335828D01*
G37*
G36*
X99258Y285989D02*
X99258Y285989D01*
X99357Y285992D01*
X99415Y286009D01*
X99475Y286017D01*
X99567Y286053D01*
X99662Y286081D01*
X99714Y286111D01*
X99771Y286134D01*
X99851Y286192D01*
X99936Y286242D01*
X100011Y286308D01*
X100028Y286320D01*
X100036Y286330D01*
X100057Y286348D01*
X103426Y289718D01*
X105846Y290720D01*
X105889Y290745D01*
X105936Y290762D01*
X106027Y290823D01*
X106122Y290878D01*
X106158Y290912D01*
X106199Y290940D01*
X106272Y291023D01*
X106351Y291099D01*
X106376Y291141D01*
X106409Y291179D01*
X106459Y291276D01*
X106517Y291370D01*
X106531Y291418D01*
X106554Y291462D01*
X106578Y291569D01*
X106610Y291674D01*
X106613Y291724D01*
X106624Y291772D01*
X106620Y291882D01*
X106626Y291992D01*
X106615Y292040D01*
X106614Y292090D01*
X106583Y292195D01*
X106561Y292303D01*
X106539Y292348D01*
X106526Y292396D01*
X106470Y292490D01*
X106422Y292589D01*
X106389Y292627D01*
X106364Y292669D01*
X106258Y292790D01*
X91511Y307536D01*
X91449Y307687D01*
X91442Y307699D01*
X91440Y307705D01*
X91434Y307715D01*
X91425Y307740D01*
X91356Y307850D01*
X91292Y307963D01*
X91271Y307984D01*
X91255Y308009D01*
X91161Y308098D01*
X91070Y308191D01*
X91045Y308207D01*
X91024Y308227D01*
X90910Y308290D01*
X90799Y308358D01*
X90771Y308366D01*
X90745Y308381D01*
X90620Y308413D01*
X90495Y308451D01*
X90466Y308453D01*
X90437Y308460D01*
X90277Y308470D01*
X87531Y308470D01*
X85150Y310851D01*
X85150Y322382D01*
X85138Y322480D01*
X85135Y322579D01*
X85118Y322637D01*
X85110Y322697D01*
X85074Y322790D01*
X85046Y322885D01*
X85016Y322937D01*
X84993Y322993D01*
X84935Y323073D01*
X84885Y323159D01*
X84848Y323201D01*
X84845Y323204D01*
X84841Y323209D01*
X84819Y323234D01*
X84807Y323250D01*
X84797Y323258D01*
X84779Y323279D01*
X82972Y325086D01*
X82956Y325098D01*
X82943Y325114D01*
X82831Y325196D01*
X82720Y325281D01*
X82702Y325289D01*
X82686Y325301D01*
X82557Y325352D01*
X82429Y325407D01*
X82409Y325411D01*
X82390Y325418D01*
X82252Y325435D01*
X82115Y325457D01*
X82095Y325455D01*
X82075Y325458D01*
X81937Y325441D01*
X81798Y325427D01*
X81779Y325421D01*
X81759Y325418D01*
X81630Y325367D01*
X81499Y325320D01*
X81482Y325309D01*
X81464Y325301D01*
X81351Y325220D01*
X81235Y325141D01*
X81222Y325126D01*
X81206Y325115D01*
X81117Y325007D01*
X81025Y324903D01*
X81016Y324885D01*
X81003Y324870D01*
X80944Y324743D01*
X80880Y324620D01*
X80876Y324600D01*
X80868Y324582D01*
X80841Y324445D01*
X80811Y324309D01*
X80811Y324289D01*
X80808Y324270D01*
X80816Y324131D01*
X80820Y323991D01*
X80826Y323972D01*
X80827Y323952D01*
X80867Y323796D01*
X81321Y322399D01*
X72710Y322399D01*
X72592Y322384D01*
X72473Y322377D01*
X72435Y322364D01*
X72395Y322359D01*
X72284Y322316D01*
X72171Y322279D01*
X72137Y322257D01*
X72099Y322242D01*
X72003Y322173D01*
X71902Y322109D01*
X71874Y322079D01*
X71842Y322056D01*
X71766Y321964D01*
X71684Y321877D01*
X71665Y321842D01*
X71639Y321811D01*
X71588Y321703D01*
X71531Y321599D01*
X71521Y321559D01*
X71503Y321523D01*
X71481Y321406D01*
X71451Y321291D01*
X71447Y321231D01*
X71444Y321211D01*
X71444Y321208D01*
X71444Y321207D01*
X71445Y321189D01*
X71441Y321130D01*
X71441Y320139D01*
X70450Y320139D01*
X70332Y320124D01*
X70213Y320117D01*
X70175Y320104D01*
X70134Y320099D01*
X70024Y320055D01*
X69911Y320019D01*
X69876Y319997D01*
X69839Y319982D01*
X69742Y319912D01*
X69642Y319849D01*
X69614Y319819D01*
X69581Y319795D01*
X69505Y319704D01*
X69424Y319617D01*
X69404Y319582D01*
X69379Y319550D01*
X69328Y319443D01*
X69270Y319338D01*
X69260Y319299D01*
X69243Y319263D01*
X69221Y319146D01*
X69191Y319030D01*
X69187Y318970D01*
X69183Y318950D01*
X69185Y318930D01*
X69181Y318870D01*
X69181Y310259D01*
X67739Y310727D01*
X66336Y311442D01*
X65262Y312223D01*
X65227Y312242D01*
X65197Y312267D01*
X65088Y312318D01*
X64983Y312376D01*
X64945Y312386D01*
X64909Y312403D01*
X64792Y312425D01*
X64675Y312455D01*
X64635Y312455D01*
X64596Y312462D01*
X64477Y312455D01*
X64357Y312455D01*
X64319Y312445D01*
X64279Y312443D01*
X64165Y312406D01*
X64049Y312376D01*
X64014Y312357D01*
X63977Y312345D01*
X63875Y312281D01*
X63770Y312223D01*
X63741Y312196D01*
X63708Y312174D01*
X63626Y312087D01*
X63539Y312005D01*
X63517Y311972D01*
X63490Y311943D01*
X63432Y311838D01*
X63368Y311737D01*
X63356Y311699D01*
X63336Y311664D01*
X63307Y311548D01*
X63269Y311435D01*
X63267Y311395D01*
X63257Y311356D01*
X63247Y311196D01*
X63247Y287246D01*
X63262Y287128D01*
X63269Y287009D01*
X63282Y286971D01*
X63287Y286930D01*
X63330Y286820D01*
X63367Y286707D01*
X63389Y286672D01*
X63404Y286635D01*
X63473Y286539D01*
X63537Y286438D01*
X63567Y286410D01*
X63590Y286377D01*
X63682Y286301D01*
X63769Y286220D01*
X63804Y286200D01*
X63835Y286175D01*
X63943Y286124D01*
X64047Y286066D01*
X64087Y286056D01*
X64123Y286039D01*
X64240Y286017D01*
X64355Y285987D01*
X64415Y285983D01*
X64435Y285979D01*
X64456Y285981D01*
X64516Y285977D01*
X99159Y285977D01*
X99258Y285989D01*
G37*
G36*
X172855Y302024D02*
X172855Y302024D01*
X172993Y302037D01*
X173012Y302044D01*
X173032Y302047D01*
X173162Y302098D01*
X173293Y302145D01*
X173309Y302156D01*
X173328Y302164D01*
X173440Y302245D01*
X173556Y302323D01*
X173569Y302339D01*
X173586Y302350D01*
X173674Y302458D01*
X173766Y302562D01*
X173775Y302580D01*
X173788Y302595D01*
X173848Y302721D01*
X173911Y302845D01*
X173915Y302865D01*
X173924Y302883D01*
X173950Y303019D01*
X173980Y303155D01*
X173980Y303176D01*
X173984Y303195D01*
X173975Y303334D01*
X173971Y303473D01*
X173965Y303493D01*
X173964Y303513D01*
X173921Y303645D01*
X173882Y303779D01*
X173872Y303796D01*
X173866Y303815D01*
X173791Y303933D01*
X173721Y304053D01*
X173702Y304074D01*
X173696Y304084D01*
X173681Y304098D01*
X173614Y304173D01*
X169689Y308099D01*
X169611Y308159D01*
X169539Y308227D01*
X169486Y308256D01*
X169438Y308293D01*
X169347Y308333D01*
X169261Y308381D01*
X169202Y308396D01*
X169146Y308420D01*
X169048Y308435D01*
X168953Y308460D01*
X168853Y308466D01*
X168832Y308470D01*
X168820Y308468D01*
X168792Y308470D01*
X165161Y308470D01*
X162780Y310851D01*
X162780Y329162D01*
X162819Y329212D01*
X162908Y329319D01*
X162917Y329338D01*
X162929Y329354D01*
X162984Y329482D01*
X163044Y329607D01*
X163047Y329627D01*
X163055Y329646D01*
X163077Y329784D01*
X163103Y329920D01*
X163102Y329940D01*
X163105Y329960D01*
X163092Y330099D01*
X163084Y330237D01*
X163077Y330256D01*
X163075Y330276D01*
X163028Y330408D01*
X162986Y330539D01*
X162975Y330557D01*
X162968Y330576D01*
X162890Y330691D01*
X162815Y330808D01*
X162801Y330822D01*
X162789Y330839D01*
X162685Y330931D01*
X162584Y331026D01*
X162566Y331036D01*
X162551Y331049D01*
X162427Y331112D01*
X162305Y331180D01*
X162286Y331185D01*
X162268Y331194D01*
X162132Y331224D01*
X161997Y331259D01*
X161969Y331261D01*
X161957Y331264D01*
X161937Y331263D01*
X161837Y331269D01*
X153889Y331269D01*
X153869Y331267D01*
X153850Y331269D01*
X153712Y331247D01*
X153574Y331229D01*
X153555Y331222D01*
X153536Y331219D01*
X153408Y331164D01*
X153278Y331112D01*
X153262Y331101D01*
X153244Y331093D01*
X153133Y331007D01*
X153021Y330926D01*
X153008Y330910D01*
X152992Y330898D01*
X152907Y330788D01*
X152818Y330681D01*
X152809Y330663D01*
X152797Y330647D01*
X152742Y330519D01*
X152682Y330393D01*
X152679Y330373D01*
X152671Y330355D01*
X152649Y330217D01*
X152623Y330081D01*
X152624Y330061D01*
X152621Y330041D01*
X152634Y329902D01*
X152642Y329763D01*
X152648Y329744D01*
X152650Y329724D01*
X152697Y329593D01*
X152740Y329461D01*
X152751Y329444D01*
X152758Y329425D01*
X152836Y329310D01*
X152910Y329192D01*
X152925Y329178D01*
X152936Y329162D01*
X153040Y329070D01*
X153142Y328974D01*
X153160Y328964D01*
X153174Y328951D01*
X153313Y328869D01*
X153924Y328558D01*
X155198Y327632D01*
X156312Y326518D01*
X157238Y325244D01*
X157953Y323841D01*
X158421Y322399D01*
X149810Y322399D01*
X149692Y322384D01*
X149573Y322377D01*
X149535Y322364D01*
X149495Y322359D01*
X149384Y322316D01*
X149271Y322279D01*
X149237Y322257D01*
X149199Y322242D01*
X149103Y322173D01*
X149002Y322109D01*
X148974Y322079D01*
X148942Y322056D01*
X148866Y321964D01*
X148784Y321877D01*
X148765Y321842D01*
X148739Y321811D01*
X148688Y321703D01*
X148683Y321694D01*
X148677Y321704D01*
X148662Y321741D01*
X148592Y321837D01*
X148529Y321938D01*
X148499Y321966D01*
X148475Y321999D01*
X148384Y322075D01*
X148297Y322156D01*
X148262Y322176D01*
X148230Y322201D01*
X148123Y322252D01*
X148018Y322310D01*
X147979Y322320D01*
X147943Y322337D01*
X147826Y322359D01*
X147710Y322389D01*
X147650Y322393D01*
X147630Y322397D01*
X147610Y322395D01*
X147550Y322399D01*
X138939Y322399D01*
X139407Y323841D01*
X140122Y325244D01*
X141048Y326518D01*
X142162Y327632D01*
X143436Y328558D01*
X144047Y328869D01*
X144064Y328880D01*
X144082Y328888D01*
X144195Y328969D01*
X144310Y329048D01*
X144323Y329063D01*
X144339Y329074D01*
X144428Y329182D01*
X144520Y329286D01*
X144529Y329304D01*
X144542Y329319D01*
X144601Y329445D01*
X144665Y329570D01*
X144669Y329589D01*
X144678Y329607D01*
X144704Y329744D01*
X144734Y329880D01*
X144734Y329900D01*
X144737Y329920D01*
X144729Y330059D01*
X144725Y330198D01*
X144719Y330217D01*
X144718Y330237D01*
X144675Y330370D01*
X144636Y330503D01*
X144626Y330521D01*
X144620Y330539D01*
X144545Y330657D01*
X144474Y330777D01*
X144460Y330791D01*
X144450Y330808D01*
X144348Y330903D01*
X144250Y331002D01*
X144232Y331012D01*
X144218Y331026D01*
X144095Y331094D01*
X143976Y331164D01*
X143957Y331170D01*
X143939Y331180D01*
X143804Y331214D01*
X143671Y331253D01*
X143651Y331254D01*
X143631Y331259D01*
X143471Y331269D01*
X130780Y331269D01*
X130643Y331252D01*
X130504Y331239D01*
X130485Y331232D01*
X130465Y331229D01*
X130336Y331178D01*
X130205Y331131D01*
X130188Y331120D01*
X130169Y331112D01*
X130057Y331031D01*
X129942Y330953D01*
X129928Y330937D01*
X129912Y330926D01*
X129823Y330818D01*
X129731Y330714D01*
X129722Y330696D01*
X129709Y330681D01*
X129650Y330555D01*
X129587Y330431D01*
X129582Y330411D01*
X129574Y330393D01*
X129548Y330257D01*
X129517Y330121D01*
X129518Y330100D01*
X129514Y330081D01*
X129522Y329942D01*
X129527Y329803D01*
X129532Y329783D01*
X129534Y329763D01*
X129576Y329631D01*
X129615Y329497D01*
X129625Y329480D01*
X129632Y329461D01*
X129706Y329343D01*
X129777Y329223D01*
X129795Y329202D01*
X129802Y329192D01*
X129817Y329178D01*
X129883Y329103D01*
X132454Y326531D01*
X134210Y322293D01*
X134210Y317618D01*
X134222Y317520D01*
X134225Y317421D01*
X134242Y317363D01*
X134250Y317303D01*
X134286Y317210D01*
X134314Y317115D01*
X134344Y317063D01*
X134367Y317007D01*
X134425Y316927D01*
X134475Y316841D01*
X134541Y316766D01*
X134553Y316750D01*
X134563Y316742D01*
X134581Y316721D01*
X138220Y313082D01*
X138267Y313046D01*
X138308Y313002D01*
X138392Y312948D01*
X138471Y312887D01*
X138526Y312864D01*
X138577Y312831D01*
X138672Y312801D01*
X138763Y312761D01*
X138822Y312752D01*
X138879Y312733D01*
X138978Y312727D01*
X139077Y312711D01*
X139137Y312717D01*
X139197Y312713D01*
X139294Y312732D01*
X139394Y312741D01*
X139450Y312761D01*
X139509Y312772D01*
X139599Y312815D01*
X139693Y312849D01*
X139743Y312882D01*
X139797Y312908D01*
X139874Y312971D01*
X139956Y313027D01*
X139996Y313072D01*
X140042Y313110D01*
X140101Y313191D01*
X140167Y313266D01*
X140194Y313319D01*
X140229Y313367D01*
X140266Y313460D01*
X140311Y313549D01*
X140324Y313607D01*
X140346Y313663D01*
X140359Y313762D01*
X140381Y313859D01*
X140379Y313919D01*
X140387Y313978D01*
X140374Y314077D01*
X140371Y314177D01*
X140354Y314235D01*
X140347Y314294D01*
X140310Y314387D01*
X140283Y314482D01*
X140252Y314534D01*
X140230Y314590D01*
X140144Y314726D01*
X140122Y314756D01*
X139407Y316159D01*
X138939Y317601D01*
X146281Y317601D01*
X146281Y310259D01*
X144839Y310727D01*
X143436Y311442D01*
X143406Y311464D01*
X143353Y311493D01*
X143306Y311530D01*
X143214Y311569D01*
X143127Y311617D01*
X143069Y311632D01*
X143014Y311656D01*
X142916Y311672D01*
X142819Y311697D01*
X142759Y311697D01*
X142700Y311706D01*
X142601Y311697D01*
X142501Y311697D01*
X142443Y311682D01*
X142383Y311676D01*
X142290Y311642D01*
X142193Y311618D01*
X142140Y311589D01*
X142084Y311569D01*
X142002Y311513D01*
X141914Y311465D01*
X141871Y311424D01*
X141821Y311390D01*
X141755Y311315D01*
X141682Y311247D01*
X141650Y311196D01*
X141610Y311152D01*
X141565Y311063D01*
X141512Y310979D01*
X141493Y310922D01*
X141466Y310868D01*
X141444Y310771D01*
X141413Y310676D01*
X141409Y310616D01*
X141396Y310558D01*
X141399Y310458D01*
X141393Y310359D01*
X141404Y310300D01*
X141406Y310240D01*
X141434Y310144D01*
X141452Y310046D01*
X141478Y309992D01*
X141494Y309935D01*
X141545Y309849D01*
X141587Y309759D01*
X141625Y309712D01*
X141656Y309661D01*
X141762Y309540D01*
X148924Y302378D01*
X149002Y302318D01*
X149074Y302250D01*
X149127Y302221D01*
X149175Y302184D01*
X149266Y302144D01*
X149352Y302096D01*
X149411Y302081D01*
X149467Y302057D01*
X149565Y302042D01*
X149660Y302017D01*
X149760Y302011D01*
X149781Y302007D01*
X149793Y302009D01*
X149821Y302007D01*
X172717Y302007D01*
X172855Y302024D01*
G37*
%LPC*%
G36*
X77189Y44759D02*
X77189Y44759D01*
X77189Y54886D01*
X85109Y54886D01*
X85756Y54713D01*
X86335Y54378D01*
X86808Y53905D01*
X87143Y53326D01*
X87316Y52679D01*
X87316Y44759D01*
X77189Y44759D01*
G37*
%LPD*%
%LPC*%
G36*
X77189Y29554D02*
X77189Y29554D01*
X77189Y39681D01*
X87316Y39681D01*
X87316Y31761D01*
X87143Y31114D01*
X86808Y30535D01*
X86335Y30062D01*
X85756Y29727D01*
X85109Y29554D01*
X77189Y29554D01*
G37*
%LPD*%
%LPC*%
G36*
X61984Y44759D02*
X61984Y44759D01*
X61984Y52679D01*
X62157Y53326D01*
X62492Y53905D01*
X62965Y54378D01*
X63544Y54713D01*
X64191Y54886D01*
X72111Y54886D01*
X72111Y44759D01*
X61984Y44759D01*
G37*
%LPD*%
%LPC*%
G36*
X64191Y29554D02*
X64191Y29554D01*
X63544Y29727D01*
X62965Y30062D01*
X62492Y30535D01*
X62157Y31114D01*
X61984Y31761D01*
X61984Y39681D01*
X72111Y39681D01*
X72111Y29554D01*
X64191Y29554D01*
G37*
%LPD*%
%LPC*%
G36*
X440959Y451429D02*
X440959Y451429D01*
X440959Y460575D01*
X441216Y460535D01*
X443003Y459954D01*
X444677Y459101D01*
X446198Y457996D01*
X447526Y456668D01*
X448631Y455147D01*
X449484Y453473D01*
X450065Y451686D01*
X450105Y451429D01*
X440959Y451429D01*
G37*
%LPD*%
%LPC*%
G36*
X440959Y446351D02*
X440959Y446351D01*
X450105Y446351D01*
X450065Y446094D01*
X449484Y444307D01*
X448631Y442633D01*
X447526Y441112D01*
X446198Y439784D01*
X444677Y438679D01*
X443003Y437826D01*
X441216Y437245D01*
X440959Y437205D01*
X440959Y446351D01*
G37*
%LPD*%
%LPC*%
G36*
X228709Y322399D02*
X228709Y322399D01*
X228709Y329741D01*
X230151Y329273D01*
X231554Y328558D01*
X232828Y327632D01*
X233942Y326518D01*
X234868Y325244D01*
X235583Y323841D01*
X236051Y322399D01*
X228709Y322399D01*
G37*
%LPD*%
%LPC*%
G36*
X216569Y322399D02*
X216569Y322399D01*
X217037Y323841D01*
X217752Y325244D01*
X218678Y326518D01*
X219792Y327632D01*
X221066Y328558D01*
X222469Y329273D01*
X223911Y329741D01*
X223911Y322399D01*
X216569Y322399D01*
G37*
%LPD*%
%LPC*%
G36*
X280699Y160331D02*
X280699Y160331D01*
X288041Y160331D01*
X287573Y158889D01*
X286858Y157486D01*
X285932Y156212D01*
X284818Y155098D01*
X283544Y154172D01*
X282141Y153457D01*
X280699Y152989D01*
X280699Y160331D01*
G37*
%LPD*%
%LPC*%
G36*
X228709Y317601D02*
X228709Y317601D01*
X236051Y317601D01*
X235583Y316159D01*
X234868Y314756D01*
X233942Y313482D01*
X232828Y312368D01*
X231554Y311442D01*
X230151Y310727D01*
X228709Y310259D01*
X228709Y317601D01*
G37*
%LPD*%
%LPC*%
G36*
X73979Y317601D02*
X73979Y317601D01*
X81321Y317601D01*
X80853Y316159D01*
X80138Y314756D01*
X79212Y313482D01*
X78098Y312368D01*
X76824Y311442D01*
X75421Y310727D01*
X73979Y310259D01*
X73979Y317601D01*
G37*
%LPD*%
%LPC*%
G36*
X151079Y317601D02*
X151079Y317601D01*
X158421Y317601D01*
X157953Y316159D01*
X157238Y314756D01*
X156312Y313482D01*
X155198Y312368D01*
X153924Y311442D01*
X152521Y310727D01*
X151079Y310259D01*
X151079Y317601D01*
G37*
%LPD*%
%LPC*%
G36*
X274459Y153457D02*
X274459Y153457D01*
X273056Y154172D01*
X271782Y155098D01*
X270668Y156212D01*
X269742Y157486D01*
X269027Y158889D01*
X268559Y160331D01*
X275901Y160331D01*
X275901Y152989D01*
X274459Y153457D01*
G37*
%LPD*%
%LPC*%
G36*
X223199Y402809D02*
X223199Y402809D01*
X223199Y409903D01*
X224628Y409439D01*
X225971Y408754D01*
X227191Y407868D01*
X228258Y406801D01*
X229144Y405581D01*
X229829Y404238D01*
X230293Y402809D01*
X223199Y402809D01*
G37*
%LPD*%
%LPC*%
G36*
X223199Y398311D02*
X223199Y398311D01*
X230293Y398311D01*
X229829Y396882D01*
X229144Y395539D01*
X228258Y394319D01*
X227191Y393252D01*
X225971Y392366D01*
X224628Y391681D01*
X223199Y391217D01*
X223199Y398311D01*
G37*
%LPD*%
%LPC*%
G36*
X211607Y402809D02*
X211607Y402809D01*
X212071Y404238D01*
X212756Y405581D01*
X213642Y406801D01*
X214709Y407868D01*
X215929Y408754D01*
X217272Y409439D01*
X218701Y409903D01*
X218701Y402809D01*
X211607Y402809D01*
G37*
%LPD*%
%LPC*%
G36*
X217272Y391681D02*
X217272Y391681D01*
X215929Y392366D01*
X214709Y393252D01*
X213642Y394319D01*
X212756Y395539D01*
X212071Y396882D01*
X211607Y398311D01*
X218701Y398311D01*
X218701Y391217D01*
X217272Y391681D01*
G37*
%LPD*%
%LPC*%
G36*
X275539Y303131D02*
X275539Y303131D01*
X282417Y303131D01*
X282397Y303004D01*
X281955Y301644D01*
X281307Y300371D01*
X280466Y299214D01*
X279456Y298204D01*
X278299Y297363D01*
X277026Y296715D01*
X275666Y296273D01*
X275539Y296253D01*
X275539Y303131D01*
G37*
%LPD*%
%LPC*%
G36*
X271414Y296273D02*
X271414Y296273D01*
X270054Y296715D01*
X268781Y297363D01*
X267624Y298204D01*
X266614Y299214D01*
X265773Y300371D01*
X265125Y301644D01*
X264683Y303004D01*
X264663Y303131D01*
X271541Y303131D01*
X271541Y296253D01*
X271414Y296273D01*
G37*
%LPD*%
%LPC*%
G36*
X74649Y42219D02*
X74649Y42219D01*
X74649Y42221D01*
X74651Y42221D01*
X74651Y42219D01*
X74649Y42219D01*
G37*
%LPD*%
D10*
X78560Y467320D03*
D11*
X78560Y416320D03*
X158320Y416320D03*
X158320Y467320D03*
D12*
X18830Y502400D03*
D13*
X18830Y361400D03*
D12*
X49610Y502400D03*
D13*
X49610Y361400D03*
D12*
X312450Y390130D03*
D13*
X312450Y249130D03*
D12*
X338370Y362530D03*
D13*
X338370Y221530D03*
D14*
X131430Y529120D03*
X96430Y529120D03*
D15*
X74650Y42220D03*
D16*
X109650Y42220D03*
X144650Y42220D03*
X179650Y42220D03*
X214650Y42220D03*
X249650Y42220D03*
X284650Y42220D03*
X319650Y42220D03*
X354650Y42220D03*
D17*
X50000Y279880D03*
X50000Y254480D03*
D18*
X50000Y152880D03*
X50000Y102080D03*
D17*
X110000Y279880D03*
X110000Y254480D03*
D18*
X110000Y152880D03*
X110000Y102080D03*
D17*
X170000Y279880D03*
X170000Y254480D03*
D18*
X170000Y152880D03*
X170000Y102080D03*
D17*
X230000Y279880D03*
X230000Y254480D03*
D18*
X230000Y152880D03*
X230000Y102080D03*
D19*
X220950Y527560D03*
X220950Y502160D03*
X220950Y451360D03*
X220950Y400560D03*
D20*
X19580Y320000D03*
D21*
X45580Y320000D03*
X71580Y320000D03*
D20*
X96680Y320000D03*
D21*
X122680Y320000D03*
X148680Y320000D03*
D20*
X174310Y320000D03*
D21*
X200310Y320000D03*
X226310Y320000D03*
D20*
X278300Y214730D03*
D21*
X278300Y188730D03*
X278300Y162730D03*
D19*
X368190Y166230D03*
X368190Y319230D03*
X394150Y166070D03*
X394150Y319070D03*
X419580Y166050D03*
X419580Y319050D03*
X457000Y166050D03*
X457000Y319050D03*
D22*
X273540Y485130D03*
X273540Y465130D03*
X273540Y445130D03*
X273540Y425130D03*
X273540Y405130D03*
X273540Y385130D03*
X273540Y365130D03*
X273540Y345130D03*
X273540Y325130D03*
X273540Y305130D03*
X493540Y305130D03*
X493540Y325130D03*
X493540Y345130D03*
X493540Y365130D03*
X493540Y385130D03*
X493540Y405130D03*
X493540Y425130D03*
X493540Y445130D03*
X493540Y465130D03*
X493540Y485130D03*
D23*
X143830Y344990D03*
D24*
X93830Y344990D03*
D23*
X257000Y502320D03*
D24*
X257000Y527720D03*
D25*
X311420Y448890D03*
X336820Y448890D03*
X362220Y448890D03*
X387620Y448890D03*
X413020Y448890D03*
X438420Y448890D03*
D26*
X287020Y485140D02*
X283550Y485140D01*
X280000Y485140D02*
X273550Y485140D01*
X280000Y485140D02*
X283550Y485140D01*
X273540Y485130D02*
X239770Y451360D01*
X220950Y451360D01*
X49610Y502400D02*
X49610Y528650D01*
X78580Y557620D01*
X265340Y557620D01*
X283550Y539410D01*
X283550Y488690D01*
X283550Y488610D02*
X283550Y485140D01*
X49610Y502400D02*
X18830Y502400D01*
X57150Y287030D02*
X50000Y279880D01*
X57150Y287030D02*
X57150Y339090D01*
X52070Y344170D01*
X41910Y344170D02*
X33020Y353060D01*
X33020Y485810D01*
X49610Y502400D01*
X52070Y344170D02*
X41910Y344170D01*
X109220Y279880D02*
X110000Y279880D01*
X109220Y279880D02*
X50000Y279880D01*
X220000Y279880D02*
X230000Y279880D01*
X220000Y279880D02*
X188280Y311600D01*
X170000Y279880D02*
X149880Y279880D01*
X130000Y248110D02*
X119380Y237490D01*
X100330Y237490D01*
X91440Y262100D02*
X109220Y279880D01*
X130000Y260000D02*
X149880Y279880D01*
X130000Y260000D02*
X130000Y248110D01*
X100330Y237490D02*
X91440Y246380D01*
X91440Y262100D01*
X188280Y418690D02*
X220950Y451360D01*
X188280Y418690D02*
X188280Y311600D01*
X312450Y390130D02*
X338370Y364210D01*
X338370Y362530D01*
X273540Y485130D02*
X273550Y485140D01*
X280000Y485140D02*
X283550Y488690D01*
X283550Y488610D01*
X287020Y485140D01*
X351370Y485140D02*
X387620Y448890D01*
X351370Y485140D02*
X287020Y485140D01*
X387620Y411780D02*
X338370Y362530D01*
X387620Y411780D02*
X387620Y448890D01*
X45580Y320000D02*
X34290Y308710D01*
X34290Y274320D01*
X41910Y266700D01*
X60000Y266700D01*
X62230Y266700D01*
X359160Y175260D02*
X368190Y166230D01*
X80000Y246700D02*
X60000Y266700D01*
X80000Y246700D02*
X80000Y220000D01*
X124740Y175260D01*
X359160Y175260D01*
X19580Y360650D02*
X18830Y361400D01*
X19580Y360650D02*
X19580Y320000D01*
X19580Y268710D01*
X34290Y254000D01*
X49520Y254000D01*
X50000Y254480D01*
X158320Y467320D02*
X218560Y527560D01*
X220950Y527560D01*
X93830Y402830D02*
X93830Y344990D01*
X93830Y402830D02*
X158320Y467320D01*
X221110Y527720D02*
X257000Y527720D01*
X221110Y527720D02*
X220950Y527560D01*
X220950Y502160D02*
X158320Y439530D01*
X158320Y416320D01*
X143830Y401830D02*
X143830Y344990D01*
X143830Y401830D02*
X158320Y416320D01*
X256840Y502160D02*
X257000Y502320D01*
X256840Y502160D02*
X220950Y502160D01*
X110000Y102080D02*
X50000Y102080D01*
X110000Y102080D02*
X110000Y79230D01*
X121920Y67310D02*
X168910Y67310D01*
X179650Y56570D01*
X179650Y42220D01*
X121920Y67310D02*
X110000Y79230D01*
X87120Y152880D02*
X50000Y152880D01*
X87120Y152880D02*
X131270Y108730D01*
X131270Y78730D01*
X133650Y76350D01*
X183650Y76350D01*
X214650Y45350D01*
X214650Y42220D01*
X150000Y112880D02*
X110000Y152880D01*
X150000Y90000D02*
X154920Y85080D01*
X206790Y85080D02*
X249650Y42220D01*
X150000Y90000D02*
X150000Y112880D01*
X154920Y85080D02*
X206790Y85080D01*
X230000Y102080D02*
X170000Y102080D01*
X230000Y102080D02*
X284650Y47430D01*
X284650Y42220D01*
X202880Y120000D02*
X170000Y152880D01*
X241870Y120000D02*
X319650Y42220D01*
X241870Y120000D02*
X202880Y120000D01*
X230000Y152880D02*
X243990Y152880D01*
X354650Y42220D01*
X394150Y166070D02*
X394150Y171000D01*
X363220Y201930D01*
X146770Y295910D02*
X122680Y320000D01*
X146770Y295910D02*
X179070Y295910D01*
X185420Y289560D01*
X185420Y270510D01*
X181610Y266700D01*
X156210Y266700D01*
X152400Y262890D01*
X152400Y247650D01*
X198120Y201930D02*
X363220Y201930D01*
X198120Y201930D02*
X152400Y247650D01*
X96680Y310990D02*
X96680Y320000D01*
X96680Y310990D02*
X114300Y293370D01*
X125730Y293370D01*
X129540Y289560D01*
X129540Y274020D01*
X110000Y254480D01*
X96680Y320000D02*
X55280Y361400D01*
X49610Y361400D01*
X419580Y206050D02*
X419580Y166050D01*
X419580Y206050D02*
X338930Y286700D01*
X253610Y286700D01*
X220310Y300000D02*
X200310Y320000D01*
X240310Y300000D02*
X253610Y286700D01*
X240310Y300000D02*
X220310Y300000D01*
X170480Y254000D02*
X170000Y254480D01*
X174310Y312100D02*
X174310Y320000D01*
X174310Y312100D02*
X198120Y288290D01*
X198120Y270000D01*
X198120Y266700D01*
X185420Y254000D02*
X170480Y254000D01*
X185420Y254000D02*
X198120Y266700D01*
X294880Y266700D02*
X312450Y249130D01*
X200000Y266700D02*
X198120Y266700D01*
X200000Y266700D02*
X294880Y266700D01*
X200000Y268120D02*
X198120Y270000D01*
X200000Y268120D02*
X200000Y266700D01*
X440950Y150000D02*
X457000Y166050D01*
X440950Y150000D02*
X380840Y150000D01*
X380840Y171610D01*
X363720Y188730D01*
X278300Y188730D01*
X278300Y214730D02*
X285100Y221530D01*
X338370Y221530D01*
X238550Y254480D02*
X230000Y254480D01*
X238550Y254480D02*
X278300Y214730D01*
X287020Y351650D02*
X273540Y365130D01*
X287020Y351650D02*
X287020Y340360D01*
X308150Y319230D01*
X368190Y319230D01*
X297180Y361490D02*
X273540Y385130D01*
X297180Y344170D02*
X306070Y335280D01*
X394150Y319590D02*
X394150Y319070D01*
X297180Y344170D02*
X297180Y361490D01*
X306070Y335280D02*
X378460Y335280D01*
X394150Y319590D01*
X419580Y319050D02*
X419580Y332260D01*
X407670Y344170D02*
X317340Y344170D01*
X407670Y344170D02*
X419580Y332260D01*
X288670Y410000D02*
X273540Y425130D01*
X288670Y410000D02*
X290000Y410000D01*
X308610Y352900D02*
X317340Y344170D01*
X308610Y352900D02*
X308610Y364490D01*
X290000Y383100D01*
X290000Y410000D01*
X457000Y319050D02*
X470920Y305130D01*
X493540Y305130D01*
X78560Y467320D02*
X78560Y486230D01*
X96520Y504190D01*
X96520Y529030D01*
X96430Y529120D01*
X131430Y469190D02*
X78560Y416320D01*
X131430Y469190D02*
X131430Y529120D01*
X441960Y393550D02*
X493540Y445130D01*
X441960Y393550D02*
X441960Y300990D01*
X497808Y245142D01*
X497808Y110000D02*
X400000Y12192D01*
X117808Y12192D01*
X109650Y20350D02*
X109650Y42220D01*
X497808Y110000D02*
X497808Y245142D01*
X117808Y12192D02*
X109650Y20350D01*
X493540Y464650D02*
X493540Y465130D01*
X493540Y464650D02*
X432540Y403650D01*
X432540Y297460D01*
X488950Y241050D02*
X488950Y114300D01*
X394650Y20000D01*
X144650Y24260D02*
X144650Y42220D01*
X432540Y297460D02*
X488950Y241050D01*
X394650Y20000D02*
X148910Y20000D01*
X144650Y24260D01*
X336820Y448890D02*
X320580Y465130D01*
X273540Y465130D01*
X362220Y448890D02*
X362220Y438500D01*
X351860Y428140D01*
X351650Y427930D01*
X351860Y428140D02*
X290530Y428140D01*
X273540Y445130D01*
M02*
