M48
;GenerationSoftware,Autodesk,EAGLE,9.5.2*%
;CreationDate,2020-02-04T20:31:50Z*%
FMAT,2
ICI,OFF
METRIC,TZ,000.000
T10C0.780
T9C0.800
T8C0.900
T7C0.960
T6C1.000
T5C1.050
T4C1.200
T3C1.300
T2C1.350
T1C2.000
%
G90
M71
T1
X71000Y71000
X4000Y71000
X4000Y4000
X71000Y4000
T2
X51300Y7000
X47800Y7000
X44300Y7000
X40800Y7000
X26800Y7000
X30300Y7000
X33800Y7000
X37300Y7000
X23300Y7000
T3
X9914Y45813
X6414Y45813
T4
X25000Y24300
X25000Y19220
X34000Y24300
X34000Y19220
X43000Y24300
X43000Y19220
X52000Y24300
X52000Y19220
T5
X48120Y41530
X57900Y44416
X57900Y30316
X48120Y55630
X26820Y41540
X26820Y55640
X17325Y30226
X17325Y44326
T6
X25000Y37000
X25000Y34460
X34000Y34460
X43000Y37000
X43000Y34460
X52000Y37000
X52000Y34460
X34000Y37000
T7
X14560Y25000
X17160Y25000
X30300Y43040
X32900Y43040
X44720Y43040
X39520Y43040
X42120Y43040
X35500Y43040
X58060Y25000
X60660Y25000
X63260Y25000
X11960Y25000
T8
X2600Y19930
X17900Y19930
X32860Y48760
X32860Y64060
X42160Y48760
X42160Y64060
X57190Y19930
X72490Y19930
X15150Y68420
X17690Y68420
X22770Y68420
X27850Y68420
T9
X51400Y55466
X51400Y53466
X51400Y51466
X51400Y49466
X51400Y47466
X73400Y47466
X73400Y49466
X73400Y51466
X73400Y53466
X73400Y55466
X73400Y57466
X73400Y59466
X73400Y61466
X73400Y63466
X73400Y65466
X51400Y57466
X51400Y59466
X51400Y61466
X51400Y63466
X51400Y65466
T10
X5624Y59701
X10724Y59701
X5624Y51725
X10724Y51725
M30