M48
;GenerationSoftware,Autodesk,EAGLE,9.5.2*%
;CreationDate,2019-12-28T21:15:04Z*%
FMAT,2
ICI,OFF
METRIC,TZ,000.000
T10C0.780
T9C0.800
T8C0.900
T7C0.960
T6C1.000
T5C1.050
T4C1.200
T3C1.350
T2C1.750
T1C3.000
%
G90
M71
T1
X37338Y5334
X86360Y5334
X86360Y91440
X37338Y91440
T2
X39370Y82550
X44450Y82550
T3
X71094Y5334
X63594Y5334
X68594Y5334
X66094Y5334
X61094Y5334
X58594Y5334
X56094Y5334
X53594Y5334
T4
X43307Y19304
X86741Y14224
X86741Y19304
X43307Y14224
X57785Y19304
X57785Y14224
X72263Y19304
X72263Y14224
T5
X78359Y17904
X63754Y17904
X63754Y32004
X49149Y17904
X49149Y32004
X78359Y32004
X34544Y17904
X34544Y32004
T6
X86741Y29464
X43307Y32004
X43307Y29464
X86741Y32004
X57785Y32004
X57785Y29464
X72263Y32004
X72263Y29464
T7
X69222Y39370
X88900Y39370
X83700Y39370
X86300Y39370
X71822Y39370
X74422Y39370
X54744Y39370
X57344Y39370
X45339Y39370
X42739Y39370
X40139Y39370
X59944Y39370
T8
X57401Y65709
X57401Y70789
X57401Y75869
X57401Y78409
X86360Y58226
X86360Y42926
X71882Y58226
X71882Y42926
X42672Y42926
X42672Y58226
X57277Y42926
X57277Y58226
T9
X65200Y82216
X65200Y86216
X65200Y84216
X65200Y80216
X65200Y78216
X65200Y76216
X65200Y74216
X65200Y72216
X65200Y70216
X65200Y68216
X87200Y68216
X87200Y70216
X87200Y72216
X87200Y74216
X87200Y76216
X87200Y78216
X87200Y80216
X87200Y82216
X87200Y84216
X87200Y86216
T10
X39233Y72568
X39233Y64592
X44333Y64592
X44333Y72568
M30