M48
;GenerationSoftware,Autodesk,EAGLE,9.6.0*%
;CreationDate,2020-03-27T21:07:24Z*%
FMAT,2
ICI,OFF
METRIC,TZ,000.000
T10C0.780
T9C0.800
T8C0.900
T7C0.960
T6C1.000
T5C1.050
T4C1.200
T3C1.300
T2C1.350
T1C2.000
%
G90
M71
T1
X3000Y3000
X48000Y3000
X48000Y54000
X3000Y54000
T2
X31965Y4222
X21465Y4222
X35465Y4222
X28465Y4222
X24965Y4222
X17965Y4222
X14465Y4222
X10965Y4222
X7465Y4222
T3
X13246Y50850
X9746Y50850
T4
X17000Y10208
X23000Y15288
X23000Y10208
X5000Y15288
X5000Y10208
X11000Y15288
X11000Y10208
X17000Y15288
T5
X32313Y36253
X22399Y36058
X8299Y36058
X4961Y36140
X4961Y50240
X1883Y36140
X32313Y22153
X1883Y50240
T6
X23000Y25448
X5000Y27988
X23000Y27988
X11000Y27988
X11000Y25448
X17000Y27988
X17000Y25448
X5000Y25448
T7
X27830Y18873
X27830Y16273
X24631Y32000
X27830Y21473
X22031Y32000
X19431Y32000
X15868Y32000
X13268Y32000
X1958Y32000
X4558Y32000
X7158Y32000
X10668Y32000
T8
X22095Y40056
X22095Y45136
X22095Y50216
X22095Y52756
X45700Y31905
X45700Y16605
X41450Y31905
X41450Y16605
X35354Y16605
X35354Y31905
X38410Y16605
X38410Y31905
T9
X27354Y44513
X27354Y48513
X27354Y46513
X27354Y42513
X27354Y40513
X27354Y38513
X27354Y36513
X27354Y34513
X27354Y32513
X27354Y30513
X49354Y30513
X49354Y32513
X49354Y34513
X49354Y36513
X49354Y38513
X49354Y40513
X49354Y42513
X49354Y44513
X49354Y46513
X49354Y48513
T10
X8997Y46636
X8997Y38660
X14097Y38660
X14097Y46636
M30