M48
;GenerationSoftware,Autodesk,EAGLE,9.6.2*%
;CreationDate,2020-07-30T14:27:53Z*%
FMAT,2
ICI,OFF
METRIC,TZ,000.000
T12C0.780
T11C0.800
T10C0.850
T9C0.900
T8C0.960
T7C1.000
T6C1.016
T5C1.050
T4C1.200
T3C1.300
T2C1.350
T1C2.000
%
G90
M71
T1
X3000Y3000
X48000Y3000
X48000Y54000
X3000Y54000
T2
X35465Y4222
X31965Y4222
X28465Y4222
X24965Y4222
X21465Y4222
X17965Y4222
X14465Y4222
X10965Y4222
X7465Y4222
T3
X9643Y52912
X13143Y52912
T4
X5000Y10208
X17000Y15288
X17000Y10208
X23000Y15288
X23000Y10208
X11000Y10208
X11000Y15288
X5000Y15288
T5
X33837Y36253
X31245Y24913
X31245Y39013
X4961Y36140
X4961Y50240
X1883Y36140
X1883Y50240
X33837Y22153
T6
X43842Y44889
X41302Y44889
X38762Y44889
X36222Y44889
X33682Y44889
X31142Y44889
T7
X11000Y25448
X5000Y25448
X5000Y27988
X17000Y27988
X17000Y25448
X23000Y27988
X23000Y25448
X11000Y27988
T8
X4558Y32000
X27830Y16273
X1958Y32000
X27830Y18873
X7158Y32000
X9668Y32000
X12268Y32000
X14868Y32000
X17431Y32000
X20031Y32000
X22631Y32000
X27830Y21473
T9
X22095Y50216
X22095Y40056
X36819Y16623
X36819Y31923
X39415Y16607
X39415Y31907
X41958Y16605
X22095Y45136
X45700Y16605
X45700Y31905
X22095Y52756
X41958Y31905
T10
X25700Y52772
X25700Y50232
X9383Y34499
X14383Y34499
T11
X27354Y36513
X27354Y34513
X27354Y32513
X27354Y30513
X49354Y30513
X49354Y32513
X49354Y34513
X49354Y36513
X49354Y38513
X49354Y40513
X49354Y42513
X49354Y44513
X49354Y46513
X49354Y48513
X27354Y38513
X27354Y42513
X27354Y44513
X27354Y46513
X27354Y48513
X27354Y40513
T12
X7856Y46732
X7856Y41632
X15832Y41632
X15832Y46732
M30