G04 EAGLE Gerber RS-274X export*
G75*
%MOMM*%
%FSLAX34Y34*%
%LPD*%
%IN*%
%IPPOS*%
%AMOC8*
5,1,8,0,0,1.08239X$1,22.5*%
G01*
%ADD10C,0.254000*%


D10*
X312420Y49530D02*
X312608Y45213D01*
X313172Y40929D01*
X314108Y36711D01*
X315407Y32590D01*
X317061Y28598D01*
X319056Y24765D01*
X321377Y21121D01*
X324008Y17693D01*
X326927Y14507D01*
X330113Y11588D01*
X333541Y8957D01*
X337185Y6636D01*
X341018Y4641D01*
X345010Y2987D01*
X349131Y1688D01*
X353349Y752D01*
X357633Y188D01*
X361950Y0D01*
X877570Y0D01*
X881998Y193D01*
X886391Y772D01*
X890718Y1731D01*
X894945Y3064D01*
X899039Y4760D01*
X902970Y6806D01*
X906708Y9187D01*
X910224Y11885D01*
X913491Y14879D01*
X916485Y18146D01*
X919183Y21662D01*
X921564Y25400D01*
X923610Y29331D01*
X925306Y33425D01*
X926639Y37652D01*
X927598Y41979D01*
X928177Y46373D01*
X928370Y50800D01*
X928370Y913130D01*
X928182Y917447D01*
X927618Y921731D01*
X926682Y925949D01*
X925383Y930070D01*
X923729Y934062D01*
X921734Y937895D01*
X919413Y941539D01*
X916782Y944967D01*
X913863Y948153D01*
X910677Y951072D01*
X907249Y953703D01*
X903605Y956024D01*
X899772Y958019D01*
X895780Y959673D01*
X891659Y960972D01*
X887441Y961908D01*
X883157Y962472D01*
X878840Y962660D01*
X363220Y962660D01*
X358793Y962467D01*
X354399Y961888D01*
X350072Y960929D01*
X345845Y959596D01*
X341751Y957900D01*
X337820Y955854D01*
X334082Y953473D01*
X330566Y950775D01*
X327299Y947781D01*
X324305Y944514D01*
X321607Y940998D01*
X319226Y937260D01*
X317180Y933329D01*
X315484Y929235D01*
X314151Y925008D01*
X313192Y920681D01*
X312613Y916288D01*
X312420Y911860D01*
X312420Y49530D01*
X388380Y52804D02*
X388304Y51736D01*
X388151Y50675D01*
X387923Y49628D01*
X387621Y48600D01*
X387247Y47596D01*
X386802Y46621D01*
X386288Y45681D01*
X385709Y44780D01*
X385067Y43922D01*
X384365Y43112D01*
X383608Y42355D01*
X382798Y41653D01*
X381940Y41011D01*
X381039Y40432D01*
X380099Y39918D01*
X379124Y39473D01*
X378120Y39099D01*
X377092Y38797D01*
X376045Y38569D01*
X374984Y38416D01*
X373916Y38340D01*
X372844Y38340D01*
X371776Y38416D01*
X370715Y38569D01*
X369668Y38797D01*
X368640Y39099D01*
X367636Y39473D01*
X366661Y39918D01*
X365721Y40432D01*
X364820Y41011D01*
X363962Y41653D01*
X363152Y42355D01*
X362395Y43112D01*
X361693Y43922D01*
X361051Y44780D01*
X360472Y45681D01*
X359958Y46621D01*
X359513Y47596D01*
X359139Y48600D01*
X358837Y49628D01*
X358609Y50675D01*
X358456Y51736D01*
X358380Y52804D01*
X358380Y53876D01*
X358456Y54944D01*
X358609Y56005D01*
X358837Y57052D01*
X359139Y58080D01*
X359513Y59084D01*
X359958Y60059D01*
X360472Y60999D01*
X361051Y61900D01*
X361693Y62758D01*
X362395Y63568D01*
X363152Y64325D01*
X363962Y65027D01*
X364820Y65669D01*
X365721Y66248D01*
X366661Y66762D01*
X367636Y67207D01*
X368640Y67581D01*
X369668Y67883D01*
X370715Y68111D01*
X371776Y68264D01*
X372844Y68340D01*
X373916Y68340D01*
X374984Y68264D01*
X376045Y68111D01*
X377092Y67883D01*
X378120Y67581D01*
X379124Y67207D01*
X380099Y66762D01*
X381039Y66248D01*
X381940Y65669D01*
X382798Y65027D01*
X383608Y64325D01*
X384365Y63568D01*
X385067Y62758D01*
X385709Y61900D01*
X386288Y60999D01*
X386802Y60059D01*
X387247Y59084D01*
X387621Y58080D01*
X387923Y57052D01*
X388151Y56005D01*
X388304Y54944D01*
X388380Y53876D01*
X388380Y52804D01*
X878600Y52804D02*
X878524Y51736D01*
X878371Y50675D01*
X878143Y49628D01*
X877841Y48600D01*
X877467Y47596D01*
X877022Y46621D01*
X876508Y45681D01*
X875929Y44780D01*
X875287Y43922D01*
X874585Y43112D01*
X873828Y42355D01*
X873018Y41653D01*
X872160Y41011D01*
X871259Y40432D01*
X870319Y39918D01*
X869344Y39473D01*
X868340Y39099D01*
X867312Y38797D01*
X866265Y38569D01*
X865204Y38416D01*
X864136Y38340D01*
X863064Y38340D01*
X861996Y38416D01*
X860935Y38569D01*
X859888Y38797D01*
X858860Y39099D01*
X857856Y39473D01*
X856881Y39918D01*
X855941Y40432D01*
X855040Y41011D01*
X854182Y41653D01*
X853372Y42355D01*
X852615Y43112D01*
X851913Y43922D01*
X851271Y44780D01*
X850692Y45681D01*
X850178Y46621D01*
X849733Y47596D01*
X849359Y48600D01*
X849057Y49628D01*
X848829Y50675D01*
X848676Y51736D01*
X848600Y52804D01*
X848600Y53876D01*
X848676Y54944D01*
X848829Y56005D01*
X849057Y57052D01*
X849359Y58080D01*
X849733Y59084D01*
X850178Y60059D01*
X850692Y60999D01*
X851271Y61900D01*
X851913Y62758D01*
X852615Y63568D01*
X853372Y64325D01*
X854182Y65027D01*
X855040Y65669D01*
X855941Y66248D01*
X856881Y66762D01*
X857856Y67207D01*
X858860Y67581D01*
X859888Y67883D01*
X860935Y68111D01*
X861996Y68264D01*
X863064Y68340D01*
X864136Y68340D01*
X865204Y68264D01*
X866265Y68111D01*
X867312Y67883D01*
X868340Y67581D01*
X869344Y67207D01*
X870319Y66762D01*
X871259Y66248D01*
X872160Y65669D01*
X873018Y65027D01*
X873828Y64325D01*
X874585Y63568D01*
X875287Y62758D01*
X875929Y61900D01*
X876508Y60999D01*
X877022Y60059D01*
X877467Y59084D01*
X877841Y58080D01*
X878143Y57052D01*
X878371Y56005D01*
X878524Y54944D01*
X878600Y53876D01*
X878600Y52804D01*
X878600Y913864D02*
X878524Y912796D01*
X878371Y911735D01*
X878143Y910688D01*
X877841Y909660D01*
X877467Y908656D01*
X877022Y907681D01*
X876508Y906741D01*
X875929Y905840D01*
X875287Y904982D01*
X874585Y904172D01*
X873828Y903415D01*
X873018Y902713D01*
X872160Y902071D01*
X871259Y901492D01*
X870319Y900978D01*
X869344Y900533D01*
X868340Y900159D01*
X867312Y899857D01*
X866265Y899629D01*
X865204Y899476D01*
X864136Y899400D01*
X863064Y899400D01*
X861996Y899476D01*
X860935Y899629D01*
X859888Y899857D01*
X858860Y900159D01*
X857856Y900533D01*
X856881Y900978D01*
X855941Y901492D01*
X855040Y902071D01*
X854182Y902713D01*
X853372Y903415D01*
X852615Y904172D01*
X851913Y904982D01*
X851271Y905840D01*
X850692Y906741D01*
X850178Y907681D01*
X849733Y908656D01*
X849359Y909660D01*
X849057Y910688D01*
X848829Y911735D01*
X848676Y912796D01*
X848600Y913864D01*
X848600Y914936D01*
X848676Y916004D01*
X848829Y917065D01*
X849057Y918112D01*
X849359Y919140D01*
X849733Y920144D01*
X850178Y921119D01*
X850692Y922059D01*
X851271Y922960D01*
X851913Y923818D01*
X852615Y924628D01*
X853372Y925385D01*
X854182Y926087D01*
X855040Y926729D01*
X855941Y927308D01*
X856881Y927822D01*
X857856Y928267D01*
X858860Y928641D01*
X859888Y928943D01*
X860935Y929171D01*
X861996Y929324D01*
X863064Y929400D01*
X864136Y929400D01*
X865204Y929324D01*
X866265Y929171D01*
X867312Y928943D01*
X868340Y928641D01*
X869344Y928267D01*
X870319Y927822D01*
X871259Y927308D01*
X872160Y926729D01*
X873018Y926087D01*
X873828Y925385D01*
X874585Y924628D01*
X875287Y923818D01*
X875929Y922960D01*
X876508Y922059D01*
X877022Y921119D01*
X877467Y920144D01*
X877841Y919140D01*
X878143Y918112D01*
X878371Y917065D01*
X878524Y916004D01*
X878600Y914936D01*
X878600Y913864D01*
X388380Y913864D02*
X388304Y912796D01*
X388151Y911735D01*
X387923Y910688D01*
X387621Y909660D01*
X387247Y908656D01*
X386802Y907681D01*
X386288Y906741D01*
X385709Y905840D01*
X385067Y904982D01*
X384365Y904172D01*
X383608Y903415D01*
X382798Y902713D01*
X381940Y902071D01*
X381039Y901492D01*
X380099Y900978D01*
X379124Y900533D01*
X378120Y900159D01*
X377092Y899857D01*
X376045Y899629D01*
X374984Y899476D01*
X373916Y899400D01*
X372844Y899400D01*
X371776Y899476D01*
X370715Y899629D01*
X369668Y899857D01*
X368640Y900159D01*
X367636Y900533D01*
X366661Y900978D01*
X365721Y901492D01*
X364820Y902071D01*
X363962Y902713D01*
X363152Y903415D01*
X362395Y904172D01*
X361693Y904982D01*
X361051Y905840D01*
X360472Y906741D01*
X359958Y907681D01*
X359513Y908656D01*
X359139Y909660D01*
X358837Y910688D01*
X358609Y911735D01*
X358456Y912796D01*
X358380Y913864D01*
X358380Y914936D01*
X358456Y916004D01*
X358609Y917065D01*
X358837Y918112D01*
X359139Y919140D01*
X359513Y920144D01*
X359958Y921119D01*
X360472Y922059D01*
X361051Y922960D01*
X361693Y923818D01*
X362395Y924628D01*
X363152Y925385D01*
X363962Y926087D01*
X364820Y926729D01*
X365721Y927308D01*
X366661Y927822D01*
X367636Y928267D01*
X368640Y928641D01*
X369668Y928943D01*
X370715Y929171D01*
X371776Y929324D01*
X372844Y929400D01*
X373916Y929400D01*
X374984Y929324D01*
X376045Y929171D01*
X377092Y928943D01*
X378120Y928641D01*
X379124Y928267D01*
X380099Y927822D01*
X381039Y927308D01*
X381940Y926729D01*
X382798Y926087D01*
X383608Y925385D01*
X384365Y924628D01*
X385067Y923818D01*
X385709Y922960D01*
X386288Y922059D01*
X386802Y921119D01*
X387247Y920144D01*
X387621Y919140D01*
X387923Y918112D01*
X388151Y917065D01*
X388304Y916004D01*
X388380Y914936D01*
X388380Y913864D01*
M02*
