G04 EAGLE Gerber RS-274X export*
G75*
%MOMM*%
%FSLAX34Y34*%
%LPD*%
%IN*%
%IPPOS*%
%AMOC8*
5,1,8,0,0,1.08239X$1,22.5*%
G01*
%ADD10C,0.254000*%


D10*
X0Y30000D02*
X114Y27385D01*
X456Y24791D01*
X1022Y22235D01*
X1809Y19739D01*
X2811Y17321D01*
X4019Y15000D01*
X5425Y12793D01*
X7019Y10716D01*
X8787Y8787D01*
X10716Y7019D01*
X12793Y5425D01*
X15000Y4019D01*
X17321Y2811D01*
X19739Y1809D01*
X22235Y1022D01*
X24791Y456D01*
X27385Y114D01*
X30000Y0D01*
X480000Y0D01*
X482615Y114D01*
X485209Y456D01*
X487765Y1022D01*
X490261Y1809D01*
X492679Y2811D01*
X495000Y4019D01*
X497207Y5425D01*
X499284Y7019D01*
X501213Y8787D01*
X502981Y10716D01*
X504575Y12793D01*
X505981Y15000D01*
X507189Y17321D01*
X508191Y19739D01*
X508978Y22235D01*
X509544Y24791D01*
X509886Y27385D01*
X510000Y30000D01*
X510000Y540000D01*
X509886Y542615D01*
X509544Y545209D01*
X508978Y547765D01*
X508191Y550261D01*
X507189Y552679D01*
X505981Y555000D01*
X504575Y557207D01*
X502981Y559284D01*
X501213Y561213D01*
X499284Y562981D01*
X497207Y564575D01*
X495000Y565981D01*
X492679Y567189D01*
X490261Y568191D01*
X487765Y568978D01*
X485209Y569544D01*
X482615Y569886D01*
X480000Y570000D01*
X30000Y570000D01*
X27385Y569886D01*
X24791Y569544D01*
X22235Y568978D01*
X19739Y568191D01*
X17321Y567189D01*
X15000Y565981D01*
X12793Y564575D01*
X10716Y562981D01*
X8787Y561213D01*
X7019Y559284D01*
X5425Y557207D01*
X4019Y555000D01*
X2811Y552679D01*
X1809Y550261D01*
X1022Y547765D01*
X456Y545209D01*
X114Y542615D01*
X0Y540000D01*
X0Y30000D01*
X40000Y29563D02*
X39924Y28694D01*
X39772Y27834D01*
X39546Y26990D01*
X39248Y26170D01*
X38879Y25378D01*
X38442Y24622D01*
X37941Y23907D01*
X37380Y23238D01*
X36762Y22620D01*
X36093Y22059D01*
X35378Y21558D01*
X34622Y21121D01*
X33830Y20752D01*
X33010Y20454D01*
X32166Y20228D01*
X31307Y20076D01*
X30437Y20000D01*
X29563Y20000D01*
X28694Y20076D01*
X27834Y20228D01*
X26990Y20454D01*
X26170Y20752D01*
X25378Y21121D01*
X24622Y21558D01*
X23907Y22059D01*
X23238Y22620D01*
X22620Y23238D01*
X22059Y23907D01*
X21558Y24622D01*
X21121Y25378D01*
X20752Y26170D01*
X20454Y26990D01*
X20228Y27834D01*
X20076Y28694D01*
X20000Y29563D01*
X20000Y30437D01*
X20076Y31307D01*
X20228Y32166D01*
X20454Y33010D01*
X20752Y33830D01*
X21121Y34622D01*
X21558Y35378D01*
X22059Y36093D01*
X22620Y36762D01*
X23238Y37380D01*
X23907Y37941D01*
X24622Y38442D01*
X25378Y38879D01*
X26170Y39248D01*
X26990Y39546D01*
X27834Y39772D01*
X28694Y39924D01*
X29563Y40000D01*
X30437Y40000D01*
X31307Y39924D01*
X32166Y39772D01*
X33010Y39546D01*
X33830Y39248D01*
X34622Y38879D01*
X35378Y38442D01*
X36093Y37941D01*
X36762Y37380D01*
X37380Y36762D01*
X37941Y36093D01*
X38442Y35378D01*
X38879Y34622D01*
X39248Y33830D01*
X39546Y33010D01*
X39772Y32166D01*
X39924Y31307D01*
X40000Y30437D01*
X40000Y29563D01*
X490000Y29563D02*
X489924Y28694D01*
X489772Y27834D01*
X489546Y26990D01*
X489248Y26170D01*
X488879Y25378D01*
X488442Y24622D01*
X487941Y23907D01*
X487380Y23238D01*
X486762Y22620D01*
X486093Y22059D01*
X485378Y21558D01*
X484622Y21121D01*
X483830Y20752D01*
X483010Y20454D01*
X482166Y20228D01*
X481307Y20076D01*
X480437Y20000D01*
X479563Y20000D01*
X478694Y20076D01*
X477834Y20228D01*
X476990Y20454D01*
X476170Y20752D01*
X475378Y21121D01*
X474622Y21558D01*
X473907Y22059D01*
X473238Y22620D01*
X472620Y23238D01*
X472059Y23907D01*
X471558Y24622D01*
X471121Y25378D01*
X470752Y26170D01*
X470454Y26990D01*
X470228Y27834D01*
X470076Y28694D01*
X470000Y29563D01*
X470000Y30437D01*
X470076Y31307D01*
X470228Y32166D01*
X470454Y33010D01*
X470752Y33830D01*
X471121Y34622D01*
X471558Y35378D01*
X472059Y36093D01*
X472620Y36762D01*
X473238Y37380D01*
X473907Y37941D01*
X474622Y38442D01*
X475378Y38879D01*
X476170Y39248D01*
X476990Y39546D01*
X477834Y39772D01*
X478694Y39924D01*
X479563Y40000D01*
X480437Y40000D01*
X481307Y39924D01*
X482166Y39772D01*
X483010Y39546D01*
X483830Y39248D01*
X484622Y38879D01*
X485378Y38442D01*
X486093Y37941D01*
X486762Y37380D01*
X487380Y36762D01*
X487941Y36093D01*
X488442Y35378D01*
X488879Y34622D01*
X489248Y33830D01*
X489546Y33010D01*
X489772Y32166D01*
X489924Y31307D01*
X490000Y30437D01*
X490000Y29563D01*
X490000Y539563D02*
X489924Y538694D01*
X489772Y537834D01*
X489546Y536990D01*
X489248Y536170D01*
X488879Y535378D01*
X488442Y534622D01*
X487941Y533907D01*
X487380Y533238D01*
X486762Y532620D01*
X486093Y532059D01*
X485378Y531558D01*
X484622Y531121D01*
X483830Y530752D01*
X483010Y530454D01*
X482166Y530228D01*
X481307Y530076D01*
X480437Y530000D01*
X479563Y530000D01*
X478694Y530076D01*
X477834Y530228D01*
X476990Y530454D01*
X476170Y530752D01*
X475378Y531121D01*
X474622Y531558D01*
X473907Y532059D01*
X473238Y532620D01*
X472620Y533238D01*
X472059Y533907D01*
X471558Y534622D01*
X471121Y535378D01*
X470752Y536170D01*
X470454Y536990D01*
X470228Y537834D01*
X470076Y538694D01*
X470000Y539563D01*
X470000Y540437D01*
X470076Y541307D01*
X470228Y542166D01*
X470454Y543010D01*
X470752Y543830D01*
X471121Y544622D01*
X471558Y545378D01*
X472059Y546093D01*
X472620Y546762D01*
X473238Y547380D01*
X473907Y547941D01*
X474622Y548442D01*
X475378Y548879D01*
X476170Y549248D01*
X476990Y549546D01*
X477834Y549772D01*
X478694Y549924D01*
X479563Y550000D01*
X480437Y550000D01*
X481307Y549924D01*
X482166Y549772D01*
X483010Y549546D01*
X483830Y549248D01*
X484622Y548879D01*
X485378Y548442D01*
X486093Y547941D01*
X486762Y547380D01*
X487380Y546762D01*
X487941Y546093D01*
X488442Y545378D01*
X488879Y544622D01*
X489248Y543830D01*
X489546Y543010D01*
X489772Y542166D01*
X489924Y541307D01*
X490000Y540437D01*
X490000Y539563D01*
X40000Y539563D02*
X39924Y538694D01*
X39772Y537834D01*
X39546Y536990D01*
X39248Y536170D01*
X38879Y535378D01*
X38442Y534622D01*
X37941Y533907D01*
X37380Y533238D01*
X36762Y532620D01*
X36093Y532059D01*
X35378Y531558D01*
X34622Y531121D01*
X33830Y530752D01*
X33010Y530454D01*
X32166Y530228D01*
X31307Y530076D01*
X30437Y530000D01*
X29563Y530000D01*
X28694Y530076D01*
X27834Y530228D01*
X26990Y530454D01*
X26170Y530752D01*
X25378Y531121D01*
X24622Y531558D01*
X23907Y532059D01*
X23238Y532620D01*
X22620Y533238D01*
X22059Y533907D01*
X21558Y534622D01*
X21121Y535378D01*
X20752Y536170D01*
X20454Y536990D01*
X20228Y537834D01*
X20076Y538694D01*
X20000Y539563D01*
X20000Y540437D01*
X20076Y541307D01*
X20228Y542166D01*
X20454Y543010D01*
X20752Y543830D01*
X21121Y544622D01*
X21558Y545378D01*
X22059Y546093D01*
X22620Y546762D01*
X23238Y547380D01*
X23907Y547941D01*
X24622Y548442D01*
X25378Y548879D01*
X26170Y549248D01*
X26990Y549546D01*
X27834Y549772D01*
X28694Y549924D01*
X29563Y550000D01*
X30437Y550000D01*
X31307Y549924D01*
X32166Y549772D01*
X33010Y549546D01*
X33830Y549248D01*
X34622Y548879D01*
X35378Y548442D01*
X36093Y547941D01*
X36762Y547380D01*
X37380Y546762D01*
X37941Y546093D01*
X38442Y545378D01*
X38879Y544622D01*
X39248Y543830D01*
X39546Y543010D01*
X39772Y542166D01*
X39924Y541307D01*
X40000Y540437D01*
X40000Y539563D01*
M02*
