G04 EAGLE Gerber RS-274X export*
G75*
%MOMM*%
%FSLAX34Y34*%
%LPD*%
%IN*%
%IPPOS*%
%AMOC8*
5,1,8,0,0,1.08239X$1,22.5*%
G01*
%ADD10C,0.254000*%


D10*
X0Y60000D02*
X228Y54771D01*
X912Y49581D01*
X2044Y44471D01*
X3618Y39479D01*
X5622Y34643D01*
X8038Y30000D01*
X10851Y25585D01*
X14037Y21433D01*
X17574Y17574D01*
X21433Y14037D01*
X25585Y10851D01*
X30000Y8038D01*
X34643Y5622D01*
X39479Y3618D01*
X44471Y2044D01*
X49581Y912D01*
X54771Y228D01*
X60000Y0D01*
X690000Y0D01*
X695229Y228D01*
X700419Y912D01*
X705529Y2044D01*
X710521Y3618D01*
X715357Y5622D01*
X720000Y8038D01*
X724415Y10851D01*
X728567Y14037D01*
X732426Y17574D01*
X735963Y21433D01*
X739149Y25585D01*
X741962Y30000D01*
X744378Y34643D01*
X746382Y39479D01*
X747956Y44471D01*
X749088Y49581D01*
X749772Y54771D01*
X750000Y60000D01*
X750000Y690000D01*
X749772Y695229D01*
X749088Y700419D01*
X747956Y705529D01*
X746382Y710521D01*
X744378Y715357D01*
X741962Y720000D01*
X739149Y724415D01*
X735963Y728567D01*
X732426Y732426D01*
X728567Y735963D01*
X724415Y739149D01*
X720000Y741962D01*
X715357Y744378D01*
X710521Y746382D01*
X705529Y747956D01*
X700419Y749088D01*
X695229Y749772D01*
X690000Y750000D01*
X60000Y750000D01*
X54771Y749772D01*
X49581Y749088D01*
X44471Y747956D01*
X39479Y746382D01*
X34643Y744378D01*
X30000Y741962D01*
X25585Y739149D01*
X21433Y735963D01*
X17574Y732426D01*
X14037Y728567D01*
X10851Y724415D01*
X8038Y720000D01*
X5622Y715357D01*
X3618Y710521D01*
X2044Y705529D01*
X912Y700419D01*
X228Y695229D01*
X0Y690000D01*
X0Y60000D01*
X720000Y709563D02*
X719924Y708694D01*
X719772Y707834D01*
X719546Y706990D01*
X719248Y706170D01*
X718879Y705378D01*
X718442Y704622D01*
X717941Y703907D01*
X717380Y703238D01*
X716762Y702620D01*
X716093Y702059D01*
X715378Y701558D01*
X714622Y701121D01*
X713830Y700752D01*
X713010Y700454D01*
X712166Y700228D01*
X711307Y700076D01*
X710437Y700000D01*
X709563Y700000D01*
X708694Y700076D01*
X707834Y700228D01*
X706990Y700454D01*
X706170Y700752D01*
X705378Y701121D01*
X704622Y701558D01*
X703907Y702059D01*
X703238Y702620D01*
X702620Y703238D01*
X702059Y703907D01*
X701558Y704622D01*
X701121Y705378D01*
X700752Y706170D01*
X700454Y706990D01*
X700228Y707834D01*
X700076Y708694D01*
X700000Y709563D01*
X700000Y710437D01*
X700076Y711307D01*
X700228Y712166D01*
X700454Y713010D01*
X700752Y713830D01*
X701121Y714622D01*
X701558Y715378D01*
X702059Y716093D01*
X702620Y716762D01*
X703238Y717380D01*
X703907Y717941D01*
X704622Y718442D01*
X705378Y718879D01*
X706170Y719248D01*
X706990Y719546D01*
X707834Y719772D01*
X708694Y719924D01*
X709563Y720000D01*
X710437Y720000D01*
X711307Y719924D01*
X712166Y719772D01*
X713010Y719546D01*
X713830Y719248D01*
X714622Y718879D01*
X715378Y718442D01*
X716093Y717941D01*
X716762Y717380D01*
X717380Y716762D01*
X717941Y716093D01*
X718442Y715378D01*
X718879Y714622D01*
X719248Y713830D01*
X719546Y713010D01*
X719772Y712166D01*
X719924Y711307D01*
X720000Y710437D01*
X720000Y709563D01*
X50000Y709563D02*
X49924Y708694D01*
X49772Y707834D01*
X49546Y706990D01*
X49248Y706170D01*
X48879Y705378D01*
X48442Y704622D01*
X47941Y703907D01*
X47380Y703238D01*
X46762Y702620D01*
X46093Y702059D01*
X45378Y701558D01*
X44622Y701121D01*
X43830Y700752D01*
X43010Y700454D01*
X42166Y700228D01*
X41307Y700076D01*
X40437Y700000D01*
X39563Y700000D01*
X38694Y700076D01*
X37834Y700228D01*
X36990Y700454D01*
X36170Y700752D01*
X35378Y701121D01*
X34622Y701558D01*
X33907Y702059D01*
X33238Y702620D01*
X32620Y703238D01*
X32059Y703907D01*
X31558Y704622D01*
X31121Y705378D01*
X30752Y706170D01*
X30454Y706990D01*
X30228Y707834D01*
X30076Y708694D01*
X30000Y709563D01*
X30000Y710437D01*
X30076Y711307D01*
X30228Y712166D01*
X30454Y713010D01*
X30752Y713830D01*
X31121Y714622D01*
X31558Y715378D01*
X32059Y716093D01*
X32620Y716762D01*
X33238Y717380D01*
X33907Y717941D01*
X34622Y718442D01*
X35378Y718879D01*
X36170Y719248D01*
X36990Y719546D01*
X37834Y719772D01*
X38694Y719924D01*
X39563Y720000D01*
X40437Y720000D01*
X41307Y719924D01*
X42166Y719772D01*
X43010Y719546D01*
X43830Y719248D01*
X44622Y718879D01*
X45378Y718442D01*
X46093Y717941D01*
X46762Y717380D01*
X47380Y716762D01*
X47941Y716093D01*
X48442Y715378D01*
X48879Y714622D01*
X49248Y713830D01*
X49546Y713010D01*
X49772Y712166D01*
X49924Y711307D01*
X50000Y710437D01*
X50000Y709563D01*
X50000Y39563D02*
X49924Y38694D01*
X49772Y37834D01*
X49546Y36990D01*
X49248Y36170D01*
X48879Y35378D01*
X48442Y34622D01*
X47941Y33907D01*
X47380Y33238D01*
X46762Y32620D01*
X46093Y32059D01*
X45378Y31558D01*
X44622Y31121D01*
X43830Y30752D01*
X43010Y30454D01*
X42166Y30228D01*
X41307Y30076D01*
X40437Y30000D01*
X39563Y30000D01*
X38694Y30076D01*
X37834Y30228D01*
X36990Y30454D01*
X36170Y30752D01*
X35378Y31121D01*
X34622Y31558D01*
X33907Y32059D01*
X33238Y32620D01*
X32620Y33238D01*
X32059Y33907D01*
X31558Y34622D01*
X31121Y35378D01*
X30752Y36170D01*
X30454Y36990D01*
X30228Y37834D01*
X30076Y38694D01*
X30000Y39563D01*
X30000Y40437D01*
X30076Y41307D01*
X30228Y42166D01*
X30454Y43010D01*
X30752Y43830D01*
X31121Y44622D01*
X31558Y45378D01*
X32059Y46093D01*
X32620Y46762D01*
X33238Y47380D01*
X33907Y47941D01*
X34622Y48442D01*
X35378Y48879D01*
X36170Y49248D01*
X36990Y49546D01*
X37834Y49772D01*
X38694Y49924D01*
X39563Y50000D01*
X40437Y50000D01*
X41307Y49924D01*
X42166Y49772D01*
X43010Y49546D01*
X43830Y49248D01*
X44622Y48879D01*
X45378Y48442D01*
X46093Y47941D01*
X46762Y47380D01*
X47380Y46762D01*
X47941Y46093D01*
X48442Y45378D01*
X48879Y44622D01*
X49248Y43830D01*
X49546Y43010D01*
X49772Y42166D01*
X49924Y41307D01*
X50000Y40437D01*
X50000Y39563D01*
X720000Y39563D02*
X719924Y38694D01*
X719772Y37834D01*
X719546Y36990D01*
X719248Y36170D01*
X718879Y35378D01*
X718442Y34622D01*
X717941Y33907D01*
X717380Y33238D01*
X716762Y32620D01*
X716093Y32059D01*
X715378Y31558D01*
X714622Y31121D01*
X713830Y30752D01*
X713010Y30454D01*
X712166Y30228D01*
X711307Y30076D01*
X710437Y30000D01*
X709563Y30000D01*
X708694Y30076D01*
X707834Y30228D01*
X706990Y30454D01*
X706170Y30752D01*
X705378Y31121D01*
X704622Y31558D01*
X703907Y32059D01*
X703238Y32620D01*
X702620Y33238D01*
X702059Y33907D01*
X701558Y34622D01*
X701121Y35378D01*
X700752Y36170D01*
X700454Y36990D01*
X700228Y37834D01*
X700076Y38694D01*
X700000Y39563D01*
X700000Y40437D01*
X700076Y41307D01*
X700228Y42166D01*
X700454Y43010D01*
X700752Y43830D01*
X701121Y44622D01*
X701558Y45378D01*
X702059Y46093D01*
X702620Y46762D01*
X703238Y47380D01*
X703907Y47941D01*
X704622Y48442D01*
X705378Y48879D01*
X706170Y49248D01*
X706990Y49546D01*
X707834Y49772D01*
X708694Y49924D01*
X709563Y50000D01*
X710437Y50000D01*
X711307Y49924D01*
X712166Y49772D01*
X713010Y49546D01*
X713830Y49248D01*
X714622Y48879D01*
X715378Y48442D01*
X716093Y47941D01*
X716762Y47380D01*
X717380Y46762D01*
X717941Y46093D01*
X718442Y45378D01*
X718879Y44622D01*
X719248Y43830D01*
X719546Y43010D01*
X719772Y42166D01*
X719924Y41307D01*
X720000Y40437D01*
X720000Y39563D01*
M02*
