G04 EAGLE Gerber RS-274X export*
G75*
%MOMM*%
%FSLAX34Y34*%
%LPD*%
%INSilkscreen Bottom*%
%IPPOS*%
%AMOC8*
5,1,8,0,0,1.08239X$1,22.5*%
G01*
%ADD10C,0.076200*%
%ADD11C,0.152400*%
%ADD12C,0.100000*%
%ADD13C,0.200000*%
%ADD14C,0.101600*%
%ADD15C,0.127000*%
%ADD16C,0.203200*%


D10*
X84214Y23203D02*
X82987Y23203D01*
X82987Y19111D01*
X85442Y19111D01*
X85520Y19113D01*
X85598Y19118D01*
X85675Y19128D01*
X85752Y19141D01*
X85828Y19157D01*
X85903Y19177D01*
X85977Y19201D01*
X86050Y19228D01*
X86122Y19259D01*
X86192Y19293D01*
X86261Y19330D01*
X86327Y19371D01*
X86392Y19415D01*
X86454Y19461D01*
X86514Y19511D01*
X86572Y19563D01*
X86627Y19618D01*
X86679Y19676D01*
X86729Y19736D01*
X86775Y19798D01*
X86819Y19863D01*
X86860Y19930D01*
X86897Y19998D01*
X86931Y20068D01*
X86962Y20140D01*
X86989Y20213D01*
X87013Y20287D01*
X87033Y20362D01*
X87049Y20438D01*
X87062Y20515D01*
X87072Y20592D01*
X87077Y20670D01*
X87079Y20748D01*
X87079Y24840D01*
X87077Y24918D01*
X87072Y24996D01*
X87062Y25073D01*
X87049Y25150D01*
X87033Y25226D01*
X87013Y25301D01*
X86989Y25375D01*
X86962Y25448D01*
X86931Y25520D01*
X86897Y25590D01*
X86860Y25659D01*
X86819Y25725D01*
X86775Y25790D01*
X86729Y25852D01*
X86679Y25912D01*
X86627Y25970D01*
X86572Y26025D01*
X86514Y26077D01*
X86454Y26127D01*
X86392Y26173D01*
X86327Y26217D01*
X86261Y26258D01*
X86192Y26295D01*
X86122Y26329D01*
X86050Y26360D01*
X85977Y26387D01*
X85903Y26411D01*
X85828Y26431D01*
X85752Y26447D01*
X85675Y26460D01*
X85598Y26470D01*
X85520Y26475D01*
X85442Y26477D01*
X82987Y26477D01*
X79276Y26477D02*
X79276Y19111D01*
X75184Y19111D02*
X79276Y26477D01*
X75184Y26477D02*
X75184Y19111D01*
X71473Y19111D02*
X71473Y26477D01*
X69427Y26477D01*
X69338Y26475D01*
X69249Y26469D01*
X69160Y26459D01*
X69072Y26446D01*
X68984Y26429D01*
X68897Y26407D01*
X68812Y26382D01*
X68727Y26354D01*
X68644Y26321D01*
X68562Y26285D01*
X68482Y26246D01*
X68404Y26203D01*
X68328Y26157D01*
X68253Y26107D01*
X68181Y26054D01*
X68112Y25998D01*
X68045Y25939D01*
X67980Y25878D01*
X67919Y25813D01*
X67860Y25746D01*
X67804Y25677D01*
X67751Y25605D01*
X67701Y25530D01*
X67655Y25454D01*
X67612Y25376D01*
X67573Y25296D01*
X67537Y25214D01*
X67504Y25131D01*
X67476Y25046D01*
X67451Y24961D01*
X67429Y24874D01*
X67412Y24786D01*
X67399Y24698D01*
X67389Y24609D01*
X67383Y24520D01*
X67381Y24431D01*
X67381Y21157D01*
X67383Y21068D01*
X67389Y20979D01*
X67399Y20890D01*
X67412Y20802D01*
X67429Y20714D01*
X67451Y20627D01*
X67476Y20542D01*
X67504Y20457D01*
X67537Y20374D01*
X67573Y20292D01*
X67612Y20212D01*
X67655Y20134D01*
X67701Y20058D01*
X67751Y19983D01*
X67804Y19911D01*
X67860Y19842D01*
X67919Y19775D01*
X67980Y19710D01*
X68045Y19649D01*
X68112Y19590D01*
X68181Y19534D01*
X68253Y19481D01*
X68328Y19431D01*
X68404Y19385D01*
X68482Y19342D01*
X68562Y19303D01*
X68644Y19267D01*
X68727Y19234D01*
X68812Y19206D01*
X68897Y19181D01*
X68984Y19159D01*
X69072Y19142D01*
X69160Y19129D01*
X69249Y19119D01*
X69338Y19113D01*
X69427Y19111D01*
X71473Y19111D01*
X112987Y20748D02*
X112989Y20670D01*
X112994Y20592D01*
X113004Y20515D01*
X113017Y20438D01*
X113033Y20362D01*
X113053Y20287D01*
X113077Y20213D01*
X113104Y20140D01*
X113135Y20068D01*
X113169Y19998D01*
X113206Y19929D01*
X113247Y19863D01*
X113291Y19798D01*
X113337Y19736D01*
X113387Y19676D01*
X113439Y19618D01*
X113494Y19563D01*
X113552Y19511D01*
X113612Y19461D01*
X113674Y19415D01*
X113739Y19371D01*
X113806Y19330D01*
X113874Y19293D01*
X113944Y19259D01*
X114016Y19228D01*
X114089Y19201D01*
X114163Y19177D01*
X114238Y19157D01*
X114314Y19141D01*
X114391Y19128D01*
X114468Y19118D01*
X114546Y19113D01*
X114624Y19111D01*
X114738Y19113D01*
X114851Y19118D01*
X114965Y19128D01*
X115078Y19141D01*
X115190Y19158D01*
X115302Y19178D01*
X115413Y19202D01*
X115524Y19230D01*
X115633Y19261D01*
X115741Y19296D01*
X115848Y19335D01*
X115954Y19377D01*
X116058Y19422D01*
X116161Y19471D01*
X116262Y19524D01*
X116361Y19579D01*
X116459Y19638D01*
X116554Y19700D01*
X116647Y19765D01*
X116739Y19833D01*
X116827Y19904D01*
X116914Y19978D01*
X116998Y20055D01*
X117079Y20134D01*
X116875Y24840D02*
X116873Y24918D01*
X116868Y24996D01*
X116858Y25073D01*
X116845Y25150D01*
X116829Y25226D01*
X116809Y25301D01*
X116785Y25375D01*
X116758Y25448D01*
X116727Y25520D01*
X116693Y25590D01*
X116656Y25659D01*
X116615Y25725D01*
X116571Y25790D01*
X116525Y25852D01*
X116475Y25912D01*
X116423Y25970D01*
X116368Y26025D01*
X116310Y26077D01*
X116250Y26127D01*
X116188Y26173D01*
X116123Y26217D01*
X116057Y26258D01*
X115988Y26295D01*
X115918Y26329D01*
X115846Y26360D01*
X115773Y26387D01*
X115699Y26411D01*
X115624Y26431D01*
X115548Y26447D01*
X115471Y26460D01*
X115394Y26470D01*
X115316Y26475D01*
X115238Y26477D01*
X115128Y26475D01*
X115019Y26469D01*
X114909Y26459D01*
X114801Y26446D01*
X114692Y26428D01*
X114585Y26407D01*
X114478Y26381D01*
X114372Y26352D01*
X114267Y26320D01*
X114164Y26283D01*
X114062Y26243D01*
X113961Y26199D01*
X113862Y26151D01*
X113765Y26101D01*
X113670Y26046D01*
X113577Y25988D01*
X113486Y25927D01*
X113397Y25863D01*
X116056Y23407D02*
X116123Y23449D01*
X116188Y23493D01*
X116250Y23541D01*
X116310Y23591D01*
X116368Y23644D01*
X116423Y23700D01*
X116475Y23759D01*
X116525Y23819D01*
X116572Y23883D01*
X116615Y23948D01*
X116656Y24015D01*
X116693Y24084D01*
X116727Y24155D01*
X116758Y24227D01*
X116785Y24301D01*
X116809Y24375D01*
X116829Y24451D01*
X116845Y24528D01*
X116858Y24605D01*
X116868Y24683D01*
X116873Y24762D01*
X116875Y24840D01*
X113805Y22180D02*
X113739Y22139D01*
X113674Y22094D01*
X113612Y22047D01*
X113552Y21996D01*
X113494Y21943D01*
X113439Y21887D01*
X113386Y21829D01*
X113337Y21768D01*
X113290Y21705D01*
X113247Y21640D01*
X113206Y21573D01*
X113169Y21504D01*
X113135Y21433D01*
X113104Y21361D01*
X113077Y21287D01*
X113053Y21212D01*
X113033Y21137D01*
X113017Y21060D01*
X113004Y20983D01*
X112994Y20905D01*
X112989Y20826D01*
X112987Y20748D01*
X113805Y22180D02*
X116056Y23408D01*
X107757Y26478D02*
X107672Y26476D01*
X107587Y26470D01*
X107503Y26460D01*
X107419Y26447D01*
X107335Y26429D01*
X107253Y26408D01*
X107172Y26383D01*
X107092Y26354D01*
X107013Y26321D01*
X106936Y26285D01*
X106861Y26245D01*
X106787Y26202D01*
X106716Y26156D01*
X106647Y26106D01*
X106580Y26053D01*
X106516Y25997D01*
X106455Y25938D01*
X106396Y25877D01*
X106340Y25813D01*
X106287Y25746D01*
X106237Y25677D01*
X106191Y25606D01*
X106148Y25532D01*
X106108Y25457D01*
X106072Y25380D01*
X106039Y25301D01*
X106010Y25221D01*
X105985Y25140D01*
X105964Y25058D01*
X105946Y24974D01*
X105933Y24890D01*
X105923Y24806D01*
X105917Y24721D01*
X105915Y24636D01*
X107757Y26477D02*
X107853Y26475D01*
X107949Y26469D01*
X108044Y26459D01*
X108139Y26446D01*
X108234Y26428D01*
X108327Y26407D01*
X108420Y26382D01*
X108511Y26353D01*
X108602Y26321D01*
X108691Y26285D01*
X108778Y26245D01*
X108864Y26202D01*
X108948Y26156D01*
X109030Y26106D01*
X109110Y26052D01*
X109187Y25996D01*
X109262Y25936D01*
X109335Y25874D01*
X109405Y25808D01*
X109473Y25740D01*
X109538Y25669D01*
X109599Y25596D01*
X109658Y25520D01*
X109714Y25441D01*
X109766Y25361D01*
X109815Y25278D01*
X109861Y25194D01*
X109903Y25108D01*
X109941Y25020D01*
X109976Y24931D01*
X110008Y24840D01*
X106529Y23204D02*
X106469Y23263D01*
X106412Y23325D01*
X106357Y23389D01*
X106306Y23456D01*
X106257Y23525D01*
X106211Y23595D01*
X106168Y23668D01*
X106128Y23742D01*
X106092Y23818D01*
X106059Y23896D01*
X106029Y23975D01*
X106002Y24055D01*
X105979Y24136D01*
X105960Y24218D01*
X105944Y24300D01*
X105931Y24384D01*
X105922Y24468D01*
X105917Y24552D01*
X105915Y24636D01*
X106529Y23203D02*
X110008Y19111D01*
X105915Y19111D01*
X146657Y21068D02*
X146659Y20990D01*
X146664Y20912D01*
X146674Y20835D01*
X146687Y20758D01*
X146703Y20682D01*
X146723Y20607D01*
X146747Y20533D01*
X146774Y20460D01*
X146805Y20388D01*
X146839Y20318D01*
X146876Y20249D01*
X146917Y20183D01*
X146961Y20118D01*
X147007Y20056D01*
X147057Y19996D01*
X147109Y19938D01*
X147164Y19883D01*
X147222Y19831D01*
X147282Y19781D01*
X147344Y19735D01*
X147409Y19691D01*
X147476Y19650D01*
X147544Y19613D01*
X147614Y19579D01*
X147686Y19548D01*
X147759Y19521D01*
X147833Y19497D01*
X147908Y19477D01*
X147984Y19461D01*
X148061Y19448D01*
X148138Y19438D01*
X148216Y19433D01*
X148294Y19431D01*
X148408Y19433D01*
X148521Y19438D01*
X148635Y19448D01*
X148748Y19461D01*
X148860Y19478D01*
X148972Y19498D01*
X149083Y19522D01*
X149194Y19550D01*
X149303Y19581D01*
X149411Y19616D01*
X149518Y19655D01*
X149624Y19697D01*
X149728Y19742D01*
X149831Y19791D01*
X149932Y19844D01*
X150031Y19899D01*
X150129Y19958D01*
X150224Y20020D01*
X150317Y20085D01*
X150409Y20153D01*
X150497Y20224D01*
X150584Y20298D01*
X150668Y20375D01*
X150749Y20454D01*
X150545Y25160D02*
X150543Y25238D01*
X150538Y25316D01*
X150528Y25393D01*
X150515Y25470D01*
X150499Y25546D01*
X150479Y25621D01*
X150455Y25695D01*
X150428Y25768D01*
X150397Y25840D01*
X150363Y25910D01*
X150326Y25979D01*
X150285Y26045D01*
X150241Y26110D01*
X150195Y26172D01*
X150145Y26232D01*
X150093Y26290D01*
X150038Y26345D01*
X149980Y26397D01*
X149920Y26447D01*
X149858Y26493D01*
X149793Y26537D01*
X149727Y26578D01*
X149658Y26615D01*
X149588Y26649D01*
X149516Y26680D01*
X149443Y26707D01*
X149369Y26731D01*
X149294Y26751D01*
X149218Y26767D01*
X149141Y26780D01*
X149064Y26790D01*
X148986Y26795D01*
X148908Y26797D01*
X148798Y26795D01*
X148689Y26789D01*
X148579Y26779D01*
X148471Y26766D01*
X148362Y26748D01*
X148255Y26727D01*
X148148Y26701D01*
X148042Y26672D01*
X147937Y26640D01*
X147834Y26603D01*
X147732Y26563D01*
X147631Y26519D01*
X147532Y26471D01*
X147435Y26421D01*
X147340Y26366D01*
X147247Y26308D01*
X147156Y26247D01*
X147067Y26183D01*
X149726Y23727D02*
X149793Y23769D01*
X149858Y23813D01*
X149920Y23861D01*
X149980Y23911D01*
X150038Y23964D01*
X150093Y24020D01*
X150145Y24079D01*
X150195Y24139D01*
X150242Y24203D01*
X150285Y24268D01*
X150326Y24335D01*
X150363Y24404D01*
X150397Y24475D01*
X150428Y24547D01*
X150455Y24621D01*
X150479Y24695D01*
X150499Y24771D01*
X150515Y24848D01*
X150528Y24925D01*
X150538Y25003D01*
X150543Y25082D01*
X150545Y25160D01*
X147475Y22500D02*
X147409Y22459D01*
X147344Y22414D01*
X147282Y22367D01*
X147222Y22316D01*
X147164Y22263D01*
X147109Y22207D01*
X147056Y22149D01*
X147007Y22088D01*
X146960Y22025D01*
X146917Y21960D01*
X146876Y21893D01*
X146839Y21824D01*
X146805Y21753D01*
X146774Y21681D01*
X146747Y21607D01*
X146723Y21532D01*
X146703Y21457D01*
X146687Y21380D01*
X146674Y21303D01*
X146664Y21225D01*
X146659Y21146D01*
X146657Y21068D01*
X147475Y22500D02*
X149726Y23728D01*
X143678Y25160D02*
X141632Y26797D01*
X141632Y19431D01*
X143678Y19431D02*
X139585Y19431D01*
X182895Y18481D02*
X184532Y18481D01*
X184610Y18483D01*
X184688Y18488D01*
X184765Y18498D01*
X184842Y18511D01*
X184918Y18527D01*
X184993Y18547D01*
X185067Y18571D01*
X185140Y18598D01*
X185212Y18629D01*
X185282Y18663D01*
X185351Y18700D01*
X185417Y18741D01*
X185482Y18785D01*
X185544Y18831D01*
X185604Y18881D01*
X185662Y18933D01*
X185717Y18988D01*
X185769Y19046D01*
X185819Y19106D01*
X185865Y19168D01*
X185909Y19233D01*
X185950Y19300D01*
X185987Y19368D01*
X186021Y19438D01*
X186052Y19510D01*
X186079Y19583D01*
X186103Y19657D01*
X186123Y19732D01*
X186139Y19808D01*
X186152Y19885D01*
X186162Y19962D01*
X186167Y20040D01*
X186169Y20118D01*
X186169Y24210D01*
X186167Y24288D01*
X186162Y24366D01*
X186152Y24443D01*
X186139Y24520D01*
X186123Y24596D01*
X186103Y24671D01*
X186079Y24745D01*
X186052Y24818D01*
X186021Y24890D01*
X185987Y24960D01*
X185950Y25029D01*
X185909Y25095D01*
X185865Y25160D01*
X185819Y25222D01*
X185769Y25282D01*
X185717Y25340D01*
X185662Y25395D01*
X185604Y25447D01*
X185544Y25497D01*
X185482Y25543D01*
X185417Y25587D01*
X185351Y25628D01*
X185282Y25665D01*
X185212Y25699D01*
X185140Y25730D01*
X185067Y25757D01*
X184993Y25781D01*
X184918Y25801D01*
X184842Y25817D01*
X184765Y25830D01*
X184688Y25840D01*
X184610Y25845D01*
X184532Y25847D01*
X182895Y25847D01*
X180050Y24210D02*
X178004Y25847D01*
X178004Y18481D01*
X180050Y18481D02*
X175958Y18481D01*
X221044Y26167D02*
X223499Y18801D01*
X218588Y18801D02*
X221044Y26167D01*
X222885Y20643D02*
X219202Y20643D01*
X215775Y24530D02*
X213729Y26167D01*
X213729Y18801D01*
X215775Y18801D02*
X211682Y18801D01*
X253774Y26487D02*
X256229Y19121D01*
X251318Y19121D02*
X253774Y26487D01*
X255615Y20963D02*
X251932Y20963D01*
X246254Y26488D02*
X246169Y26486D01*
X246084Y26480D01*
X246000Y26470D01*
X245916Y26457D01*
X245832Y26439D01*
X245750Y26418D01*
X245669Y26393D01*
X245589Y26364D01*
X245510Y26331D01*
X245433Y26295D01*
X245358Y26255D01*
X245284Y26212D01*
X245213Y26166D01*
X245144Y26116D01*
X245077Y26063D01*
X245013Y26007D01*
X244952Y25948D01*
X244893Y25887D01*
X244837Y25823D01*
X244784Y25756D01*
X244734Y25687D01*
X244688Y25616D01*
X244645Y25542D01*
X244605Y25467D01*
X244569Y25390D01*
X244536Y25311D01*
X244507Y25231D01*
X244482Y25150D01*
X244461Y25068D01*
X244443Y24984D01*
X244430Y24900D01*
X244420Y24816D01*
X244414Y24731D01*
X244412Y24646D01*
X246254Y26487D02*
X246350Y26485D01*
X246446Y26479D01*
X246541Y26469D01*
X246636Y26456D01*
X246731Y26438D01*
X246824Y26417D01*
X246917Y26392D01*
X247008Y26363D01*
X247099Y26331D01*
X247188Y26295D01*
X247275Y26255D01*
X247361Y26212D01*
X247445Y26166D01*
X247527Y26116D01*
X247607Y26062D01*
X247684Y26006D01*
X247759Y25946D01*
X247832Y25884D01*
X247902Y25818D01*
X247970Y25750D01*
X248035Y25679D01*
X248096Y25606D01*
X248155Y25530D01*
X248211Y25451D01*
X248263Y25371D01*
X248312Y25288D01*
X248358Y25204D01*
X248400Y25118D01*
X248438Y25030D01*
X248473Y24941D01*
X248505Y24850D01*
X245026Y23214D02*
X244966Y23273D01*
X244909Y23335D01*
X244854Y23399D01*
X244803Y23466D01*
X244754Y23535D01*
X244708Y23605D01*
X244665Y23678D01*
X244625Y23752D01*
X244589Y23828D01*
X244556Y23906D01*
X244526Y23985D01*
X244499Y24065D01*
X244476Y24146D01*
X244457Y24228D01*
X244441Y24310D01*
X244428Y24394D01*
X244419Y24478D01*
X244414Y24562D01*
X244412Y24646D01*
X245026Y23213D02*
X248505Y19121D01*
X244412Y19121D01*
X323774Y26487D02*
X326229Y19121D01*
X321318Y19121D02*
X323774Y26487D01*
X325615Y20963D02*
X321932Y20963D01*
X318505Y19121D02*
X316459Y19121D01*
X316370Y19123D01*
X316281Y19129D01*
X316192Y19139D01*
X316104Y19152D01*
X316016Y19169D01*
X315929Y19191D01*
X315844Y19216D01*
X315759Y19244D01*
X315676Y19277D01*
X315594Y19313D01*
X315514Y19352D01*
X315436Y19395D01*
X315360Y19441D01*
X315285Y19491D01*
X315213Y19544D01*
X315144Y19600D01*
X315077Y19659D01*
X315012Y19720D01*
X314951Y19785D01*
X314892Y19852D01*
X314836Y19921D01*
X314783Y19993D01*
X314733Y20068D01*
X314687Y20144D01*
X314644Y20222D01*
X314605Y20302D01*
X314569Y20384D01*
X314536Y20467D01*
X314508Y20552D01*
X314483Y20637D01*
X314461Y20724D01*
X314444Y20812D01*
X314431Y20900D01*
X314421Y20989D01*
X314415Y21078D01*
X314413Y21167D01*
X314415Y21256D01*
X314421Y21345D01*
X314431Y21434D01*
X314444Y21522D01*
X314461Y21610D01*
X314483Y21697D01*
X314508Y21782D01*
X314536Y21867D01*
X314569Y21950D01*
X314605Y22032D01*
X314644Y22112D01*
X314687Y22190D01*
X314733Y22266D01*
X314783Y22341D01*
X314836Y22413D01*
X314892Y22482D01*
X314951Y22549D01*
X315012Y22614D01*
X315077Y22675D01*
X315144Y22734D01*
X315213Y22790D01*
X315285Y22843D01*
X315360Y22893D01*
X315436Y22939D01*
X315514Y22982D01*
X315594Y23021D01*
X315676Y23057D01*
X315759Y23090D01*
X315844Y23118D01*
X315929Y23143D01*
X316016Y23165D01*
X316104Y23182D01*
X316192Y23195D01*
X316281Y23205D01*
X316370Y23211D01*
X316459Y23213D01*
X316049Y26487D02*
X318505Y26487D01*
X316049Y26487D02*
X315970Y26485D01*
X315891Y26479D01*
X315812Y26470D01*
X315734Y26457D01*
X315657Y26439D01*
X315581Y26419D01*
X315506Y26394D01*
X315432Y26366D01*
X315359Y26335D01*
X315288Y26299D01*
X315219Y26261D01*
X315152Y26219D01*
X315087Y26174D01*
X315024Y26126D01*
X314963Y26075D01*
X314906Y26021D01*
X314850Y25965D01*
X314798Y25906D01*
X314748Y25844D01*
X314702Y25780D01*
X314658Y25714D01*
X314618Y25646D01*
X314582Y25576D01*
X314548Y25504D01*
X314518Y25430D01*
X314492Y25356D01*
X314469Y25280D01*
X314451Y25203D01*
X314435Y25126D01*
X314424Y25047D01*
X314416Y24969D01*
X314412Y24890D01*
X314412Y24810D01*
X314416Y24731D01*
X314424Y24653D01*
X314435Y24574D01*
X314451Y24497D01*
X314469Y24420D01*
X314492Y24344D01*
X314518Y24270D01*
X314548Y24196D01*
X314582Y24124D01*
X314618Y24054D01*
X314658Y23986D01*
X314702Y23920D01*
X314748Y23856D01*
X314798Y23794D01*
X314850Y23735D01*
X314906Y23679D01*
X314963Y23625D01*
X315024Y23574D01*
X315087Y23526D01*
X315152Y23481D01*
X315219Y23439D01*
X315288Y23401D01*
X315359Y23365D01*
X315432Y23334D01*
X315506Y23306D01*
X315581Y23281D01*
X315657Y23261D01*
X315734Y23243D01*
X315812Y23230D01*
X315891Y23221D01*
X315970Y23215D01*
X316049Y23213D01*
X317686Y23213D01*
X359534Y26807D02*
X361989Y19441D01*
X357078Y19441D02*
X359534Y26807D01*
X361375Y21283D02*
X357692Y21283D01*
X354265Y21078D02*
X352628Y26807D01*
X354265Y21078D02*
X350172Y21078D01*
X351400Y22715D02*
X351400Y19441D01*
X290442Y18801D02*
X288805Y18801D01*
X290442Y18801D02*
X290520Y18803D01*
X290598Y18808D01*
X290675Y18818D01*
X290752Y18831D01*
X290828Y18847D01*
X290903Y18867D01*
X290977Y18891D01*
X291050Y18918D01*
X291122Y18949D01*
X291192Y18983D01*
X291261Y19020D01*
X291327Y19061D01*
X291392Y19105D01*
X291454Y19151D01*
X291514Y19201D01*
X291572Y19253D01*
X291627Y19308D01*
X291679Y19366D01*
X291729Y19426D01*
X291775Y19488D01*
X291819Y19553D01*
X291860Y19620D01*
X291897Y19688D01*
X291931Y19758D01*
X291962Y19830D01*
X291989Y19903D01*
X292013Y19977D01*
X292033Y20052D01*
X292049Y20128D01*
X292062Y20205D01*
X292072Y20282D01*
X292077Y20360D01*
X292079Y20438D01*
X292079Y24530D01*
X292077Y24608D01*
X292072Y24686D01*
X292062Y24763D01*
X292049Y24840D01*
X292033Y24916D01*
X292013Y24991D01*
X291989Y25065D01*
X291962Y25138D01*
X291931Y25210D01*
X291897Y25280D01*
X291860Y25349D01*
X291819Y25415D01*
X291775Y25480D01*
X291729Y25542D01*
X291679Y25602D01*
X291627Y25660D01*
X291572Y25715D01*
X291514Y25767D01*
X291454Y25817D01*
X291392Y25863D01*
X291327Y25907D01*
X291261Y25948D01*
X291192Y25985D01*
X291122Y26019D01*
X291050Y26050D01*
X290977Y26077D01*
X290903Y26101D01*
X290828Y26121D01*
X290752Y26137D01*
X290675Y26150D01*
X290598Y26160D01*
X290520Y26165D01*
X290442Y26167D01*
X288805Y26167D01*
X283709Y26168D02*
X283624Y26166D01*
X283539Y26160D01*
X283455Y26150D01*
X283371Y26137D01*
X283287Y26119D01*
X283205Y26098D01*
X283124Y26073D01*
X283044Y26044D01*
X282965Y26011D01*
X282888Y25975D01*
X282813Y25935D01*
X282739Y25892D01*
X282668Y25846D01*
X282599Y25796D01*
X282532Y25743D01*
X282468Y25687D01*
X282407Y25628D01*
X282348Y25567D01*
X282292Y25503D01*
X282239Y25436D01*
X282189Y25367D01*
X282143Y25296D01*
X282100Y25222D01*
X282060Y25147D01*
X282024Y25070D01*
X281991Y24991D01*
X281962Y24911D01*
X281937Y24830D01*
X281916Y24748D01*
X281898Y24664D01*
X281885Y24580D01*
X281875Y24496D01*
X281869Y24411D01*
X281867Y24326D01*
X283709Y26167D02*
X283805Y26165D01*
X283901Y26159D01*
X283996Y26149D01*
X284091Y26136D01*
X284186Y26118D01*
X284279Y26097D01*
X284372Y26072D01*
X284463Y26043D01*
X284554Y26011D01*
X284643Y25975D01*
X284730Y25935D01*
X284816Y25892D01*
X284900Y25846D01*
X284982Y25796D01*
X285062Y25742D01*
X285139Y25686D01*
X285214Y25626D01*
X285287Y25564D01*
X285357Y25498D01*
X285425Y25430D01*
X285490Y25359D01*
X285551Y25286D01*
X285610Y25210D01*
X285666Y25131D01*
X285718Y25051D01*
X285767Y24968D01*
X285813Y24884D01*
X285855Y24798D01*
X285893Y24710D01*
X285928Y24621D01*
X285960Y24530D01*
X282482Y22894D02*
X282422Y22953D01*
X282365Y23015D01*
X282310Y23079D01*
X282259Y23146D01*
X282210Y23215D01*
X282164Y23285D01*
X282121Y23358D01*
X282081Y23432D01*
X282045Y23508D01*
X282012Y23586D01*
X281982Y23665D01*
X281955Y23745D01*
X281932Y23826D01*
X281913Y23908D01*
X281897Y23990D01*
X281884Y24074D01*
X281875Y24158D01*
X281870Y24242D01*
X281868Y24326D01*
X282482Y22893D02*
X285960Y18801D01*
X281868Y18801D01*
D11*
X80518Y71826D02*
X76002Y75438D01*
X76002Y59182D01*
X71487Y59182D02*
X80518Y59182D01*
X105777Y71374D02*
X105779Y71499D01*
X105785Y71624D01*
X105794Y71749D01*
X105808Y71873D01*
X105825Y71997D01*
X105846Y72121D01*
X105871Y72243D01*
X105900Y72365D01*
X105932Y72486D01*
X105968Y72606D01*
X106008Y72725D01*
X106051Y72842D01*
X106098Y72958D01*
X106149Y73073D01*
X106203Y73185D01*
X106261Y73297D01*
X106321Y73406D01*
X106386Y73513D01*
X106453Y73619D01*
X106524Y73722D01*
X106598Y73823D01*
X106675Y73922D01*
X106755Y74018D01*
X106838Y74112D01*
X106923Y74203D01*
X107012Y74292D01*
X107103Y74377D01*
X107197Y74460D01*
X107293Y74540D01*
X107392Y74617D01*
X107493Y74691D01*
X107596Y74762D01*
X107702Y74829D01*
X107809Y74894D01*
X107918Y74954D01*
X108030Y75012D01*
X108142Y75066D01*
X108257Y75117D01*
X108373Y75164D01*
X108490Y75207D01*
X108609Y75247D01*
X108729Y75283D01*
X108850Y75315D01*
X108972Y75344D01*
X109094Y75369D01*
X109218Y75390D01*
X109342Y75407D01*
X109466Y75421D01*
X109591Y75430D01*
X109716Y75436D01*
X109841Y75438D01*
X109984Y75436D01*
X110126Y75430D01*
X110269Y75420D01*
X110411Y75407D01*
X110552Y75389D01*
X110694Y75368D01*
X110834Y75343D01*
X110974Y75314D01*
X111113Y75281D01*
X111251Y75244D01*
X111388Y75204D01*
X111523Y75160D01*
X111658Y75112D01*
X111791Y75060D01*
X111923Y75005D01*
X112053Y74946D01*
X112181Y74884D01*
X112308Y74818D01*
X112433Y74749D01*
X112556Y74677D01*
X112677Y74601D01*
X112795Y74522D01*
X112912Y74439D01*
X113026Y74354D01*
X113138Y74265D01*
X113247Y74174D01*
X113354Y74079D01*
X113459Y73982D01*
X113560Y73881D01*
X113659Y73778D01*
X113755Y73673D01*
X113848Y73564D01*
X113938Y73453D01*
X114025Y73340D01*
X114109Y73225D01*
X114189Y73107D01*
X114267Y72987D01*
X114341Y72865D01*
X114411Y72741D01*
X114479Y72615D01*
X114542Y72487D01*
X114603Y72358D01*
X114660Y72227D01*
X114713Y72095D01*
X114762Y71961D01*
X114808Y71826D01*
X107132Y68213D02*
X107038Y68305D01*
X106948Y68399D01*
X106860Y68496D01*
X106775Y68596D01*
X106693Y68698D01*
X106614Y68803D01*
X106539Y68910D01*
X106467Y69019D01*
X106398Y69130D01*
X106332Y69244D01*
X106270Y69359D01*
X106211Y69476D01*
X106156Y69595D01*
X106105Y69715D01*
X106057Y69837D01*
X106012Y69960D01*
X105972Y70084D01*
X105935Y70210D01*
X105902Y70337D01*
X105873Y70464D01*
X105847Y70593D01*
X105826Y70722D01*
X105808Y70852D01*
X105795Y70982D01*
X105785Y71112D01*
X105779Y71243D01*
X105777Y71374D01*
X107132Y68213D02*
X114808Y59182D01*
X105777Y59182D01*
X145852Y59182D02*
X150368Y59182D01*
X145852Y59182D02*
X145719Y59184D01*
X145587Y59190D01*
X145455Y59200D01*
X145323Y59213D01*
X145191Y59231D01*
X145061Y59252D01*
X144930Y59277D01*
X144801Y59306D01*
X144673Y59339D01*
X144545Y59375D01*
X144419Y59415D01*
X144294Y59459D01*
X144170Y59507D01*
X144048Y59558D01*
X143927Y59613D01*
X143808Y59671D01*
X143690Y59733D01*
X143575Y59798D01*
X143461Y59867D01*
X143350Y59938D01*
X143241Y60014D01*
X143134Y60092D01*
X143029Y60173D01*
X142927Y60258D01*
X142827Y60345D01*
X142730Y60435D01*
X142635Y60528D01*
X142544Y60624D01*
X142455Y60722D01*
X142369Y60823D01*
X142286Y60927D01*
X142206Y61033D01*
X142130Y61141D01*
X142056Y61251D01*
X141986Y61364D01*
X141919Y61478D01*
X141856Y61595D01*
X141796Y61713D01*
X141739Y61833D01*
X141686Y61955D01*
X141637Y62078D01*
X141591Y62202D01*
X141549Y62328D01*
X141511Y62455D01*
X141476Y62583D01*
X141445Y62712D01*
X141418Y62841D01*
X141395Y62972D01*
X141375Y63103D01*
X141360Y63235D01*
X141348Y63367D01*
X141340Y63499D01*
X141336Y63632D01*
X141336Y63764D01*
X141340Y63897D01*
X141348Y64029D01*
X141360Y64161D01*
X141375Y64293D01*
X141395Y64424D01*
X141418Y64555D01*
X141445Y64684D01*
X141476Y64813D01*
X141511Y64941D01*
X141549Y65068D01*
X141591Y65194D01*
X141637Y65318D01*
X141686Y65441D01*
X141739Y65563D01*
X141796Y65683D01*
X141856Y65801D01*
X141919Y65918D01*
X141986Y66032D01*
X142056Y66145D01*
X142130Y66255D01*
X142206Y66363D01*
X142286Y66469D01*
X142369Y66573D01*
X142455Y66674D01*
X142544Y66772D01*
X142635Y66868D01*
X142730Y66961D01*
X142827Y67051D01*
X142927Y67138D01*
X143029Y67223D01*
X143134Y67304D01*
X143241Y67382D01*
X143350Y67458D01*
X143461Y67529D01*
X143575Y67598D01*
X143690Y67663D01*
X143808Y67725D01*
X143927Y67783D01*
X144048Y67838D01*
X144170Y67889D01*
X144294Y67937D01*
X144419Y67981D01*
X144545Y68021D01*
X144673Y68057D01*
X144801Y68090D01*
X144930Y68119D01*
X145061Y68144D01*
X145191Y68165D01*
X145323Y68183D01*
X145455Y68196D01*
X145587Y68206D01*
X145719Y68212D01*
X145852Y68214D01*
X144949Y75438D02*
X150368Y75438D01*
X144949Y75438D02*
X144830Y75436D01*
X144710Y75430D01*
X144591Y75420D01*
X144473Y75406D01*
X144354Y75389D01*
X144237Y75367D01*
X144120Y75342D01*
X144005Y75312D01*
X143890Y75279D01*
X143776Y75242D01*
X143664Y75202D01*
X143553Y75157D01*
X143444Y75109D01*
X143336Y75058D01*
X143230Y75003D01*
X143126Y74944D01*
X143024Y74882D01*
X142924Y74817D01*
X142826Y74748D01*
X142730Y74676D01*
X142637Y74601D01*
X142547Y74524D01*
X142459Y74443D01*
X142374Y74359D01*
X142292Y74272D01*
X142212Y74183D01*
X142136Y74091D01*
X142062Y73997D01*
X141992Y73900D01*
X141925Y73802D01*
X141861Y73701D01*
X141801Y73597D01*
X141744Y73492D01*
X141691Y73385D01*
X141641Y73277D01*
X141595Y73167D01*
X141553Y73055D01*
X141514Y72942D01*
X141479Y72828D01*
X141448Y72713D01*
X141420Y72596D01*
X141397Y72479D01*
X141377Y72362D01*
X141361Y72243D01*
X141349Y72124D01*
X141341Y72005D01*
X141337Y71886D01*
X141337Y71766D01*
X141341Y71647D01*
X141349Y71528D01*
X141361Y71409D01*
X141377Y71290D01*
X141397Y71173D01*
X141420Y71056D01*
X141448Y70939D01*
X141479Y70824D01*
X141514Y70710D01*
X141553Y70597D01*
X141595Y70485D01*
X141641Y70375D01*
X141691Y70267D01*
X141744Y70160D01*
X141801Y70055D01*
X141861Y69951D01*
X141925Y69850D01*
X141992Y69752D01*
X142062Y69655D01*
X142136Y69561D01*
X142212Y69469D01*
X142292Y69380D01*
X142374Y69293D01*
X142459Y69209D01*
X142547Y69128D01*
X142637Y69051D01*
X142730Y68976D01*
X142826Y68904D01*
X142924Y68835D01*
X143024Y68770D01*
X143126Y68708D01*
X143230Y68649D01*
X143336Y68594D01*
X143444Y68543D01*
X143553Y68495D01*
X143664Y68450D01*
X143776Y68410D01*
X143890Y68373D01*
X144005Y68340D01*
X144120Y68310D01*
X144237Y68285D01*
X144354Y68263D01*
X144473Y68246D01*
X144591Y68232D01*
X144710Y68222D01*
X144830Y68216D01*
X144949Y68214D01*
X144949Y68213D02*
X148562Y68213D01*
X181046Y75438D02*
X184658Y62794D01*
X175627Y62794D01*
X178336Y66407D02*
X178336Y59182D01*
X214799Y59182D02*
X220218Y59182D01*
X214799Y59182D02*
X214681Y59184D01*
X214563Y59190D01*
X214445Y59199D01*
X214328Y59213D01*
X214211Y59230D01*
X214094Y59251D01*
X213979Y59276D01*
X213864Y59305D01*
X213750Y59338D01*
X213638Y59374D01*
X213527Y59414D01*
X213417Y59457D01*
X213308Y59504D01*
X213201Y59554D01*
X213096Y59609D01*
X212993Y59666D01*
X212892Y59727D01*
X212792Y59791D01*
X212695Y59858D01*
X212600Y59928D01*
X212508Y60002D01*
X212417Y60078D01*
X212330Y60158D01*
X212245Y60240D01*
X212163Y60325D01*
X212083Y60412D01*
X212007Y60503D01*
X211933Y60595D01*
X211863Y60690D01*
X211796Y60787D01*
X211732Y60887D01*
X211671Y60988D01*
X211614Y61091D01*
X211559Y61196D01*
X211509Y61303D01*
X211462Y61412D01*
X211419Y61522D01*
X211379Y61633D01*
X211343Y61745D01*
X211310Y61859D01*
X211281Y61974D01*
X211256Y62089D01*
X211235Y62206D01*
X211218Y62323D01*
X211204Y62440D01*
X211195Y62558D01*
X211189Y62676D01*
X211187Y62794D01*
X211187Y64601D01*
X211189Y64719D01*
X211195Y64837D01*
X211204Y64955D01*
X211218Y65072D01*
X211235Y65189D01*
X211256Y65306D01*
X211281Y65421D01*
X211310Y65536D01*
X211343Y65650D01*
X211379Y65762D01*
X211419Y65873D01*
X211462Y65983D01*
X211509Y66092D01*
X211559Y66199D01*
X211614Y66304D01*
X211671Y66407D01*
X211732Y66508D01*
X211796Y66608D01*
X211863Y66705D01*
X211933Y66800D01*
X212007Y66892D01*
X212083Y66983D01*
X212163Y67070D01*
X212245Y67155D01*
X212330Y67237D01*
X212417Y67317D01*
X212508Y67393D01*
X212600Y67467D01*
X212695Y67537D01*
X212792Y67604D01*
X212892Y67668D01*
X212993Y67729D01*
X213096Y67786D01*
X213201Y67841D01*
X213308Y67891D01*
X213417Y67938D01*
X213527Y67981D01*
X213638Y68021D01*
X213750Y68057D01*
X213864Y68090D01*
X213979Y68119D01*
X214094Y68144D01*
X214211Y68165D01*
X214328Y68182D01*
X214445Y68196D01*
X214563Y68205D01*
X214681Y68211D01*
X214799Y68213D01*
X220218Y68213D01*
X220218Y75438D01*
X211187Y75438D01*
X249089Y68213D02*
X254508Y68213D01*
X249089Y68213D02*
X248971Y68211D01*
X248853Y68205D01*
X248735Y68196D01*
X248618Y68182D01*
X248501Y68165D01*
X248384Y68144D01*
X248269Y68119D01*
X248154Y68090D01*
X248040Y68057D01*
X247928Y68021D01*
X247817Y67981D01*
X247707Y67938D01*
X247598Y67891D01*
X247491Y67841D01*
X247386Y67786D01*
X247283Y67729D01*
X247182Y67668D01*
X247082Y67604D01*
X246985Y67537D01*
X246890Y67467D01*
X246798Y67393D01*
X246707Y67317D01*
X246620Y67237D01*
X246535Y67155D01*
X246453Y67070D01*
X246373Y66983D01*
X246297Y66892D01*
X246223Y66800D01*
X246153Y66705D01*
X246086Y66608D01*
X246022Y66508D01*
X245961Y66407D01*
X245904Y66304D01*
X245849Y66199D01*
X245799Y66092D01*
X245752Y65983D01*
X245709Y65873D01*
X245669Y65762D01*
X245633Y65650D01*
X245600Y65536D01*
X245571Y65421D01*
X245546Y65306D01*
X245525Y65189D01*
X245508Y65072D01*
X245494Y64955D01*
X245485Y64837D01*
X245479Y64719D01*
X245477Y64601D01*
X245477Y63698D01*
X245476Y63698D02*
X245478Y63565D01*
X245484Y63433D01*
X245494Y63301D01*
X245507Y63169D01*
X245525Y63037D01*
X245546Y62907D01*
X245571Y62776D01*
X245600Y62647D01*
X245633Y62519D01*
X245669Y62391D01*
X245709Y62265D01*
X245753Y62140D01*
X245801Y62016D01*
X245852Y61894D01*
X245907Y61773D01*
X245965Y61654D01*
X246027Y61536D01*
X246092Y61421D01*
X246161Y61307D01*
X246232Y61196D01*
X246308Y61087D01*
X246386Y60980D01*
X246467Y60875D01*
X246552Y60773D01*
X246639Y60673D01*
X246729Y60576D01*
X246822Y60481D01*
X246918Y60390D01*
X247016Y60301D01*
X247117Y60215D01*
X247221Y60132D01*
X247327Y60052D01*
X247435Y59976D01*
X247545Y59902D01*
X247658Y59832D01*
X247772Y59765D01*
X247889Y59702D01*
X248007Y59642D01*
X248127Y59585D01*
X248249Y59532D01*
X248372Y59483D01*
X248496Y59437D01*
X248622Y59395D01*
X248749Y59357D01*
X248877Y59322D01*
X249006Y59291D01*
X249135Y59264D01*
X249266Y59241D01*
X249397Y59221D01*
X249529Y59206D01*
X249661Y59194D01*
X249793Y59186D01*
X249926Y59182D01*
X250058Y59182D01*
X250191Y59186D01*
X250323Y59194D01*
X250455Y59206D01*
X250587Y59221D01*
X250718Y59241D01*
X250849Y59264D01*
X250978Y59291D01*
X251107Y59322D01*
X251235Y59357D01*
X251362Y59395D01*
X251488Y59437D01*
X251612Y59483D01*
X251735Y59532D01*
X251857Y59585D01*
X251977Y59642D01*
X252095Y59702D01*
X252212Y59765D01*
X252326Y59832D01*
X252439Y59902D01*
X252549Y59976D01*
X252657Y60052D01*
X252763Y60132D01*
X252867Y60215D01*
X252968Y60301D01*
X253066Y60390D01*
X253162Y60481D01*
X253255Y60576D01*
X253345Y60673D01*
X253432Y60773D01*
X253517Y60875D01*
X253598Y60980D01*
X253676Y61087D01*
X253752Y61196D01*
X253823Y61307D01*
X253892Y61421D01*
X253957Y61536D01*
X254019Y61654D01*
X254077Y61773D01*
X254132Y61894D01*
X254183Y62016D01*
X254231Y62140D01*
X254275Y62265D01*
X254315Y62391D01*
X254351Y62519D01*
X254384Y62647D01*
X254413Y62776D01*
X254438Y62907D01*
X254459Y63037D01*
X254477Y63169D01*
X254490Y63301D01*
X254500Y63433D01*
X254506Y63565D01*
X254508Y63698D01*
X254508Y68213D01*
X254506Y68388D01*
X254500Y68562D01*
X254489Y68736D01*
X254474Y68910D01*
X254455Y69084D01*
X254432Y69257D01*
X254405Y69429D01*
X254373Y69601D01*
X254338Y69772D01*
X254298Y69942D01*
X254254Y70111D01*
X254206Y70279D01*
X254154Y70446D01*
X254098Y70611D01*
X254038Y70775D01*
X253975Y70938D01*
X253907Y71098D01*
X253835Y71258D01*
X253760Y71415D01*
X253680Y71571D01*
X253597Y71724D01*
X253511Y71876D01*
X253420Y72025D01*
X253326Y72172D01*
X253229Y72317D01*
X253128Y72460D01*
X253024Y72600D01*
X252916Y72737D01*
X252805Y72872D01*
X252691Y73004D01*
X252574Y73133D01*
X252453Y73260D01*
X252330Y73383D01*
X252203Y73504D01*
X252074Y73621D01*
X251942Y73735D01*
X251807Y73846D01*
X251670Y73954D01*
X251530Y74058D01*
X251387Y74159D01*
X251242Y74256D01*
X251095Y74350D01*
X250946Y74441D01*
X250794Y74527D01*
X250641Y74610D01*
X250485Y74690D01*
X250328Y74765D01*
X250168Y74837D01*
X250008Y74905D01*
X249845Y74968D01*
X249681Y75028D01*
X249516Y75084D01*
X249349Y75136D01*
X249181Y75184D01*
X249012Y75228D01*
X248842Y75268D01*
X248671Y75303D01*
X248499Y75335D01*
X248327Y75362D01*
X248154Y75385D01*
X247980Y75404D01*
X247806Y75419D01*
X247632Y75430D01*
X247458Y75436D01*
X247283Y75438D01*
X290068Y75438D02*
X290068Y73632D01*
X290068Y75438D02*
X281037Y75438D01*
X285552Y59182D01*
X316596Y63698D02*
X316598Y63831D01*
X316604Y63963D01*
X316614Y64095D01*
X316627Y64227D01*
X316645Y64359D01*
X316666Y64489D01*
X316691Y64620D01*
X316720Y64749D01*
X316753Y64877D01*
X316789Y65005D01*
X316829Y65131D01*
X316873Y65256D01*
X316921Y65380D01*
X316972Y65502D01*
X317027Y65623D01*
X317085Y65742D01*
X317147Y65860D01*
X317212Y65975D01*
X317281Y66089D01*
X317352Y66200D01*
X317428Y66309D01*
X317506Y66416D01*
X317587Y66521D01*
X317672Y66623D01*
X317759Y66723D01*
X317849Y66820D01*
X317942Y66915D01*
X318038Y67006D01*
X318136Y67095D01*
X318237Y67181D01*
X318341Y67264D01*
X318447Y67344D01*
X318555Y67420D01*
X318665Y67494D01*
X318778Y67564D01*
X318892Y67631D01*
X319009Y67694D01*
X319127Y67754D01*
X319247Y67811D01*
X319369Y67864D01*
X319492Y67913D01*
X319616Y67959D01*
X319742Y68001D01*
X319869Y68039D01*
X319997Y68074D01*
X320126Y68105D01*
X320255Y68132D01*
X320386Y68155D01*
X320517Y68175D01*
X320649Y68190D01*
X320781Y68202D01*
X320913Y68210D01*
X321046Y68214D01*
X321178Y68214D01*
X321311Y68210D01*
X321443Y68202D01*
X321575Y68190D01*
X321707Y68175D01*
X321838Y68155D01*
X321969Y68132D01*
X322098Y68105D01*
X322227Y68074D01*
X322355Y68039D01*
X322482Y68001D01*
X322608Y67959D01*
X322732Y67913D01*
X322855Y67864D01*
X322977Y67811D01*
X323097Y67754D01*
X323215Y67694D01*
X323332Y67631D01*
X323446Y67564D01*
X323559Y67494D01*
X323669Y67420D01*
X323777Y67344D01*
X323883Y67264D01*
X323987Y67181D01*
X324088Y67095D01*
X324186Y67006D01*
X324282Y66915D01*
X324375Y66820D01*
X324465Y66723D01*
X324552Y66623D01*
X324637Y66521D01*
X324718Y66416D01*
X324796Y66309D01*
X324872Y66200D01*
X324943Y66089D01*
X325012Y65975D01*
X325077Y65860D01*
X325139Y65742D01*
X325197Y65623D01*
X325252Y65502D01*
X325303Y65380D01*
X325351Y65256D01*
X325395Y65131D01*
X325435Y65005D01*
X325471Y64877D01*
X325504Y64749D01*
X325533Y64620D01*
X325558Y64489D01*
X325579Y64359D01*
X325597Y64227D01*
X325610Y64095D01*
X325620Y63963D01*
X325626Y63831D01*
X325628Y63698D01*
X325626Y63565D01*
X325620Y63433D01*
X325610Y63301D01*
X325597Y63169D01*
X325579Y63037D01*
X325558Y62907D01*
X325533Y62776D01*
X325504Y62647D01*
X325471Y62519D01*
X325435Y62391D01*
X325395Y62265D01*
X325351Y62140D01*
X325303Y62016D01*
X325252Y61894D01*
X325197Y61773D01*
X325139Y61654D01*
X325077Y61536D01*
X325012Y61421D01*
X324943Y61307D01*
X324872Y61196D01*
X324796Y61087D01*
X324718Y60980D01*
X324637Y60875D01*
X324552Y60773D01*
X324465Y60673D01*
X324375Y60576D01*
X324282Y60481D01*
X324186Y60390D01*
X324088Y60301D01*
X323987Y60215D01*
X323883Y60132D01*
X323777Y60052D01*
X323669Y59976D01*
X323559Y59902D01*
X323446Y59832D01*
X323332Y59765D01*
X323215Y59702D01*
X323097Y59642D01*
X322977Y59585D01*
X322855Y59532D01*
X322732Y59483D01*
X322608Y59437D01*
X322482Y59395D01*
X322355Y59357D01*
X322227Y59322D01*
X322098Y59291D01*
X321969Y59264D01*
X321838Y59241D01*
X321707Y59221D01*
X321575Y59206D01*
X321443Y59194D01*
X321311Y59186D01*
X321178Y59182D01*
X321046Y59182D01*
X320913Y59186D01*
X320781Y59194D01*
X320649Y59206D01*
X320517Y59221D01*
X320386Y59241D01*
X320255Y59264D01*
X320126Y59291D01*
X319997Y59322D01*
X319869Y59357D01*
X319742Y59395D01*
X319616Y59437D01*
X319492Y59483D01*
X319369Y59532D01*
X319247Y59585D01*
X319127Y59642D01*
X319009Y59702D01*
X318892Y59765D01*
X318778Y59832D01*
X318665Y59902D01*
X318555Y59976D01*
X318447Y60052D01*
X318341Y60132D01*
X318237Y60215D01*
X318136Y60301D01*
X318038Y60390D01*
X317942Y60481D01*
X317849Y60576D01*
X317759Y60673D01*
X317672Y60773D01*
X317587Y60875D01*
X317506Y60980D01*
X317428Y61087D01*
X317352Y61196D01*
X317281Y61307D01*
X317212Y61421D01*
X317147Y61536D01*
X317085Y61654D01*
X317027Y61773D01*
X316972Y61894D01*
X316921Y62016D01*
X316873Y62140D01*
X316829Y62265D01*
X316789Y62391D01*
X316753Y62519D01*
X316720Y62647D01*
X316691Y62776D01*
X316666Y62907D01*
X316645Y63037D01*
X316627Y63169D01*
X316614Y63301D01*
X316604Y63433D01*
X316598Y63565D01*
X316596Y63698D01*
X317500Y71826D02*
X317502Y71945D01*
X317508Y72065D01*
X317518Y72184D01*
X317532Y72302D01*
X317549Y72421D01*
X317571Y72538D01*
X317596Y72655D01*
X317626Y72770D01*
X317659Y72885D01*
X317696Y72999D01*
X317736Y73111D01*
X317781Y73222D01*
X317829Y73331D01*
X317880Y73439D01*
X317935Y73545D01*
X317994Y73649D01*
X318056Y73751D01*
X318121Y73851D01*
X318190Y73949D01*
X318262Y74045D01*
X318337Y74138D01*
X318414Y74228D01*
X318495Y74316D01*
X318579Y74401D01*
X318666Y74483D01*
X318755Y74563D01*
X318847Y74639D01*
X318941Y74713D01*
X319038Y74783D01*
X319136Y74850D01*
X319237Y74914D01*
X319341Y74974D01*
X319446Y75031D01*
X319553Y75084D01*
X319661Y75134D01*
X319771Y75180D01*
X319883Y75222D01*
X319996Y75261D01*
X320110Y75296D01*
X320225Y75327D01*
X320342Y75355D01*
X320459Y75378D01*
X320576Y75398D01*
X320695Y75414D01*
X320814Y75426D01*
X320933Y75434D01*
X321052Y75438D01*
X321172Y75438D01*
X321291Y75434D01*
X321410Y75426D01*
X321529Y75414D01*
X321648Y75398D01*
X321765Y75378D01*
X321882Y75355D01*
X321999Y75327D01*
X322114Y75296D01*
X322228Y75261D01*
X322341Y75222D01*
X322453Y75180D01*
X322563Y75134D01*
X322671Y75084D01*
X322778Y75031D01*
X322883Y74974D01*
X322987Y74914D01*
X323088Y74850D01*
X323186Y74783D01*
X323283Y74713D01*
X323377Y74639D01*
X323469Y74563D01*
X323558Y74483D01*
X323645Y74401D01*
X323729Y74316D01*
X323810Y74228D01*
X323887Y74138D01*
X323962Y74045D01*
X324034Y73949D01*
X324103Y73851D01*
X324168Y73751D01*
X324230Y73649D01*
X324289Y73545D01*
X324344Y73439D01*
X324395Y73331D01*
X324443Y73222D01*
X324488Y73111D01*
X324528Y72999D01*
X324565Y72885D01*
X324598Y72770D01*
X324628Y72655D01*
X324653Y72538D01*
X324675Y72421D01*
X324692Y72302D01*
X324706Y72184D01*
X324716Y72065D01*
X324722Y71945D01*
X324724Y71826D01*
X324722Y71707D01*
X324716Y71587D01*
X324706Y71468D01*
X324692Y71350D01*
X324675Y71231D01*
X324653Y71114D01*
X324628Y70997D01*
X324598Y70882D01*
X324565Y70767D01*
X324528Y70653D01*
X324488Y70541D01*
X324443Y70430D01*
X324395Y70321D01*
X324344Y70213D01*
X324289Y70107D01*
X324230Y70003D01*
X324168Y69901D01*
X324103Y69801D01*
X324034Y69703D01*
X323962Y69607D01*
X323887Y69514D01*
X323810Y69424D01*
X323729Y69336D01*
X323645Y69251D01*
X323558Y69169D01*
X323469Y69089D01*
X323377Y69013D01*
X323283Y68939D01*
X323186Y68869D01*
X323088Y68802D01*
X322987Y68738D01*
X322883Y68678D01*
X322778Y68621D01*
X322671Y68568D01*
X322563Y68518D01*
X322453Y68472D01*
X322341Y68430D01*
X322228Y68391D01*
X322114Y68356D01*
X321999Y68325D01*
X321882Y68297D01*
X321765Y68274D01*
X321648Y68254D01*
X321529Y68238D01*
X321410Y68226D01*
X321291Y68218D01*
X321172Y68214D01*
X321052Y68214D01*
X320933Y68218D01*
X320814Y68226D01*
X320695Y68238D01*
X320576Y68254D01*
X320459Y68274D01*
X320342Y68297D01*
X320225Y68325D01*
X320110Y68356D01*
X319996Y68391D01*
X319883Y68430D01*
X319771Y68472D01*
X319661Y68518D01*
X319553Y68568D01*
X319446Y68621D01*
X319341Y68678D01*
X319237Y68738D01*
X319136Y68802D01*
X319038Y68869D01*
X318941Y68939D01*
X318847Y69013D01*
X318755Y69089D01*
X318666Y69169D01*
X318579Y69251D01*
X318495Y69336D01*
X318414Y69424D01*
X318337Y69514D01*
X318262Y69607D01*
X318190Y69703D01*
X318121Y69801D01*
X318056Y69901D01*
X317994Y70003D01*
X317935Y70107D01*
X317880Y70213D01*
X317829Y70321D01*
X317781Y70430D01*
X317736Y70541D01*
X317696Y70653D01*
X317659Y70767D01*
X317626Y70882D01*
X317596Y70997D01*
X317571Y71114D01*
X317549Y71231D01*
X317532Y71350D01*
X317518Y71468D01*
X317508Y71587D01*
X317502Y71707D01*
X317500Y71826D01*
X350887Y66407D02*
X356306Y66407D01*
X356424Y66409D01*
X356542Y66415D01*
X356660Y66424D01*
X356777Y66438D01*
X356894Y66455D01*
X357011Y66476D01*
X357126Y66501D01*
X357241Y66530D01*
X357355Y66563D01*
X357467Y66599D01*
X357578Y66639D01*
X357688Y66682D01*
X357797Y66729D01*
X357904Y66779D01*
X358009Y66834D01*
X358112Y66891D01*
X358213Y66952D01*
X358313Y67016D01*
X358410Y67083D01*
X358505Y67153D01*
X358597Y67227D01*
X358688Y67303D01*
X358775Y67383D01*
X358860Y67465D01*
X358942Y67550D01*
X359022Y67637D01*
X359098Y67728D01*
X359172Y67820D01*
X359242Y67915D01*
X359309Y68012D01*
X359373Y68112D01*
X359434Y68213D01*
X359491Y68316D01*
X359546Y68421D01*
X359596Y68528D01*
X359643Y68637D01*
X359686Y68747D01*
X359726Y68858D01*
X359762Y68970D01*
X359795Y69084D01*
X359824Y69199D01*
X359849Y69314D01*
X359870Y69431D01*
X359887Y69548D01*
X359901Y69665D01*
X359910Y69783D01*
X359916Y69901D01*
X359918Y70019D01*
X359918Y70922D01*
X359916Y71055D01*
X359910Y71187D01*
X359900Y71319D01*
X359887Y71451D01*
X359869Y71583D01*
X359848Y71713D01*
X359823Y71844D01*
X359794Y71973D01*
X359761Y72101D01*
X359725Y72229D01*
X359685Y72355D01*
X359641Y72480D01*
X359593Y72604D01*
X359542Y72726D01*
X359487Y72847D01*
X359429Y72966D01*
X359367Y73084D01*
X359302Y73199D01*
X359233Y73313D01*
X359162Y73424D01*
X359086Y73533D01*
X359008Y73640D01*
X358927Y73745D01*
X358842Y73847D01*
X358755Y73947D01*
X358665Y74044D01*
X358572Y74139D01*
X358476Y74230D01*
X358378Y74319D01*
X358277Y74405D01*
X358173Y74488D01*
X358067Y74568D01*
X357959Y74644D01*
X357849Y74718D01*
X357736Y74788D01*
X357622Y74855D01*
X357505Y74918D01*
X357387Y74978D01*
X357267Y75035D01*
X357145Y75088D01*
X357022Y75137D01*
X356898Y75183D01*
X356772Y75225D01*
X356645Y75263D01*
X356517Y75298D01*
X356388Y75329D01*
X356259Y75356D01*
X356128Y75379D01*
X355997Y75399D01*
X355865Y75414D01*
X355733Y75426D01*
X355601Y75434D01*
X355468Y75438D01*
X355336Y75438D01*
X355203Y75434D01*
X355071Y75426D01*
X354939Y75414D01*
X354807Y75399D01*
X354676Y75379D01*
X354545Y75356D01*
X354416Y75329D01*
X354287Y75298D01*
X354159Y75263D01*
X354032Y75225D01*
X353906Y75183D01*
X353782Y75137D01*
X353659Y75088D01*
X353537Y75035D01*
X353417Y74978D01*
X353299Y74918D01*
X353182Y74855D01*
X353068Y74788D01*
X352955Y74718D01*
X352845Y74644D01*
X352737Y74568D01*
X352631Y74488D01*
X352527Y74405D01*
X352426Y74319D01*
X352328Y74230D01*
X352232Y74139D01*
X352139Y74044D01*
X352049Y73947D01*
X351962Y73847D01*
X351877Y73745D01*
X351796Y73640D01*
X351718Y73533D01*
X351642Y73424D01*
X351571Y73313D01*
X351502Y73199D01*
X351437Y73084D01*
X351375Y72966D01*
X351317Y72847D01*
X351262Y72726D01*
X351211Y72604D01*
X351163Y72480D01*
X351119Y72355D01*
X351079Y72229D01*
X351043Y72101D01*
X351010Y71973D01*
X350981Y71844D01*
X350956Y71713D01*
X350935Y71583D01*
X350917Y71451D01*
X350904Y71319D01*
X350894Y71187D01*
X350888Y71055D01*
X350886Y70922D01*
X350887Y70922D02*
X350887Y66407D01*
X350889Y66232D01*
X350895Y66058D01*
X350906Y65884D01*
X350921Y65710D01*
X350940Y65536D01*
X350963Y65363D01*
X350990Y65191D01*
X351022Y65019D01*
X351057Y64848D01*
X351097Y64678D01*
X351141Y64509D01*
X351189Y64341D01*
X351241Y64174D01*
X351297Y64009D01*
X351357Y63845D01*
X351420Y63682D01*
X351488Y63522D01*
X351560Y63362D01*
X351635Y63205D01*
X351715Y63049D01*
X351798Y62896D01*
X351884Y62744D01*
X351975Y62595D01*
X352069Y62448D01*
X352166Y62303D01*
X352267Y62160D01*
X352371Y62020D01*
X352479Y61883D01*
X352590Y61748D01*
X352704Y61616D01*
X352821Y61487D01*
X352942Y61360D01*
X353065Y61237D01*
X353192Y61116D01*
X353321Y60999D01*
X353453Y60885D01*
X353588Y60774D01*
X353725Y60666D01*
X353865Y60562D01*
X354008Y60461D01*
X354153Y60364D01*
X354300Y60270D01*
X354449Y60179D01*
X354601Y60093D01*
X354754Y60010D01*
X354910Y59930D01*
X355067Y59855D01*
X355227Y59783D01*
X355387Y59715D01*
X355550Y59652D01*
X355714Y59592D01*
X355879Y59536D01*
X356046Y59484D01*
X356214Y59436D01*
X356383Y59392D01*
X356553Y59352D01*
X356724Y59317D01*
X356896Y59285D01*
X357068Y59258D01*
X357241Y59235D01*
X357415Y59216D01*
X357589Y59201D01*
X357763Y59190D01*
X357937Y59184D01*
X358112Y59182D01*
D12*
X167960Y357690D02*
X68900Y357690D01*
X68900Y517710D02*
X167960Y517710D01*
D13*
X167960Y357690D02*
X169230Y357690D01*
X169230Y517710D01*
X167960Y517710D01*
X68900Y357690D02*
X67630Y357690D01*
X67630Y517710D01*
X68900Y517710D01*
D14*
X120312Y369148D02*
X122908Y369148D01*
X123007Y369150D01*
X123107Y369156D01*
X123206Y369165D01*
X123304Y369178D01*
X123402Y369195D01*
X123500Y369216D01*
X123596Y369241D01*
X123691Y369269D01*
X123785Y369301D01*
X123878Y369336D01*
X123970Y369375D01*
X124060Y369418D01*
X124148Y369463D01*
X124235Y369513D01*
X124319Y369565D01*
X124402Y369621D01*
X124482Y369679D01*
X124560Y369741D01*
X124635Y369806D01*
X124708Y369874D01*
X124778Y369944D01*
X124846Y370017D01*
X124911Y370092D01*
X124973Y370170D01*
X125031Y370250D01*
X125087Y370333D01*
X125139Y370417D01*
X125189Y370504D01*
X125234Y370592D01*
X125277Y370682D01*
X125316Y370774D01*
X125351Y370867D01*
X125383Y370961D01*
X125411Y371056D01*
X125436Y371152D01*
X125457Y371250D01*
X125474Y371348D01*
X125487Y371446D01*
X125496Y371545D01*
X125502Y371645D01*
X125504Y371744D01*
X125505Y371744D02*
X125505Y378236D01*
X125504Y378236D02*
X125502Y378335D01*
X125496Y378435D01*
X125487Y378534D01*
X125474Y378632D01*
X125457Y378730D01*
X125436Y378828D01*
X125411Y378924D01*
X125383Y379019D01*
X125351Y379113D01*
X125316Y379206D01*
X125277Y379298D01*
X125234Y379388D01*
X125189Y379476D01*
X125139Y379563D01*
X125087Y379647D01*
X125031Y379730D01*
X124973Y379810D01*
X124911Y379888D01*
X124846Y379963D01*
X124778Y380036D01*
X124708Y380106D01*
X124635Y380174D01*
X124560Y380239D01*
X124482Y380301D01*
X124402Y380359D01*
X124319Y380415D01*
X124235Y380467D01*
X124148Y380517D01*
X124060Y380562D01*
X123970Y380605D01*
X123878Y380644D01*
X123785Y380679D01*
X123691Y380711D01*
X123596Y380739D01*
X123500Y380764D01*
X123402Y380785D01*
X123304Y380802D01*
X123206Y380815D01*
X123107Y380824D01*
X123007Y380830D01*
X122908Y380832D01*
X120312Y380832D01*
X115946Y378236D02*
X112701Y380832D01*
X112701Y369148D01*
X115946Y369148D02*
X109455Y369148D01*
D12*
X295100Y466090D02*
X295100Y565150D01*
X455120Y565150D02*
X455120Y466090D01*
D13*
X295100Y466090D02*
X295100Y464820D01*
X455120Y464820D01*
X455120Y466090D01*
X295100Y565150D02*
X295100Y566420D01*
X455120Y566420D01*
X455120Y565150D01*
D14*
X304018Y511518D02*
X304018Y508922D01*
X304020Y508823D01*
X304026Y508723D01*
X304035Y508624D01*
X304048Y508526D01*
X304065Y508428D01*
X304086Y508330D01*
X304111Y508234D01*
X304139Y508139D01*
X304171Y508045D01*
X304206Y507952D01*
X304245Y507860D01*
X304288Y507770D01*
X304333Y507682D01*
X304383Y507595D01*
X304435Y507511D01*
X304491Y507428D01*
X304549Y507348D01*
X304611Y507270D01*
X304676Y507195D01*
X304744Y507122D01*
X304814Y507052D01*
X304887Y506984D01*
X304962Y506919D01*
X305040Y506857D01*
X305120Y506799D01*
X305203Y506743D01*
X305287Y506691D01*
X305374Y506641D01*
X305462Y506596D01*
X305552Y506553D01*
X305644Y506514D01*
X305737Y506479D01*
X305831Y506447D01*
X305926Y506419D01*
X306022Y506394D01*
X306120Y506373D01*
X306218Y506356D01*
X306316Y506343D01*
X306415Y506334D01*
X306515Y506328D01*
X306614Y506326D01*
X306614Y506325D02*
X313106Y506325D01*
X313106Y506326D02*
X313205Y506328D01*
X313305Y506334D01*
X313404Y506343D01*
X313502Y506356D01*
X313600Y506373D01*
X313698Y506394D01*
X313794Y506419D01*
X313889Y506447D01*
X313983Y506479D01*
X314076Y506514D01*
X314168Y506553D01*
X314258Y506596D01*
X314346Y506641D01*
X314433Y506691D01*
X314517Y506743D01*
X314600Y506799D01*
X314680Y506857D01*
X314758Y506919D01*
X314833Y506984D01*
X314906Y507052D01*
X314976Y507122D01*
X315044Y507195D01*
X315109Y507270D01*
X315171Y507348D01*
X315229Y507428D01*
X315285Y507511D01*
X315337Y507595D01*
X315387Y507682D01*
X315432Y507770D01*
X315475Y507860D01*
X315514Y507952D01*
X315549Y508044D01*
X315581Y508139D01*
X315609Y508234D01*
X315634Y508330D01*
X315655Y508428D01*
X315672Y508526D01*
X315685Y508624D01*
X315694Y508723D01*
X315700Y508823D01*
X315702Y508922D01*
X315702Y511518D01*
X315702Y519454D02*
X315700Y519561D01*
X315694Y519667D01*
X315684Y519773D01*
X315671Y519879D01*
X315653Y519985D01*
X315632Y520089D01*
X315607Y520193D01*
X315578Y520296D01*
X315546Y520397D01*
X315509Y520497D01*
X315469Y520596D01*
X315426Y520694D01*
X315379Y520790D01*
X315328Y520884D01*
X315274Y520976D01*
X315217Y521066D01*
X315157Y521154D01*
X315093Y521239D01*
X315026Y521322D01*
X314956Y521403D01*
X314884Y521481D01*
X314808Y521557D01*
X314730Y521629D01*
X314649Y521699D01*
X314566Y521766D01*
X314481Y521830D01*
X314393Y521890D01*
X314303Y521947D01*
X314211Y522001D01*
X314117Y522052D01*
X314021Y522099D01*
X313923Y522142D01*
X313824Y522182D01*
X313724Y522219D01*
X313623Y522251D01*
X313520Y522280D01*
X313416Y522305D01*
X313312Y522326D01*
X313206Y522344D01*
X313100Y522357D01*
X312994Y522367D01*
X312888Y522373D01*
X312781Y522375D01*
X315702Y519454D02*
X315700Y519333D01*
X315694Y519212D01*
X315684Y519092D01*
X315671Y518971D01*
X315653Y518852D01*
X315632Y518732D01*
X315607Y518614D01*
X315578Y518497D01*
X315545Y518380D01*
X315509Y518265D01*
X315468Y518151D01*
X315425Y518038D01*
X315377Y517926D01*
X315326Y517817D01*
X315271Y517709D01*
X315213Y517602D01*
X315152Y517498D01*
X315087Y517396D01*
X315019Y517296D01*
X314948Y517198D01*
X314874Y517102D01*
X314797Y517009D01*
X314716Y516919D01*
X314633Y516831D01*
X314547Y516746D01*
X314458Y516663D01*
X314367Y516584D01*
X314273Y516507D01*
X314177Y516434D01*
X314079Y516364D01*
X313978Y516297D01*
X313875Y516233D01*
X313770Y516173D01*
X313663Y516116D01*
X313555Y516062D01*
X313445Y516012D01*
X313333Y515966D01*
X313220Y515923D01*
X313105Y515884D01*
X310509Y521401D02*
X310586Y521480D01*
X310667Y521556D01*
X310750Y521629D01*
X310835Y521699D01*
X310923Y521766D01*
X311013Y521830D01*
X311105Y521890D01*
X311200Y521947D01*
X311296Y522001D01*
X311394Y522052D01*
X311494Y522099D01*
X311596Y522143D01*
X311699Y522183D01*
X311803Y522219D01*
X311909Y522251D01*
X312015Y522280D01*
X312123Y522305D01*
X312231Y522327D01*
X312341Y522344D01*
X312450Y522358D01*
X312560Y522367D01*
X312671Y522373D01*
X312781Y522375D01*
X310509Y521401D02*
X304018Y515884D01*
X304018Y522375D01*
D15*
X298720Y436190D02*
X451120Y436190D01*
X451120Y461590D01*
X298720Y461590D01*
X298720Y436190D01*
D16*
X290423Y432761D02*
X290423Y430983D01*
X290423Y432761D02*
X284496Y432761D01*
X284496Y429205D01*
X284498Y429110D01*
X284504Y429014D01*
X284513Y428919D01*
X284527Y428825D01*
X284544Y428731D01*
X284565Y428638D01*
X284590Y428545D01*
X284618Y428454D01*
X284650Y428364D01*
X284686Y428276D01*
X284725Y428189D01*
X284768Y428103D01*
X284814Y428020D01*
X284863Y427938D01*
X284916Y427858D01*
X284972Y427781D01*
X285030Y427705D01*
X285092Y427633D01*
X285157Y427563D01*
X285225Y427495D01*
X285295Y427430D01*
X285367Y427368D01*
X285443Y427310D01*
X285520Y427254D01*
X285600Y427201D01*
X285682Y427152D01*
X285765Y427106D01*
X285851Y427063D01*
X285938Y427024D01*
X286026Y426988D01*
X286116Y426956D01*
X286207Y426928D01*
X286300Y426903D01*
X286393Y426882D01*
X286487Y426865D01*
X286581Y426851D01*
X286676Y426842D01*
X286772Y426836D01*
X286867Y426834D01*
X292793Y426834D01*
X292888Y426836D01*
X292984Y426842D01*
X293079Y426851D01*
X293173Y426865D01*
X293267Y426882D01*
X293360Y426903D01*
X293453Y426928D01*
X293544Y426956D01*
X293634Y426988D01*
X293722Y427024D01*
X293809Y427063D01*
X293895Y427106D01*
X293978Y427152D01*
X294060Y427201D01*
X294140Y427254D01*
X294217Y427310D01*
X294293Y427368D01*
X294365Y427430D01*
X294435Y427495D01*
X294503Y427563D01*
X294568Y427633D01*
X294630Y427705D01*
X294688Y427781D01*
X294744Y427858D01*
X294797Y427938D01*
X294846Y428019D01*
X294892Y428103D01*
X294935Y428189D01*
X294974Y428276D01*
X295010Y428364D01*
X295042Y428454D01*
X295070Y428545D01*
X295095Y428638D01*
X295116Y428731D01*
X295133Y428825D01*
X295147Y428919D01*
X295156Y429014D01*
X295162Y429109D01*
X295164Y429205D01*
X295164Y432761D01*
X295164Y439137D02*
X284496Y439137D01*
X295164Y439137D02*
X295164Y442100D01*
X295162Y442207D01*
X295156Y442314D01*
X295147Y442420D01*
X295133Y442526D01*
X295116Y442632D01*
X295095Y442737D01*
X295070Y442841D01*
X295041Y442944D01*
X295009Y443046D01*
X294973Y443147D01*
X294933Y443246D01*
X294890Y443344D01*
X294843Y443440D01*
X294793Y443535D01*
X294740Y443628D01*
X294683Y443718D01*
X294623Y443807D01*
X294560Y443893D01*
X294494Y443977D01*
X294424Y444059D01*
X294352Y444138D01*
X294277Y444214D01*
X294199Y444288D01*
X294119Y444358D01*
X294036Y444426D01*
X293951Y444491D01*
X293864Y444552D01*
X293774Y444611D01*
X293683Y444666D01*
X293589Y444718D01*
X293493Y444766D01*
X293396Y444811D01*
X293298Y444853D01*
X293198Y444890D01*
X293096Y444925D01*
X292994Y444955D01*
X292890Y444982D01*
X292786Y445005D01*
X292680Y445024D01*
X292574Y445039D01*
X292468Y445051D01*
X292361Y445059D01*
X292254Y445063D01*
X292148Y445063D01*
X292041Y445059D01*
X291934Y445051D01*
X291828Y445039D01*
X291722Y445024D01*
X291616Y445005D01*
X291512Y444982D01*
X291408Y444955D01*
X291306Y444925D01*
X291204Y444890D01*
X291104Y444853D01*
X291006Y444811D01*
X290909Y444766D01*
X290813Y444718D01*
X290720Y444666D01*
X290628Y444611D01*
X290538Y444552D01*
X290451Y444491D01*
X290366Y444426D01*
X290283Y444358D01*
X290203Y444288D01*
X290125Y444214D01*
X290050Y444138D01*
X289978Y444059D01*
X289908Y443977D01*
X289842Y443893D01*
X289779Y443807D01*
X289719Y443718D01*
X289662Y443628D01*
X289609Y443535D01*
X289559Y443440D01*
X289512Y443344D01*
X289469Y443246D01*
X289429Y443147D01*
X289393Y443046D01*
X289361Y442944D01*
X289332Y442841D01*
X289307Y442737D01*
X289286Y442632D01*
X289269Y442526D01*
X289255Y442420D01*
X289246Y442314D01*
X289240Y442207D01*
X289238Y442100D01*
X289237Y442100D02*
X289237Y439137D01*
X289237Y442693D02*
X284496Y445063D01*
X284496Y450837D02*
X295164Y450837D01*
X284496Y456764D01*
X295164Y456764D01*
X460603Y432465D02*
X460603Y429501D01*
X460602Y432465D02*
X460600Y432572D01*
X460594Y432679D01*
X460585Y432785D01*
X460571Y432891D01*
X460554Y432997D01*
X460533Y433102D01*
X460508Y433206D01*
X460479Y433309D01*
X460447Y433411D01*
X460411Y433512D01*
X460371Y433611D01*
X460328Y433709D01*
X460281Y433805D01*
X460231Y433900D01*
X460178Y433993D01*
X460121Y434083D01*
X460061Y434172D01*
X459998Y434258D01*
X459932Y434342D01*
X459862Y434424D01*
X459790Y434503D01*
X459715Y434579D01*
X459637Y434653D01*
X459557Y434723D01*
X459474Y434791D01*
X459389Y434856D01*
X459302Y434917D01*
X459212Y434976D01*
X459121Y435031D01*
X459027Y435083D01*
X458931Y435131D01*
X458834Y435176D01*
X458736Y435218D01*
X458636Y435255D01*
X458534Y435290D01*
X458432Y435320D01*
X458328Y435347D01*
X458224Y435370D01*
X458118Y435389D01*
X458012Y435404D01*
X457906Y435416D01*
X457799Y435424D01*
X457692Y435428D01*
X457586Y435428D01*
X457479Y435424D01*
X457372Y435416D01*
X457266Y435404D01*
X457160Y435389D01*
X457054Y435370D01*
X456950Y435347D01*
X456846Y435320D01*
X456744Y435290D01*
X456642Y435255D01*
X456542Y435218D01*
X456444Y435176D01*
X456347Y435131D01*
X456251Y435083D01*
X456158Y435031D01*
X456066Y434976D01*
X455976Y434917D01*
X455889Y434856D01*
X455804Y434791D01*
X455721Y434723D01*
X455641Y434653D01*
X455563Y434579D01*
X455488Y434503D01*
X455416Y434424D01*
X455346Y434342D01*
X455280Y434258D01*
X455217Y434172D01*
X455157Y434083D01*
X455100Y433993D01*
X455047Y433900D01*
X454997Y433805D01*
X454950Y433709D01*
X454907Y433611D01*
X454867Y433512D01*
X454831Y433411D01*
X454799Y433309D01*
X454770Y433206D01*
X454745Y433102D01*
X454724Y432997D01*
X454707Y432891D01*
X454693Y432785D01*
X454684Y432679D01*
X454678Y432572D01*
X454676Y432465D01*
X454676Y429501D01*
X465344Y429501D01*
X465344Y432465D01*
X465342Y432562D01*
X465336Y432658D01*
X465326Y432754D01*
X465312Y432850D01*
X465295Y432945D01*
X465273Y433040D01*
X465248Y433133D01*
X465219Y433225D01*
X465186Y433316D01*
X465149Y433406D01*
X465109Y433494D01*
X465065Y433580D01*
X465018Y433664D01*
X464968Y433747D01*
X464914Y433827D01*
X464856Y433905D01*
X464796Y433981D01*
X464733Y434054D01*
X464667Y434124D01*
X464597Y434192D01*
X464526Y434257D01*
X464451Y434319D01*
X464374Y434377D01*
X464295Y434433D01*
X464214Y434485D01*
X464130Y434534D01*
X464045Y434580D01*
X463958Y434622D01*
X463869Y434660D01*
X463779Y434695D01*
X463687Y434726D01*
X463594Y434753D01*
X463501Y434777D01*
X463406Y434796D01*
X463310Y434812D01*
X463214Y434824D01*
X463118Y434832D01*
X463021Y434836D01*
X462925Y434836D01*
X462828Y434832D01*
X462732Y434824D01*
X462636Y434812D01*
X462540Y434796D01*
X462445Y434777D01*
X462352Y434753D01*
X462259Y434726D01*
X462167Y434695D01*
X462077Y434660D01*
X461988Y434622D01*
X461901Y434580D01*
X461816Y434534D01*
X461732Y434485D01*
X461651Y434433D01*
X461572Y434377D01*
X461495Y434319D01*
X461420Y434257D01*
X461349Y434192D01*
X461279Y434124D01*
X461213Y434054D01*
X461150Y433981D01*
X461090Y433905D01*
X461032Y433827D01*
X460978Y433747D01*
X460928Y433664D01*
X460881Y433580D01*
X460837Y433494D01*
X460797Y433406D01*
X460760Y433316D01*
X460727Y433225D01*
X460698Y433133D01*
X460673Y433040D01*
X460651Y432945D01*
X460634Y432850D01*
X460620Y432754D01*
X460610Y432658D01*
X460604Y432562D01*
X460602Y432465D01*
X465344Y440711D02*
X454676Y440711D01*
X454676Y445453D01*
X454676Y450837D02*
X465344Y450837D01*
X465344Y456764D02*
X458825Y450837D01*
X461195Y453208D02*
X454676Y456764D01*
D15*
X343343Y433015D02*
X343343Y426157D01*
X345248Y433015D02*
X341438Y433015D01*
X334229Y433015D02*
X338801Y426157D01*
X334229Y426157D02*
X338801Y433015D01*
X331105Y431110D02*
X331105Y428062D01*
X331105Y431110D02*
X331103Y431195D01*
X331097Y431281D01*
X331088Y431366D01*
X331074Y431450D01*
X331057Y431534D01*
X331036Y431617D01*
X331012Y431699D01*
X330984Y431779D01*
X330952Y431859D01*
X330916Y431937D01*
X330878Y432013D01*
X330835Y432087D01*
X330790Y432159D01*
X330741Y432230D01*
X330689Y432298D01*
X330635Y432363D01*
X330577Y432426D01*
X330516Y432487D01*
X330453Y432545D01*
X330388Y432599D01*
X330320Y432651D01*
X330249Y432700D01*
X330177Y432745D01*
X330103Y432788D01*
X330027Y432826D01*
X329949Y432862D01*
X329869Y432894D01*
X329789Y432922D01*
X329707Y432946D01*
X329624Y432967D01*
X329540Y432984D01*
X329456Y432998D01*
X329371Y433007D01*
X329285Y433013D01*
X329200Y433015D01*
X329115Y433013D01*
X329029Y433007D01*
X328944Y432998D01*
X328860Y432984D01*
X328776Y432967D01*
X328693Y432946D01*
X328611Y432922D01*
X328531Y432894D01*
X328451Y432862D01*
X328373Y432826D01*
X328297Y432788D01*
X328223Y432745D01*
X328151Y432700D01*
X328080Y432651D01*
X328012Y432599D01*
X327947Y432545D01*
X327884Y432487D01*
X327823Y432426D01*
X327765Y432363D01*
X327711Y432298D01*
X327659Y432230D01*
X327610Y432159D01*
X327565Y432087D01*
X327522Y432013D01*
X327484Y431937D01*
X327448Y431859D01*
X327416Y431779D01*
X327388Y431699D01*
X327364Y431617D01*
X327343Y431534D01*
X327326Y431450D01*
X327312Y431366D01*
X327303Y431281D01*
X327297Y431195D01*
X327295Y431110D01*
X327295Y428062D01*
X327297Y427977D01*
X327303Y427891D01*
X327312Y427806D01*
X327326Y427722D01*
X327343Y427638D01*
X327364Y427555D01*
X327388Y427473D01*
X327416Y427393D01*
X327448Y427313D01*
X327484Y427235D01*
X327522Y427159D01*
X327565Y427085D01*
X327610Y427013D01*
X327659Y426942D01*
X327711Y426874D01*
X327765Y426809D01*
X327823Y426746D01*
X327884Y426685D01*
X327947Y426627D01*
X328012Y426573D01*
X328080Y426521D01*
X328151Y426472D01*
X328223Y426427D01*
X328297Y426384D01*
X328373Y426346D01*
X328451Y426310D01*
X328531Y426278D01*
X328611Y426250D01*
X328693Y426226D01*
X328776Y426205D01*
X328860Y426188D01*
X328944Y426174D01*
X329029Y426165D01*
X329115Y426159D01*
X329200Y426157D01*
X329285Y426159D01*
X329371Y426165D01*
X329456Y426174D01*
X329540Y426188D01*
X329624Y426205D01*
X329707Y426226D01*
X329789Y426250D01*
X329869Y426278D01*
X329949Y426310D01*
X330027Y426346D01*
X330103Y426384D01*
X330177Y426427D01*
X330249Y426472D01*
X330320Y426521D01*
X330388Y426573D01*
X330453Y426627D01*
X330516Y426685D01*
X330577Y426746D01*
X330635Y426809D01*
X330689Y426874D01*
X330741Y426942D01*
X330790Y427013D01*
X330835Y427085D01*
X330878Y427159D01*
X330916Y427235D01*
X330952Y427313D01*
X330984Y427393D01*
X331012Y427473D01*
X331036Y427555D01*
X331057Y427638D01*
X331074Y427722D01*
X331088Y427806D01*
X331097Y427891D01*
X331103Y427977D01*
X331105Y428062D01*
X368460Y426157D02*
X368460Y433015D01*
X366555Y433015D01*
X366470Y433013D01*
X366384Y433007D01*
X366299Y432998D01*
X366215Y432984D01*
X366131Y432967D01*
X366048Y432946D01*
X365966Y432922D01*
X365886Y432894D01*
X365806Y432862D01*
X365728Y432826D01*
X365652Y432788D01*
X365578Y432745D01*
X365506Y432700D01*
X365435Y432651D01*
X365367Y432599D01*
X365302Y432545D01*
X365239Y432487D01*
X365178Y432426D01*
X365120Y432363D01*
X365066Y432298D01*
X365014Y432230D01*
X364965Y432159D01*
X364920Y432087D01*
X364877Y432013D01*
X364839Y431937D01*
X364803Y431859D01*
X364771Y431779D01*
X364743Y431699D01*
X364719Y431617D01*
X364698Y431534D01*
X364681Y431450D01*
X364667Y431366D01*
X364658Y431281D01*
X364652Y431195D01*
X364650Y431110D01*
X364652Y431025D01*
X364658Y430939D01*
X364667Y430854D01*
X364681Y430770D01*
X364698Y430686D01*
X364719Y430603D01*
X364743Y430521D01*
X364771Y430441D01*
X364803Y430361D01*
X364839Y430283D01*
X364877Y430207D01*
X364920Y430133D01*
X364965Y430061D01*
X365014Y429990D01*
X365066Y429922D01*
X365120Y429857D01*
X365178Y429794D01*
X365239Y429733D01*
X365302Y429675D01*
X365367Y429621D01*
X365435Y429569D01*
X365506Y429520D01*
X365578Y429475D01*
X365652Y429432D01*
X365728Y429394D01*
X365806Y429358D01*
X365886Y429326D01*
X365966Y429298D01*
X366048Y429274D01*
X366131Y429253D01*
X366215Y429236D01*
X366299Y429222D01*
X366384Y429213D01*
X366470Y429207D01*
X366555Y429205D01*
X368460Y429205D01*
X366174Y429205D02*
X364650Y426157D01*
X361595Y426157D02*
X357023Y433015D01*
X361595Y433015D02*
X357023Y426157D01*
X353457Y426157D02*
X353457Y433015D01*
X354219Y426157D02*
X352695Y426157D01*
X352695Y433015D02*
X354219Y433015D01*
X392618Y426157D02*
X394904Y433015D01*
X390332Y433015D02*
X392618Y426157D01*
X385715Y426157D02*
X384191Y426157D01*
X385715Y426157D02*
X385792Y426159D01*
X385869Y426165D01*
X385946Y426175D01*
X386022Y426188D01*
X386097Y426206D01*
X386171Y426227D01*
X386244Y426252D01*
X386316Y426281D01*
X386386Y426313D01*
X386455Y426348D01*
X386521Y426388D01*
X386586Y426430D01*
X386648Y426476D01*
X386708Y426525D01*
X386765Y426576D01*
X386820Y426631D01*
X386871Y426688D01*
X386920Y426748D01*
X386966Y426810D01*
X387008Y426875D01*
X387048Y426941D01*
X387083Y427010D01*
X387115Y427080D01*
X387144Y427152D01*
X387169Y427225D01*
X387190Y427299D01*
X387208Y427374D01*
X387221Y427450D01*
X387231Y427527D01*
X387237Y427604D01*
X387239Y427681D01*
X387239Y431491D01*
X387237Y431568D01*
X387231Y431645D01*
X387221Y431722D01*
X387208Y431798D01*
X387190Y431873D01*
X387169Y431947D01*
X387144Y432020D01*
X387115Y432092D01*
X387083Y432162D01*
X387048Y432231D01*
X387008Y432297D01*
X386966Y432362D01*
X386920Y432424D01*
X386871Y432484D01*
X386820Y432541D01*
X386765Y432596D01*
X386708Y432647D01*
X386648Y432696D01*
X386586Y432742D01*
X386521Y432784D01*
X386455Y432824D01*
X386386Y432859D01*
X386316Y432891D01*
X386244Y432920D01*
X386171Y432945D01*
X386097Y432966D01*
X386022Y432984D01*
X385946Y432997D01*
X385869Y433007D01*
X385792Y433013D01*
X385715Y433015D01*
X384191Y433015D01*
X379619Y426157D02*
X378095Y426157D01*
X379619Y426157D02*
X379696Y426159D01*
X379773Y426165D01*
X379850Y426175D01*
X379926Y426188D01*
X380001Y426206D01*
X380075Y426227D01*
X380148Y426252D01*
X380220Y426281D01*
X380290Y426313D01*
X380359Y426348D01*
X380425Y426388D01*
X380490Y426430D01*
X380552Y426476D01*
X380612Y426525D01*
X380669Y426576D01*
X380724Y426631D01*
X380775Y426688D01*
X380824Y426748D01*
X380870Y426810D01*
X380912Y426875D01*
X380952Y426941D01*
X380987Y427010D01*
X381019Y427080D01*
X381048Y427152D01*
X381073Y427225D01*
X381094Y427299D01*
X381112Y427374D01*
X381125Y427450D01*
X381135Y427527D01*
X381141Y427604D01*
X381143Y427681D01*
X381143Y431491D01*
X381141Y431568D01*
X381135Y431645D01*
X381125Y431722D01*
X381112Y431798D01*
X381094Y431873D01*
X381073Y431947D01*
X381048Y432020D01*
X381019Y432092D01*
X380987Y432162D01*
X380952Y432231D01*
X380912Y432297D01*
X380870Y432362D01*
X380824Y432424D01*
X380775Y432484D01*
X380724Y432541D01*
X380669Y432596D01*
X380612Y432647D01*
X380552Y432696D01*
X380490Y432742D01*
X380425Y432784D01*
X380359Y432824D01*
X380290Y432859D01*
X380220Y432891D01*
X380148Y432920D01*
X380075Y432945D01*
X380001Y432966D01*
X379926Y432984D01*
X379850Y432997D01*
X379773Y433007D01*
X379696Y433013D01*
X379619Y433015D01*
X378095Y433015D01*
X319917Y433015D02*
X319917Y426157D01*
X319917Y433015D02*
X318012Y433015D01*
X317927Y433013D01*
X317841Y433007D01*
X317756Y432998D01*
X317672Y432984D01*
X317588Y432967D01*
X317505Y432946D01*
X317423Y432922D01*
X317343Y432894D01*
X317263Y432862D01*
X317185Y432826D01*
X317109Y432788D01*
X317035Y432745D01*
X316963Y432700D01*
X316892Y432651D01*
X316824Y432599D01*
X316759Y432545D01*
X316696Y432487D01*
X316635Y432426D01*
X316577Y432363D01*
X316523Y432298D01*
X316471Y432230D01*
X316422Y432159D01*
X316377Y432087D01*
X316334Y432013D01*
X316296Y431937D01*
X316260Y431859D01*
X316228Y431779D01*
X316200Y431699D01*
X316176Y431617D01*
X316155Y431534D01*
X316138Y431450D01*
X316124Y431366D01*
X316115Y431281D01*
X316109Y431195D01*
X316107Y431110D01*
X316107Y428062D01*
X316109Y427977D01*
X316115Y427891D01*
X316124Y427806D01*
X316138Y427722D01*
X316155Y427638D01*
X316176Y427555D01*
X316200Y427473D01*
X316228Y427393D01*
X316260Y427313D01*
X316296Y427235D01*
X316334Y427159D01*
X316377Y427085D01*
X316422Y427013D01*
X316471Y426942D01*
X316523Y426874D01*
X316577Y426809D01*
X316635Y426746D01*
X316696Y426685D01*
X316759Y426627D01*
X316824Y426573D01*
X316892Y426521D01*
X316963Y426472D01*
X317035Y426427D01*
X317109Y426384D01*
X317185Y426346D01*
X317263Y426310D01*
X317343Y426278D01*
X317423Y426250D01*
X317505Y426226D01*
X317588Y426205D01*
X317672Y426188D01*
X317756Y426174D01*
X317841Y426165D01*
X317927Y426159D01*
X318012Y426157D01*
X319917Y426157D01*
X310941Y426157D02*
X310941Y433015D01*
X312846Y433015D02*
X309036Y433015D01*
X305705Y433015D02*
X305705Y426157D01*
X305705Y433015D02*
X303800Y433015D01*
X303715Y433013D01*
X303629Y433007D01*
X303544Y432998D01*
X303460Y432984D01*
X303376Y432967D01*
X303293Y432946D01*
X303211Y432922D01*
X303131Y432894D01*
X303051Y432862D01*
X302973Y432826D01*
X302897Y432788D01*
X302823Y432745D01*
X302751Y432700D01*
X302680Y432651D01*
X302612Y432599D01*
X302547Y432545D01*
X302484Y432487D01*
X302423Y432426D01*
X302365Y432363D01*
X302311Y432298D01*
X302259Y432230D01*
X302210Y432159D01*
X302165Y432087D01*
X302122Y432013D01*
X302084Y431937D01*
X302048Y431859D01*
X302016Y431779D01*
X301988Y431699D01*
X301964Y431617D01*
X301943Y431534D01*
X301926Y431450D01*
X301912Y431366D01*
X301903Y431281D01*
X301897Y431195D01*
X301895Y431110D01*
X301897Y431025D01*
X301903Y430939D01*
X301912Y430854D01*
X301926Y430770D01*
X301943Y430686D01*
X301964Y430603D01*
X301988Y430521D01*
X302016Y430441D01*
X302048Y430361D01*
X302084Y430283D01*
X302122Y430207D01*
X302165Y430133D01*
X302210Y430061D01*
X302259Y429990D01*
X302311Y429922D01*
X302365Y429857D01*
X302423Y429794D01*
X302484Y429733D01*
X302547Y429675D01*
X302612Y429621D01*
X302680Y429569D01*
X302751Y429520D01*
X302823Y429475D01*
X302897Y429432D01*
X302973Y429394D01*
X303051Y429358D01*
X303131Y429326D01*
X303211Y429298D01*
X303293Y429274D01*
X303376Y429253D01*
X303460Y429236D01*
X303544Y429222D01*
X303629Y429213D01*
X303715Y429207D01*
X303800Y429205D01*
X305705Y429205D01*
X303419Y429205D02*
X301895Y426157D01*
X444501Y429967D02*
X445644Y429967D01*
X444501Y429967D02*
X444501Y426157D01*
X446787Y426157D01*
X446864Y426159D01*
X446941Y426165D01*
X447018Y426175D01*
X447094Y426188D01*
X447169Y426206D01*
X447243Y426227D01*
X447316Y426252D01*
X447388Y426281D01*
X447458Y426313D01*
X447527Y426348D01*
X447593Y426388D01*
X447658Y426430D01*
X447720Y426476D01*
X447780Y426525D01*
X447837Y426576D01*
X447892Y426631D01*
X447943Y426688D01*
X447992Y426748D01*
X448038Y426810D01*
X448080Y426875D01*
X448120Y426941D01*
X448155Y427010D01*
X448187Y427080D01*
X448216Y427152D01*
X448241Y427225D01*
X448262Y427299D01*
X448280Y427374D01*
X448293Y427450D01*
X448303Y427527D01*
X448309Y427604D01*
X448311Y427681D01*
X448311Y431491D01*
X448309Y431568D01*
X448303Y431645D01*
X448293Y431722D01*
X448280Y431798D01*
X448262Y431873D01*
X448241Y431947D01*
X448216Y432020D01*
X448187Y432092D01*
X448155Y432162D01*
X448120Y432231D01*
X448080Y432297D01*
X448038Y432362D01*
X447992Y432424D01*
X447943Y432484D01*
X447892Y432541D01*
X447837Y432596D01*
X447780Y432647D01*
X447720Y432696D01*
X447658Y432742D01*
X447593Y432784D01*
X447527Y432824D01*
X447458Y432859D01*
X447388Y432891D01*
X447316Y432920D01*
X447243Y432945D01*
X447169Y432966D01*
X447094Y432984D01*
X447018Y432997D01*
X446941Y433007D01*
X446864Y433013D01*
X446787Y433015D01*
X444501Y433015D01*
X440508Y433015D02*
X440508Y426157D01*
X436698Y426157D02*
X440508Y433015D01*
X436698Y433015D02*
X436698Y426157D01*
X432705Y426157D02*
X432705Y433015D01*
X430800Y433015D01*
X430715Y433013D01*
X430629Y433007D01*
X430544Y432998D01*
X430460Y432984D01*
X430376Y432967D01*
X430293Y432946D01*
X430211Y432922D01*
X430131Y432894D01*
X430051Y432862D01*
X429973Y432826D01*
X429897Y432788D01*
X429823Y432745D01*
X429751Y432700D01*
X429680Y432651D01*
X429612Y432599D01*
X429547Y432545D01*
X429484Y432487D01*
X429423Y432426D01*
X429365Y432363D01*
X429311Y432298D01*
X429259Y432230D01*
X429210Y432159D01*
X429165Y432087D01*
X429122Y432013D01*
X429084Y431937D01*
X429048Y431859D01*
X429016Y431779D01*
X428988Y431699D01*
X428964Y431617D01*
X428943Y431534D01*
X428926Y431450D01*
X428912Y431366D01*
X428903Y431281D01*
X428897Y431195D01*
X428895Y431110D01*
X428895Y428062D01*
X428897Y427977D01*
X428903Y427891D01*
X428912Y427806D01*
X428926Y427722D01*
X428943Y427638D01*
X428964Y427555D01*
X428988Y427473D01*
X429016Y427393D01*
X429048Y427313D01*
X429084Y427235D01*
X429122Y427159D01*
X429165Y427085D01*
X429210Y427013D01*
X429259Y426942D01*
X429311Y426874D01*
X429365Y426809D01*
X429423Y426746D01*
X429484Y426685D01*
X429547Y426627D01*
X429612Y426573D01*
X429680Y426521D01*
X429751Y426472D01*
X429823Y426427D01*
X429897Y426384D01*
X429973Y426346D01*
X430051Y426310D01*
X430131Y426278D01*
X430211Y426250D01*
X430293Y426226D01*
X430376Y426205D01*
X430460Y426188D01*
X430544Y426174D01*
X430629Y426165D01*
X430715Y426159D01*
X430800Y426157D01*
X432705Y426157D01*
X418004Y426157D02*
X416480Y426157D01*
X418004Y426157D02*
X418081Y426159D01*
X418158Y426165D01*
X418235Y426175D01*
X418311Y426188D01*
X418386Y426206D01*
X418460Y426227D01*
X418533Y426252D01*
X418605Y426281D01*
X418675Y426313D01*
X418744Y426348D01*
X418810Y426388D01*
X418875Y426430D01*
X418937Y426476D01*
X418997Y426525D01*
X419054Y426576D01*
X419109Y426631D01*
X419160Y426688D01*
X419209Y426748D01*
X419255Y426810D01*
X419297Y426875D01*
X419337Y426941D01*
X419372Y427010D01*
X419404Y427080D01*
X419433Y427152D01*
X419458Y427225D01*
X419479Y427299D01*
X419497Y427374D01*
X419510Y427450D01*
X419520Y427527D01*
X419526Y427604D01*
X419528Y427681D01*
X419528Y431491D01*
X419526Y431568D01*
X419520Y431645D01*
X419510Y431722D01*
X419497Y431798D01*
X419479Y431873D01*
X419458Y431947D01*
X419433Y432020D01*
X419404Y432092D01*
X419372Y432162D01*
X419337Y432231D01*
X419297Y432297D01*
X419255Y432362D01*
X419209Y432424D01*
X419160Y432484D01*
X419109Y432541D01*
X419054Y432596D01*
X418997Y432647D01*
X418937Y432696D01*
X418875Y432742D01*
X418810Y432784D01*
X418744Y432824D01*
X418675Y432859D01*
X418605Y432891D01*
X418533Y432920D01*
X418460Y432945D01*
X418386Y432966D01*
X418311Y432984D01*
X418235Y432997D01*
X418158Y433007D01*
X418081Y433013D01*
X418004Y433015D01*
X416480Y433015D01*
X411984Y433015D02*
X411984Y426157D01*
X413889Y433015D02*
X410079Y433015D01*
X403495Y427681D02*
X403497Y427604D01*
X403503Y427527D01*
X403513Y427450D01*
X403526Y427374D01*
X403544Y427299D01*
X403565Y427225D01*
X403590Y427152D01*
X403619Y427080D01*
X403651Y427010D01*
X403686Y426941D01*
X403726Y426875D01*
X403768Y426810D01*
X403814Y426748D01*
X403863Y426688D01*
X403914Y426631D01*
X403969Y426576D01*
X404026Y426525D01*
X404086Y426476D01*
X404148Y426430D01*
X404213Y426388D01*
X404279Y426348D01*
X404348Y426313D01*
X404418Y426281D01*
X404490Y426252D01*
X404563Y426227D01*
X404637Y426206D01*
X404712Y426188D01*
X404788Y426175D01*
X404865Y426165D01*
X404942Y426159D01*
X405019Y426157D01*
X405129Y426159D01*
X405240Y426165D01*
X405350Y426174D01*
X405460Y426187D01*
X405569Y426204D01*
X405677Y426225D01*
X405785Y426249D01*
X405892Y426278D01*
X405998Y426309D01*
X406102Y426345D01*
X406206Y426384D01*
X406308Y426426D01*
X406408Y426472D01*
X406507Y426522D01*
X406604Y426574D01*
X406700Y426631D01*
X406793Y426690D01*
X406884Y426752D01*
X406973Y426818D01*
X407060Y426886D01*
X407144Y426958D01*
X407226Y427032D01*
X407305Y427109D01*
X407115Y431491D02*
X407113Y431568D01*
X407107Y431645D01*
X407097Y431722D01*
X407084Y431798D01*
X407066Y431873D01*
X407045Y431947D01*
X407020Y432020D01*
X406991Y432092D01*
X406959Y432162D01*
X406924Y432231D01*
X406884Y432297D01*
X406842Y432362D01*
X406796Y432424D01*
X406747Y432484D01*
X406696Y432541D01*
X406641Y432596D01*
X406584Y432647D01*
X406524Y432696D01*
X406462Y432742D01*
X406397Y432784D01*
X406331Y432824D01*
X406262Y432859D01*
X406192Y432891D01*
X406120Y432920D01*
X406047Y432945D01*
X405973Y432966D01*
X405898Y432984D01*
X405822Y432997D01*
X405745Y433007D01*
X405668Y433013D01*
X405591Y433015D01*
X405591Y433016D02*
X405489Y433014D01*
X405387Y433009D01*
X405285Y433000D01*
X405184Y432987D01*
X405083Y432970D01*
X404983Y432951D01*
X404883Y432927D01*
X404785Y432900D01*
X404687Y432869D01*
X404591Y432835D01*
X404496Y432798D01*
X404402Y432757D01*
X404310Y432713D01*
X404220Y432665D01*
X404131Y432615D01*
X404044Y432561D01*
X403959Y432504D01*
X403876Y432444D01*
X406353Y430157D02*
X406418Y430198D01*
X406481Y430241D01*
X406541Y430288D01*
X406600Y430338D01*
X406655Y430390D01*
X406708Y430445D01*
X406759Y430503D01*
X406806Y430563D01*
X406850Y430626D01*
X406892Y430690D01*
X406930Y430756D01*
X406964Y430825D01*
X406995Y430895D01*
X407023Y430966D01*
X407047Y431038D01*
X407068Y431112D01*
X407085Y431187D01*
X407098Y431262D01*
X407107Y431338D01*
X407113Y431414D01*
X407115Y431491D01*
X404257Y429015D02*
X404192Y428974D01*
X404129Y428931D01*
X404069Y428884D01*
X404010Y428834D01*
X403955Y428782D01*
X403902Y428727D01*
X403851Y428669D01*
X403804Y428609D01*
X403760Y428546D01*
X403718Y428482D01*
X403680Y428416D01*
X403646Y428347D01*
X403615Y428277D01*
X403587Y428206D01*
X403563Y428134D01*
X403542Y428060D01*
X403525Y427985D01*
X403512Y427910D01*
X403503Y427834D01*
X403497Y427758D01*
X403495Y427681D01*
X404257Y429015D02*
X406353Y430158D01*
X321782Y419967D02*
X321782Y411077D01*
X321784Y410977D01*
X321790Y410878D01*
X321800Y410778D01*
X321813Y410680D01*
X321831Y410581D01*
X321852Y410484D01*
X321877Y410388D01*
X321906Y410292D01*
X321939Y410198D01*
X321975Y410105D01*
X322015Y410014D01*
X322059Y409924D01*
X322106Y409836D01*
X322156Y409750D01*
X322210Y409666D01*
X322267Y409584D01*
X322327Y409505D01*
X322391Y409427D01*
X322457Y409353D01*
X322526Y409281D01*
X322598Y409212D01*
X322672Y409146D01*
X322750Y409082D01*
X322829Y409022D01*
X322911Y408965D01*
X322995Y408911D01*
X323081Y408861D01*
X323169Y408814D01*
X323259Y408770D01*
X323350Y408730D01*
X323443Y408694D01*
X323537Y408661D01*
X323633Y408632D01*
X323729Y408607D01*
X323826Y408586D01*
X323925Y408568D01*
X324023Y408555D01*
X324123Y408545D01*
X324222Y408539D01*
X324322Y408537D01*
X325592Y408537D01*
X315802Y408537D02*
X315802Y419967D01*
X312627Y419967D01*
X312516Y419965D01*
X312406Y419959D01*
X312295Y419950D01*
X312185Y419936D01*
X312076Y419919D01*
X311967Y419898D01*
X311859Y419873D01*
X311752Y419844D01*
X311646Y419812D01*
X311541Y419776D01*
X311438Y419736D01*
X311336Y419693D01*
X311235Y419646D01*
X311136Y419595D01*
X311040Y419542D01*
X310945Y419485D01*
X310852Y419424D01*
X310761Y419361D01*
X310672Y419294D01*
X310586Y419224D01*
X310503Y419151D01*
X310421Y419076D01*
X310343Y418998D01*
X310268Y418916D01*
X310195Y418833D01*
X310125Y418747D01*
X310058Y418658D01*
X309995Y418567D01*
X309934Y418474D01*
X309877Y418380D01*
X309824Y418283D01*
X309773Y418184D01*
X309726Y418083D01*
X309683Y417981D01*
X309643Y417878D01*
X309607Y417773D01*
X309575Y417667D01*
X309546Y417560D01*
X309521Y417452D01*
X309500Y417343D01*
X309483Y417234D01*
X309469Y417124D01*
X309460Y417013D01*
X309454Y416903D01*
X309452Y416792D01*
X309454Y416681D01*
X309460Y416571D01*
X309469Y416460D01*
X309483Y416350D01*
X309500Y416241D01*
X309521Y416132D01*
X309546Y416024D01*
X309575Y415917D01*
X309607Y415811D01*
X309643Y415706D01*
X309683Y415603D01*
X309726Y415501D01*
X309773Y415400D01*
X309824Y415301D01*
X309877Y415205D01*
X309934Y415110D01*
X309995Y415017D01*
X310058Y414926D01*
X310125Y414837D01*
X310195Y414751D01*
X310268Y414668D01*
X310343Y414586D01*
X310421Y414508D01*
X310503Y414433D01*
X310586Y414360D01*
X310672Y414290D01*
X310761Y414223D01*
X310852Y414160D01*
X310945Y414099D01*
X311040Y414042D01*
X311136Y413989D01*
X311235Y413938D01*
X311336Y413891D01*
X311438Y413848D01*
X311541Y413808D01*
X311646Y413772D01*
X311752Y413740D01*
X311859Y413711D01*
X311967Y413686D01*
X312076Y413665D01*
X312185Y413648D01*
X312295Y413634D01*
X312406Y413625D01*
X312516Y413619D01*
X312627Y413617D01*
X315802Y413617D01*
X304943Y417427D02*
X301768Y419967D01*
X301768Y408537D01*
X304943Y408537D02*
X298593Y408537D01*
M02*
