G04 EAGLE Gerber RS-274X export*
G75*
%MOMM*%
%FSLAX34Y34*%
%LPD*%
%INSilkscreen Bottom*%
%IPPOS*%
%AMOC8*
5,1,8,0,0,1.08239X$1,22.5*%
G01*
%ADD10C,0.100000*%
%ADD11C,0.200000*%
%ADD12C,0.101600*%
%ADD13C,0.127000*%
%ADD14C,0.203200*%


D10*
X167960Y357690D02*
X68900Y357690D01*
X68900Y517710D02*
X167960Y517710D01*
D11*
X167960Y357690D02*
X169230Y357690D01*
X169230Y517710D01*
X167960Y517710D01*
X68900Y357690D02*
X67630Y357690D01*
X67630Y517710D01*
X68900Y517710D01*
D12*
X120312Y369148D02*
X122908Y369148D01*
X123007Y369150D01*
X123107Y369156D01*
X123206Y369165D01*
X123304Y369178D01*
X123402Y369195D01*
X123500Y369216D01*
X123596Y369241D01*
X123691Y369269D01*
X123785Y369301D01*
X123878Y369336D01*
X123970Y369375D01*
X124060Y369418D01*
X124148Y369463D01*
X124235Y369513D01*
X124319Y369565D01*
X124402Y369621D01*
X124482Y369679D01*
X124560Y369741D01*
X124635Y369806D01*
X124708Y369874D01*
X124778Y369944D01*
X124846Y370017D01*
X124911Y370092D01*
X124973Y370170D01*
X125031Y370250D01*
X125087Y370333D01*
X125139Y370417D01*
X125189Y370504D01*
X125234Y370592D01*
X125277Y370682D01*
X125316Y370774D01*
X125351Y370867D01*
X125383Y370961D01*
X125411Y371056D01*
X125436Y371152D01*
X125457Y371250D01*
X125474Y371348D01*
X125487Y371446D01*
X125496Y371545D01*
X125502Y371645D01*
X125504Y371744D01*
X125505Y371744D02*
X125505Y378236D01*
X125504Y378236D02*
X125502Y378335D01*
X125496Y378435D01*
X125487Y378534D01*
X125474Y378632D01*
X125457Y378730D01*
X125436Y378828D01*
X125411Y378924D01*
X125383Y379019D01*
X125351Y379113D01*
X125316Y379206D01*
X125277Y379298D01*
X125234Y379388D01*
X125189Y379476D01*
X125139Y379563D01*
X125087Y379647D01*
X125031Y379730D01*
X124973Y379810D01*
X124911Y379888D01*
X124846Y379963D01*
X124778Y380036D01*
X124708Y380106D01*
X124635Y380174D01*
X124560Y380239D01*
X124482Y380301D01*
X124402Y380359D01*
X124319Y380415D01*
X124235Y380467D01*
X124148Y380517D01*
X124060Y380562D01*
X123970Y380605D01*
X123878Y380644D01*
X123785Y380679D01*
X123691Y380711D01*
X123596Y380739D01*
X123500Y380764D01*
X123402Y380785D01*
X123304Y380802D01*
X123206Y380815D01*
X123107Y380824D01*
X123007Y380830D01*
X122908Y380832D01*
X120312Y380832D01*
X115946Y378236D02*
X112701Y380832D01*
X112701Y369148D01*
X115946Y369148D02*
X109455Y369148D01*
D10*
X295100Y466090D02*
X295100Y565150D01*
X455120Y565150D02*
X455120Y466090D01*
D11*
X295100Y466090D02*
X295100Y464820D01*
X455120Y464820D01*
X455120Y466090D01*
X295100Y565150D02*
X295100Y566420D01*
X455120Y566420D01*
X455120Y565150D01*
D12*
X304018Y511518D02*
X304018Y508922D01*
X304020Y508823D01*
X304026Y508723D01*
X304035Y508624D01*
X304048Y508526D01*
X304065Y508428D01*
X304086Y508330D01*
X304111Y508234D01*
X304139Y508139D01*
X304171Y508045D01*
X304206Y507952D01*
X304245Y507860D01*
X304288Y507770D01*
X304333Y507682D01*
X304383Y507595D01*
X304435Y507511D01*
X304491Y507428D01*
X304549Y507348D01*
X304611Y507270D01*
X304676Y507195D01*
X304744Y507122D01*
X304814Y507052D01*
X304887Y506984D01*
X304962Y506919D01*
X305040Y506857D01*
X305120Y506799D01*
X305203Y506743D01*
X305287Y506691D01*
X305374Y506641D01*
X305462Y506596D01*
X305552Y506553D01*
X305644Y506514D01*
X305737Y506479D01*
X305831Y506447D01*
X305926Y506419D01*
X306022Y506394D01*
X306120Y506373D01*
X306218Y506356D01*
X306316Y506343D01*
X306415Y506334D01*
X306515Y506328D01*
X306614Y506326D01*
X306614Y506325D02*
X313106Y506325D01*
X313106Y506326D02*
X313205Y506328D01*
X313305Y506334D01*
X313404Y506343D01*
X313502Y506356D01*
X313600Y506373D01*
X313698Y506394D01*
X313794Y506419D01*
X313889Y506447D01*
X313983Y506479D01*
X314076Y506514D01*
X314168Y506553D01*
X314258Y506596D01*
X314346Y506641D01*
X314433Y506691D01*
X314517Y506743D01*
X314600Y506799D01*
X314680Y506857D01*
X314758Y506919D01*
X314833Y506984D01*
X314906Y507052D01*
X314976Y507122D01*
X315044Y507195D01*
X315109Y507270D01*
X315171Y507348D01*
X315229Y507428D01*
X315285Y507511D01*
X315337Y507595D01*
X315387Y507682D01*
X315432Y507770D01*
X315475Y507860D01*
X315514Y507952D01*
X315549Y508044D01*
X315581Y508139D01*
X315609Y508234D01*
X315634Y508330D01*
X315655Y508428D01*
X315672Y508526D01*
X315685Y508624D01*
X315694Y508723D01*
X315700Y508823D01*
X315702Y508922D01*
X315702Y511518D01*
X315702Y519454D02*
X315700Y519561D01*
X315694Y519667D01*
X315684Y519773D01*
X315671Y519879D01*
X315653Y519985D01*
X315632Y520089D01*
X315607Y520193D01*
X315578Y520296D01*
X315546Y520397D01*
X315509Y520497D01*
X315469Y520596D01*
X315426Y520694D01*
X315379Y520790D01*
X315328Y520884D01*
X315274Y520976D01*
X315217Y521066D01*
X315157Y521154D01*
X315093Y521239D01*
X315026Y521322D01*
X314956Y521403D01*
X314884Y521481D01*
X314808Y521557D01*
X314730Y521629D01*
X314649Y521699D01*
X314566Y521766D01*
X314481Y521830D01*
X314393Y521890D01*
X314303Y521947D01*
X314211Y522001D01*
X314117Y522052D01*
X314021Y522099D01*
X313923Y522142D01*
X313824Y522182D01*
X313724Y522219D01*
X313623Y522251D01*
X313520Y522280D01*
X313416Y522305D01*
X313312Y522326D01*
X313206Y522344D01*
X313100Y522357D01*
X312994Y522367D01*
X312888Y522373D01*
X312781Y522375D01*
X315702Y519454D02*
X315700Y519333D01*
X315694Y519212D01*
X315684Y519092D01*
X315671Y518971D01*
X315653Y518852D01*
X315632Y518732D01*
X315607Y518614D01*
X315578Y518497D01*
X315545Y518380D01*
X315509Y518265D01*
X315468Y518151D01*
X315425Y518038D01*
X315377Y517926D01*
X315326Y517817D01*
X315271Y517709D01*
X315213Y517602D01*
X315152Y517498D01*
X315087Y517396D01*
X315019Y517296D01*
X314948Y517198D01*
X314874Y517102D01*
X314797Y517009D01*
X314716Y516919D01*
X314633Y516831D01*
X314547Y516746D01*
X314458Y516663D01*
X314367Y516584D01*
X314273Y516507D01*
X314177Y516434D01*
X314079Y516364D01*
X313978Y516297D01*
X313875Y516233D01*
X313770Y516173D01*
X313663Y516116D01*
X313555Y516062D01*
X313445Y516012D01*
X313333Y515966D01*
X313220Y515923D01*
X313105Y515884D01*
X310509Y521401D02*
X310586Y521480D01*
X310667Y521556D01*
X310750Y521629D01*
X310835Y521699D01*
X310923Y521766D01*
X311013Y521830D01*
X311105Y521890D01*
X311200Y521947D01*
X311296Y522001D01*
X311394Y522052D01*
X311494Y522099D01*
X311596Y522143D01*
X311699Y522183D01*
X311803Y522219D01*
X311909Y522251D01*
X312015Y522280D01*
X312123Y522305D01*
X312231Y522327D01*
X312341Y522344D01*
X312450Y522358D01*
X312560Y522367D01*
X312671Y522373D01*
X312781Y522375D01*
X310509Y521401D02*
X304018Y515884D01*
X304018Y522375D01*
D13*
X298720Y436190D02*
X451120Y436190D01*
X451120Y461590D01*
X298720Y461590D01*
X298720Y436190D01*
D14*
X290423Y432761D02*
X290423Y430983D01*
X290423Y432761D02*
X284496Y432761D01*
X284496Y429205D01*
X284498Y429110D01*
X284504Y429014D01*
X284513Y428919D01*
X284527Y428825D01*
X284544Y428731D01*
X284565Y428638D01*
X284590Y428545D01*
X284618Y428454D01*
X284650Y428364D01*
X284686Y428276D01*
X284725Y428189D01*
X284768Y428103D01*
X284814Y428020D01*
X284863Y427938D01*
X284916Y427858D01*
X284972Y427781D01*
X285030Y427705D01*
X285092Y427633D01*
X285157Y427563D01*
X285225Y427495D01*
X285295Y427430D01*
X285367Y427368D01*
X285443Y427310D01*
X285520Y427254D01*
X285600Y427201D01*
X285682Y427152D01*
X285765Y427106D01*
X285851Y427063D01*
X285938Y427024D01*
X286026Y426988D01*
X286116Y426956D01*
X286207Y426928D01*
X286300Y426903D01*
X286393Y426882D01*
X286487Y426865D01*
X286581Y426851D01*
X286676Y426842D01*
X286772Y426836D01*
X286867Y426834D01*
X292793Y426834D01*
X292888Y426836D01*
X292984Y426842D01*
X293079Y426851D01*
X293173Y426865D01*
X293267Y426882D01*
X293360Y426903D01*
X293453Y426928D01*
X293544Y426956D01*
X293634Y426988D01*
X293722Y427024D01*
X293809Y427063D01*
X293895Y427106D01*
X293978Y427152D01*
X294060Y427201D01*
X294140Y427254D01*
X294217Y427310D01*
X294293Y427368D01*
X294365Y427430D01*
X294435Y427495D01*
X294503Y427563D01*
X294568Y427633D01*
X294630Y427705D01*
X294688Y427781D01*
X294744Y427858D01*
X294797Y427938D01*
X294846Y428019D01*
X294892Y428103D01*
X294935Y428189D01*
X294974Y428276D01*
X295010Y428364D01*
X295042Y428454D01*
X295070Y428545D01*
X295095Y428638D01*
X295116Y428731D01*
X295133Y428825D01*
X295147Y428919D01*
X295156Y429014D01*
X295162Y429109D01*
X295164Y429205D01*
X295164Y432761D01*
X295164Y439137D02*
X284496Y439137D01*
X295164Y439137D02*
X295164Y442100D01*
X295162Y442207D01*
X295156Y442314D01*
X295147Y442420D01*
X295133Y442526D01*
X295116Y442632D01*
X295095Y442737D01*
X295070Y442841D01*
X295041Y442944D01*
X295009Y443046D01*
X294973Y443147D01*
X294933Y443246D01*
X294890Y443344D01*
X294843Y443440D01*
X294793Y443535D01*
X294740Y443628D01*
X294683Y443718D01*
X294623Y443807D01*
X294560Y443893D01*
X294494Y443977D01*
X294424Y444059D01*
X294352Y444138D01*
X294277Y444214D01*
X294199Y444288D01*
X294119Y444358D01*
X294036Y444426D01*
X293951Y444491D01*
X293864Y444552D01*
X293774Y444611D01*
X293683Y444666D01*
X293589Y444718D01*
X293493Y444766D01*
X293396Y444811D01*
X293298Y444853D01*
X293198Y444890D01*
X293096Y444925D01*
X292994Y444955D01*
X292890Y444982D01*
X292786Y445005D01*
X292680Y445024D01*
X292574Y445039D01*
X292468Y445051D01*
X292361Y445059D01*
X292254Y445063D01*
X292148Y445063D01*
X292041Y445059D01*
X291934Y445051D01*
X291828Y445039D01*
X291722Y445024D01*
X291616Y445005D01*
X291512Y444982D01*
X291408Y444955D01*
X291306Y444925D01*
X291204Y444890D01*
X291104Y444853D01*
X291006Y444811D01*
X290909Y444766D01*
X290813Y444718D01*
X290720Y444666D01*
X290628Y444611D01*
X290538Y444552D01*
X290451Y444491D01*
X290366Y444426D01*
X290283Y444358D01*
X290203Y444288D01*
X290125Y444214D01*
X290050Y444138D01*
X289978Y444059D01*
X289908Y443977D01*
X289842Y443893D01*
X289779Y443807D01*
X289719Y443718D01*
X289662Y443628D01*
X289609Y443535D01*
X289559Y443440D01*
X289512Y443344D01*
X289469Y443246D01*
X289429Y443147D01*
X289393Y443046D01*
X289361Y442944D01*
X289332Y442841D01*
X289307Y442737D01*
X289286Y442632D01*
X289269Y442526D01*
X289255Y442420D01*
X289246Y442314D01*
X289240Y442207D01*
X289238Y442100D01*
X289237Y442100D02*
X289237Y439137D01*
X289237Y442693D02*
X284496Y445063D01*
X284496Y450837D02*
X295164Y450837D01*
X284496Y456764D01*
X295164Y456764D01*
X460603Y432465D02*
X460603Y429501D01*
X460602Y432465D02*
X460600Y432572D01*
X460594Y432679D01*
X460585Y432785D01*
X460571Y432891D01*
X460554Y432997D01*
X460533Y433102D01*
X460508Y433206D01*
X460479Y433309D01*
X460447Y433411D01*
X460411Y433512D01*
X460371Y433611D01*
X460328Y433709D01*
X460281Y433805D01*
X460231Y433900D01*
X460178Y433993D01*
X460121Y434083D01*
X460061Y434172D01*
X459998Y434258D01*
X459932Y434342D01*
X459862Y434424D01*
X459790Y434503D01*
X459715Y434579D01*
X459637Y434653D01*
X459557Y434723D01*
X459474Y434791D01*
X459389Y434856D01*
X459302Y434917D01*
X459212Y434976D01*
X459121Y435031D01*
X459027Y435083D01*
X458931Y435131D01*
X458834Y435176D01*
X458736Y435218D01*
X458636Y435255D01*
X458534Y435290D01*
X458432Y435320D01*
X458328Y435347D01*
X458224Y435370D01*
X458118Y435389D01*
X458012Y435404D01*
X457906Y435416D01*
X457799Y435424D01*
X457692Y435428D01*
X457586Y435428D01*
X457479Y435424D01*
X457372Y435416D01*
X457266Y435404D01*
X457160Y435389D01*
X457054Y435370D01*
X456950Y435347D01*
X456846Y435320D01*
X456744Y435290D01*
X456642Y435255D01*
X456542Y435218D01*
X456444Y435176D01*
X456347Y435131D01*
X456251Y435083D01*
X456158Y435031D01*
X456066Y434976D01*
X455976Y434917D01*
X455889Y434856D01*
X455804Y434791D01*
X455721Y434723D01*
X455641Y434653D01*
X455563Y434579D01*
X455488Y434503D01*
X455416Y434424D01*
X455346Y434342D01*
X455280Y434258D01*
X455217Y434172D01*
X455157Y434083D01*
X455100Y433993D01*
X455047Y433900D01*
X454997Y433805D01*
X454950Y433709D01*
X454907Y433611D01*
X454867Y433512D01*
X454831Y433411D01*
X454799Y433309D01*
X454770Y433206D01*
X454745Y433102D01*
X454724Y432997D01*
X454707Y432891D01*
X454693Y432785D01*
X454684Y432679D01*
X454678Y432572D01*
X454676Y432465D01*
X454676Y429501D01*
X465344Y429501D01*
X465344Y432465D01*
X465342Y432562D01*
X465336Y432658D01*
X465326Y432754D01*
X465312Y432850D01*
X465295Y432945D01*
X465273Y433040D01*
X465248Y433133D01*
X465219Y433225D01*
X465186Y433316D01*
X465149Y433406D01*
X465109Y433494D01*
X465065Y433580D01*
X465018Y433664D01*
X464968Y433747D01*
X464914Y433827D01*
X464856Y433905D01*
X464796Y433981D01*
X464733Y434054D01*
X464667Y434124D01*
X464597Y434192D01*
X464526Y434257D01*
X464451Y434319D01*
X464374Y434377D01*
X464295Y434433D01*
X464214Y434485D01*
X464130Y434534D01*
X464045Y434580D01*
X463958Y434622D01*
X463869Y434660D01*
X463779Y434695D01*
X463687Y434726D01*
X463594Y434753D01*
X463501Y434777D01*
X463406Y434796D01*
X463310Y434812D01*
X463214Y434824D01*
X463118Y434832D01*
X463021Y434836D01*
X462925Y434836D01*
X462828Y434832D01*
X462732Y434824D01*
X462636Y434812D01*
X462540Y434796D01*
X462445Y434777D01*
X462352Y434753D01*
X462259Y434726D01*
X462167Y434695D01*
X462077Y434660D01*
X461988Y434622D01*
X461901Y434580D01*
X461816Y434534D01*
X461732Y434485D01*
X461651Y434433D01*
X461572Y434377D01*
X461495Y434319D01*
X461420Y434257D01*
X461349Y434192D01*
X461279Y434124D01*
X461213Y434054D01*
X461150Y433981D01*
X461090Y433905D01*
X461032Y433827D01*
X460978Y433747D01*
X460928Y433664D01*
X460881Y433580D01*
X460837Y433494D01*
X460797Y433406D01*
X460760Y433316D01*
X460727Y433225D01*
X460698Y433133D01*
X460673Y433040D01*
X460651Y432945D01*
X460634Y432850D01*
X460620Y432754D01*
X460610Y432658D01*
X460604Y432562D01*
X460602Y432465D01*
X465344Y440711D02*
X454676Y440711D01*
X454676Y445453D01*
X454676Y450837D02*
X465344Y450837D01*
X465344Y456764D02*
X458825Y450837D01*
X461195Y453208D02*
X454676Y456764D01*
D13*
X343343Y433015D02*
X343343Y426157D01*
X345248Y433015D02*
X341438Y433015D01*
X334229Y433015D02*
X338801Y426157D01*
X334229Y426157D02*
X338801Y433015D01*
X331105Y431110D02*
X331105Y428062D01*
X331105Y431110D02*
X331103Y431195D01*
X331097Y431281D01*
X331088Y431366D01*
X331074Y431450D01*
X331057Y431534D01*
X331036Y431617D01*
X331012Y431699D01*
X330984Y431779D01*
X330952Y431859D01*
X330916Y431937D01*
X330878Y432013D01*
X330835Y432087D01*
X330790Y432159D01*
X330741Y432230D01*
X330689Y432298D01*
X330635Y432363D01*
X330577Y432426D01*
X330516Y432487D01*
X330453Y432545D01*
X330388Y432599D01*
X330320Y432651D01*
X330249Y432700D01*
X330177Y432745D01*
X330103Y432788D01*
X330027Y432826D01*
X329949Y432862D01*
X329869Y432894D01*
X329789Y432922D01*
X329707Y432946D01*
X329624Y432967D01*
X329540Y432984D01*
X329456Y432998D01*
X329371Y433007D01*
X329285Y433013D01*
X329200Y433015D01*
X329115Y433013D01*
X329029Y433007D01*
X328944Y432998D01*
X328860Y432984D01*
X328776Y432967D01*
X328693Y432946D01*
X328611Y432922D01*
X328531Y432894D01*
X328451Y432862D01*
X328373Y432826D01*
X328297Y432788D01*
X328223Y432745D01*
X328151Y432700D01*
X328080Y432651D01*
X328012Y432599D01*
X327947Y432545D01*
X327884Y432487D01*
X327823Y432426D01*
X327765Y432363D01*
X327711Y432298D01*
X327659Y432230D01*
X327610Y432159D01*
X327565Y432087D01*
X327522Y432013D01*
X327484Y431937D01*
X327448Y431859D01*
X327416Y431779D01*
X327388Y431699D01*
X327364Y431617D01*
X327343Y431534D01*
X327326Y431450D01*
X327312Y431366D01*
X327303Y431281D01*
X327297Y431195D01*
X327295Y431110D01*
X327295Y428062D01*
X327297Y427977D01*
X327303Y427891D01*
X327312Y427806D01*
X327326Y427722D01*
X327343Y427638D01*
X327364Y427555D01*
X327388Y427473D01*
X327416Y427393D01*
X327448Y427313D01*
X327484Y427235D01*
X327522Y427159D01*
X327565Y427085D01*
X327610Y427013D01*
X327659Y426942D01*
X327711Y426874D01*
X327765Y426809D01*
X327823Y426746D01*
X327884Y426685D01*
X327947Y426627D01*
X328012Y426573D01*
X328080Y426521D01*
X328151Y426472D01*
X328223Y426427D01*
X328297Y426384D01*
X328373Y426346D01*
X328451Y426310D01*
X328531Y426278D01*
X328611Y426250D01*
X328693Y426226D01*
X328776Y426205D01*
X328860Y426188D01*
X328944Y426174D01*
X329029Y426165D01*
X329115Y426159D01*
X329200Y426157D01*
X329285Y426159D01*
X329371Y426165D01*
X329456Y426174D01*
X329540Y426188D01*
X329624Y426205D01*
X329707Y426226D01*
X329789Y426250D01*
X329869Y426278D01*
X329949Y426310D01*
X330027Y426346D01*
X330103Y426384D01*
X330177Y426427D01*
X330249Y426472D01*
X330320Y426521D01*
X330388Y426573D01*
X330453Y426627D01*
X330516Y426685D01*
X330577Y426746D01*
X330635Y426809D01*
X330689Y426874D01*
X330741Y426942D01*
X330790Y427013D01*
X330835Y427085D01*
X330878Y427159D01*
X330916Y427235D01*
X330952Y427313D01*
X330984Y427393D01*
X331012Y427473D01*
X331036Y427555D01*
X331057Y427638D01*
X331074Y427722D01*
X331088Y427806D01*
X331097Y427891D01*
X331103Y427977D01*
X331105Y428062D01*
X368460Y426157D02*
X368460Y433015D01*
X366555Y433015D01*
X366470Y433013D01*
X366384Y433007D01*
X366299Y432998D01*
X366215Y432984D01*
X366131Y432967D01*
X366048Y432946D01*
X365966Y432922D01*
X365886Y432894D01*
X365806Y432862D01*
X365728Y432826D01*
X365652Y432788D01*
X365578Y432745D01*
X365506Y432700D01*
X365435Y432651D01*
X365367Y432599D01*
X365302Y432545D01*
X365239Y432487D01*
X365178Y432426D01*
X365120Y432363D01*
X365066Y432298D01*
X365014Y432230D01*
X364965Y432159D01*
X364920Y432087D01*
X364877Y432013D01*
X364839Y431937D01*
X364803Y431859D01*
X364771Y431779D01*
X364743Y431699D01*
X364719Y431617D01*
X364698Y431534D01*
X364681Y431450D01*
X364667Y431366D01*
X364658Y431281D01*
X364652Y431195D01*
X364650Y431110D01*
X364652Y431025D01*
X364658Y430939D01*
X364667Y430854D01*
X364681Y430770D01*
X364698Y430686D01*
X364719Y430603D01*
X364743Y430521D01*
X364771Y430441D01*
X364803Y430361D01*
X364839Y430283D01*
X364877Y430207D01*
X364920Y430133D01*
X364965Y430061D01*
X365014Y429990D01*
X365066Y429922D01*
X365120Y429857D01*
X365178Y429794D01*
X365239Y429733D01*
X365302Y429675D01*
X365367Y429621D01*
X365435Y429569D01*
X365506Y429520D01*
X365578Y429475D01*
X365652Y429432D01*
X365728Y429394D01*
X365806Y429358D01*
X365886Y429326D01*
X365966Y429298D01*
X366048Y429274D01*
X366131Y429253D01*
X366215Y429236D01*
X366299Y429222D01*
X366384Y429213D01*
X366470Y429207D01*
X366555Y429205D01*
X368460Y429205D01*
X366174Y429205D02*
X364650Y426157D01*
X361595Y426157D02*
X357023Y433015D01*
X361595Y433015D02*
X357023Y426157D01*
X353457Y426157D02*
X353457Y433015D01*
X354219Y426157D02*
X352695Y426157D01*
X352695Y433015D02*
X354219Y433015D01*
X392618Y426157D02*
X394904Y433015D01*
X390332Y433015D02*
X392618Y426157D01*
X385715Y426157D02*
X384191Y426157D01*
X385715Y426157D02*
X385792Y426159D01*
X385869Y426165D01*
X385946Y426175D01*
X386022Y426188D01*
X386097Y426206D01*
X386171Y426227D01*
X386244Y426252D01*
X386316Y426281D01*
X386386Y426313D01*
X386455Y426348D01*
X386521Y426388D01*
X386586Y426430D01*
X386648Y426476D01*
X386708Y426525D01*
X386765Y426576D01*
X386820Y426631D01*
X386871Y426688D01*
X386920Y426748D01*
X386966Y426810D01*
X387008Y426875D01*
X387048Y426941D01*
X387083Y427010D01*
X387115Y427080D01*
X387144Y427152D01*
X387169Y427225D01*
X387190Y427299D01*
X387208Y427374D01*
X387221Y427450D01*
X387231Y427527D01*
X387237Y427604D01*
X387239Y427681D01*
X387239Y431491D01*
X387237Y431568D01*
X387231Y431645D01*
X387221Y431722D01*
X387208Y431798D01*
X387190Y431873D01*
X387169Y431947D01*
X387144Y432020D01*
X387115Y432092D01*
X387083Y432162D01*
X387048Y432231D01*
X387008Y432297D01*
X386966Y432362D01*
X386920Y432424D01*
X386871Y432484D01*
X386820Y432541D01*
X386765Y432596D01*
X386708Y432647D01*
X386648Y432696D01*
X386586Y432742D01*
X386521Y432784D01*
X386455Y432824D01*
X386386Y432859D01*
X386316Y432891D01*
X386244Y432920D01*
X386171Y432945D01*
X386097Y432966D01*
X386022Y432984D01*
X385946Y432997D01*
X385869Y433007D01*
X385792Y433013D01*
X385715Y433015D01*
X384191Y433015D01*
X379619Y426157D02*
X378095Y426157D01*
X379619Y426157D02*
X379696Y426159D01*
X379773Y426165D01*
X379850Y426175D01*
X379926Y426188D01*
X380001Y426206D01*
X380075Y426227D01*
X380148Y426252D01*
X380220Y426281D01*
X380290Y426313D01*
X380359Y426348D01*
X380425Y426388D01*
X380490Y426430D01*
X380552Y426476D01*
X380612Y426525D01*
X380669Y426576D01*
X380724Y426631D01*
X380775Y426688D01*
X380824Y426748D01*
X380870Y426810D01*
X380912Y426875D01*
X380952Y426941D01*
X380987Y427010D01*
X381019Y427080D01*
X381048Y427152D01*
X381073Y427225D01*
X381094Y427299D01*
X381112Y427374D01*
X381125Y427450D01*
X381135Y427527D01*
X381141Y427604D01*
X381143Y427681D01*
X381143Y431491D01*
X381141Y431568D01*
X381135Y431645D01*
X381125Y431722D01*
X381112Y431798D01*
X381094Y431873D01*
X381073Y431947D01*
X381048Y432020D01*
X381019Y432092D01*
X380987Y432162D01*
X380952Y432231D01*
X380912Y432297D01*
X380870Y432362D01*
X380824Y432424D01*
X380775Y432484D01*
X380724Y432541D01*
X380669Y432596D01*
X380612Y432647D01*
X380552Y432696D01*
X380490Y432742D01*
X380425Y432784D01*
X380359Y432824D01*
X380290Y432859D01*
X380220Y432891D01*
X380148Y432920D01*
X380075Y432945D01*
X380001Y432966D01*
X379926Y432984D01*
X379850Y432997D01*
X379773Y433007D01*
X379696Y433013D01*
X379619Y433015D01*
X378095Y433015D01*
X319917Y433015D02*
X319917Y426157D01*
X319917Y433015D02*
X318012Y433015D01*
X317927Y433013D01*
X317841Y433007D01*
X317756Y432998D01*
X317672Y432984D01*
X317588Y432967D01*
X317505Y432946D01*
X317423Y432922D01*
X317343Y432894D01*
X317263Y432862D01*
X317185Y432826D01*
X317109Y432788D01*
X317035Y432745D01*
X316963Y432700D01*
X316892Y432651D01*
X316824Y432599D01*
X316759Y432545D01*
X316696Y432487D01*
X316635Y432426D01*
X316577Y432363D01*
X316523Y432298D01*
X316471Y432230D01*
X316422Y432159D01*
X316377Y432087D01*
X316334Y432013D01*
X316296Y431937D01*
X316260Y431859D01*
X316228Y431779D01*
X316200Y431699D01*
X316176Y431617D01*
X316155Y431534D01*
X316138Y431450D01*
X316124Y431366D01*
X316115Y431281D01*
X316109Y431195D01*
X316107Y431110D01*
X316107Y428062D01*
X316109Y427977D01*
X316115Y427891D01*
X316124Y427806D01*
X316138Y427722D01*
X316155Y427638D01*
X316176Y427555D01*
X316200Y427473D01*
X316228Y427393D01*
X316260Y427313D01*
X316296Y427235D01*
X316334Y427159D01*
X316377Y427085D01*
X316422Y427013D01*
X316471Y426942D01*
X316523Y426874D01*
X316577Y426809D01*
X316635Y426746D01*
X316696Y426685D01*
X316759Y426627D01*
X316824Y426573D01*
X316892Y426521D01*
X316963Y426472D01*
X317035Y426427D01*
X317109Y426384D01*
X317185Y426346D01*
X317263Y426310D01*
X317343Y426278D01*
X317423Y426250D01*
X317505Y426226D01*
X317588Y426205D01*
X317672Y426188D01*
X317756Y426174D01*
X317841Y426165D01*
X317927Y426159D01*
X318012Y426157D01*
X319917Y426157D01*
X310941Y426157D02*
X310941Y433015D01*
X312846Y433015D02*
X309036Y433015D01*
X305705Y433015D02*
X305705Y426157D01*
X305705Y433015D02*
X303800Y433015D01*
X303715Y433013D01*
X303629Y433007D01*
X303544Y432998D01*
X303460Y432984D01*
X303376Y432967D01*
X303293Y432946D01*
X303211Y432922D01*
X303131Y432894D01*
X303051Y432862D01*
X302973Y432826D01*
X302897Y432788D01*
X302823Y432745D01*
X302751Y432700D01*
X302680Y432651D01*
X302612Y432599D01*
X302547Y432545D01*
X302484Y432487D01*
X302423Y432426D01*
X302365Y432363D01*
X302311Y432298D01*
X302259Y432230D01*
X302210Y432159D01*
X302165Y432087D01*
X302122Y432013D01*
X302084Y431937D01*
X302048Y431859D01*
X302016Y431779D01*
X301988Y431699D01*
X301964Y431617D01*
X301943Y431534D01*
X301926Y431450D01*
X301912Y431366D01*
X301903Y431281D01*
X301897Y431195D01*
X301895Y431110D01*
X301897Y431025D01*
X301903Y430939D01*
X301912Y430854D01*
X301926Y430770D01*
X301943Y430686D01*
X301964Y430603D01*
X301988Y430521D01*
X302016Y430441D01*
X302048Y430361D01*
X302084Y430283D01*
X302122Y430207D01*
X302165Y430133D01*
X302210Y430061D01*
X302259Y429990D01*
X302311Y429922D01*
X302365Y429857D01*
X302423Y429794D01*
X302484Y429733D01*
X302547Y429675D01*
X302612Y429621D01*
X302680Y429569D01*
X302751Y429520D01*
X302823Y429475D01*
X302897Y429432D01*
X302973Y429394D01*
X303051Y429358D01*
X303131Y429326D01*
X303211Y429298D01*
X303293Y429274D01*
X303376Y429253D01*
X303460Y429236D01*
X303544Y429222D01*
X303629Y429213D01*
X303715Y429207D01*
X303800Y429205D01*
X305705Y429205D01*
X303419Y429205D02*
X301895Y426157D01*
X444501Y429967D02*
X445644Y429967D01*
X444501Y429967D02*
X444501Y426157D01*
X446787Y426157D01*
X446864Y426159D01*
X446941Y426165D01*
X447018Y426175D01*
X447094Y426188D01*
X447169Y426206D01*
X447243Y426227D01*
X447316Y426252D01*
X447388Y426281D01*
X447458Y426313D01*
X447527Y426348D01*
X447593Y426388D01*
X447658Y426430D01*
X447720Y426476D01*
X447780Y426525D01*
X447837Y426576D01*
X447892Y426631D01*
X447943Y426688D01*
X447992Y426748D01*
X448038Y426810D01*
X448080Y426875D01*
X448120Y426941D01*
X448155Y427010D01*
X448187Y427080D01*
X448216Y427152D01*
X448241Y427225D01*
X448262Y427299D01*
X448280Y427374D01*
X448293Y427450D01*
X448303Y427527D01*
X448309Y427604D01*
X448311Y427681D01*
X448311Y431491D01*
X448309Y431568D01*
X448303Y431645D01*
X448293Y431722D01*
X448280Y431798D01*
X448262Y431873D01*
X448241Y431947D01*
X448216Y432020D01*
X448187Y432092D01*
X448155Y432162D01*
X448120Y432231D01*
X448080Y432297D01*
X448038Y432362D01*
X447992Y432424D01*
X447943Y432484D01*
X447892Y432541D01*
X447837Y432596D01*
X447780Y432647D01*
X447720Y432696D01*
X447658Y432742D01*
X447593Y432784D01*
X447527Y432824D01*
X447458Y432859D01*
X447388Y432891D01*
X447316Y432920D01*
X447243Y432945D01*
X447169Y432966D01*
X447094Y432984D01*
X447018Y432997D01*
X446941Y433007D01*
X446864Y433013D01*
X446787Y433015D01*
X444501Y433015D01*
X440508Y433015D02*
X440508Y426157D01*
X436698Y426157D02*
X440508Y433015D01*
X436698Y433015D02*
X436698Y426157D01*
X432705Y426157D02*
X432705Y433015D01*
X430800Y433015D01*
X430715Y433013D01*
X430629Y433007D01*
X430544Y432998D01*
X430460Y432984D01*
X430376Y432967D01*
X430293Y432946D01*
X430211Y432922D01*
X430131Y432894D01*
X430051Y432862D01*
X429973Y432826D01*
X429897Y432788D01*
X429823Y432745D01*
X429751Y432700D01*
X429680Y432651D01*
X429612Y432599D01*
X429547Y432545D01*
X429484Y432487D01*
X429423Y432426D01*
X429365Y432363D01*
X429311Y432298D01*
X429259Y432230D01*
X429210Y432159D01*
X429165Y432087D01*
X429122Y432013D01*
X429084Y431937D01*
X429048Y431859D01*
X429016Y431779D01*
X428988Y431699D01*
X428964Y431617D01*
X428943Y431534D01*
X428926Y431450D01*
X428912Y431366D01*
X428903Y431281D01*
X428897Y431195D01*
X428895Y431110D01*
X428895Y428062D01*
X428897Y427977D01*
X428903Y427891D01*
X428912Y427806D01*
X428926Y427722D01*
X428943Y427638D01*
X428964Y427555D01*
X428988Y427473D01*
X429016Y427393D01*
X429048Y427313D01*
X429084Y427235D01*
X429122Y427159D01*
X429165Y427085D01*
X429210Y427013D01*
X429259Y426942D01*
X429311Y426874D01*
X429365Y426809D01*
X429423Y426746D01*
X429484Y426685D01*
X429547Y426627D01*
X429612Y426573D01*
X429680Y426521D01*
X429751Y426472D01*
X429823Y426427D01*
X429897Y426384D01*
X429973Y426346D01*
X430051Y426310D01*
X430131Y426278D01*
X430211Y426250D01*
X430293Y426226D01*
X430376Y426205D01*
X430460Y426188D01*
X430544Y426174D01*
X430629Y426165D01*
X430715Y426159D01*
X430800Y426157D01*
X432705Y426157D01*
X418004Y426157D02*
X416480Y426157D01*
X418004Y426157D02*
X418081Y426159D01*
X418158Y426165D01*
X418235Y426175D01*
X418311Y426188D01*
X418386Y426206D01*
X418460Y426227D01*
X418533Y426252D01*
X418605Y426281D01*
X418675Y426313D01*
X418744Y426348D01*
X418810Y426388D01*
X418875Y426430D01*
X418937Y426476D01*
X418997Y426525D01*
X419054Y426576D01*
X419109Y426631D01*
X419160Y426688D01*
X419209Y426748D01*
X419255Y426810D01*
X419297Y426875D01*
X419337Y426941D01*
X419372Y427010D01*
X419404Y427080D01*
X419433Y427152D01*
X419458Y427225D01*
X419479Y427299D01*
X419497Y427374D01*
X419510Y427450D01*
X419520Y427527D01*
X419526Y427604D01*
X419528Y427681D01*
X419528Y431491D01*
X419526Y431568D01*
X419520Y431645D01*
X419510Y431722D01*
X419497Y431798D01*
X419479Y431873D01*
X419458Y431947D01*
X419433Y432020D01*
X419404Y432092D01*
X419372Y432162D01*
X419337Y432231D01*
X419297Y432297D01*
X419255Y432362D01*
X419209Y432424D01*
X419160Y432484D01*
X419109Y432541D01*
X419054Y432596D01*
X418997Y432647D01*
X418937Y432696D01*
X418875Y432742D01*
X418810Y432784D01*
X418744Y432824D01*
X418675Y432859D01*
X418605Y432891D01*
X418533Y432920D01*
X418460Y432945D01*
X418386Y432966D01*
X418311Y432984D01*
X418235Y432997D01*
X418158Y433007D01*
X418081Y433013D01*
X418004Y433015D01*
X416480Y433015D01*
X411984Y433015D02*
X411984Y426157D01*
X413889Y433015D02*
X410079Y433015D01*
X403495Y427681D02*
X403497Y427604D01*
X403503Y427527D01*
X403513Y427450D01*
X403526Y427374D01*
X403544Y427299D01*
X403565Y427225D01*
X403590Y427152D01*
X403619Y427080D01*
X403651Y427010D01*
X403686Y426941D01*
X403726Y426875D01*
X403768Y426810D01*
X403814Y426748D01*
X403863Y426688D01*
X403914Y426631D01*
X403969Y426576D01*
X404026Y426525D01*
X404086Y426476D01*
X404148Y426430D01*
X404213Y426388D01*
X404279Y426348D01*
X404348Y426313D01*
X404418Y426281D01*
X404490Y426252D01*
X404563Y426227D01*
X404637Y426206D01*
X404712Y426188D01*
X404788Y426175D01*
X404865Y426165D01*
X404942Y426159D01*
X405019Y426157D01*
X405129Y426159D01*
X405240Y426165D01*
X405350Y426174D01*
X405460Y426187D01*
X405569Y426204D01*
X405677Y426225D01*
X405785Y426249D01*
X405892Y426278D01*
X405998Y426309D01*
X406102Y426345D01*
X406206Y426384D01*
X406308Y426426D01*
X406408Y426472D01*
X406507Y426522D01*
X406604Y426574D01*
X406700Y426631D01*
X406793Y426690D01*
X406884Y426752D01*
X406973Y426818D01*
X407060Y426886D01*
X407144Y426958D01*
X407226Y427032D01*
X407305Y427109D01*
X407115Y431491D02*
X407113Y431568D01*
X407107Y431645D01*
X407097Y431722D01*
X407084Y431798D01*
X407066Y431873D01*
X407045Y431947D01*
X407020Y432020D01*
X406991Y432092D01*
X406959Y432162D01*
X406924Y432231D01*
X406884Y432297D01*
X406842Y432362D01*
X406796Y432424D01*
X406747Y432484D01*
X406696Y432541D01*
X406641Y432596D01*
X406584Y432647D01*
X406524Y432696D01*
X406462Y432742D01*
X406397Y432784D01*
X406331Y432824D01*
X406262Y432859D01*
X406192Y432891D01*
X406120Y432920D01*
X406047Y432945D01*
X405973Y432966D01*
X405898Y432984D01*
X405822Y432997D01*
X405745Y433007D01*
X405668Y433013D01*
X405591Y433015D01*
X405591Y433016D02*
X405489Y433014D01*
X405387Y433009D01*
X405285Y433000D01*
X405184Y432987D01*
X405083Y432970D01*
X404983Y432951D01*
X404883Y432927D01*
X404785Y432900D01*
X404687Y432869D01*
X404591Y432835D01*
X404496Y432798D01*
X404402Y432757D01*
X404310Y432713D01*
X404220Y432665D01*
X404131Y432615D01*
X404044Y432561D01*
X403959Y432504D01*
X403876Y432444D01*
X406353Y430157D02*
X406418Y430198D01*
X406481Y430241D01*
X406541Y430288D01*
X406600Y430338D01*
X406655Y430390D01*
X406708Y430445D01*
X406759Y430503D01*
X406806Y430563D01*
X406850Y430626D01*
X406892Y430690D01*
X406930Y430756D01*
X406964Y430825D01*
X406995Y430895D01*
X407023Y430966D01*
X407047Y431038D01*
X407068Y431112D01*
X407085Y431187D01*
X407098Y431262D01*
X407107Y431338D01*
X407113Y431414D01*
X407115Y431491D01*
X404257Y429015D02*
X404192Y428974D01*
X404129Y428931D01*
X404069Y428884D01*
X404010Y428834D01*
X403955Y428782D01*
X403902Y428727D01*
X403851Y428669D01*
X403804Y428609D01*
X403760Y428546D01*
X403718Y428482D01*
X403680Y428416D01*
X403646Y428347D01*
X403615Y428277D01*
X403587Y428206D01*
X403563Y428134D01*
X403542Y428060D01*
X403525Y427985D01*
X403512Y427910D01*
X403503Y427834D01*
X403497Y427758D01*
X403495Y427681D01*
X404257Y429015D02*
X406353Y430158D01*
X321782Y419967D02*
X321782Y411077D01*
X321784Y410977D01*
X321790Y410878D01*
X321800Y410778D01*
X321813Y410680D01*
X321831Y410581D01*
X321852Y410484D01*
X321877Y410388D01*
X321906Y410292D01*
X321939Y410198D01*
X321975Y410105D01*
X322015Y410014D01*
X322059Y409924D01*
X322106Y409836D01*
X322156Y409750D01*
X322210Y409666D01*
X322267Y409584D01*
X322327Y409505D01*
X322391Y409427D01*
X322457Y409353D01*
X322526Y409281D01*
X322598Y409212D01*
X322672Y409146D01*
X322750Y409082D01*
X322829Y409022D01*
X322911Y408965D01*
X322995Y408911D01*
X323081Y408861D01*
X323169Y408814D01*
X323259Y408770D01*
X323350Y408730D01*
X323443Y408694D01*
X323537Y408661D01*
X323633Y408632D01*
X323729Y408607D01*
X323826Y408586D01*
X323925Y408568D01*
X324023Y408555D01*
X324123Y408545D01*
X324222Y408539D01*
X324322Y408537D01*
X325592Y408537D01*
X315802Y408537D02*
X315802Y419967D01*
X312627Y419967D01*
X312516Y419965D01*
X312406Y419959D01*
X312295Y419950D01*
X312185Y419936D01*
X312076Y419919D01*
X311967Y419898D01*
X311859Y419873D01*
X311752Y419844D01*
X311646Y419812D01*
X311541Y419776D01*
X311438Y419736D01*
X311336Y419693D01*
X311235Y419646D01*
X311136Y419595D01*
X311040Y419542D01*
X310945Y419485D01*
X310852Y419424D01*
X310761Y419361D01*
X310672Y419294D01*
X310586Y419224D01*
X310503Y419151D01*
X310421Y419076D01*
X310343Y418998D01*
X310268Y418916D01*
X310195Y418833D01*
X310125Y418747D01*
X310058Y418658D01*
X309995Y418567D01*
X309934Y418474D01*
X309877Y418380D01*
X309824Y418283D01*
X309773Y418184D01*
X309726Y418083D01*
X309683Y417981D01*
X309643Y417878D01*
X309607Y417773D01*
X309575Y417667D01*
X309546Y417560D01*
X309521Y417452D01*
X309500Y417343D01*
X309483Y417234D01*
X309469Y417124D01*
X309460Y417013D01*
X309454Y416903D01*
X309452Y416792D01*
X309454Y416681D01*
X309460Y416571D01*
X309469Y416460D01*
X309483Y416350D01*
X309500Y416241D01*
X309521Y416132D01*
X309546Y416024D01*
X309575Y415917D01*
X309607Y415811D01*
X309643Y415706D01*
X309683Y415603D01*
X309726Y415501D01*
X309773Y415400D01*
X309824Y415301D01*
X309877Y415205D01*
X309934Y415110D01*
X309995Y415017D01*
X310058Y414926D01*
X310125Y414837D01*
X310195Y414751D01*
X310268Y414668D01*
X310343Y414586D01*
X310421Y414508D01*
X310503Y414433D01*
X310586Y414360D01*
X310672Y414290D01*
X310761Y414223D01*
X310852Y414160D01*
X310945Y414099D01*
X311040Y414042D01*
X311136Y413989D01*
X311235Y413938D01*
X311336Y413891D01*
X311438Y413848D01*
X311541Y413808D01*
X311646Y413772D01*
X311752Y413740D01*
X311859Y413711D01*
X311967Y413686D01*
X312076Y413665D01*
X312185Y413648D01*
X312295Y413634D01*
X312406Y413625D01*
X312516Y413619D01*
X312627Y413617D01*
X315802Y413617D01*
X304943Y417427D02*
X301768Y419967D01*
X301768Y408537D01*
X304943Y408537D02*
X298593Y408537D01*
M02*
