G04 EAGLE Gerber RS-274X export*
G75*
%MOMM*%
%FSLAX34Y34*%
%LPD*%
%INSoldermask Bottom*%
%IPPOS*%
%AMOC8*
5,1,8,0,0,1.08239X$1,22.5*%
G01*
%ADD10C,2.203200*%
%ADD11R,2.213200X2.213200*%
%ADD12C,2.213200*%
%ADD13R,1.778200X1.778200*%
%ADD14C,1.778200*%
%ADD15C,2.153200*%
%ADD16R,2.228200X2.228200*%
%ADD17C,2.228200*%
%ADD18C,1.711200*%
%ADD19C,2.003200*%
%ADD20C,1.611200*%
%ADD21R,1.696200X1.696200*%
%ADD22C,1.696200*%
%ADD23C,1.511200*%
%ADD24R,1.561200X1.561200*%
%ADD25C,1.561200*%
%ADD26C,2.082800*%


D10*
X30000Y30000D03*
X480000Y30000D03*
X480000Y540000D03*
X30000Y540000D03*
D11*
X77190Y467320D03*
D12*
X77190Y416320D03*
X159690Y416320D03*
X159690Y467320D03*
D13*
X18830Y502400D03*
D14*
X18830Y361400D03*
D13*
X49610Y502400D03*
D14*
X49610Y361400D03*
D13*
X312450Y390130D03*
D14*
X312450Y249130D03*
D13*
X338370Y362530D03*
D14*
X338370Y221530D03*
D15*
X131430Y529120D03*
X96430Y529120D03*
D16*
X74650Y42220D03*
D17*
X109650Y42220D03*
X144650Y42220D03*
X179650Y42220D03*
X214650Y42220D03*
X249650Y42220D03*
X284650Y42220D03*
X319650Y42220D03*
X354650Y42220D03*
D18*
X50000Y279880D03*
X50000Y254480D03*
D19*
X50000Y152880D03*
X50000Y102080D03*
D18*
X110000Y279880D03*
X110000Y254480D03*
D19*
X110000Y152880D03*
X110000Y102080D03*
D18*
X170000Y279880D03*
X170000Y254480D03*
D19*
X170000Y152880D03*
X170000Y102080D03*
D18*
X230000Y279880D03*
X230000Y254480D03*
D19*
X230000Y152880D03*
X230000Y102080D03*
D20*
X220950Y527560D03*
X220950Y502160D03*
X220950Y451360D03*
X220950Y400560D03*
D21*
X19580Y320000D03*
D22*
X45580Y320000D03*
X71580Y320000D03*
D21*
X96680Y320000D03*
D22*
X122680Y320000D03*
X148680Y320000D03*
D21*
X174310Y320000D03*
D22*
X200310Y320000D03*
X226310Y320000D03*
D21*
X278300Y214730D03*
D22*
X278300Y188730D03*
X278300Y162730D03*
D20*
X368190Y166230D03*
X368190Y319230D03*
X394150Y166070D03*
X394150Y319070D03*
X419580Y166050D03*
X419580Y319050D03*
X457000Y166050D03*
X457000Y319050D03*
D23*
X273540Y485130D03*
X273540Y465130D03*
X273540Y445130D03*
X273540Y425130D03*
X273540Y405130D03*
X273540Y385130D03*
X273540Y365130D03*
X273540Y345130D03*
X273540Y325130D03*
X273540Y305130D03*
X493540Y305130D03*
X493540Y325130D03*
X493540Y345130D03*
X493540Y365130D03*
X493540Y385130D03*
X493540Y405130D03*
X493540Y425130D03*
X493540Y445130D03*
X493540Y465130D03*
X493540Y485130D03*
D24*
X143830Y344990D03*
D25*
X93830Y344990D03*
D24*
X257000Y502320D03*
D25*
X257000Y527720D03*
D26*
X311420Y448890D03*
X336820Y448890D03*
X362220Y448890D03*
X387620Y448890D03*
X413020Y448890D03*
X438420Y448890D03*
X236510Y360000D03*
X211110Y360000D03*
M02*
